<svg width="338" height="631" viewBox="0 0 338 631" fill="none" xmlns="http://www.w3.org/2000/svg">
<path d="M165.185 148.375C230.058 148.375 282.65 201.118 282.65 266.183C282.65 331.247 230.058 383.99 165.185 383.99C100.311 383.99 47.7188 331.247 47.7188 266.183C47.7188 201.118 100.311 148.375 165.185 148.375Z" fill="#DF3920" stroke="#EFE1D6" stroke-width="0.75"/>
<path d="M81.1684 261.767V245.327H77.1184V241.967H88.9084V245.327H84.8584V261.767H81.1684ZM98.6602 241.967H102.47L97.9102 257.327C96.8602 260.777 95.5702 262.037 93.0202 262.037C92.3902 262.037 91.8202 261.977 91.1602 261.797V258.647C91.5502 258.677 91.8502 258.707 92.2402 258.707C93.2602 258.707 93.8602 258.257 94.3102 257.087L89.2402 241.967H93.1702L96.0502 251.567L98.6602 241.967ZM103.802 261.767V241.967H109.112C113.222 241.967 115.562 244.277 115.562 248.297C115.562 252.347 113.192 254.657 109.112 254.657H107.492V261.767H103.802ZM107.492 251.357H109.142C110.942 251.357 111.842 250.337 111.842 248.327C111.842 246.257 110.942 245.267 109.142 245.267H107.492V251.357ZM127.685 241.967H129.605V261.767H125.945V250.847L119.375 261.767H117.425V241.967H121.145V252.707L127.685 241.967ZM137.919 262.127C133.719 262.127 131.709 258.767 131.709 251.867C131.709 244.937 133.719 241.607 137.919 241.607C141.039 241.607 142.809 243.287 143.499 247.067L140.229 247.907C139.839 245.897 139.149 244.997 137.949 244.997C136.179 244.997 135.429 247.007 135.429 251.867C135.429 256.727 136.179 258.737 137.949 258.737C139.149 258.737 139.839 257.837 140.229 255.827L143.499 256.667C142.809 260.447 141.039 262.127 137.919 262.127ZM148.463 261.767V245.327H144.413V241.967H156.203V245.327H152.153V261.767H148.463ZM168.115 241.967H170.035V261.767H166.375V250.847L159.805 261.767H157.855V241.967H161.575V252.707L168.115 241.967ZM180.449 241.967H184.109V261.767H180.449V254.447C179.519 254.747 178.589 254.897 177.659 254.897C174.209 254.897 172.169 252.737 172.169 248.987V241.967H175.829V248.717C175.829 250.577 176.639 251.507 178.259 251.507C179.009 251.507 179.729 251.357 180.449 251.057V241.967ZM186.771 261.767V241.967H196.281V245.267H190.461V249.737H194.841V252.917H190.461V258.437H196.551V261.767H186.771ZM203.983 262.127C199.783 262.127 197.773 258.767 197.773 251.867C197.773 244.937 199.783 241.607 203.983 241.607C207.103 241.607 208.873 243.287 209.563 247.067L206.293 247.907C205.903 245.897 205.213 244.997 204.013 244.997C202.243 244.997 201.493 247.007 201.493 251.867C201.493 256.727 202.243 258.737 204.013 258.737C205.213 258.737 205.903 257.837 206.293 255.827L209.563 256.667C208.873 260.447 207.103 262.127 203.983 262.127ZM224.278 261.767H220.198L215.188 251.687V261.767H211.498V241.967H215.188V250.877L219.928 241.967H224.008L219.058 251.267L224.278 261.767ZM236.055 241.967H237.975V261.767H234.315V250.847L227.745 261.767H225.795V241.967H229.515V252.707L236.055 241.967ZM246.828 239.867C244.278 239.867 242.778 238.367 242.778 235.787V234.467H245.538V235.787C245.538 236.687 246.018 237.227 246.828 237.227C247.578 237.227 248.058 236.717 248.058 235.787V234.467H250.818V235.787C250.818 238.367 249.348 239.867 246.828 239.867ZM250.908 241.967H252.828V261.767H249.168V250.847L242.598 261.767H240.648V241.967H244.368V252.707L250.908 241.967ZM117.924 299.767V279.967H129.894V299.767H126.204V283.327H121.584V299.767H117.924ZM132.543 299.767V279.967H137.853C141.963 279.967 144.303 282.277 144.303 286.297C144.303 290.347 141.933 292.657 137.853 292.657H136.233V299.767H132.543ZM136.233 289.357H137.883C139.683 289.357 140.583 288.337 140.583 286.327C140.583 284.257 139.683 283.267 137.883 283.267H136.233V289.357ZM151.896 300.127C147.606 300.127 145.596 296.827 145.596 289.807C145.596 282.877 147.606 279.607 151.896 279.607C156.246 279.607 158.286 282.847 158.286 289.777C158.286 296.767 156.216 300.127 151.896 300.127ZM151.896 296.737C153.816 296.737 154.566 294.817 154.566 289.867C154.566 284.887 153.816 282.997 151.896 282.997C150.036 282.997 149.316 284.827 149.316 289.807C149.316 294.847 150.036 296.737 151.896 296.737ZM172.535 296.407H174.305V303.997H170.615V299.767H162.665V303.997H159.005V296.407H160.115C160.925 295.327 161.255 292.567 161.315 287.467L161.435 279.967H172.535V296.407ZM164.795 287.497C164.735 291.787 164.405 294.547 163.625 296.407H168.875V283.327H164.885L164.795 287.497ZM183.856 279.967H187.666L183.106 295.327C182.056 298.777 180.766 300.037 178.216 300.037C177.586 300.037 177.016 299.977 176.356 299.797V296.647C176.746 296.677 177.046 296.707 177.436 296.707C178.456 296.707 179.056 296.257 179.506 295.087L174.436 279.967H178.366L181.246 289.567L183.856 279.967ZM201.778 299.767H197.698L192.688 289.687V299.767H188.998V279.967H192.688V288.877L197.428 279.967H201.508L196.558 289.267L201.778 299.767ZM206.325 299.767V283.327H202.275V279.967H214.065V283.327H210.015V299.767H206.325Z" fill="#EFE0D5"/>
<path d="M59.2253 25V13.8H67.8653V25H65.7853V15.72H61.3053V25H59.2253ZM70.4284 25V13.8H74.6524C76.9404 13.8 78.1564 15.16 78.1564 17.208C78.1564 19.256 76.9404 20.616 74.6524 20.616H72.5084V25H70.4284ZM72.5084 18.696H74.5724C75.5164 18.696 76.0444 18.216 76.0444 17.208C76.0444 16.2 75.5164 15.72 74.5724 15.72H72.5084V18.696ZM79.9753 25V13.8H82.0553V21.448L86.7113 13.8H88.7433V25H86.6633V17.352L82.0073 25H79.9753ZM90.2828 27.144V23.08H91.2748C91.5308 22.744 91.7228 22.344 91.8508 21.848C91.9948 21.352 92.1068 20.584 92.1868 19.576L92.6828 13.8H100.139V23.08H101.387V27.144H99.3868V25H92.2828V27.144H90.2828ZM93.4348 23.08H98.0588V15.72H94.4748L94.1548 19.656C94.0748 20.648 93.9788 21.4 93.8668 21.896C93.7548 22.392 93.6108 22.776 93.4348 23.08ZM108.464 13.8H110.56L105.696 25H103.648L105.12 21.576L101.824 13.8H104L106.208 19.048L108.464 13.8ZM111.835 25V13.8H114.171L116.811 20.792L119.451 13.8H121.787V25H119.707V18.088L117.563 23.976H116.059L113.915 18.088V25H111.835ZM124.35 25V13.8H126.43V17.8H128.414C130.798 17.8 132.078 19.224 132.078 21.4C132.078 23.528 130.798 25 128.414 25H124.35ZM126.43 23.08H128.334C129.358 23.08 129.966 22.504 129.966 21.4C129.966 20.312 129.358 19.72 128.334 19.72H126.43V23.08ZM133.262 25V13.8H135.342V25H133.262ZM137.897 25V13.8H141.993C143.961 13.8 145.193 14.84 145.193 16.824C145.193 17.736 144.793 18.52 144.089 18.888C145.209 19.352 145.769 20.264 145.769 21.624C145.769 23.784 144.377 25 142.073 25H137.897ZM139.977 18.152H141.881C142.761 18.152 143.193 17.816 143.193 16.936C143.193 16.056 142.745 15.72 141.833 15.72H139.977V18.152ZM139.977 23.08H141.881C143.145 23.08 143.689 22.552 143.689 21.576C143.689 20.6 143.145 20.072 141.881 20.072H139.977V23.08ZM146.387 25L150.179 13.8H152.259L156.051 25H153.811L152.995 22.36H149.443L148.627 25H146.387ZM150.035 20.44H152.403L151.219 16.552L150.035 20.44ZM157.491 25V13.8H164.419V15.72H159.571V18.072H163.459V19.992H159.571V23.08H164.579V25H157.491ZM166.6 25V13.8H168.936L171.576 20.792L174.216 13.8H176.552V25H174.472V18.088L172.328 23.976H170.824L168.68 18.088V25H166.6ZM183.085 25V13.8H185.165V17.96L188.989 13.8H191.549L187.005 18.808L191.869 25H189.229L185.165 19.656V25H183.085ZM192.056 19.4C192.056 15.624 194.424 13.672 197.336 13.672C200.248 13.672 202.616 15.624 202.616 19.4C202.616 23.176 200.248 25.128 197.336 25.128C194.424 25.128 192.056 23.176 192.056 19.4ZM200.504 19.4C200.504 16.808 199.08 15.592 197.336 15.592C195.592 15.592 194.168 16.808 194.168 19.4C194.168 21.992 195.592 23.208 197.336 23.208C199.08 23.208 200.504 21.992 200.504 19.4ZM204.632 25V13.8H206.712V18.056H211.192V13.8H213.272V25H211.192V19.976H206.712V25H204.632ZM223.563 27.144V25H215.835V13.8H217.915V23.08H222.235V13.8H224.315V23.08H225.563V27.144H223.563ZM227.1 25V13.8H234.028V15.72H229.18V18.072H233.068V19.992H229.18V23.08H234.188V25H227.1ZM236.21 25V13.8H244.85V25H242.77V15.72H238.29V25H236.21ZM255.141 27.144V25H247.413V13.8H249.493V23.08H253.813V13.8H255.893V23.08H257.141V27.144H255.141ZM258.678 25V13.8H260.758V21.448L265.414 13.8H267.446V25H265.366V17.352L260.71 25H258.678ZM270.007 25V13.8H272.087V21.448L276.743 13.8H278.775V25H276.695V17.352L272.039 25H270.007ZM36.5613 41V29.8H43.5052V31.72H38.6413V41H36.5613ZM43.986 35.4C43.986 31.624 46.354 29.672 49.266 29.672C52.178 29.672 54.546 31.624 54.546 35.4C54.546 39.176 52.178 41.128 49.266 41.128C46.354 41.128 43.986 39.176 43.986 35.4ZM52.434 35.4C52.434 32.808 51.01 31.592 49.266 31.592C47.522 31.592 46.098 32.808 46.098 35.4C46.098 37.992 47.522 39.208 49.266 39.208C51.01 39.208 52.434 37.992 52.434 35.4ZM56.0173 35.4C55.9693 31.768 58.4653 29.64 61.3133 29.672C63.7453 29.672 65.4253 30.904 65.9533 33.064L64.0813 33.544C63.6173 32.312 62.7853 31.592 61.3133 31.592C59.5213 31.592 58.1293 32.888 58.1293 35.4C58.1293 37.912 59.5213 39.208 61.3133 39.208C62.7853 39.208 63.6173 38.488 64.0813 37.256L65.9533 37.736C65.4253 39.896 63.7453 41.128 61.3133 41.128C58.4653 41.16 55.9693 39.032 56.0173 35.4ZM69.8478 41V31.72H66.7278V29.8H75.0478V31.72H71.9278V41H69.8478ZM76.405 41V29.8H83.333V31.72H78.485V34.072H82.373V35.992H78.485V39.08H83.493V41H76.405ZM85.5144 41V29.8H89.6104C91.5784 29.8 92.8104 30.84 92.8104 32.824C92.8104 33.736 92.4104 34.52 91.7064 34.888C92.8264 35.352 93.3864 36.264 93.3864 37.624C93.3864 39.784 91.9944 41 89.6904 41H85.5144ZM87.5944 34.152H89.4984C90.3784 34.152 90.8104 33.816 90.8104 32.936C90.8104 32.056 90.3624 31.72 89.4504 31.72H87.5944V34.152ZM87.5944 39.08H89.4984C90.7624 39.08 91.3064 38.552 91.3064 37.576C91.3064 36.6 90.7624 36.072 89.4984 36.072H87.5944V39.08ZM94.7204 35.4C94.7204 31.624 97.0884 29.672 100 29.672C102.912 29.672 105.28 31.624 105.28 35.4C105.28 39.176 102.912 41.128 100 41.128C97.0884 41.128 94.7204 39.176 94.7204 35.4ZM103.168 35.4C103.168 32.808 101.744 31.592 100 31.592C98.2564 31.592 96.8324 32.808 96.8324 35.4C96.8324 37.992 98.2564 39.208 100 39.208C101.744 39.208 103.168 37.992 103.168 35.4ZM107.296 41V29.8H114.24V31.72H109.376V41H107.296ZM114.72 35.4C114.72 31.624 117.088 29.672 120 29.672C122.912 29.672 125.28 31.624 125.28 35.4C125.28 39.176 122.912 41.128 120 41.128C117.088 41.128 114.72 39.176 114.72 35.4ZM123.168 35.4C123.168 32.808 121.744 31.592 120 31.592C118.256 31.592 116.832 32.808 116.832 35.4C116.832 37.992 118.256 39.208 120 39.208C121.744 39.208 123.168 37.992 123.168 35.4ZM131.264 41V29.8H135.488C137.776 29.8 138.992 31.16 138.992 33.208C138.992 35.256 137.776 36.616 135.488 36.616H133.344V41H131.264ZM133.344 34.696H135.408C136.352 34.696 136.88 34.216 136.88 33.208C136.88 32.2 136.352 31.72 135.408 31.72H133.344V34.696ZM138.379 41L142.171 29.8H144.251L148.043 41H145.803L144.987 38.36H141.435L140.619 41H138.379ZM142.027 36.44H144.395L143.211 32.552L142.027 36.44ZM148.875 37.944L150.875 37.304C151.051 38.472 151.931 39.272 153.003 39.272C154.219 39.272 154.955 38.568 154.955 37.496C154.955 36.408 153.963 35.912 152.763 35.912H152.027V34.184H152.667C153.867 34.184 154.587 33.704 154.587 32.744C154.587 31.976 153.931 31.432 152.971 31.432C152.011 31.432 151.355 32.008 151.147 32.968L149.387 32.616C149.515 31.768 149.899 31.064 150.539 30.504C151.179 29.944 151.995 29.672 152.971 29.672C155.227 29.672 156.475 30.744 156.475 32.536C156.475 33.672 155.883 34.456 154.987 34.92C156.155 35.304 157.003 36.328 157.003 37.624C157.003 39.64 155.483 41.128 153.035 41.128C150.859 41.128 149.307 39.88 148.875 37.944ZM158.952 41V29.8H161.288L163.928 36.792L166.568 29.8H168.904V41H166.824V34.088L164.68 39.976H163.176L161.032 34.088V41H158.952ZM171.468 41V29.8H178.396V31.72H173.548V34.072H177.436V35.992H173.548V39.08H178.556V41H171.468ZM192.817 43.144V41H180.577V29.8H182.657V39.08H186.033V29.8H188.113V39.08H191.489V29.8H193.569V39.08H194.817V43.144H192.817ZM196.358 41V29.8H203.286V31.72H198.438V34.072H202.326V35.992H198.438V39.08H203.446V41H196.358ZM205.468 41V29.8H207.548V34.056H212.028V29.8H214.108V41H212.028V35.976H207.548V41H205.468ZM216.671 41V29.8H218.751V37.448L223.407 29.8H225.439V41H223.359V33.352L218.703 41H216.671ZM231.459 29.8H235.379V41H233.299V36.392H232.307L229.203 41H226.883L230.099 36.216C228.643 35.816 227.891 34.696 227.891 33.144C227.891 31.144 229.139 29.8 231.459 29.8ZM233.299 34.568V31.72H231.523C230.611 31.72 229.971 32.2 229.971 33.144C229.971 34.152 230.579 34.568 231.523 34.568H233.299ZM241.905 41V29.8H246.129C248.417 29.8 249.633 31.16 249.633 33.208C249.633 35.256 248.417 36.616 246.129 36.616H243.985V41H241.905ZM243.985 34.696H246.049C246.993 34.696 247.521 34.216 247.521 33.208C247.521 32.2 246.993 31.72 246.049 31.72H243.985V34.696ZM249.019 41L252.811 29.8H254.891L258.683 41H256.443L255.627 38.36H252.075L251.259 41H249.019ZM252.667 36.44H255.035L253.851 32.552L252.667 36.44ZM259.516 37.944L261.516 37.304C261.692 38.472 262.572 39.272 263.644 39.272C264.86 39.272 265.596 38.568 265.596 37.496C265.596 36.408 264.604 35.912 263.404 35.912H262.668V34.184H263.308C264.508 34.184 265.228 33.704 265.228 32.744C265.228 31.976 264.572 31.432 263.612 31.432C262.652 31.432 261.996 32.008 261.788 32.968L260.028 32.616C260.156 31.768 260.54 31.064 261.18 30.504C261.82 29.944 262.636 29.672 263.612 29.672C265.868 29.672 267.116 30.744 267.116 32.536C267.116 33.672 266.524 34.456 265.628 34.92C266.796 35.304 267.644 36.328 267.644 37.624C267.644 39.64 266.124 41.128 263.676 41.128C261.5 41.128 259.948 39.88 259.516 37.944ZM269.593 41V29.8H271.673V34.056H276.153V29.8H278.233V41H276.153V35.976H271.673V41H269.593ZM280.796 41V29.8H282.876V33.8H284.86C287.244 33.8 288.524 35.224 288.524 37.4C288.524 39.528 287.244 41 284.86 41H280.796ZM282.876 39.08H284.78C285.804 39.08 286.412 38.504 286.412 37.4C286.412 36.312 285.804 35.72 284.78 35.72H282.876V39.08ZM289.708 41V29.8H291.788V41H289.708ZM293.271 41L296.759 34.952L293.799 29.8H296.071L297.895 32.968L299.719 29.8H301.991L299.031 34.952L302.519 41H300.215L297.895 36.952L295.575 41H293.271ZM131.529 57.16V55.896C128.489 55.736 126.681 53.912 126.681 51.4C126.681 48.888 128.489 47.064 131.529 46.904V45.64H133.513V46.904C136.553 47.064 138.361 48.888 138.361 51.4C138.361 53.912 136.553 55.736 133.513 55.896V57.16H131.529ZM131.529 54.2V48.6C129.913 48.776 128.761 49.752 128.761 51.4C128.761 53.048 129.913 54.024 131.529 54.2ZM136.281 51.4C136.281 49.752 135.129 48.776 133.513 48.6V54.2C135.129 54.024 136.281 53.048 136.281 51.4ZM139.838 51.4C139.838 47.624 142.206 45.672 145.118 45.672C148.03 45.672 150.398 47.624 150.398 51.4C150.398 55.176 148.03 57.128 145.118 57.128C142.206 57.128 139.838 55.176 139.838 51.4ZM148.286 51.4C148.286 48.808 146.862 47.592 145.118 47.592C143.374 47.592 141.95 48.808 141.95 51.4C141.95 53.992 143.374 55.208 145.118 55.208C146.862 55.208 148.286 53.992 148.286 51.4ZM152.413 57V45.8H156.637C158.925 45.8 160.141 47.16 160.141 49.208C160.141 51.256 158.925 52.616 156.637 52.616H154.493V57H152.413ZM154.493 50.696H156.557C157.501 50.696 158.029 50.216 158.029 49.208C158.029 48.2 157.501 47.72 156.557 47.72H154.493V50.696ZM161.96 57V45.8H164.296L166.936 52.792L169.576 45.8H171.912V57H169.832V50.088L167.688 55.976H166.184L164.04 50.088V57H161.96ZM173.355 57L177.147 45.8H179.227L183.019 57H180.779L179.963 54.36H176.411L175.595 57H173.355ZM177.003 52.44H179.371L178.187 48.552L177.003 52.44ZM185.309 57V47.72H182.189V45.8H190.509V47.72H187.389V57H185.309ZM190.869 51.4C190.869 47.624 193.237 45.672 196.149 45.672C199.061 45.672 201.429 47.624 201.429 51.4C201.429 55.176 199.061 57.128 196.149 57.128C193.237 57.128 190.869 55.176 190.869 51.4ZM199.317 51.4C199.317 48.808 197.893 47.592 196.149 47.592C194.405 47.592 192.981 48.808 192.981 51.4C192.981 53.992 194.405 55.208 196.149 55.208C197.893 55.208 199.317 53.992 199.317 51.4ZM203.444 57V45.8H207.54C209.508 45.8 210.74 46.84 210.74 48.824C210.74 49.736 210.34 50.52 209.636 50.888C210.756 51.352 211.316 52.264 211.316 53.624C211.316 55.784 209.924 57 207.62 57H203.444ZM205.524 50.152H207.428C208.308 50.152 208.74 49.816 208.74 48.936C208.74 48.056 208.292 47.72 207.38 47.72H205.524V50.152ZM205.524 55.08H207.428C208.692 55.08 209.236 54.552 209.236 53.576C209.236 52.6 208.692 52.072 207.428 52.072H205.524V55.08Z" fill="black"/>
<path d="M211.979 100.8H214.075L209.211 112H207.163L208.635 108.576L205.339 100.8H207.515L209.723 106.048L211.979 100.8ZM215.35 112V100.8H223.99V112H221.91V102.72H217.43V112H215.35ZM226.553 112V100.8H230.777C233.065 100.8 234.281 102.16 234.281 104.208C234.281 106.256 233.065 107.616 230.777 107.616H228.633V112H226.553ZM228.633 105.696H230.697C231.641 105.696 232.169 105.216 232.169 104.208C232.169 103.2 231.641 102.72 230.697 102.72H228.633V105.696ZM233.668 112L237.46 100.8H239.54L243.332 112H241.092L240.276 109.36H236.724L235.908 112H233.668ZM237.316 107.44H239.684L238.5 103.552L237.316 107.44ZM244.772 112V100.8H248.868C250.836 100.8 252.068 101.84 252.068 103.824C252.068 104.736 251.668 105.52 250.964 105.888C252.084 106.352 252.644 107.264 252.644 108.624C252.644 110.784 251.252 112 248.948 112H244.772ZM246.852 105.152H248.756C249.636 105.152 250.068 104.816 250.068 103.936C250.068 103.056 249.62 102.72 248.708 102.72H246.852V105.152ZM246.852 110.08H248.756C250.02 110.08 250.564 109.552 250.564 108.576C250.564 107.6 250.02 107.072 248.756 107.072H246.852V110.08ZM253.518 111.984V110C253.71 110.096 253.934 110.144 254.174 110.144C254.862 110.144 255.198 109.616 255.278 108.144L255.742 100.8H262.958V112H260.878V102.72H257.582L257.23 108.32C257.054 110.944 256.254 112.128 254.414 112.128C254.142 112.128 253.71 112.064 253.518 111.984ZM268.983 100.8H272.903V112H270.823V107.392H269.831L266.727 112H264.407L267.623 107.216C266.167 106.816 265.415 105.696 265.415 104.144C265.415 102.144 266.663 100.8 268.983 100.8ZM270.823 105.568V102.72H269.047C268.135 102.72 267.495 103.2 267.495 104.144C267.495 105.152 268.103 105.568 269.047 105.568H270.823ZM275.46 112V100.8H282.388V102.72H277.54V105.072H281.428V106.992H277.54V110.08H282.548V112H275.46ZM284.569 112V100.8H286.905L289.545 107.792L292.185 100.8H294.521V112H292.441V105.088L290.297 110.976H288.793L286.649 105.088V112H284.569Z" fill="black"/>
<path d="M55.1657 107.4C55.1177 103.768 57.6137 101.64 60.4617 101.672C62.8937 101.672 64.5737 102.904 65.1017 105.064L63.2297 105.544C62.7657 104.312 61.9337 103.592 60.4617 103.592C58.6697 103.592 57.2777 104.888 57.2777 107.4C57.2777 109.912 58.6697 111.208 60.4617 111.208C61.9337 111.208 62.7657 110.488 63.2297 109.256L65.1017 109.736C64.5737 111.896 62.8937 113.128 60.4617 113.128C57.6137 113.16 55.1177 111.032 55.1657 107.4ZM68.9962 113V103.72H65.8762V101.8H74.1962V103.72H71.0762V113H68.9962ZM75.5534 113V101.8H79.7774C82.0654 101.8 83.2814 103.16 83.2814 105.208C83.2814 107.256 82.0654 108.616 79.7774 108.616H77.6334V113H75.5534ZM77.6334 106.696H79.6974C80.6414 106.696 81.1694 106.216 81.1694 105.208C81.1694 104.2 80.6414 103.72 79.6974 103.72H77.6334V106.696ZM84.4313 107.4C84.4313 103.624 86.7993 101.672 89.7113 101.672C92.6233 101.672 94.9913 103.624 94.9913 107.4C94.9913 111.176 92.6233 113.128 89.7113 113.128C86.7993 113.128 84.4313 111.176 84.4313 107.4ZM92.8793 107.4C92.8793 104.808 91.4553 103.592 89.7113 103.592C87.9673 103.592 86.5433 104.808 86.5433 107.4C86.5433 109.992 87.9673 111.208 89.7113 111.208C91.4553 111.208 92.8793 109.992 92.8793 107.4ZM97.0066 113V101.8H99.0866V109.448L103.743 101.8H105.775V113H103.695V105.352L99.0386 113H97.0066ZM108.335 113V101.8H110.671L113.311 108.792L115.951 101.8H118.287V113H116.207V106.088L114.063 111.976H112.559L110.415 106.088V113H108.335Z" fill="black"/>
<path d="M113.905 424V412.8H122.545V424H120.465V414.72H115.985V424H113.905ZM125.108 424V412.8H129.332C131.62 412.8 132.836 414.16 132.836 416.208C132.836 418.256 131.62 419.616 129.332 419.616H127.188V424H125.108ZM127.188 417.696H129.252C130.196 417.696 130.724 417.216 130.724 416.208C130.724 415.2 130.196 414.72 129.252 414.72H127.188V417.696ZM134.655 424V412.8H136.735V420.448L141.391 412.8H143.423V424H141.343V416.352L136.687 424H134.655ZM145.983 424V412.8H152.927V414.72H148.063V424H145.983ZM152.542 423.984V422C152.734 422.096 152.958 422.144 153.198 422.144C153.886 422.144 154.222 421.616 154.302 420.144L154.766 412.8H161.982V424H159.902V414.72H156.606L156.254 420.32C156.078 422.944 155.278 424.128 153.438 424.128C153.166 424.128 152.734 424.064 152.542 423.984ZM163.426 424L167.218 412.8H169.298L173.09 424H170.85L170.034 421.36H166.482L165.666 424H163.426ZM167.074 419.44H169.442L168.258 415.552L167.074 419.44ZM174.53 424V412.8H176.61V422.08H179.986V412.8H182.066V422.08H185.442V412.8H187.522V424H174.53ZM188.957 424L192.749 412.8H194.829L198.621 424H196.381L195.565 421.36H192.013L191.197 424H188.957ZM192.605 419.44H194.973L193.789 415.552L192.605 419.44ZM200.061 424V412.8H206.989V414.72H202.141V417.072H206.029V418.992H202.141V422.08H207.149V424H200.061ZM209.171 424V412.8H211.507L214.147 419.792L216.787 412.8H219.123V424H217.043V417.088L214.899 422.976H213.395L211.251 417.088V424H209.171ZM80.2566 440V428.8H82.3366V436.448L86.9926 428.8H89.0246V440H86.9446V432.352L82.2886 440H80.2566ZM95.5534 440V428.8H99.7774C102.065 428.8 103.281 430.16 103.281 432.208C103.281 434.256 102.065 435.616 99.7774 435.616H97.6334V440H95.5534ZM97.6334 433.696H99.6974C100.641 433.696 101.169 433.216 101.169 432.208C101.169 431.2 100.641 430.72 99.6974 430.72H97.6334V433.696ZM102.668 440L106.46 428.8H108.54L112.332 440H110.092L109.276 437.36H105.724L104.908 440H102.668ZM106.316 435.44H108.684L107.5 431.552L106.316 435.44ZM113.164 436.944L115.164 436.304C115.34 437.472 116.22 438.272 117.292 438.272C118.508 438.272 119.244 437.568 119.244 436.496C119.244 435.408 118.252 434.912 117.052 434.912H116.316V433.184H116.956C118.156 433.184 118.876 432.704 118.876 431.744C118.876 430.976 118.22 430.432 117.26 430.432C116.3 430.432 115.644 431.008 115.436 431.968L113.676 431.616C113.804 430.768 114.188 430.064 114.828 429.504C115.468 428.944 116.284 428.672 117.26 428.672C119.516 428.672 120.764 429.744 120.764 431.536C120.764 432.672 120.172 433.456 119.276 433.92C120.444 434.304 121.292 435.328 121.292 436.624C121.292 438.64 119.772 440.128 117.324 440.128C115.148 440.128 113.596 438.88 113.164 436.944ZM123.241 440V428.8H127.337C129.305 428.8 130.537 429.84 130.537 431.824C130.537 432.736 130.137 433.52 129.433 433.888C130.553 434.352 131.113 435.264 131.113 436.624C131.113 438.784 129.721 440 127.417 440H123.241ZM125.321 433.152H127.225C128.105 433.152 128.537 432.816 128.537 431.936C128.537 431.056 128.089 430.72 127.177 430.72H125.321V433.152ZM125.321 438.08H127.225C128.489 438.08 129.033 437.552 129.033 436.576C129.033 435.6 128.489 435.072 127.225 435.072H125.321V438.08ZM131.987 439.984V438C132.179 438.096 132.403 438.144 132.643 438.144C133.331 438.144 133.667 437.616 133.747 436.144L134.211 428.8H141.427V440H139.347V430.72H136.051L135.699 436.32C135.523 438.944 134.723 440.128 132.883 440.128C132.611 440.128 132.179 440.064 131.987 439.984ZM143.991 440V428.8H150.919V430.72H146.071V433.072H149.959V434.992H146.071V438.08H151.079V440H143.991ZM153.1 440V428.8H155.18V432.96L159.004 428.8H161.564L157.02 433.808L161.884 440H159.244L155.18 434.656V440H153.1ZM162.324 440L166.116 428.8H168.196L171.988 440H169.748L168.932 437.36H165.38L164.564 440H162.324ZM165.972 435.44H168.34L167.156 431.552L165.972 435.44ZM173.428 440V428.8H180.356V430.72H175.508V433.072H179.396V434.992H175.508V438.08H180.516V440H173.428ZM182.538 440V428.8H184.874L187.514 435.792L190.154 428.8H192.49V440H190.41V433.088L188.266 438.976H186.762L184.618 433.088V440H182.538ZM199.022 440V428.8H205.966V430.72H201.102V440H199.022ZM206.447 434.4C206.447 430.624 208.815 428.672 211.727 428.672C214.639 428.672 217.007 430.624 217.007 434.4C217.007 438.176 214.639 440.128 211.727 440.128C208.815 440.128 206.447 438.176 206.447 434.4ZM214.895 434.4C214.895 431.808 213.471 430.592 211.727 430.592C209.983 430.592 208.559 431.808 208.559 434.4C208.559 436.992 209.983 438.208 211.727 438.208C213.471 438.208 214.895 436.992 214.895 434.4ZM218.478 434.4C218.43 430.768 220.926 428.64 223.774 428.672C226.206 428.672 227.886 429.904 228.414 432.064L226.542 432.544C226.078 431.312 225.246 430.592 223.774 430.592C221.982 430.592 220.59 431.888 220.59 434.4C220.59 436.912 221.982 438.208 223.774 438.208C225.246 438.208 226.078 437.488 226.542 436.256L228.414 436.736C227.886 438.896 226.206 440.128 223.774 440.128C220.926 440.16 218.43 438.032 218.478 434.4ZM232.309 440V430.72H229.189V428.8H237.509V430.72H234.389V440H232.309ZM238.866 440V428.8H245.794V430.72H240.946V433.072H244.834V434.992H240.946V438.08H245.954V440H238.866ZM247.975 440V428.8H250.055V436.448L254.711 428.8H256.743V440H254.663V432.352L250.007 440H247.975ZM250.023 425.536H251.495C251.495 426.16 251.799 426.544 252.359 426.544C252.919 426.544 253.223 426.16 253.223 425.536H254.695C254.695 426.928 253.895 427.84 252.359 427.84C250.823 427.84 250.023 426.928 250.023 425.536Z" fill="black"/>
<path d="M60.0613 484V472.8H68.7013V484H66.6213V474.72H62.1413V484H60.0613ZM70.4324 483.984V482C70.6244 482.096 70.8484 482.144 71.0884 482.144C71.7764 482.144 72.1124 481.616 72.1924 480.144L72.6564 472.8H79.8724V484H77.7924V474.72H74.4964L74.1444 480.32C73.9684 482.944 73.1684 484.128 71.3284 484.128C71.0564 484.128 70.6244 484.064 70.4324 483.984ZM81.3163 484L85.1083 472.8H87.1883L90.9803 484H88.7403L87.9243 481.36H84.3723L83.5563 484H81.3163ZM84.9643 479.44H87.3323L86.1483 475.552L84.9643 479.44ZM92.4206 484V472.8H94.5006V477.056H98.9806V472.8H101.061V484H98.9806V478.976H94.5006V484H92.4206ZM103.624 484V472.8H105.704V480.448L110.36 472.8H112.392V484H110.312V476.352L105.656 484H103.624ZM114.952 484V472.8H119.176C121.464 472.8 122.68 474.16 122.68 476.208C122.68 478.256 121.464 479.616 119.176 479.616H117.032V484H114.952ZM117.032 477.696H119.096C120.04 477.696 120.568 477.216 120.568 476.208C120.568 475.2 120.04 474.72 119.096 474.72H117.032V477.696ZM130.003 472.8H132.099L127.235 484H125.187L126.659 480.576L123.363 472.8H125.539L127.747 478.048L130.003 472.8ZM133.374 484V472.8H140.302V474.72H135.454V477.072H139.342V478.992H135.454V482.08H140.462V484H133.374ZM142.483 484V472.8H144.819L147.459 479.792L150.099 472.8H152.435V484H150.355V477.088L148.211 482.976H146.707L144.563 477.088V484H142.483ZM154.087 486.176L155.159 481.824H157.831L155.591 486.176H154.087ZM163.389 484V472.8H172.029V484H169.949V474.72H165.469V484H163.389ZM174.593 484V472.8H178.817C181.105 472.8 182.321 474.16 182.321 476.208C182.321 478.256 181.105 479.616 178.817 479.616H176.673V484H174.593ZM176.673 477.696H178.737C179.681 477.696 180.209 477.216 180.209 476.208C180.209 475.2 179.681 474.72 178.737 474.72H176.673V477.696ZM183.47 478.4C183.47 474.624 185.838 472.672 188.75 472.672C191.662 472.672 194.03 474.624 194.03 478.4C194.03 482.176 191.662 484.128 188.75 484.128C185.838 484.128 183.47 482.176 183.47 478.4ZM191.918 478.4C191.918 475.808 190.494 474.592 188.75 474.592C187.006 474.592 185.582 475.808 185.582 478.4C185.582 480.992 187.006 482.208 188.75 482.208C190.494 482.208 191.918 480.992 191.918 478.4ZM196.046 484V472.8H202.974V474.72H198.126V477.072H202.014V478.992H198.126V482.08H203.134V484H196.046ZM205.155 484V472.8H207.235V476.96L211.059 472.8H213.619L209.075 477.808L213.939 484H211.299L207.235 478.656V484H205.155ZM217.598 484V474.72H214.478V472.8H222.798V474.72H219.678V484H217.598ZM224.155 484V472.8H226.235V480.448L230.891 472.8H232.923V484H230.843V476.352L226.187 484H224.155ZM235.483 484V472.8H239.707C241.995 472.8 243.211 474.16 243.211 476.208C243.211 478.256 241.995 479.616 239.707 479.616H237.563V484H235.483ZM237.563 477.696H239.627C240.571 477.696 241.099 477.216 241.099 476.208C241.099 475.2 240.571 474.72 239.627 474.72H237.563V477.696ZM250.534 472.8H252.63L247.766 484H245.718L247.19 480.576L243.894 472.8H246.07L248.278 478.048L250.534 472.8ZM253.905 484V472.8H260.833V474.72H255.985V477.072H259.873V478.992H255.985V482.08H260.993V484H253.905ZM263.014 484V472.8H265.35L267.99 479.792L270.63 472.8H272.966V484H270.886V477.088L268.742 482.976H267.238L265.094 477.088V484H263.014ZM92.3972 500V488.8H94.4772V496.448L99.1332 488.8H101.165V500H99.0852V492.352L94.4292 500H92.3972ZM107.15 494.4C107.102 490.768 109.598 488.64 112.446 488.672C114.878 488.672 116.558 489.904 117.086 492.064L115.214 492.544C114.75 491.312 113.918 490.592 112.446 490.592C110.654 490.592 109.262 491.888 109.262 494.4C109.262 496.912 110.654 498.208 112.446 498.208C113.918 498.208 114.75 497.488 115.214 496.256L117.086 496.736C116.558 498.896 114.878 500.128 112.446 500.128C109.598 500.16 107.102 498.032 107.15 494.4ZM118.494 494.4C118.494 490.624 120.862 488.672 123.774 488.672C126.686 488.672 129.054 490.624 129.054 494.4C129.054 498.176 126.686 500.128 123.774 500.128C120.862 500.128 118.494 498.176 118.494 494.4ZM126.942 494.4C126.942 491.808 125.518 490.592 123.774 490.592C122.03 490.592 120.606 491.808 120.606 494.4C120.606 496.992 122.03 498.208 123.774 498.208C125.518 498.208 126.942 496.992 126.942 494.4ZM131.069 500V488.8H138.013V490.72H133.149V500H131.069ZM137.628 499.984V498C137.82 498.096 138.044 498.144 138.284 498.144C138.972 498.144 139.308 497.616 139.388 496.144L139.852 488.8H147.068V500H144.988V490.72H141.692L141.34 496.32C141.164 498.944 140.364 500.128 138.524 500.128C138.252 500.128 137.82 500.064 137.628 499.984ZM148.512 500L152.304 488.8H154.384L158.176 500H155.936L155.12 497.36H151.568L150.752 500H148.512ZM152.16 495.44H154.528L153.344 491.552L152.16 495.44ZM158.634 494.4C158.586 490.768 161.082 488.64 163.93 488.672C166.362 488.672 168.042 489.904 168.57 492.064L166.698 492.544C166.234 491.312 165.402 490.592 163.93 490.592C162.138 490.592 160.746 491.888 160.746 494.4C160.746 496.912 162.138 498.208 163.93 498.208C165.402 498.208 166.234 497.488 166.698 496.256L168.57 496.736C168.042 498.896 166.362 500.128 163.93 500.128C161.082 500.16 158.586 498.032 158.634 494.4ZM169.978 494.4C169.978 490.624 172.346 488.672 175.258 488.672C178.17 488.672 180.538 490.624 180.538 494.4C180.538 498.176 178.17 500.128 175.258 500.128C172.346 500.128 169.978 498.176 169.978 494.4ZM178.426 494.4C178.426 491.808 177.002 490.592 175.258 490.592C173.514 490.592 172.09 491.808 172.09 494.4C172.09 496.992 173.514 498.208 175.258 498.208C177.002 498.208 178.426 496.992 178.426 494.4ZM182.553 500V488.8H186.649C188.617 488.8 189.849 489.84 189.849 491.824C189.849 492.736 189.449 493.52 188.745 493.888C189.865 494.352 190.425 495.264 190.425 496.624C190.425 498.784 189.033 500 186.729 500H182.553ZM184.633 493.152H186.537C187.417 493.152 187.849 492.816 187.849 491.936C187.849 491.056 187.401 490.72 186.489 490.72H184.633V493.152ZM184.633 498.08H186.537C187.801 498.08 188.345 497.552 188.345 496.576C188.345 495.6 187.801 495.072 186.537 495.072H184.633V498.08ZM192.397 500V488.8H194.477V492.8H196.461C198.845 492.8 200.125 494.224 200.125 496.4C200.125 498.528 198.845 500 196.461 500H192.397ZM194.477 498.08H196.381C197.405 498.08 198.013 497.504 198.013 496.4C198.013 495.312 197.405 494.72 196.381 494.72H194.477V498.08ZM201.309 500V488.8H203.389V500H201.309ZM205.944 500V488.8H210.04C212.008 488.8 213.24 489.84 213.24 491.824C213.24 492.736 212.84 493.52 212.136 493.888C213.256 494.352 213.816 495.264 213.816 496.624C213.816 498.784 212.424 500 210.12 500H205.944ZM208.024 493.152H209.928C210.808 493.152 211.24 492.816 211.24 491.936C211.24 491.056 210.792 490.72 209.88 490.72H208.024V493.152ZM208.024 498.08H209.928C211.192 498.08 211.736 497.552 211.736 496.576C211.736 495.6 211.192 495.072 209.928 495.072H208.024V498.08ZM214.433 500L218.225 488.8H220.305L224.097 500H221.857L221.041 497.36H217.489L216.673 500H214.433ZM218.081 495.44H220.449L219.265 491.552L218.081 495.44ZM225.538 500V488.8H232.466V490.72H227.618V493.072H231.506V494.992H227.618V498.08H232.626V500H225.538ZM234.647 500V488.8H236.983L239.623 495.792L242.263 488.8H244.599V500H242.519V493.088L240.375 498.976H238.871L236.727 493.088V500H234.647Z" fill="black"/>
<path d="M123.874 544V532.8H125.954V537.056H130.434V532.8H132.514V544H130.434V538.976H125.954V544H123.874ZM133.957 544L137.749 532.8H139.829L143.621 544H141.381L140.565 541.36H137.013L136.197 544H133.957ZM137.605 539.44H139.973L138.789 535.552L137.605 539.44ZM145.061 544V532.8H147.141V537.056H151.621V532.8H153.701V544H151.621V538.976H147.141V544H145.061ZM156.264 544V532.8H158.344V540.448L163 532.8H165.032V544H162.952V536.352L158.296 544H156.264ZM167.593 544V532.8H169.929L172.569 539.792L175.209 532.8H177.545V544H175.465V537.088L173.321 542.976H171.817L169.673 537.088V544H167.593ZM178.988 544L182.78 532.8H184.86L188.652 544H186.412L185.596 541.36H182.044L181.228 544H178.988ZM182.636 539.44H185.004L183.82 535.552L182.636 539.44ZM190.093 544V532.8H197.021V534.72H192.173V537.072H196.061V538.992H192.173V542.08H197.181V544H190.093ZM199.202 544V532.8H201.538L204.178 539.792L206.818 532.8H209.154V544H207.074V537.088L204.93 542.976H203.426L201.282 537.088V544H199.202ZM94.4206 560V548.8H96.5006V556.448L101.157 548.8H103.189V560H101.109V552.352L96.4526 560H94.4206ZM109.174 554.4C109.174 550.624 111.542 548.672 114.454 548.672C117.366 548.672 119.734 550.624 119.734 554.4C119.734 558.176 117.366 560.128 114.454 560.128C111.542 560.128 109.174 558.176 109.174 554.4ZM117.622 554.4C117.622 551.808 116.198 550.592 114.454 550.592C112.71 550.592 111.286 551.808 111.286 554.4C111.286 556.992 112.71 558.208 114.454 558.208C116.198 558.208 117.622 556.992 117.622 554.4ZM121.749 560V548.8H128.837V550.72H123.829V553.248H125.973C128.261 553.248 129.477 554.592 129.477 556.624C129.477 558.624 128.261 560 125.973 560H121.749ZM123.829 558.08H125.893C126.805 558.08 127.365 557.568 127.365 556.624C127.365 555.68 126.805 555.168 125.893 555.168H123.829V558.08ZM136.253 548.8H138.349L133.485 560H131.437L132.909 556.576L129.613 548.8H131.789L133.997 554.048L136.253 548.8ZM146.02 560V555.52C145.252 555.824 144.532 555.936 143.396 555.936C141.092 555.936 139.652 554.576 139.652 551.712V548.8H141.732V551.776C141.732 553.232 142.484 554.016 143.764 554.016C144.724 554.016 145.332 553.92 146.02 553.616V548.8H148.1V560H146.02ZM149.535 560L153.327 548.8H155.407L159.199 560H156.959L156.143 557.36H152.591L151.775 560H149.535ZM153.183 555.44H155.551L154.367 551.552L153.183 555.44ZM160.639 560V548.8H167.567V550.72H162.719V553.072H166.607V554.992H162.719V558.08H167.727V560H160.639ZM169.749 560V548.8H172.085L174.725 555.792L177.365 548.8H179.701V560H177.621V553.088L175.477 558.976H173.973L171.829 553.088V560H169.749ZM185.401 559.984V558C185.593 558.096 185.817 558.144 186.057 558.144C186.745 558.144 187.081 557.616 187.161 556.144L187.625 548.8H194.841V560H192.761V550.72H189.465L189.113 556.32C188.937 558.944 188.137 560.128 186.297 560.128C186.025 560.128 185.593 560.064 185.401 559.984ZM211.277 554.4C211.277 558.176 209.005 560.128 206.189 560.128C203.533 560.128 201.341 558.368 201.117 554.976H199.485V560H197.405V548.8H199.485V553.056H201.197C201.677 550.16 203.741 548.672 206.189 548.672C209.005 548.672 211.277 550.624 211.277 554.4ZM209.165 554.4C209.165 551.808 207.837 550.592 206.189 550.592C204.541 550.592 203.213 551.808 203.213 554.4C203.213 556.992 204.541 558.208 206.189 558.208C207.837 558.208 209.165 556.992 209.165 554.4ZM212.056 562.144V558.08H213.048C213.304 557.744 213.496 557.344 213.624 556.848C213.768 556.352 213.88 555.584 213.96 554.576L214.456 548.8H221.912V558.08H223.16V562.144H221.16V560H214.056V562.144H212.056ZM215.208 558.08H219.832V550.72H216.248L215.928 554.656C215.848 555.648 215.752 556.4 215.64 556.896C215.528 557.392 215.384 557.776 215.208 558.08ZM224.702 560V548.8H231.63V550.72H226.782V553.072H230.67V554.992H226.782V558.08H231.79V560H224.702ZM233.811 560V548.8H235.891V556.448L240.547 548.8H242.579V560H240.499V552.352L235.843 560H233.811ZM235.859 545.536H237.331C237.331 546.16 237.635 546.544 238.195 546.544C238.755 546.544 239.059 546.16 239.059 545.536H240.531C240.531 546.928 239.731 547.84 238.195 547.84C236.659 547.84 235.859 546.928 235.859 545.536Z" fill="black"/>
<path d="M117.835 611V599.8H126.475V611H124.395V601.72H119.915V611H117.835ZM129.038 611V599.8H133.262C135.55 599.8 136.766 601.16 136.766 603.208C136.766 605.256 135.55 606.616 133.262 606.616H131.118V611H129.038ZM131.118 604.696H133.182C134.126 604.696 134.654 604.216 134.654 603.208C134.654 602.2 134.126 601.72 133.182 601.72H131.118V604.696ZM137.916 605.4C137.916 601.624 140.284 599.672 143.196 599.672C146.108 599.672 148.476 601.624 148.476 605.4C148.476 609.176 146.108 611.128 143.196 611.128C140.284 611.128 137.916 609.176 137.916 605.4ZM146.364 605.4C146.364 602.808 144.94 601.592 143.196 601.592C141.452 601.592 140.028 602.808 140.028 605.4C140.028 607.992 141.452 609.208 143.196 609.208C144.94 609.208 146.364 607.992 146.364 605.4ZM149.252 613.144V609.08H150.244C150.5 608.744 150.692 608.344 150.82 607.848C150.964 607.352 151.076 606.584 151.156 605.576L151.652 599.8H159.108V609.08H160.356V613.144H158.356V611H151.252V613.144H149.252ZM152.404 609.08H157.028V601.72H153.444L153.124 605.656C153.044 606.648 152.948 607.4 152.836 607.896C152.724 608.392 152.58 608.776 152.404 609.08ZM161.897 611V599.8H165.993C167.961 599.8 169.193 600.84 169.193 602.824C169.193 603.736 168.793 604.52 168.089 604.888C169.209 605.352 169.769 606.264 169.769 607.624C169.769 609.784 168.377 611 166.073 611H161.897ZM163.977 604.152H165.881C166.761 604.152 167.193 603.816 167.193 602.936C167.193 602.056 166.745 601.72 165.833 601.72H163.977V604.152ZM163.977 609.08H165.881C167.145 609.08 167.689 608.552 167.689 607.576C167.689 606.6 167.145 606.072 165.881 606.072H163.977V609.08ZM171.741 611V599.8H173.821V607.448L178.477 599.8H180.509V611H178.429V603.352L173.773 611H171.741ZM183.069 611V599.8H190.013V601.72H185.149V611H183.069ZM188.996 611L192.788 599.8H194.868L198.66 611H196.42L195.604 608.36H192.052L191.236 611H188.996ZM192.644 606.44H195.012L193.828 602.552L192.644 606.44ZM200.1 611V599.8H207.028V601.72H202.18V604.072H206.068V605.992H202.18V609.08H207.188V611H200.1ZM209.21 611V599.8H211.546L214.186 606.792L216.826 599.8H219.162V611H217.082V604.088L214.938 609.976H213.434L211.29 604.088V611H209.21Z" fill="black"/>
<rect x="8" y="0.5" width="322" height="67" rx="33.5" stroke="#DF3920"/>
<rect x="8" y="400.5" width="321" height="50" rx="25" stroke="#DF3920"/>
<rect x="8" y="460.5" width="321" height="50" rx="25" stroke="#DF3920"/>
<rect x="8" y="520.5" width="321" height="50" rx="25" stroke="#DF3920"/>
<rect x="8" y="580.5" width="321" height="50" rx="25" stroke="#DF3920"/>
<rect x="172" y="81.5" width="158" height="50" rx="25" stroke="#DF3920"/>
<rect x="8" y="81.5" width="158" height="50" rx="25" stroke="#DF3920"/>
<path d="M82 331.5H0.5V546.5M29.5 607H0.5V546.5M29.5 546.5H0.5" stroke="black"/>
<path d="M27.5 485.5H0.5M27.5 425H0.5M86 207H0.5V106M27.5 33.5H0.5V106M0.5 106H27.5" stroke="black"/>
<path d="M229.5 206H337.5V106.5H312" stroke="black"/>
</svg>
