<svg width="931" height="504" viewBox="0 0 931 504" fill="none" xmlns="http://www.w3.org/2000/svg">
<path d="M466.5 84.375C561.561 84.375 638.625 161.661 638.625 257C638.625 352.339 561.561 429.625 466.5 429.625C371.439 429.625 294.375 352.339 294.375 257C294.375 161.661 371.439 84.375 466.5 84.375Z" fill="#DF3920" stroke="#EFE1D6" stroke-width="0.75"/>
<path d="M355.68 250V229.176H350.55V224.92H365.484V229.176H360.354V250H355.68ZM377.836 224.92H382.662L376.886 244.376C375.556 248.746 373.922 250.342 370.692 250.342C369.894 250.342 369.172 250.266 368.336 250.038V246.048C368.83 246.086 369.21 246.124 369.704 246.124C370.996 246.124 371.756 245.554 372.326 244.072L365.904 224.92H370.882L374.53 237.08L377.836 224.92ZM384.35 250V224.92H391.076C396.282 224.92 399.246 227.846 399.246 232.938C399.246 238.068 396.244 240.994 391.076 240.994H389.024V250H384.35ZM389.024 236.814H391.114C393.394 236.814 394.534 235.522 394.534 232.976C394.534 230.354 393.394 229.1 391.114 229.1H389.024V236.814ZM414.602 224.92H417.034V250H412.398V236.168L404.076 250H401.606V224.92H406.318V238.524L414.602 224.92ZM427.564 250.456C422.244 250.456 419.698 246.2 419.698 237.46C419.698 228.682 422.244 224.464 427.564 224.464C431.516 224.464 433.758 226.592 434.632 231.38L430.49 232.444C429.996 229.898 429.122 228.758 427.602 228.758C425.36 228.758 424.41 231.304 424.41 237.46C424.41 243.616 425.36 246.162 427.602 246.162C429.122 246.162 429.996 245.022 430.49 242.476L434.632 243.54C433.758 248.328 431.516 250.456 427.564 250.456ZM440.92 250V229.176H435.79V224.92H450.724V229.176H445.594V250H440.92ZM465.813 224.92H468.245V250H463.609V236.168L455.287 250H452.817V224.92H457.529V238.524L465.813 224.92ZM481.435 224.92H486.071V250H481.435V240.728C480.257 241.108 479.079 241.298 477.901 241.298C473.531 241.298 470.947 238.562 470.947 233.812V224.92H475.583V233.47C475.583 235.826 476.609 237.004 478.661 237.004C479.611 237.004 480.523 236.814 481.435 236.434V224.92ZM489.443 250V224.92H501.489V229.1H494.117V234.762H499.665V238.79H494.117V245.782H501.831V250H489.443ZM511.246 250.456C505.926 250.456 503.38 246.2 503.38 237.46C503.38 228.682 505.926 224.464 511.246 224.464C515.198 224.464 517.44 226.592 518.314 231.38L514.172 232.444C513.678 229.898 512.804 228.758 511.284 228.758C509.042 228.758 508.092 231.304 508.092 237.46C508.092 243.616 509.042 246.162 511.284 246.162C512.804 246.162 513.678 245.022 514.172 242.476L518.314 243.54C517.44 248.328 515.198 250.456 511.246 250.456ZM536.952 250H531.784L525.438 237.232V250H520.764V224.92H525.438V236.206L531.442 224.92H536.61L530.34 236.7L536.952 250ZM551.869 224.92H554.301V250H549.665V236.168L541.343 250H538.873V224.92H543.585V238.524L551.869 224.92ZM565.516 222.26C562.286 222.26 560.386 220.36 560.386 217.092V215.42H563.882V217.092C563.882 218.232 564.49 218.916 565.516 218.916C566.466 218.916 567.074 218.27 567.074 217.092V215.42H570.57V217.092C570.57 220.36 568.708 222.26 565.516 222.26ZM570.684 224.92H573.116V250H568.48V236.168L560.158 250H557.688V224.92H562.4V238.524L570.684 224.92ZM402.236 288V262.92H417.398V288H412.724V267.176H406.872V288H402.236ZM420.754 288V262.92H427.48C432.686 262.92 435.65 265.846 435.65 270.938C435.65 276.068 432.648 278.994 427.48 278.994H425.428V288H420.754ZM425.428 274.814H427.518C429.798 274.814 430.938 273.522 430.938 270.976C430.938 268.354 429.798 267.1 427.518 267.1H425.428V274.814ZM445.268 288.456C439.834 288.456 437.288 284.276 437.288 275.384C437.288 266.606 439.834 262.464 445.268 262.464C450.778 262.464 453.362 266.568 453.362 275.346C453.362 284.2 450.74 288.456 445.268 288.456ZM445.268 284.162C447.7 284.162 448.65 281.73 448.65 275.46C448.65 269.152 447.7 266.758 445.268 266.758C442.912 266.758 442 269.076 442 275.384C442 281.768 442.912 284.162 445.268 284.162ZM471.41 283.744H473.652V293.358H468.978V288H458.908V293.358H454.272V283.744H455.678C456.704 282.376 457.122 278.88 457.198 272.42L457.35 262.92H471.41V283.744ZM461.606 272.458C461.53 277.892 461.112 281.388 460.124 283.744H466.774V267.176H461.72L461.606 272.458ZM485.75 262.92H490.576L484.8 282.376C483.47 286.746 481.836 288.342 478.606 288.342C477.808 288.342 477.086 288.266 476.25 288.038V284.048C476.744 284.086 477.124 284.124 477.618 284.124C478.91 284.124 479.67 283.554 480.24 282.072L473.818 262.92H478.796L482.444 275.08L485.75 262.92ZM508.452 288H503.284L496.938 275.232V288H492.264V262.92H496.938V274.206L502.942 262.92H508.11L501.84 274.7L508.452 288ZM514.211 288V267.176H509.081V262.92H524.015V267.176H518.885V288H514.211Z" fill="#EFE0D5"/>
<path d="M255.951 35V19.6H267.831V35H264.971V22.24H258.811V35H255.951ZM271.356 35V19.6H277.164C280.31 19.6 281.982 21.47 281.982 24.286C281.982 27.102 280.31 28.972 277.164 28.972H274.216V35H271.356ZM274.216 26.332H277.054C278.352 26.332 279.078 25.672 279.078 24.286C279.078 22.9 278.352 22.24 277.054 22.24H274.216V26.332ZM284.483 35V19.6H287.343V30.116L293.745 19.6H296.539V35H293.679V24.484L287.277 35H284.483ZM298.655 37.948V32.36H300.019C300.371 31.898 300.635 31.348 300.811 30.666C301.009 29.984 301.163 28.928 301.273 27.542L301.955 19.6H312.207V32.36H313.923V37.948H311.173V35H301.405V37.948H298.655ZM302.989 32.36H309.347V22.24H304.419L303.979 27.652C303.869 29.016 303.737 30.05 303.583 30.732C303.429 31.414 303.231 31.942 302.989 32.36ZM323.654 19.6H326.536L319.848 35H317.032L319.056 30.292L314.524 19.6H317.516L320.552 26.816L323.654 19.6ZM328.289 35V19.6H331.501L335.131 29.214L338.761 19.6H341.973V35H339.113V25.496L336.165 33.592H334.097L331.149 25.496V35H328.289ZM345.498 35V19.6H348.358V25.1H351.086C354.364 25.1 356.124 27.058 356.124 30.05C356.124 32.976 354.364 35 351.086 35H345.498ZM348.358 32.36H350.976C352.384 32.36 353.22 31.568 353.22 30.05C353.22 28.554 352.384 27.74 350.976 27.74H348.358V32.36ZM357.752 35V19.6H360.612V35H357.752ZM364.125 35V19.6H369.757C372.463 19.6 374.157 21.03 374.157 23.758C374.157 25.012 373.607 26.09 372.639 26.596C374.179 27.234 374.949 28.488 374.949 30.358C374.949 33.328 373.035 35 369.867 35H364.125ZM366.985 25.584H369.603C370.813 25.584 371.407 25.122 371.407 23.912C371.407 22.702 370.791 22.24 369.537 22.24H366.985V25.584ZM366.985 32.36H369.603C371.341 32.36 372.089 31.634 372.089 30.292C372.089 28.95 371.341 28.224 369.603 28.224H366.985V32.36ZM375.798 35L381.012 19.6H383.872L389.086 35H386.006L384.884 31.37H380L378.878 35H375.798ZM380.814 28.73H384.07L382.442 23.384L380.814 28.73ZM391.067 35V19.6H400.593V22.24H393.927V25.474H399.273V28.114H393.927V32.36H400.813V35H391.067ZM403.592 35V19.6H406.804L410.434 29.214L414.064 19.6H417.276V35H414.416V25.496L411.468 33.592H409.4L406.452 25.496V35H403.592ZM426.258 35V19.6H429.118V25.32L434.376 19.6H437.896L431.648 26.486L438.336 35H434.706L429.118 27.652V35H426.258ZM438.594 27.3C438.594 22.108 441.85 19.424 445.854 19.424C449.858 19.424 453.114 22.108 453.114 27.3C453.114 32.492 449.858 35.176 445.854 35.176C441.85 35.176 438.594 32.492 438.594 27.3ZM450.21 27.3C450.21 23.736 448.252 22.064 445.854 22.064C443.456 22.064 441.498 23.736 441.498 27.3C441.498 30.864 443.456 32.536 445.854 32.536C448.252 32.536 450.21 30.864 450.21 27.3ZM455.885 35V19.6H458.745V25.452H464.905V19.6H467.765V35H464.905V28.092H458.745V35H455.885ZM481.915 37.948V35H471.289V19.6H474.149V32.36H480.089V19.6H482.949V32.36H484.665V37.948H481.915ZM486.78 35V19.6H496.306V22.24H489.64V25.474H494.986V28.114H489.64V32.36H496.526V35H486.78ZM499.305 35V19.6H511.185V35H508.325V22.24H502.165V35H499.305ZM525.335 37.948V35H514.709V19.6H517.569V32.36H523.509V19.6H526.369V32.36H528.085V37.948H525.335ZM530.199 35V19.6H533.059V30.116L539.461 19.6H542.255V35H539.395V24.484L532.993 35H530.199ZM545.776 35V19.6H548.636V30.116L555.038 19.6H557.832V35H554.972V24.484L548.57 35H545.776ZM566.809 35V19.6H576.357V22.24H569.669V35H566.809ZM577.018 27.3C577.018 22.108 580.274 19.424 584.278 19.424C588.282 19.424 591.538 22.108 591.538 27.3C591.538 32.492 588.282 35.176 584.278 35.176C580.274 35.176 577.018 32.492 577.018 27.3ZM588.634 27.3C588.634 23.736 586.676 22.064 584.278 22.064C581.88 22.064 579.922 23.736 579.922 27.3C579.922 30.864 581.88 32.536 584.278 32.536C586.676 32.536 588.634 30.864 588.634 27.3ZM593.561 27.3C593.495 22.306 596.927 19.38 600.843 19.424C604.187 19.424 606.497 21.118 607.223 24.088L604.649 24.748C604.011 23.054 602.867 22.064 600.843 22.064C598.379 22.064 596.465 23.846 596.465 27.3C596.465 30.754 598.379 32.536 600.843 32.536C602.867 32.536 604.011 31.546 604.649 29.852L607.223 30.512C606.497 33.482 604.187 35.176 600.843 35.176C596.927 35.22 593.495 32.294 593.561 27.3ZM612.578 35V22.24H608.288V19.6H619.728V22.24H615.438V35H612.578ZM621.594 35V19.6H631.12V22.24H624.454V25.474H629.8V28.114H624.454V32.36H631.34V35H621.594ZM634.119 35V19.6H639.751C642.457 19.6 644.151 21.03 644.151 23.758C644.151 25.012 643.601 26.09 642.633 26.596C644.173 27.234 644.943 28.488 644.943 30.358C644.943 33.328 643.029 35 639.861 35H634.119ZM636.979 25.584H639.597C640.807 25.584 641.401 25.122 641.401 23.912C641.401 22.702 640.785 22.24 639.531 22.24H636.979V25.584ZM636.979 32.36H639.597C641.335 32.36 642.083 31.634 642.083 30.292C642.083 28.95 641.335 28.224 639.597 28.224H636.979V32.36ZM646.778 27.3C646.778 22.108 650.034 19.424 654.038 19.424C658.042 19.424 661.298 22.108 661.298 27.3C661.298 32.492 658.042 35.176 654.038 35.176C650.034 35.176 646.778 32.492 646.778 27.3ZM658.394 27.3C658.394 23.736 656.436 22.064 654.038 22.064C651.64 22.064 649.682 23.736 649.682 27.3C649.682 30.864 651.64 32.536 654.038 32.536C656.436 32.536 658.394 30.864 658.394 27.3ZM664.069 35V19.6H673.617V22.24H666.929V35H664.069ZM674.278 27.3C674.278 22.108 677.534 19.424 681.538 19.424C685.542 19.424 688.798 22.108 688.798 27.3C688.798 32.492 685.542 35.176 681.538 35.176C677.534 35.176 674.278 32.492 674.278 27.3ZM685.894 27.3C685.894 23.736 683.936 22.064 681.538 22.064C679.14 22.064 677.182 23.736 677.182 27.3C677.182 30.864 679.14 32.536 681.538 32.536C683.936 32.536 685.894 30.864 685.894 27.3ZM293.076 57V41.6H298.884C302.03 41.6 303.702 43.47 303.702 46.286C303.702 49.102 302.03 50.972 298.884 50.972H295.936V57H293.076ZM295.936 48.332H298.774C300.072 48.332 300.798 47.672 300.798 46.286C300.798 44.9 300.072 44.24 298.774 44.24H295.936V48.332ZM302.859 57L308.073 41.6H310.933L316.147 57H313.067L311.945 53.37H307.061L305.939 57H302.859ZM307.875 50.73H311.131L309.503 45.384L307.875 50.73ZM317.291 52.798L320.041 51.918C320.283 53.524 321.493 54.624 322.967 54.624C324.639 54.624 325.651 53.656 325.651 52.182C325.651 50.686 324.287 50.004 322.637 50.004H321.625V47.628H322.505C324.155 47.628 325.145 46.968 325.145 45.648C325.145 44.592 324.243 43.844 322.923 43.844C321.603 43.844 320.701 44.636 320.415 45.956L317.995 45.472C318.171 44.306 318.699 43.338 319.579 42.568C320.459 41.798 321.581 41.424 322.923 41.424C326.025 41.424 327.741 42.898 327.741 45.362C327.741 46.924 326.927 48.002 325.695 48.64C327.301 49.168 328.467 50.576 328.467 52.358C328.467 55.13 326.377 57.176 323.011 57.176C320.019 57.176 317.885 55.46 317.291 52.798ZM331.147 57V41.6H334.359L337.989 51.214L341.619 41.6H344.831V57H341.971V47.496L339.023 55.592H336.955L334.007 47.496V57H331.147ZM348.356 57V41.6H357.882V44.24H351.216V47.474H356.562V50.114H351.216V54.36H358.102V57H348.356ZM377.711 59.948V57H360.881V41.6H363.741V54.36H368.383V41.6H371.243V54.36H375.885V41.6H378.745V54.36H380.461V59.948H377.711ZM382.58 57V41.6H392.106V44.24H385.44V47.474H390.786V50.114H385.44V54.36H392.326V57H382.58ZM395.106 57V41.6H397.966V47.452H404.126V41.6H406.986V57H404.126V50.092H397.966V57H395.106ZM410.51 57V41.6H413.37V52.116L419.772 41.6H422.566V57H419.706V46.484L413.304 57H410.51ZM430.844 41.6H436.234V57H433.374V50.664H432.01L427.742 57H424.552L428.974 50.422C426.972 49.872 425.938 48.332 425.938 46.198C425.938 43.448 427.654 41.6 430.844 41.6ZM433.374 48.156V44.24H430.932C429.678 44.24 428.798 44.9 428.798 46.198C428.798 47.584 429.634 48.156 430.932 48.156H433.374ZM445.207 57V41.6H451.015C454.161 41.6 455.833 43.47 455.833 46.286C455.833 49.102 454.161 50.972 451.015 50.972H448.067V57H445.207ZM448.067 48.332H450.905C452.203 48.332 452.929 47.672 452.929 46.286C452.929 44.9 452.203 44.24 450.905 44.24H448.067V48.332ZM454.99 57L460.204 41.6H463.064L468.278 57H465.198L464.076 53.37H459.192L458.07 57H454.99ZM460.006 50.73H463.262L461.634 45.384L460.006 50.73ZM469.422 52.798L472.172 51.918C472.414 53.524 473.624 54.624 475.098 54.624C476.77 54.624 477.782 53.656 477.782 52.182C477.782 50.686 476.418 50.004 474.768 50.004H473.756V47.628H474.636C476.286 47.628 477.276 46.968 477.276 45.648C477.276 44.592 476.374 43.844 475.054 43.844C473.734 43.844 472.832 44.636 472.546 45.956L470.126 45.472C470.302 44.306 470.83 43.338 471.71 42.568C472.59 41.798 473.712 41.424 475.054 41.424C478.156 41.424 479.872 42.898 479.872 45.362C479.872 46.924 479.058 48.002 477.826 48.64C479.432 49.168 480.598 50.576 480.598 52.358C480.598 55.13 478.508 57.176 475.142 57.176C472.15 57.176 470.016 55.46 469.422 52.798ZM483.278 57V41.6H486.138V47.452H492.298V41.6H495.158V57H492.298V50.092H486.138V57H483.278ZM498.682 57V41.6H501.542V47.1H504.27C507.548 47.1 509.308 49.058 509.308 52.05C509.308 54.976 507.548 57 504.27 57H498.682ZM501.542 54.36H504.16C505.568 54.36 506.404 53.568 506.404 52.05C506.404 50.554 505.568 49.74 504.16 49.74H501.542V54.36ZM510.936 57V41.6H513.796V57H510.936ZM515.835 57L520.631 48.684L516.561 41.6H519.685L522.193 45.956L524.701 41.6H527.825L523.755 48.684L528.551 57H525.383L522.193 51.434L519.003 57H515.835ZM541.961 57.22V55.482C537.781 55.262 535.295 52.754 535.295 49.3C535.295 45.846 537.781 43.338 541.961 43.118V41.38H544.689V43.118C548.869 43.338 551.355 45.846 551.355 49.3C551.355 52.754 548.869 55.262 544.689 55.482V57.22H541.961ZM541.961 53.15V45.45C539.739 45.692 538.155 47.034 538.155 49.3C538.155 51.566 539.739 52.908 541.961 53.15ZM548.495 49.3C548.495 47.034 546.911 45.692 544.689 45.45V53.15C546.911 52.908 548.495 51.566 548.495 49.3ZM553.385 49.3C553.385 44.108 556.641 41.424 560.645 41.424C564.649 41.424 567.905 44.108 567.905 49.3C567.905 54.492 564.649 57.176 560.645 57.176C556.641 57.176 553.385 54.492 553.385 49.3ZM565.001 49.3C565.001 45.736 563.043 44.064 560.645 44.064C558.247 44.064 556.289 45.736 556.289 49.3C556.289 52.864 558.247 54.536 560.645 54.536C563.043 54.536 565.001 52.864 565.001 49.3ZM570.676 57V41.6H576.484C579.63 41.6 581.302 43.47 581.302 46.286C581.302 49.102 579.63 50.972 576.484 50.972H573.536V57H570.676ZM573.536 48.332H576.374C577.672 48.332 578.398 47.672 578.398 46.286C578.398 44.9 577.672 44.24 576.374 44.24H573.536V48.332ZM583.803 57V41.6H587.015L590.645 51.214L594.275 41.6H597.487V57H594.627V47.496L591.679 55.592H589.611L586.663 47.496V57H583.803ZM599.472 57L604.686 41.6H607.546L612.76 57H609.68L608.558 53.37H603.674L602.552 57H599.472ZM604.488 50.73H607.744L606.116 45.384L604.488 50.73ZM615.908 57V44.24H611.618V41.6H623.058V44.24H618.768V57H615.908ZM623.553 49.3C623.553 44.108 626.809 41.424 630.813 41.424C634.817 41.424 638.073 44.108 638.073 49.3C638.073 54.492 634.817 57.176 630.813 57.176C626.809 57.176 623.553 54.492 623.553 49.3ZM635.169 49.3C635.169 45.736 633.211 44.064 630.813 44.064C628.415 44.064 626.457 45.736 626.457 49.3C626.457 52.864 628.415 54.536 630.813 54.536C633.211 54.536 635.169 52.864 635.169 49.3ZM640.844 57V41.6H646.476C649.182 41.6 650.876 43.03 650.876 45.758C650.876 47.012 650.326 48.09 649.358 48.596C650.898 49.234 651.668 50.488 651.668 52.358C651.668 55.328 649.754 57 646.586 57H640.844ZM643.704 47.584H646.322C647.532 47.584 648.126 47.122 648.126 45.912C648.126 44.702 647.51 44.24 646.256 44.24H643.704V47.584ZM643.704 54.36H646.322C648.06 54.36 648.808 53.634 648.808 52.292C648.808 50.95 648.06 50.224 646.322 50.224H643.704V54.36Z" fill="black"/>
<path d="M676.034 141.6H678.916L672.228 157H669.412L671.436 152.292L666.904 141.6H669.896L672.932 148.816L676.034 141.6ZM680.669 157V141.6H692.549V157H689.689V144.24H683.529V157H680.669ZM696.073 157V141.6H701.881C705.027 141.6 706.699 143.47 706.699 146.286C706.699 149.102 705.027 150.972 701.881 150.972H698.933V157H696.073ZM698.933 148.332H701.771C703.069 148.332 703.795 147.672 703.795 146.286C703.795 144.9 703.069 144.24 701.771 144.24H698.933V148.332ZM705.856 157L711.07 141.6H713.93L719.144 157H716.064L714.942 153.37H710.058L708.936 157H705.856ZM710.872 150.73H714.128L712.5 145.384L710.872 150.73ZM721.124 157V141.6H726.756C729.462 141.6 731.156 143.03 731.156 145.758C731.156 147.012 730.606 148.09 729.638 148.596C731.178 149.234 731.948 150.488 731.948 152.358C731.948 155.328 730.034 157 726.866 157H721.124ZM723.984 147.584H726.602C727.812 147.584 728.406 147.122 728.406 145.912C728.406 144.702 727.79 144.24 726.536 144.24H723.984V147.584ZM723.984 154.36H726.602C728.34 154.36 729.088 153.634 729.088 152.292C729.088 150.95 728.34 150.224 726.602 150.224H723.984V154.36ZM733.15 156.978V154.25C733.414 154.382 733.722 154.448 734.052 154.448C734.998 154.448 735.46 153.722 735.57 151.698L736.208 141.6H746.13V157H743.27V144.24H738.738L738.254 151.94C738.012 155.548 736.912 157.176 734.382 157.176C734.008 157.176 733.414 157.088 733.15 156.978ZM754.414 141.6H759.804V157H756.944V150.664H755.58L751.312 157H748.122L752.544 150.422C750.542 149.872 749.508 148.332 749.508 146.198C749.508 143.448 751.224 141.6 754.414 141.6ZM756.944 148.156V144.24H754.502C753.248 144.24 752.368 144.9 752.368 146.198C752.368 147.584 753.204 148.156 754.502 148.156H756.944ZM763.32 157V141.6H772.846V144.24H766.18V147.474H771.526V150.114H766.18V154.36H773.066V157H763.32ZM775.845 157V141.6H779.057L782.687 151.214L786.317 141.6H789.529V157H786.669V147.496L783.721 155.592H781.653L778.705 147.496V157H775.845Z" fill="black"/>
<path d="M719.95 322V306.6H731.83V322H728.97V309.24H722.81V322H719.95ZM734.211 321.978V319.25C734.475 319.382 734.783 319.448 735.113 319.448C736.059 319.448 736.521 318.722 736.631 316.698L737.269 306.6H747.191V322H744.331V309.24H739.799L739.315 316.94C739.073 320.548 737.973 322.176 735.443 322.176C735.069 322.176 734.475 322.088 734.211 321.978ZM749.176 322L754.39 306.6H757.25L762.464 322H759.384L758.262 318.37H753.378L752.256 322H749.176ZM754.192 315.73H757.448L755.82 310.384L754.192 315.73ZM764.445 322V306.6H767.305V312.452H773.465V306.6H776.325V322H773.465V315.092H767.305V322H764.445ZM779.849 322V306.6H782.709V317.116L789.111 306.6H791.905V322H789.045V311.484L782.643 322H779.849ZM795.425 322V306.6H801.233C804.379 306.6 806.051 308.47 806.051 311.286C806.051 314.102 804.379 315.972 801.233 315.972H798.285V322H795.425ZM798.285 313.332H801.123C802.421 313.332 803.147 312.672 803.147 311.286C803.147 309.9 802.421 309.24 801.123 309.24H798.285V313.332ZM816.12 306.6H819.002L812.314 322H809.498L811.522 317.292L806.99 306.6H809.982L813.018 313.816L816.12 306.6ZM820.755 322V306.6H830.281V309.24H823.615V312.474H828.961V315.114H823.615V319.36H830.501V322H820.755ZM833.281 322V306.6H836.493L840.123 316.214L843.753 306.6H846.965V322H844.105V312.496L841.157 320.592H839.089L836.141 312.496V322H833.281ZM849.235 324.992L850.709 319.008H854.383L851.303 324.992H849.235ZM708.435 344V328.6H720.315V344H717.455V331.24H711.295V344H708.435ZM723.839 344V328.6H729.647C732.793 328.6 734.465 330.47 734.465 333.286C734.465 336.102 732.793 337.972 729.647 337.972H726.699V344H723.839ZM726.699 335.332H729.537C730.835 335.332 731.561 334.672 731.561 333.286C731.561 331.9 730.835 331.24 729.537 331.24H726.699V335.332ZM736.046 336.3C736.046 331.108 739.302 328.424 743.306 328.424C747.31 328.424 750.566 331.108 750.566 336.3C750.566 341.492 747.31 344.176 743.306 344.176C739.302 344.176 736.046 341.492 736.046 336.3ZM747.662 336.3C747.662 332.736 745.704 331.064 743.306 331.064C740.908 331.064 738.95 332.736 738.95 336.3C738.95 339.864 740.908 341.536 743.306 341.536C745.704 341.536 747.662 339.864 747.662 336.3ZM753.337 344V328.6H762.863V331.24H756.197V334.474H761.543V337.114H756.197V341.36H763.083V344H753.337ZM765.863 344V328.6H768.723V334.32L773.981 328.6H777.501L771.253 335.486L777.941 344H774.311L768.723 336.652V344H765.863ZM782.971 344V331.24H778.681V328.6H790.121V331.24H785.831V344H782.971ZM791.988 344V328.6H794.848V339.116L801.25 328.6H804.044V344H801.184V333.484L794.782 344H791.988ZM807.564 344V328.6H813.372C816.518 328.6 818.19 330.47 818.19 333.286C818.19 336.102 816.518 337.972 813.372 337.972H810.424V344H807.564ZM810.424 335.332H813.262C814.56 335.332 815.286 334.672 815.286 333.286C815.286 331.9 814.56 331.24 813.262 331.24H810.424V335.332ZM828.259 328.6H831.141L824.453 344H821.637L823.661 339.292L819.129 328.6H822.121L825.157 335.816L828.259 328.6ZM832.894 344V328.6H842.42V331.24H835.754V334.474H841.1V337.114H835.754V341.36H842.64V344H832.894ZM845.419 344V328.6H848.631L852.261 338.214L855.891 328.6H859.103V344H856.243V334.496L853.295 342.592H851.227L848.279 334.496V344H845.419ZM679.13 366V350.6H681.99V361.116L688.392 350.6H691.186V366H688.326V355.484L681.924 366H679.13ZM699.415 358.3C699.349 353.306 702.781 350.38 706.697 350.424C710.041 350.424 712.351 352.118 713.077 355.088L710.503 355.748C709.865 354.054 708.721 353.064 706.697 353.064C704.233 353.064 702.319 354.846 702.319 358.3C702.319 361.754 704.233 363.536 706.697 363.536C708.721 363.536 709.865 362.546 710.503 360.852L713.077 361.512C712.351 364.482 710.041 366.176 706.697 366.176C702.781 366.22 699.349 363.294 699.415 358.3ZM715.013 358.3C715.013 353.108 718.269 350.424 722.273 350.424C726.277 350.424 729.533 353.108 729.533 358.3C729.533 363.492 726.277 366.176 722.273 366.176C718.269 366.176 715.013 363.492 715.013 358.3ZM726.629 358.3C726.629 354.736 724.671 353.064 722.273 353.064C719.875 353.064 717.917 354.736 717.917 358.3C717.917 361.864 719.875 363.536 722.273 363.536C724.671 363.536 726.629 361.864 726.629 358.3ZM732.304 366V350.6H741.852V353.24H735.164V366H732.304ZM741.322 365.978V363.25C741.586 363.382 741.894 363.448 742.224 363.448C743.17 363.448 743.632 362.722 743.742 360.698L744.38 350.6H754.302V366H751.442V353.24H746.91L746.426 360.94C746.184 364.548 745.084 366.176 742.554 366.176C742.18 366.176 741.586 366.088 741.322 365.978ZM756.287 366L761.501 350.6H764.361L769.575 366H766.495L765.373 362.37H760.489L759.367 366H756.287ZM761.303 359.73H764.559L762.931 354.384L761.303 359.73ZM770.206 358.3C770.14 353.306 773.572 350.38 777.488 350.424C780.832 350.424 783.142 352.118 783.868 355.088L781.294 355.748C780.656 354.054 779.512 353.064 777.488 353.064C775.024 353.064 773.11 354.846 773.11 358.3C773.11 361.754 775.024 363.536 777.488 363.536C779.512 363.536 780.656 362.546 781.294 360.852L783.868 361.512C783.142 364.482 780.832 366.176 777.488 366.176C773.572 366.22 770.14 363.294 770.206 358.3ZM785.804 358.3C785.804 353.108 789.06 350.424 793.064 350.424C797.068 350.424 800.324 353.108 800.324 358.3C800.324 363.492 797.068 366.176 793.064 366.176C789.06 366.176 785.804 363.492 785.804 358.3ZM797.42 358.3C797.42 354.736 795.462 353.064 793.064 353.064C790.666 353.064 788.708 354.736 788.708 358.3C788.708 361.864 790.666 363.536 793.064 363.536C795.462 363.536 797.42 361.864 797.42 358.3ZM803.095 366V350.6H808.727C811.433 350.6 813.127 352.03 813.127 354.758C813.127 356.012 812.577 357.09 811.609 357.596C813.149 358.234 813.919 359.488 813.919 361.358C813.919 364.328 812.005 366 808.837 366H803.095ZM805.955 356.584H808.573C809.783 356.584 810.377 356.122 810.377 354.912C810.377 353.702 809.761 353.24 808.507 353.24H805.955V356.584ZM805.955 363.36H808.573C810.311 363.36 811.059 362.634 811.059 361.292C811.059 359.95 810.311 359.224 808.573 359.224H805.955V363.36ZM816.63 366V350.6H819.49V356.1H822.218C825.496 356.1 827.256 358.058 827.256 361.05C827.256 363.976 825.496 366 822.218 366H816.63ZM819.49 363.36H822.108C823.516 363.36 824.352 362.568 824.352 361.05C824.352 359.554 823.516 358.74 822.108 358.74H819.49V363.36ZM828.884 366V350.6H831.744V366H828.884ZM835.257 366V350.6H840.889C843.595 350.6 845.289 352.03 845.289 354.758C845.289 356.012 844.739 357.09 843.771 357.596C845.311 358.234 846.081 359.488 846.081 361.358C846.081 364.328 844.167 366 840.999 366H835.257ZM838.117 356.584H840.735C841.945 356.584 842.539 356.122 842.539 354.912C842.539 353.702 841.923 353.24 840.669 353.24H838.117V356.584ZM838.117 363.36H840.735C842.473 363.36 843.221 362.634 843.221 361.292C843.221 359.95 842.473 359.224 840.735 359.224H838.117V363.36ZM846.93 366L852.144 350.6H855.004L860.218 366H857.138L856.016 362.37H851.132L850.01 366H846.93ZM851.946 359.73H855.202L853.574 354.384L851.946 359.73ZM862.198 366V350.6H871.724V353.24H865.058V356.474H870.404V359.114H865.058V363.36H871.944V366H862.198ZM874.724 366V350.6H877.936L881.566 360.214L885.196 350.6H888.408V366H885.548V356.496L882.6 364.592H880.532L877.584 356.496V366H874.724Z" fill="black"/>
<path d="M155.228 155.3C155.162 150.306 158.594 147.38 162.51 147.424C165.854 147.424 168.164 149.118 168.89 152.088L166.316 152.748C165.678 151.054 164.534 150.064 162.51 150.064C160.046 150.064 158.132 151.846 158.132 155.3C158.132 158.754 160.046 160.536 162.51 160.536C164.534 160.536 165.678 159.546 166.316 157.852L168.89 158.512C168.164 161.482 165.854 163.176 162.51 163.176C158.594 163.22 155.162 160.294 155.228 155.3ZM174.245 163V150.24H169.955V147.6H181.395V150.24H177.105V163H174.245ZM183.261 163V147.6H189.069C192.215 147.6 193.887 149.47 193.887 152.286C193.887 155.102 192.215 156.972 189.069 156.972H186.121V163H183.261ZM186.121 154.332H188.959C190.257 154.332 190.983 153.672 190.983 152.286C190.983 150.9 190.257 150.24 188.959 150.24H186.121V154.332ZM195.468 155.3C195.468 150.108 198.724 147.424 202.728 147.424C206.732 147.424 209.988 150.108 209.988 155.3C209.988 160.492 206.732 163.176 202.728 163.176C198.724 163.176 195.468 160.492 195.468 155.3ZM207.084 155.3C207.084 151.736 205.126 150.064 202.728 150.064C200.33 150.064 198.372 151.736 198.372 155.3C198.372 158.864 200.33 160.536 202.728 160.536C205.126 160.536 207.084 158.864 207.084 155.3ZM212.759 163V147.6H215.619V158.116L222.021 147.6H224.815V163H221.955V152.484L215.553 163H212.759ZM228.335 163V147.6H231.547L235.177 157.214L238.807 147.6H242.019V163H239.159V153.496L236.211 161.592H234.143L231.195 153.496V163H228.335Z" fill="black"/>
<path d="M71.9319 340V324.6H83.8119V340H80.9519V327.24H74.7919V340H71.9319ZM87.3362 340V324.6H93.1442C96.2902 324.6 97.9622 326.47 97.9622 329.286C97.9622 332.102 96.2902 333.972 93.1442 333.972H90.1962V340H87.3362ZM90.1962 331.332H93.0342C94.3322 331.332 95.0582 330.672 95.0582 329.286C95.0582 327.9 94.3322 327.24 93.0342 327.24H90.1962V331.332ZM100.463 340V324.6H103.323V335.116L109.725 324.6H112.519V340H109.659V329.484L103.257 340H100.463ZM116.039 340V324.6H125.587V327.24H118.899V340H116.039ZM125.057 339.978V337.25C125.321 337.382 125.629 337.448 125.959 337.448C126.905 337.448 127.367 336.722 127.477 334.698L128.115 324.6H138.037V340H135.177V327.24H130.645L130.161 334.94C129.919 338.548 128.819 340.176 126.289 340.176C125.915 340.176 125.321 340.088 125.057 339.978ZM140.023 340L145.237 324.6H148.097L153.311 340H150.231L149.109 336.37H144.225L143.103 340H140.023ZM145.039 333.73H148.295L146.667 328.384L145.039 333.73ZM155.291 340V324.6H158.151V337.36H162.793V324.6H165.653V337.36H170.295V324.6H173.155V340H155.291ZM175.128 340L180.342 324.6H183.202L188.416 340H185.336L184.214 336.37H179.33L178.208 340H175.128ZM180.144 333.73H183.4L181.772 328.384L180.144 333.73ZM190.397 340V324.6H199.923V327.24H193.257V330.474H198.603V333.114H193.257V337.36H200.143V340H190.397ZM202.922 340V324.6H206.134L209.764 334.214L213.394 324.6H216.606V340H213.746V330.496L210.798 338.592H208.73L205.782 330.496V340H202.922ZM25.6653 362V346.6H28.5253V357.116L34.9273 346.6H37.7213V362H34.8613V351.484L28.4593 362H25.6653ZM46.6985 362V346.6H52.5065C55.6525 346.6 57.3245 348.47 57.3245 351.286C57.3245 354.102 55.6525 355.972 52.5065 355.972H49.5585V362H46.6985ZM49.5585 353.332H52.3965C53.6945 353.332 54.4205 352.672 54.4205 351.286C54.4205 349.9 53.6945 349.24 52.3965 349.24H49.5585V353.332ZM56.4807 362L61.6947 346.6H64.5547L69.7687 362H66.6887L65.5667 358.37H60.6827L59.5607 362H56.4807ZM61.4967 355.73H64.7527L63.1247 350.384L61.4967 355.73ZM70.9133 357.798L73.6633 356.918C73.9053 358.524 75.1153 359.624 76.5893 359.624C78.2613 359.624 79.2733 358.656 79.2733 357.182C79.2733 355.686 77.9093 355.004 76.2593 355.004H75.2473V352.628H76.1273C77.7773 352.628 78.7673 351.968 78.7673 350.648C78.7673 349.592 77.8653 348.844 76.5453 348.844C75.2253 348.844 74.3233 349.636 74.0373 350.956L71.6173 350.472C71.7933 349.306 72.3213 348.338 73.2013 347.568C74.0813 346.798 75.2033 346.424 76.5453 346.424C79.6473 346.424 81.3633 347.898 81.3633 350.362C81.3633 351.924 80.5493 353.002 79.3173 353.64C80.9233 354.168 82.0893 355.576 82.0893 357.358C82.0893 360.13 79.9993 362.176 76.6333 362.176C73.6413 362.176 71.5073 360.46 70.9133 357.798ZM84.7688 362V346.6H90.4008C93.1068 346.6 94.8008 348.03 94.8008 350.758C94.8008 352.012 94.2508 353.09 93.2828 353.596C94.8228 354.234 95.5928 355.488 95.5928 357.358C95.5928 360.328 93.6788 362 90.5108 362H84.7688ZM87.6288 352.584H90.2468C91.4568 352.584 92.0508 352.122 92.0508 350.912C92.0508 349.702 91.4348 349.24 90.1808 349.24H87.6288V352.584ZM87.6288 359.36H90.2468C91.9848 359.36 92.7328 358.634 92.7328 357.292C92.7328 355.95 91.9848 355.224 90.2468 355.224H87.6288V359.36ZM96.7947 361.978V359.25C97.0587 359.382 97.3667 359.448 97.6967 359.448C98.6427 359.448 99.1047 358.722 99.2147 356.698L99.8527 346.6H109.775V362H106.915V349.24H102.383L101.899 356.94C101.657 360.548 100.557 362.176 98.0267 362.176C97.6527 362.176 97.0587 362.088 96.7947 361.978ZM113.3 362V346.6H122.826V349.24H116.16V352.474H121.506V355.114H116.16V359.36H123.046V362H113.3ZM125.825 362V346.6H128.685V352.32L133.943 346.6H137.463L131.215 353.486L137.903 362H134.273L128.685 354.652V362H125.825ZM138.508 362L143.722 346.6H146.582L151.796 362H148.716L147.594 358.37H142.71L141.588 362H138.508ZM143.524 355.73H146.78L145.152 350.384L143.524 355.73ZM153.777 362V346.6H163.303V349.24H156.637V352.474H161.983V355.114H156.637V359.36H163.523V362H153.777ZM166.302 362V346.6H169.514L173.144 356.214L176.774 346.6H179.986V362H177.126V352.496L174.178 360.592H172.11L169.162 352.496V362H166.302ZM188.968 362V346.6H198.516V349.24H191.828V362H188.968ZM199.177 354.3C199.177 349.108 202.433 346.424 206.437 346.424C210.441 346.424 213.697 349.108 213.697 354.3C213.697 359.492 210.441 362.176 206.437 362.176C202.433 362.176 199.177 359.492 199.177 354.3ZM210.793 354.3C210.793 350.736 208.835 349.064 206.437 349.064C204.039 349.064 202.081 350.736 202.081 354.3C202.081 357.864 204.039 359.536 206.437 359.536C208.835 359.536 210.793 357.864 210.793 354.3ZM215.72 354.3C215.654 349.306 219.086 346.38 223.002 346.424C226.346 346.424 228.656 348.118 229.382 351.088L226.808 351.748C226.17 350.054 225.026 349.064 223.002 349.064C220.538 349.064 218.624 350.846 218.624 354.3C218.624 357.754 220.538 359.536 223.002 359.536C225.026 359.536 226.17 358.546 226.808 356.852L229.382 357.512C228.656 360.482 226.346 362.176 223.002 362.176C219.086 362.22 215.654 359.294 215.72 354.3ZM234.737 362V349.24H230.447V346.6H241.887V349.24H237.597V362H234.737ZM243.753 362V346.6H253.279V349.24H246.613V352.474H251.959V355.114H246.613V359.36H253.499V362H243.753ZM256.279 362V346.6H259.139V357.116L265.541 346.6H268.335V362H265.475V351.484L259.073 362H256.279ZM259.095 342.112H261.119C261.119 342.97 261.537 343.498 262.307 343.498C263.077 343.498 263.495 342.97 263.495 342.112H265.519C265.519 344.026 264.419 345.28 262.307 345.28C260.195 345.28 259.095 344.026 259.095 342.112Z" fill="black"/>
<path d="M575.835 473V457.6H587.715V473H584.855V460.24H578.695V473H575.835ZM591.239 473V457.6H597.047C600.193 457.6 601.865 459.47 601.865 462.286C601.865 465.102 600.193 466.972 597.047 466.972H594.099V473H591.239ZM594.099 464.332H596.937C598.235 464.332 598.961 463.672 598.961 462.286C598.961 460.9 598.235 460.24 596.937 460.24H594.099V464.332ZM603.447 465.3C603.447 460.108 606.703 457.424 610.707 457.424C614.711 457.424 617.967 460.108 617.967 465.3C617.967 470.492 614.711 473.176 610.707 473.176C606.703 473.176 603.447 470.492 603.447 465.3ZM615.063 465.3C615.063 461.736 613.105 460.064 610.707 460.064C608.309 460.064 606.351 461.736 606.351 465.3C606.351 468.864 608.309 470.536 610.707 470.536C613.105 470.536 615.063 468.864 615.063 465.3ZM619.033 475.948V470.36H620.397C620.749 469.898 621.013 469.348 621.189 468.666C621.387 467.984 621.541 466.928 621.651 465.542L622.333 457.6H632.585V470.36H634.301V475.948H631.551V473H621.783V475.948H619.033ZM623.367 470.36H629.725V460.24H624.797L624.357 465.652C624.247 467.016 624.115 468.05 623.961 468.732C623.807 469.414 623.609 469.942 623.367 470.36ZM636.421 473V457.6H642.053C644.759 457.6 646.453 459.03 646.453 461.758C646.453 463.012 645.903 464.09 644.935 464.596C646.475 465.234 647.245 466.488 647.245 468.358C647.245 471.328 645.331 473 642.163 473H636.421ZM639.281 463.584H641.899C643.109 463.584 643.703 463.122 643.703 461.912C643.703 460.702 643.087 460.24 641.833 460.24H639.281V463.584ZM639.281 470.36H641.899C643.637 470.36 644.385 469.634 644.385 468.292C644.385 466.95 643.637 466.224 641.899 466.224H639.281V470.36ZM649.956 473V457.6H652.816V468.116L659.218 457.6H662.012V473H659.152V462.484L652.75 473H649.956ZM665.532 473V457.6H675.08V460.24H668.392V473H665.532ZM673.682 473L678.896 457.6H681.756L686.97 473H683.89L682.768 469.37H677.884L676.762 473H673.682ZM678.698 466.73H681.954L680.326 461.384L678.698 466.73ZM688.95 473V457.6H698.476V460.24H691.81V463.474H697.156V466.114H691.81V470.36H698.696V473H688.95ZM701.476 473V457.6H704.688L708.318 467.214L711.948 457.6H715.16V473H712.3V463.496L709.352 471.592H707.284L704.336 463.496V473H701.476Z" fill="black"/>
<path d="M235.139 461V445.6H237.999V451.452H244.159V445.6H247.019V461H244.159V454.092H237.999V461H235.139ZM249.003 461L254.217 445.6H257.077L262.291 461H259.211L258.089 457.37H253.205L252.083 461H249.003ZM254.019 454.73H257.275L255.647 449.384L254.019 454.73ZM264.272 461V445.6H267.132V451.452H273.292V445.6H276.152V461H273.292V454.092H267.132V461H264.272ZM279.676 461V445.6H282.536V456.116L288.938 445.6H291.732V461H288.872V450.484L282.47 461H279.676ZM295.252 461V445.6H298.464L302.094 455.214L305.724 445.6H308.936V461H306.076V451.496L303.128 459.592H301.06L298.112 451.496V461H295.252ZM310.921 461L316.135 445.6H318.995L324.209 461H321.129L320.007 457.37H315.123L314.001 461H310.921ZM315.937 454.73H319.193L317.565 449.384L315.937 454.73ZM326.19 461V445.6H335.716V448.24H329.05V451.474H334.396V454.114H329.05V458.36H335.936V461H326.19ZM338.715 461V445.6H341.927L345.557 455.214L349.187 445.6H352.399V461H349.539V451.496L346.591 459.592H344.523L341.575 451.496V461H338.715ZM194.641 483V467.6H197.501V478.116L203.903 467.6H206.697V483H203.837V472.484L197.435 483H194.641ZM214.926 475.3C214.926 470.108 218.182 467.424 222.186 467.424C226.19 467.424 229.446 470.108 229.446 475.3C229.446 480.492 226.19 483.176 222.186 483.176C218.182 483.176 214.926 480.492 214.926 475.3ZM226.542 475.3C226.542 471.736 224.584 470.064 222.186 470.064C219.788 470.064 217.83 471.736 217.83 475.3C217.83 478.864 219.788 480.536 222.186 480.536C224.584 480.536 226.542 478.864 226.542 475.3ZM232.217 483V467.6H241.963V470.24H235.077V473.716H238.025C241.171 473.716 242.843 475.564 242.843 478.358C242.843 481.108 241.171 483 238.025 483H232.217ZM235.077 480.36H237.915C239.169 480.36 239.939 479.656 239.939 478.358C239.939 477.06 239.169 476.356 237.915 476.356H235.077V480.36ZM252.16 467.6H255.042L248.354 483H245.538L247.562 478.292L243.03 467.6H246.022L249.058 474.816L252.16 467.6ZM265.59 483V476.84C264.534 477.258 263.544 477.412 261.982 477.412C258.814 477.412 256.834 475.542 256.834 471.604V467.6H259.694V471.692C259.694 473.694 260.728 474.772 262.488 474.772C263.808 474.772 264.644 474.64 265.59 474.222V467.6H268.45V483H265.59ZM270.423 483L275.637 467.6H278.497L283.711 483H280.631L279.509 479.37H274.625L273.503 483H270.423ZM275.439 476.73H278.695L277.067 471.384L275.439 476.73ZM285.692 483V467.6H295.218V470.24H288.552V473.474H293.898V476.114H288.552V480.36H295.438V483H285.692ZM298.217 483V467.6H301.429L305.059 477.214L308.689 467.6H311.901V483H309.041V473.496L306.093 481.592H304.025L301.077 473.496V483H298.217ZM319.739 482.978V480.25C320.003 480.382 320.311 480.448 320.641 480.448C321.587 480.448 322.049 479.722 322.159 477.698L322.797 467.6H332.719V483H329.859V470.24H325.327L324.843 477.94C324.601 481.548 323.501 483.176 320.971 483.176C320.597 483.176 320.003 483.088 319.739 482.978ZM355.318 475.3C355.318 480.492 352.194 483.176 348.322 483.176C344.67 483.176 341.656 480.756 341.348 476.092H339.104V483H336.244V467.6H339.104V473.452H341.458C342.118 469.47 344.956 467.424 348.322 467.424C352.194 467.424 355.318 470.108 355.318 475.3ZM352.414 475.3C352.414 471.736 350.588 470.064 348.322 470.064C346.056 470.064 344.23 471.736 344.23 475.3C344.23 478.864 346.056 480.536 348.322 480.536C350.588 480.536 352.414 478.864 352.414 475.3ZM356.39 485.948V480.36H357.754C358.106 479.898 358.37 479.348 358.546 478.666C358.744 477.984 358.898 476.928 359.008 475.542L359.69 467.6H369.942V480.36H371.658V485.948H368.908V483H359.14V485.948H356.39ZM360.724 480.36H367.082V470.24H362.154L361.714 475.652C361.604 477.016 361.472 478.05 361.318 478.732C361.164 479.414 360.966 479.942 360.724 480.36ZM373.778 483V467.6H383.304V470.24H376.638V473.474H381.984V476.114H376.638V480.36H383.524V483H373.778ZM386.303 483V467.6H389.163V478.116L395.565 467.6H398.359V483H395.499V472.484L389.097 483H386.303ZM389.119 463.112H391.143C391.143 463.97 391.561 464.498 392.331 464.498C393.101 464.498 393.519 463.97 393.519 463.112H395.543C395.543 465.026 394.443 466.28 392.331 466.28C390.219 466.28 389.119 465.026 389.119 463.112Z" fill="black"/>
<rect x="236.5" y="0.5" width="471" height="74" rx="37" stroke="#DF3920"/>
<rect x="0.5" y="307.5" width="293" height="74" rx="37" stroke="#DF3920"/>
<rect x="637.5" y="288.5" width="293" height="93" rx="39.5" stroke="#DF3920"/>
<rect x="635.5" y="116.5" width="187" height="74" rx="37" stroke="#DF3920"/>
<rect x="175.5" y="429.5" width="243" height="74" rx="37" stroke="#DF3920"/>
<rect x="530.5" y="429.5" width="230" height="74" rx="37" stroke="#DF3920"/>
<rect x="106.5" y="116.5" width="187" height="74" rx="37" stroke="#DF3920"/>
<path d="M278 163.5C290.5 163.833 318.7 169.2 331.5 188M467 65.5C463.833 74.5 459.4 96.4 467 112M651 159.5C635.667 161.667 603.9 170.4 599.5 188M651 336C646.333 327.667 629.5 311.2 599.5 312M556.5 465.5C554.167 449.667 542.9 415.1 516.5 403.5" stroke="black"/>
<path d="M436.002 405.5C421.835 411 394.102 428.2 396.502 453M273 336C280.5 325.333 302.6 306.3 331 315.5" stroke="black"/>
</svg>
