<svg width="62" height="39" viewBox="0 0 62 39" fill="none" xmlns="http://www.w3.org/2000/svg">
<path d="M29.1407 11.1067C29.0644 12.335 29.0898 13.5633 29.2678 14.7916H30.2595C30.285 14.5187 30.285 14.2457 30.2595 13.95C30.1832 13.1312 30.1832 12.3123 30.2595 11.4707V9.92393C30.1832 9.42351 30.2595 8.94584 30.4375 8.46816C30.4629 8.51366 30.4884 8.55915 30.5138 8.60464C30.6664 8.71837 30.6409 8.60464 30.6664 8.51365C30.6918 8.42267 30.5647 7.99049 30.7935 7.76303C30.9461 8.03598 31.0986 8.26344 31.2512 8.5364C31.2766 8.58189 31.2766 8.65013 31.2512 8.69563V8.76386V8.67288V7.71753C31.2512 7.67204 31.2512 7.6038 31.2512 7.55831C31.2766 7.6038 31.3021 7.67204 31.3275 7.71753C31.6072 9.49175 31.4801 11.2887 30.9207 12.9947C30.6918 13.6316 30.5901 14.2912 30.4121 14.9509H30.4884C31.1495 14.9281 31.8106 15.0418 32.3955 15.3148C32.5989 15.0646 32.7769 14.8144 32.9549 14.5642C33.5143 13.6998 34.15 12.8809 34.862 12.0848C35.1163 11.8119 35.396 11.5617 35.7011 11.3342L36.0825 10.6973C36.0825 10.6518 36.0825 10.6063 36.0825 10.5608L36.2097 10.4698C36.3368 10.3789 36.3114 10.5381 36.2097 10.5608C36.1842 10.6518 36.1334 10.7428 36.0825 10.8338C36.0825 10.9703 36.0571 11.1067 36.0062 11.2205C35.9554 11.3342 35.8537 11.4479 35.7265 11.5162V11.7436C35.7265 11.7436 35.9045 11.7436 35.9299 11.6754C35.9554 11.6072 36.1588 11.4024 36.3368 11.5844C36.3877 11.5844 36.4131 11.5844 36.4639 11.5617C36.4894 11.5389 36.5402 11.5162 36.5402 11.4934C36.6419 11.266 36.6674 11.0157 36.7945 10.7883C36.9216 10.5608 36.9725 10.6063 37.0742 10.5153V10.8338C37.0742 10.8338 37.0742 10.902 37.1759 10.9475C37.1759 10.902 37.1759 10.8565 37.1759 10.811L37.2776 10.5836C37.2268 11.0385 37.0742 11.4934 36.8199 11.9029C36.1079 12.9719 35.2688 13.9955 34.328 14.9054L33.2092 16.0199C33.4126 16.4066 33.7686 16.7251 34.2008 16.907C35.1671 15.9517 36.2097 15.0191 37.2776 14.1547C37.9388 13.5633 38.6762 13.0629 39.3881 12.5398C40.1001 12.0166 40.507 11.7891 41.0918 11.4024C41.0918 11.4024 41.2444 11.2887 41.2698 11.3115C41.2952 11.3342 41.2698 11.4707 41.2698 11.5389C41.2698 11.6072 40.8884 11.9029 40.9392 11.9483C41.3461 11.9483 42.0072 11.4252 42.6429 10.9703C42.7955 10.811 42.9481 10.6746 43.126 10.5381C43.304 10.4016 43.4566 10.2424 43.5838 10.0832C43.5838 10.1514 42.5412 11.3797 42.5921 11.4479C42.6429 11.5162 42.6938 11.5844 42.8209 11.4479C43.126 10.9703 43.5075 10.5608 43.9906 10.2196C43.9906 10.2196 43.7109 10.7655 44.1686 10.2196C44.1686 10.2879 44.1686 10.3561 44.1686 10.4243C44.1686 10.5381 43.3549 11.1977 43.3295 11.3115C43.304 11.4252 44.1432 10.6973 44.194 10.6973C44.2703 10.6973 44.3466 10.6973 44.372 10.6063C44.372 10.6063 44.372 10.6746 44.2449 10.72C44.1177 10.7428 44.1177 10.8793 44.0923 10.9703L43.9143 11.1295C43.3803 12.1303 42.5921 13.0174 41.6258 13.6998C40.0238 15.0419 38.2439 16.2247 36.3622 17.2255C35.9045 17.4757 35.4214 17.6349 34.9128 17.7487C34.9891 18.0671 35.1417 18.3628 35.3451 18.6358C37.0488 17.8396 38.6762 16.907 40.2273 15.8835C41.0918 15.3376 41.8801 14.7234 42.6175 14.041C43.4058 13.2904 44.2194 12.5852 45.0077 11.8119C45.796 11.0612 46.6351 10.2651 47.3979 9.35527C48.3642 8.26344 49.2796 7.12613 50.1696 5.98881C50.5001 5.51114 50.7799 5.03347 51.0341 4.53305V4.32833C50.9833 4.32833 50.907 4.32833 50.8561 4.32833C50.3221 4.69227 49.839 5.07896 49.2796 5.37466C48.7202 5.69311 47.7794 6.12529 46.9911 6.51198C45.7197 7.08064 44.5754 7.80852 43.5583 8.69563C43.1006 9.12781 42.5921 9.469 42.0072 9.74196C41.0155 10.1969 40.1001 10.811 39.3119 11.5162C39.0576 11.7436 38.7779 11.9711 38.4982 12.1986C38.2439 12.4033 37.9896 12.5852 37.7099 12.7672C37.659 12.79 37.6336 12.8127 37.5828 12.8127C37.5319 12.8127 37.4811 12.79 37.4556 12.7672C37.4302 12.7445 37.3793 12.7217 37.3793 12.6762C37.3539 12.6307 37.3539 12.608 37.3539 12.5625C37.3539 12.3123 37.4556 12.0621 37.659 11.8801C38.2439 11.2205 38.5745 10.4243 38.6507 9.58273C38.727 8.92309 38.9559 8.26345 39.2864 7.67204C39.8967 6.73944 40.4307 5.76135 40.8884 4.76051C40.8884 4.57854 41.1172 4.44206 41.219 4.26009C41.3207 4.05538 41.3969 3.85066 41.4732 3.64594C41.4732 3.64594 41.4732 3.5777 41.3461 3.5777C41.2444 3.60045 41.1681 3.64594 41.1172 3.69144C40.5578 4.28284 39.9476 4.8515 39.261 5.35192C39.0322 5.53389 38.8287 5.76135 38.6507 5.98881C38.3456 6.30726 38.0405 6.62571 37.7353 6.92141C36.5656 7.83126 35.5231 8.85485 34.6586 10.0149C34.328 10.5153 33.9466 10.993 33.5397 11.4479C32.8023 12.2668 32.1666 13.1539 31.5818 14.0865C31.5055 14.2457 31.4038 14.3822 31.2766 14.4959C31.2258 14.5414 31.2004 14.5642 31.1241 14.5869C31.0732 14.6097 31.0224 14.6097 30.9461 14.6097C30.8189 14.6097 30.6918 14.405 30.7427 14.2912C30.8189 14.0865 30.9207 13.8818 31.0478 13.6771C31.7852 12.4715 32.1412 11.1067 32.0903 9.74196C32.0903 8.19521 31.8615 6.64846 31.7598 5.10171C31.7343 4.87424 31.7089 4.64678 31.6581 4.44206C31.4292 3.50946 31.2004 2.59961 30.9715 1.66701C30.9206 1.43955 30.8698 1.23483 30.7935 1.00737C30.7935 0.93913 30.6409 0.87089 30.5647 0.802651C30.4884 0.734412 30.4121 0.916384 30.3867 0.984623C30.3612 1.05286 30.1832 1.57603 30.0561 1.87173C29.929 2.16743 29.7255 2.6451 29.573 3.05454C29.4204 3.46397 29.2424 3.94164 29.0644 4.39657C28.8101 5.03347 28.6067 5.67036 28.4541 6.33001C28.1999 7.49007 28.0982 8.65013 28.1999 9.83294C28.2253 10.1969 28.2253 10.5608 28.1999 10.9248" fill="#DE3A21"/>
<path d="M17.2906 27.5296C16.1972 28.1438 15.0783 28.7579 14.0104 29.4176C12.7644 30.1909 11.5693 31.0553 10.4759 32.0106C9.56049 32.8068 8.7468 33.6711 7.98396 34.6037C7.32283 35.3998 6.71256 36.2642 6.10229 37.1058C5.87344 37.4243 5.61916 37.7427 5.39031 38.0839V38.2204C5.39031 38.2431 5.51745 38.2204 5.54288 38.2204C5.67002 38.1749 5.77173 38.1067 5.87344 38.0384C6.15315 37.8792 6.43286 37.6972 6.73799 37.5607C8.18738 36.9921 9.61134 36.3552 10.959 35.6273C11.315 35.3998 11.6964 35.2179 12.0779 35.0359C12.5864 34.7402 13.095 34.49 13.629 34.2853C14.6969 33.8531 15.714 33.3072 16.6549 32.6475C17.3669 32.1926 18.0534 31.7149 18.7145 31.2373L19.8334 30.3729C19.7825 30.0545 19.6045 29.7815 19.3757 29.5313C17.9008 30.6686 16.3497 31.7377 14.7478 32.7385L13.6544 33.3754C13.4255 33.4891 13.1713 33.5574 12.917 33.5119C13.0187 33.5119 13.1204 33.5119 13.273 33.3754C13.4255 33.2389 13.4764 33.3754 13.6798 33.1934C13.8832 33.0115 13.7815 33.1025 13.8578 33.0342C13.9341 32.966 13.8578 32.9205 13.7307 33.0342C13.6035 33.1252 13.451 33.1934 13.273 33.2162C13.1204 33.2617 12.9678 33.3299 12.8661 33.4437L12.6373 33.5119L12.4338 33.4437C12.4593 33.3982 12.4847 33.3527 12.5356 33.3072C12.7644 33.1934 12.8153 33.0797 13.0187 32.966C13.2221 32.8522 13.3238 32.6703 13.2475 32.7385C13.1713 32.8068 13.4001 32.6248 13.2475 32.5338C13.095 32.4428 12.8915 32.7613 12.8915 32.7613L12.561 33.057C12.4847 33.1479 12.3576 33.1934 12.2304 33.2162V33.148C12.2813 33.0797 12.3321 33.0342 12.4084 33.0115C12.6627 32.8068 12.8915 32.5565 13.0695 32.2836C13.0695 32.2154 12.7644 32.4883 12.7135 32.4656C12.6627 32.4428 12.4338 32.7385 12.2813 32.875C12.2558 32.875 12.2304 32.8977 12.205 32.8977C12.1796 32.8977 12.1541 32.8977 12.1287 32.875L12.0016 32.8068C11.9761 32.784 11.9507 32.784 11.9507 32.7613C11.9507 32.7385 11.9253 32.7158 11.9253 32.693C11.9253 32.6703 11.9253 32.6475 11.9507 32.6248C11.9507 32.602 11.9761 32.5793 12.0016 32.5793C12.1287 32.4201 12.4847 32.4201 12.6118 32.2608C12.739 32.1016 12.7898 32.0561 12.7898 32.0106C12.7644 31.9879 12.4084 32.1244 12.3321 32.1244L11.9761 32.2154C11.9253 32.2381 11.849 32.2381 11.7981 32.2154V32.0561C11.9507 31.8742 12.1033 31.7149 12.2813 31.5557C13.5527 30.5776 14.9003 29.6905 16.3243 28.9171L18.4857 27.7798C18.4857 27.3704 18.4094 26.9609 18.2568 26.5743H17.138H14.5444C13.4764 26.6198 12.383 26.5288 11.315 26.3241C10.9082 26.2558 10.5013 26.2331 10.1199 26.1648C9.91648 26.1421 9.71306 26.0738 9.50963 26.0056C9.50963 26.0056 9.40792 25.8919 9.35706 25.8009L9.58592 25.6872C9.68763 25.6872 9.86562 25.6872 9.58592 25.5279C9.30621 25.3687 9.4842 25.4142 9.58592 25.3687L9.86562 25.255C9.76391 25.2322 9.68763 25.2095 9.58592 25.164C9.58592 25.164 9.45878 25.0958 9.4842 25.073C9.50963 25.0503 9.56049 24.891 9.63677 24.8683C9.81477 24.8683 9.99276 24.8683 10.1962 24.8683H10.3742C10.2979 24.8683 10.2216 24.8683 10.1453 24.8683L9.61134 24.8001V24.6636C9.71305 24.5953 9.81477 24.5498 9.91648 24.5271L10.781 24.4134H9.86562C9.99276 24.3679 10.0945 24.3451 10.2216 24.3224L12.4338 24.2086C14.1121 24.2314 15.7649 24.4589 17.3669 24.9138C17.5703 24.9138 17.7991 24.9138 18.0026 25.0275V24.0494C17.2906 23.8902 16.5786 23.6855 15.8412 23.5717C14.3409 23.3215 12.8153 23.276 11.315 23.4125C10.7047 23.4353 10.069 23.5263 9.4842 23.6855C8.67051 23.9357 7.83139 24.1177 6.96684 24.2314C6.22943 24.3451 5.46659 24.3906 4.78004 24.5726C3.48322 24.891 2.23725 25.3232 1.04214 25.8464C0.88957 25.8919 0.762431 25.9601 0.635292 26.0511C0.635292 26.0738 0.609863 26.0966 0.609863 26.1193C0.609863 26.1421 0.609864 26.1648 0.635292 26.1876C0.635292 26.2103 0.660719 26.2331 0.686147 26.2558C0.711575 26.2786 0.737003 26.2786 0.762431 26.3013C1.16928 26.4378 1.60155 26.506 2.03383 26.4833H3.15265C4.60205 26.5515 6.05144 26.7107 7.4754 26.9382C8.5688 27.0519 9.68763 27.2567 10.781 27.4159C12.4847 27.6661 14.2138 27.7116 15.9175 27.5524L16.7312 27.4386C17.0109 27.4159 17.2906 27.4159 17.5703 27.4386C17.6211 27.4386 17.672 27.4841 17.6974 27.5069C17.7228 27.5524 17.7228 27.5978 17.6974 27.6433L17.316 27.8708" fill="#DE3A21"/>
<path d="M53.7042 22.7075C52.4074 22.7985 51.1106 22.7985 49.7883 22.7075C49.0255 22.6393 48.2372 22.6393 47.4744 22.7075C46.7624 22.7758 46.0504 22.8213 45.3385 22.8895C44.6265 22.9577 43.4822 23.0942 42.5922 23.2989C41.2446 23.5719 39.9477 23.9131 38.6509 24.2315C38.1932 24.3453 37.7864 24.5045 37.3287 24.641C37.2778 24.9367 37.3287 25.2551 37.4812 25.5281L42.0583 24.2998C42.8974 24.0951 43.7365 23.9586 44.6011 23.8903L45.9996 23.7311H46.9658C47.1947 23.6856 47.4236 23.6401 47.6524 23.6174C47.805 23.6174 47.8304 23.6174 47.8558 23.7539C47.627 23.8676 47.3473 23.9131 47.093 23.9131H46.4319V24.0268C46.4319 24.1405 46.8641 24.0268 47.1184 24.0268C47.3981 24.0041 47.6778 24.0041 47.9575 24.0268L47.271 24.4362C47.1947 24.5045 47.1184 24.5727 47.0676 24.6637C47.1947 24.6865 47.2964 24.6865 47.4235 24.6637L48.1864 24.368C48.2627 24.3453 48.3644 24.3453 48.4661 24.368C48.5678 24.3908 48.6441 24.4362 48.6949 24.5045C48.7204 24.5272 48.7458 24.5727 48.7458 24.5955C48.7458 24.641 48.7204 24.6637 48.6949 24.6865C48.5424 24.8229 47.983 24.8002 47.983 25.0959C48.2627 25.2551 48.6441 24.8912 48.8729 24.9139C49.1018 24.9367 49.0509 24.9139 49.1526 24.9139C49.2544 24.9139 49.3306 24.9594 49.4069 24.9822C49.4069 24.9822 49.4069 25.1414 49.2798 25.1641C49.1526 25.1869 48.7458 25.4371 48.4661 25.5736C48.4152 25.5963 48.3898 25.6418 48.339 25.6873C48.3898 25.6873 48.4407 25.6873 48.4915 25.6873C48.6187 25.7555 48.7712 25.801 48.8984 25.801C49.0509 25.801 49.2035 25.7555 49.3306 25.6873H49.4832C49.5341 25.6873 49.4832 25.8465 49.4832 25.8693C49.1526 26.0285 48.8221 26.165 48.4661 26.2787C47.1438 26.6654 45.7962 26.9611 44.4231 27.1886C43.2788 27.3705 42.1345 27.4843 40.9903 27.5525L37.7609 27.6662C37.6338 27.689 37.5067 27.689 37.3795 27.6662C37.227 27.9392 37.1252 28.2349 37.1252 28.5306H37.405L41.1937 28.3714C43.1008 28.2804 45.0079 27.9847 46.8641 27.5297L49.8392 26.8246C50.78 26.6199 51.67 26.3469 52.5346 25.983C53.3991 25.5736 54.2382 25.1869 55.2045 24.8457C57.1116 24.1405 59.0695 23.5036 60.9512 22.7075C61.1546 22.6165 61.3326 22.5256 61.5106 22.4346H60.9512C60.1121 22.4346 59.2475 22.4346 58.4593 22.5256C57.6964 22.6165 56.6539 22.5256 55.7639 22.5938C54.8739 22.662 54.3145 22.5938 53.628 22.5938" fill="#DE3A21"/>
<path d="M39.7944 33.3526L43.2272 33.6938H43.6086H45.4649C46.4311 33.6938 47.3719 33.5801 48.3128 33.4208C50.0164 33.1706 51.593 32.8749 53.2458 32.5792C53.8052 32.4655 54.3901 32.3972 54.9495 32.3518C56.0683 32.238 57.1363 31.9878 58.1788 31.6011L57.5431 31.5101C56.7294 31.5101 55.8394 31.4192 55.0512 31.3282C53.2204 31.1462 51.4404 30.8732 49.6605 30.4411H49.3045C47.8042 30.2136 46.304 29.9861 44.8037 29.8042C43.8883 29.6449 42.9729 29.554 42.0321 29.554C40.1504 29.554 38.2688 29.7132 36.3871 29.9406L35.9294 30.896C36.5142 30.805 37.0736 30.6685 37.6331 30.623C38.9807 30.5093 40.3284 30.4183 41.7015 30.3728C42.4389 30.3501 43.1763 30.3956 43.9138 30.5093C44.524 30.623 45.1343 30.8505 45.77 30.9642C45.8208 30.987 45.8717 31.0097 45.8971 31.0552H45.77H44.524C44.346 31.0552 44.1426 31.0552 43.9646 31.0552C43.9646 31.1689 44.4223 31.1234 44.524 31.1234H46.5583L46.7108 31.1917L46.5837 31.2599H46.2023C46.1006 31.2827 45.9734 31.3282 45.8717 31.3737C45.3886 31.4192 44.9054 31.4419 44.4223 31.4419H43.812C43.812 31.4419 43.634 31.5556 44.4477 31.4419C44.8037 31.4192 45.1597 31.4419 45.5157 31.5329H44.8546H43.7612V31.6239H44.2952H45.3123C45.1089 31.6694 44.88 31.6921 44.6766 31.6921H43.7103C43.6086 31.6921 43.7103 31.6921 43.812 31.8058C43.9646 31.8058 44.0917 31.8058 44.2443 31.8058C44.524 31.7831 44.7783 31.7831 45.058 31.8058L44.88 31.9651L43.9646 32.1015C43.5323 32.1698 43.1001 32.1925 42.6424 32.1698L41.4472 32.0561L37.0228 31.6011L34.836 31.3964L34.302 32.0788C34.7597 32.2608 35.2428 32.3518 35.7514 32.3745L39.8961 32.8067" fill="#DE3A21"/>
<path d="M44.8295 16.0655C43.3547 16.4977 41.9053 16.9981 40.5068 17.6123C40.4051 17.635 40.2779 17.6805 40.1762 17.6805C39.0574 17.9762 37.9386 18.3857 36.896 18.8633C36.718 18.9316 36.5654 18.9998 36.3875 19.0453C36.3875 19.3637 36.4637 19.7049 36.6163 20.0006C37.964 19.3183 39.3625 18.7496 40.7865 18.2947C42.007 17.8397 43.2784 17.544 44.5244 17.1573C44.6007 17.1573 44.6769 17.1573 44.7532 17.1573H44.8804L44.7532 17.2256L44.5244 17.3393L44.4227 17.4076C44.0921 17.5895 43.7615 17.7942 43.6598 17.817C43.5836 17.8397 43.6598 17.8852 43.6598 17.9307C43.6598 17.9762 43.6598 17.9307 43.7361 17.9307C44.1175 17.7942 44.4735 17.635 44.8041 17.4303L45.0075 17.3393C45.1601 17.2711 45.2364 17.3393 45.2618 17.3393L45.0329 17.5668C44.5752 17.8397 43.965 18.2719 43.8633 18.3174C43.787 18.3629 43.7361 18.4084 43.8633 18.4766C43.9904 18.5449 43.9904 18.4766 44.0413 18.4766L44.7532 17.999L45.1347 17.726C45.1601 17.726 45.2109 17.726 45.2364 17.7033C45.2618 17.6805 45.2872 17.6578 45.2872 17.635L45.4144 17.5213H45.7195C45.8212 17.5213 45.9483 17.635 45.8975 17.7033C45.8721 17.7715 45.8212 17.8625 45.7703 17.9762C45.2618 18.1809 44.7787 18.4311 44.321 18.7496L44.8295 18.5676L45.0584 18.4539C45.2872 18.3629 45.4906 18.2492 45.6941 18.1127H45.8212L45.6178 18.2264L45.3127 18.4539L45.1347 18.6131C44.3464 19.159 43.5073 19.6367 42.6427 20.0234C41.6256 20.4783 40.5831 20.8877 39.5151 21.2517C38.7014 21.5246 37.8114 21.7066 37.0231 21.9341V22.662H37.3791C38.8031 22.4117 40.2016 21.9796 41.4985 21.4109C42.5664 20.956 43.609 20.4328 44.6261 19.8642C46.1772 19.0225 47.7537 18.3174 49.2031 17.3393C50.0677 16.7934 50.8814 16.1793 51.6442 15.5196C52.1273 15.0874 52.6613 14.7007 53.2207 14.3596L55.611 12.9038C55.611 12.9038 55.611 12.7673 55.7127 12.6763C55.8144 12.6081 55.5855 12.6763 55.5347 12.6763C55.1532 12.7446 54.7718 12.8583 54.3904 12.9948C53.9581 13.154 53.5259 13.2677 53.0682 13.3587C52.2036 13.4952 51.3645 13.6772 50.5508 13.9274C48.5674 14.5415 46.584 15.2012 44.6515 15.9063" fill="#DE3A21"/>
<path d="M0.406846 17.2255C0.96626 17.4529 1.47482 17.7941 2.0088 18.0671C3.50905 18.795 5.08558 19.3864 6.68754 19.8641C8.39121 20.3417 10.1203 20.7512 11.9511 21.1833C13.1717 21.479 14.4431 21.6383 15.7144 21.6838C16.5536 21.7065 17.3673 21.8202 18.181 22.0477C18.359 21.752 18.4607 21.4336 18.4352 21.0924C17.2656 21.0924 16.0704 21.0924 14.9008 20.9559C13.7056 20.9331 12.536 20.6829 11.468 20.2052C11.112 20.0005 9.28119 19.9323 9.07776 19.3864C9.17947 19.3409 9.28119 19.3181 9.40833 19.2954C9.53547 19.2954 11.3663 19.4774 10.1966 18.704H9.99317L9.3829 18.5448C9.3829 18.5448 9.3829 18.5448 9.25576 18.431C9.12862 18.3173 9.40833 18.3401 9.48461 18.3401H10.1457C10.1457 18.3401 10.6543 18.3401 10.1457 18.1581L9.53547 18.0216C9.45918 17.9989 9.35747 17.9761 9.28119 17.9306C9.12862 17.8624 9.28119 17.7032 9.35747 17.7032L9.91689 17.8169H10.2474C10.2474 17.8169 10.2474 17.7486 10.1457 17.7259H10.0186C9.35747 17.4984 9.68803 17.271 9.89146 17.2937C10.0949 17.3392 10.3237 17.3392 10.5272 17.2937C10.9594 17.18 11.3917 17.18 11.824 17.2937C12.8157 17.4757 13.7819 17.7714 14.7228 18.1353C16.1976 18.6358 17.647 19.2272 19.0455 19.8868L19.5032 19.0907C19.4015 19.0224 19.2998 18.977 19.1726 18.9315L16.1213 17.7032C15.2313 17.2937 14.2905 16.998 13.3242 16.7933C12.7648 16.6568 12.18 16.5431 11.6206 16.4521C10.3492 16.2929 9.07776 16.3611 7.8318 16.6113C7.57752 16.6796 7.29781 16.7251 7.0181 16.7706L3.58534 17.0435C2.51736 17.1572 1.42396 17.089 0.35599 16.8388H0.0762835H0V16.9298C0 17.0208 0.228851 17.2027 0.381419 17.271" fill="#DE3A21"/>
<path d="M20.2659 9.03689C20.2659 9.03689 20.9524 9.83301 20.2659 8.53647C20.393 8.26351 20.4693 8.21802 20.6727 8.53647C20.8762 8.85492 20.9779 9.12787 21.4356 9.15062C21.5119 9.15062 21.6136 9.30984 21.6898 9.37808C22.6053 10.2879 23.2409 11.4025 23.5207 12.6081C23.6987 13.2905 23.8512 13.9728 23.9784 14.6552V14.8145C23.9784 14.8827 23.8258 14.8145 23.7749 14.7007L20.5964 10.7884C20.393 10.5154 20.215 10.2197 20.037 9.94674C20.037 9.85576 19.9099 9.71928 19.9353 9.62829C19.9608 9.56005 19.9353 9.08238 19.7828 8.83217C19.6302 8.55922 20.0116 8.67295 20.393 9.08238M16.8585 3.87347C17.5197 4.66959 17.9265 5.60219 18.0537 6.58029C18.1808 7.37641 18.4351 8.12704 18.6639 8.9459C18.9182 9.83301 19.3251 10.6974 19.9099 11.448L23.4189 16.1792C23.8766 15.7925 24.4361 15.5196 25.0463 15.4059C24.8683 14.0866 24.5632 12.79 24.1564 11.5162C24.0546 11.1978 23.9275 10.8793 23.7749 10.5836C23.5969 10.197 23.3681 9.85576 23.0884 9.51456C22.6561 9.01414 22.2747 8.51372 21.9441 7.96781C21.6136 7.44465 21.2321 6.92148 20.8253 6.42106C20.2913 5.80691 19.7065 5.23825 19.1216 4.64685C18.4859 4.0327 17.7231 3.55502 16.884 3.19108C16.7314 3.14559 16.5788 3.12284 16.4263 3.1001C16.4263 3.21383 16.4263 3.32756 16.5534 3.44129C16.6297 3.60052 16.7314 3.73699 16.8585 3.87347Z" fill="#DE3A21"/>
<path d="M24.6142 8.65009C24.6142 8.62734 24.6396 8.6046 24.6396 8.58185C24.665 8.5591 24.6904 8.53636 24.7159 8.53636C24.8684 8.53636 24.843 8.62734 24.843 8.69558V9.196C24.843 9.24149 24.843 9.30973 24.843 9.35523C24.843 9.44621 24.9447 9.35523 24.9447 9.35523C24.9447 9.35523 24.9447 8.96854 25.0464 8.78657C25.0719 8.78657 25.0973 8.76382 25.1227 8.76382C25.1481 8.76382 25.1736 8.76382 25.199 8.78657C25.2244 8.78657 25.2499 8.78657 25.2753 8.80931C25.3007 8.83206 25.3261 8.83206 25.3261 8.85481V9.196C25.3261 9.30973 25.3261 9.74191 25.5296 9.30973C25.555 9.10502 25.6313 8.92305 25.733 8.74107C25.733 8.74107 25.911 8.74107 25.9618 8.62734L26.089 8.85481C26.1144 8.99128 26.1653 9.10502 26.2161 9.21875C26.2161 9.21875 26.4958 9.76466 26.4704 9.21875C26.4704 9.05952 26.3433 8.87755 26.267 8.71833C26.1907 8.5591 26.623 8.5591 26.7247 8.71833C26.8772 9.01403 27.0044 9.33248 27.1061 9.65093C27.2332 10.3106 27.3858 10.9702 27.4367 11.6299C27.4621 12.4715 27.3858 13.3131 27.2332 14.132C27.2332 14.2457 27.2332 14.4049 27.1061 14.4277C26.979 14.4504 26.9027 14.2684 26.8264 14.1774C26.089 13.1084 25.4279 12.0165 24.843 10.8792C24.5125 10.2196 24.3853 9.4917 24.4616 8.76382M24.131 11.1294C24.131 11.1294 25.0973 12.7672 25.6059 13.586C25.911 14.0865 26.267 14.5186 26.623 14.9963L28.2249 14.8143C28.8606 12.4942 28.6572 10.0604 27.6655 7.83122C27.4875 7.42179 27.3349 6.98961 27.1315 6.58017C26.5721 5.28363 25.8601 4.03259 25.021 2.84978C24.843 2.62231 24.6904 2.39485 24.5125 2.14464C24.3345 1.91718 24.3853 2.0764 24.3853 2.14464C24.309 2.19013 24.2836 2.23563 24.2582 2.30386V2.48584C24.3345 3.55491 24.309 4.60124 24.131 5.67032C23.9785 6.37546 23.8005 7.08059 23.6988 7.80848C23.6733 8.2634 23.6733 8.69558 23.6988 9.15051C23.7496 9.85565 23.9022 10.538 24.1819 11.1977" fill="#DE3A21"/>
<path d="M8.49277 8.21803L8.74705 8.67295C9.28103 9.65104 9.94216 10.5609 10.7559 11.357C11.5441 12.1076 12.4087 12.79 13.3495 13.3587L14.7735 14.314C15.282 14.6325 15.7652 14.9737 16.2737 15.2694C17.1383 15.7698 17.9774 16.2247 18.9182 16.6342C19.5539 16.9526 20.1388 17.2938 20.7236 17.6578L21.3593 17.1573C20.9779 16.9526 20.5965 16.7479 20.2405 16.5204C18.7402 15.5651 17.1383 14.7235 15.5617 13.8591C15.1295 13.4952 14.6972 13.1312 14.2903 12.7218C14.2903 12.7218 14.2903 12.4261 14.4938 12.4033C14.4938 12.4716 15.1803 12.7445 15.3837 12.8583C15.5872 12.972 15.638 12.8583 15.5109 12.7445C15.2057 12.6081 14.9006 12.4261 14.6463 12.1986V12.0849C14.6463 12.0622 14.748 12.0167 14.7989 11.9939C14.9515 12.0394 15.104 12.1076 15.2312 12.1759H15.3583C15.3837 12.1759 15.0023 11.8347 15.0023 11.7665C15.0023 11.6982 15.0023 11.5162 15.1803 11.6072C15.3074 11.6527 15.4092 11.6982 15.5109 11.7665C16.2483 12.2669 16.9857 12.79 17.6977 13.3132C18.4097 13.8364 18.9691 14.2685 19.6302 14.769L19.859 14.9054L21.9187 16.7479L22.707 16.3612C22.5035 16.0883 22.2747 15.8153 22.0204 15.5651C21.2576 14.9282 20.4693 14.2913 19.6556 13.6771C18.5876 12.8128 17.4434 12.0167 16.2229 11.3343C15.7651 11.0841 15.3074 10.8793 14.8243 10.6746C14.3412 10.4472 14.1886 10.4472 13.8835 10.3107C12.8155 9.90126 11.7475 9.44633 10.6541 9.01415C9.91673 8.74119 9.20475 8.4 8.54362 7.99056L8.39106 7.80859H8.26392V7.87683L8.44191 8.14979" fill="#DE3A21"/>
<path d="M34.2265 28.2802C34.0739 28.2347 33.9213 28.2347 33.7688 28.2802C33.4382 28.4849 33.1331 28.7351 32.8534 28.9854C32.4719 29.3265 32.0142 29.5768 31.5057 29.6905C29.98 30.0772 28.4035 30.2364 26.8015 30.1227H25.0978C24.9707 30.1227 24.869 30.1682 24.7673 30.1909C24.7418 30.2137 24.7164 30.2137 24.691 30.2591C24.6656 30.2819 24.6656 30.3046 24.6656 30.3501C24.6401 30.3729 24.6401 30.3956 24.6401 30.4184C24.6401 30.4411 24.6401 30.4639 24.6656 30.4866C24.8181 30.5776 24.9961 30.6458 25.1741 30.7141C26.4964 30.987 27.8695 31.0325 29.2426 30.8733L30.5394 30.6686C31.3531 30.5321 32.1668 30.3274 32.9296 30.0772C33.5399 29.8725 34.0485 29.4858 34.4299 28.9854C34.4807 28.9399 34.5062 28.8716 34.5316 28.8034C34.5316 28.7351 34.5316 28.6669 34.5062 28.5987C34.4807 28.5304 34.4299 28.4622 34.379 28.4167C34.3282 28.3712 34.2519 28.3257 34.1756 28.3257" fill="#DE3A21"/>
<path d="M34.7345 29.7815C34.2514 30.5321 33.7174 31.2373 33.1834 31.9651C32.446 32.9205 31.378 33.6256 30.1575 33.9668C28.9624 34.3535 27.6656 34.49 26.4196 34.399C25.9365 34.3535 25.4533 34.1943 25.0211 33.9896C24.5888 33.7621 24.1819 33.5119 23.7751 33.2617C23.1902 32.875 22.7071 32.3973 22.3511 31.8514C21.6646 30.8278 21.0797 29.736 20.6475 28.5987C20.5712 28.4167 20.4949 28.2347 20.3932 28.0528C19.9863 27.2794 19.7575 26.4378 19.7066 25.5734C19.7066 24.9138 19.6049 24.2996 19.5795 23.64C19.5541 22.9348 19.6812 22.2525 19.91 21.5928C20.1643 20.9104 20.5457 20.2508 21.0289 19.6821C21.9188 18.5903 23.0885 17.7032 24.4616 17.1345C24.6396 17.0435 24.8431 16.9298 25.0211 16.8161C25.2245 16.7024 25.4533 16.6114 25.6822 16.5431C26.2416 16.3839 26.801 16.2474 27.3858 16.1337C27.5893 16.111 27.8181 16.111 28.047 16.1337C28.1233 16.1337 28.1995 16.1792 28.2504 16.2247C28.3013 16.2702 28.3267 16.3384 28.3267 16.4067C28.3267 16.5204 28.3267 16.6341 28.3267 16.7478C28.1741 18.5676 28.0978 20.3873 28.1487 22.207C28.1487 22.4344 28.225 22.6619 28.3521 22.8666C28.4792 23.0713 28.6318 23.2533 28.8352 23.367C29.0387 23.5035 29.2675 23.5945 29.5218 23.64C29.7761 23.6855 30.0303 23.6855 30.2592 23.6172C30.3355 23.5945 30.3863 23.549 30.4372 23.5035C30.4881 23.458 30.5389 23.3898 30.5643 23.3215C30.5898 23.2306 30.5898 23.1623 30.5643 23.0713C30.5389 23.0031 30.4626 22.9348 30.3863 22.8894C30.2846 22.8439 30.1575 22.7984 30.0558 22.7756C29.7506 22.7301 29.4709 22.6164 29.2675 22.3889C29.0641 22.1842 28.937 21.9113 28.9624 21.6383V20.0916V18.9997C28.9624 18.1126 29.0895 17.2255 29.3184 16.3612C29.3184 16.1564 29.5472 15.9745 29.7506 15.9972C30.6152 16.02 31.4543 16.2247 32.2426 16.5659C33.2597 17.0663 34.0988 17.8169 34.6582 18.7268C34.7345 18.8405 34.7854 18.977 34.8362 19.1135C35.2431 20.1598 35.5482 21.2516 35.7008 22.3662C35.7008 23.0713 35.9296 23.731 35.9805 24.4361C36.0568 25.1412 35.9805 25.3915 35.9805 25.8464C36.0822 27.2566 35.7008 28.6442 34.8617 29.827M37.4044 24.5271C37.201 23.9812 37.1247 23.367 37.2264 22.7984V22.0705C37.2264 21.8203 37.0993 22.0705 37.0993 21.9795C36.8705 21.3654 36.7179 20.7285 36.667 20.0688C36.5145 19.7731 36.4382 19.4319 36.4382 19.0907C36.2856 19.0907 36.2602 18.9315 36.311 18.7723C36.1076 18.4993 35.9551 18.2036 35.8788 17.8852C35.4974 17.6577 35.2176 17.2938 35.1159 16.9071C34.6837 16.7251 34.3277 16.4294 34.1242 16.02C33.5903 16.02 33.4123 15.7015 32.8783 15.3376C32.2934 15.0646 31.6323 14.9281 30.9712 14.9736H30.8949C30.7932 14.9964 30.6915 14.9964 30.5898 14.9736C30.4881 14.9509 30.4118 14.9054 30.3355 14.8372H29.3438C28.9878 14.9054 28.6318 14.9054 28.3013 14.8372L26.6993 15.0191C26.5976 15.0874 26.4704 15.1101 26.3433 15.1329C25.911 15.2238 25.555 15.3376 25.1228 15.4286C24.5125 15.5423 23.9531 15.8153 23.4954 16.2019C23.2665 16.3157 23.1394 16.3384 22.8088 16.5204L22.0206 16.9071C21.868 17.0435 21.69 17.1573 21.4866 17.2255L20.8509 17.7259C20.4949 18.2264 20.088 18.704 19.5795 19.0907L19.1472 19.8868C19.0455 20.3418 18.8421 20.7512 18.5369 21.1379C18.5624 21.4791 18.4607 21.7975 18.2827 22.0932C18.3081 22.6619 18.2827 23.2306 18.1555 23.7765V24.7546C18.3335 25.3914 18.4098 26.0283 18.3844 26.6652C18.5369 27.0519 18.6386 27.4614 18.6132 27.8708C18.7149 27.939 18.8929 28.0073 18.9184 28.121C19.1472 28.6214 19.3252 29.1218 19.5286 29.6678C19.7575 29.8952 19.91 30.1909 19.9609 30.5094C20.3677 31.169 20.7746 31.7832 21.156 32.4656C21.4866 32.9887 21.9188 33.4664 22.4528 33.8303L23.1394 34.3762C23.3428 34.5127 23.5462 34.6265 23.7751 34.7174C24.4616 35.0359 25.1736 35.3088 25.911 35.5136C26.5976 35.6045 27.2841 35.6045 27.9453 35.5136C28.6827 35.5136 29.4201 35.4226 30.1575 35.2861C31.3526 35.0131 32.446 34.49 33.3614 33.7394V33.5801C33.3614 33.5574 33.9462 33.1025 34.226 32.875L34.7599 32.1926C34.8108 31.8514 35.0396 31.533 35.3448 31.3282C35.4974 31.2145 35.6753 31.1008 35.8533 30.987L36.311 30.0317C36.4128 29.5313 36.6162 29.0536 36.9467 28.6442C36.9467 28.3485 37.0485 28.0528 37.201 27.7798C37.201 27.1202 37.3282 26.4833 37.379 25.8464C37.4299 25.7099 37.4807 25.5962 37.557 25.4824C37.4044 25.2095 37.3536 24.9138 37.4044 24.5953" fill="#DE3A21"/>
<path d="M25.682 20.8877C25.2752 20.6829 24.8429 20.6147 24.3852 20.6602H24.0801C23.5461 20.6829 23.0375 20.8422 22.6053 21.1151C22.4781 21.1834 22.4018 21.2744 22.3256 21.3881C22.2747 21.5018 22.2493 21.6383 22.2493 21.752C22.2747 21.8658 22.3256 22.0022 22.4018 22.0932C22.4781 22.1842 22.6053 22.2752 22.7324 22.3207C23.0121 22.4572 23.3427 22.5027 23.6478 22.4344C24.0801 22.3662 24.4869 22.2752 24.8938 22.1387C25.1989 22.025 25.504 21.8658 25.7583 21.6838C26.1397 21.4563 26.0889 21.0924 25.682 20.8877Z" fill="#DE3A21"/>
<path d="M33.4376 20.9559C32.8528 20.9104 32.2934 20.9559 31.734 21.0697C31.4288 21.1379 31.1745 21.3199 31.022 21.5473C30.9457 21.6156 30.8948 21.6838 30.8694 21.7748C30.844 21.8658 30.844 21.9568 30.8694 22.0478C30.8948 22.1387 30.9457 22.2297 31.022 22.2752C31.0983 22.3435 31.1745 22.389 31.2763 22.4117C31.6322 22.5709 31.9882 22.4117 32.4205 22.4117C32.6748 22.4344 32.9291 22.4344 33.1834 22.4117C33.4376 22.389 33.6665 22.3207 33.8953 22.2297C33.997 22.1842 34.0733 22.116 34.1242 22.025C34.175 21.934 34.2259 21.843 34.2259 21.7521C34.2513 21.6611 34.2259 21.5473 34.2005 21.4564C34.175 21.3654 34.0988 21.2744 34.0225 21.2061C33.8699 21.0469 33.6411 20.9332 33.4122 20.8877" fill="#DE3A21"/>
</svg>
