<?xml version="1.0" encoding="utf-8"?>
<!-- Generator: Adobe Illustrator 26.0.1, SVG Export Plug-In . SVG Version: 6.00 Build 0)  -->
<svg version="1.1" id="Слой_1" xmlns="http://www.w3.org/2000/svg" xmlns:xlink="http://www.w3.org/1999/xlink" x="0px" y="0px"
	 viewBox="0 0 816.7 710.8" style="enable-background:new 0 0 816.7 710.8;" xml:space="preserve">
<style type="text/css">
	.st0{fill:#D61736;}
	.st1{fill:#030303;}
	.st2{fill:#D91735;}
	.st3{fill:#D71635;}
	.st4{fill:#E3294A;}
</style>
<g>
	<g>
		<path class="st0" d="M96.4,666.9H85.5V660h29.3v6.9h-10.9v44h-7.5V666.9z"/>
		<path class="st0" d="M155.1,660l-11.9,40.5c-2.3,7.9-5.4,10.9-11.2,10.9c-1.2,0-2.6-0.1-4-0.5v-6.5c0.9,0.2,1.7,0.2,2.5,0.2
			c2.8,0,4.4-1.3,5.5-5.2l0.2-0.5L123.5,660h7.9l8.4,27.8l7.6-27.8H155.1z"/>
		<path class="st0" d="M166.4,660h12.4c10,0,15.7,5.6,15.7,15.5s-5.8,15.6-15.7,15.6h-4.9v19.8h-7.5V660z M178.8,684.3
			c5.4,0,8.1-2.9,8.1-8.8c0-5.8-2.8-8.7-8.1-8.7h-4.9v17.5H178.8z"/>
		<path class="st0" d="M214.4,660v50.8h-7.5V660H214.4z M237.1,710.8h-8.4l-14.3-27.2l13.7-23.6h8.4l-13.7,23.7L237.1,710.8z"/>
		<path class="st0" d="M278.8,660v50.8h-7.5v-44h-11.6l-0.3,12.9c-0.5,25.1-2.2,31.3-11,31.3c-1,0-1.8-0.1-2.7-0.3v-6.5
			c0.4,0.1,0.8,0.2,1.3,0.2c3.8,0,4.8-4.2,5.2-24.8l0.4-19.7H278.8z"/>
		<path class="st0" d="M322,660l-11.9,40.5c-2.3,7.9-5.4,10.9-11.2,10.9c-1.2,0-2.6-0.1-4-0.5v-6.5c0.9,0.2,1.7,0.2,2.5,0.2
			c2.8,0,4.4-1.3,5.5-5.2l0.2-0.5L290.4,660h7.9l8.4,27.8l7.6-27.8H322z"/>
		<path class="st0" d="M333.4,660h24.5v6.8h-17v14.3h6.6c8.5,0,14,5.6,14,14.8c0,9-5.6,14.9-14,14.9h-14.1V660z M346.4,704.2
			c4.6,0,7.5-3.1,7.5-8.3c0-5.1-2.8-8.3-7.5-8.3h-5.6v16.6H346.4z"/>
		<path class="st0" d="M396.2,660h7.5v20.4h14.7V660h7.5v50.8h-7.5v-23.6h-14.7v23.6h-7.5V660z"/>
		<path class="st0" d="M460.7,702.1H447l-2.2,8.8h-7.5l14.6-50.8h4l14.7,50.8h-7.6L460.7,702.1z M448.6,695.8h10.5l-5.2-20.7
			L448.6,695.8z"/>
		<path class="st0" d="M521.8,702.1h-13.7l-2.2,8.8h-7.5l14.6-50.8h4l14.7,50.8H524L521.8,702.1z M509.7,695.8h10.5l-5.2-20.7
			L509.7,695.8z"/>
		<path class="st0" d="M572.7,660v50.8h-7.5v-44h-11.6l-0.3,12.9c-0.5,25.1-2.2,31.3-11,31.3c-1,0-1.8-0.1-2.7-0.3v-6.5
			c0.4,0.1,0.8,0.2,1.3,0.2c3.8,0,4.8-4.2,5.2-24.8l0.4-19.7H572.7z"/>
		<path class="st0" d="M595.4,666.9h-10.9V660h29.3v6.9h-10.9v44h-7.5V666.9z"/>
		<path class="st0" d="M641.7,702.1H628l-2.2,8.8h-7.5l14.6-50.8h4l14.7,50.8h-7.6L641.7,702.1z M629.6,695.8H640l-5.2-20.7
			L629.6,695.8z"/>
		<path class="st0" d="M662.8,660h23.3v6.7h-15.9v13.8h12.2v6.6h-12.2v16.9h16.6v6.8h-24V660z"/>
	</g>
	<g>
		<path class="st1" d="M474.4,306.1c-0.4-0.1-0.7-0.3-1-0.6c-0.2-0.3-0.4-0.7-0.4-1c-0.2-0.9-0.3-1.9-0.3-2.8c0-0.5-0.1-1-0.5-1.4
			c-0.3-0.4-0.8-0.6-1.2-0.7c-0.5-0.1-1-0.2-1.5-0.3c-0.2,0-0.4,0-0.6,0.1c-0.2,0.1-0.3,0.2-0.5,0.4c0,0,0,0.6-0.4,0.9
			c-0.1,0.1-0.2,0.3-0.4,0.4c-0.2,0.1-0.3,0.1-0.5,0.1c-0.2,0-0.4,0-0.5-0.1c-0.2-0.1-0.3-0.2-0.4-0.4c-0.9-1-1.7-2.2-2.2-3.5
			c-0.4-1.3-0.9-2.6-1.3-4c-0.7-1.9-1-3.9-0.9-5.9c0.1-2.4-0.1-4.7-0.6-7.1c-0.5-3.2-0.7-6.4-0.6-9.6c-0.1-3.3-0.3-6.6-0.7-9.9
			c-0.3-4.5-0.8-8.9-1.1-13.5c-0.4-5.5-1.1-10.9-2.1-16.3c-1-6.1-3-11.9-5.9-17.4c0.3,0.3,0.7,0.6,1.1,0.7c0.4,0.1,0.9,0.2,1.3,0.1
			c0.1,0,0.2-0.1,0.3-0.1c0.1,0,0.2-0.1,0.2-0.2c0.1-0.1,0.1-0.2,0.1-0.3c0-0.1,0-0.2,0-0.3c0-0.5-0.6-0.9-0.8-1.4
			c-0.1-0.2-0.2-0.4-0.2-0.6c0-0.2,0.1-0.4,0.2-0.6c0.2-0.1,0.4-0.2,0.6-0.2s0.4,0.1,0.6,0.2c0.9,0.5,1.7,0.8,2.7,1.1
			c0.4,0.1,0.8,0.1,1.2,0c0.5,0,0.8-0.4,0.6-0.9c-0.2-0.5-0.7-1.8-1-2.7c-0.1-0.2-0.1-0.5-0.1-0.8c0.1-0.3,0.2-0.5,0.4-0.7
			c0.1-0.1,0.3-0.1,0.5-0.1c0.2,0,0.3,0,0.5,0.1c0.2,0,0.3,0.1,0.4,0.3c0.1,0.1,0.2,0.3,0.2,0.4c0.4,0.7,0.7,1.6,1.1,2.3
			c0.4,0.7,0.4,0,0.5,0c0.1,0,0-0.4,0.4-0.5c0.4-0.1,0,0,0,0.3c0.5,1.6,1.1,3.2,1.5,4.9c0.5,1.6,1.1,4.3,1.6,6.5
			c0.5,2.2,1.4,5.9,2,9.1c0.5,3.2,1.2,7.2,1.8,10.8v0.9c0,4.5,0.5,9,0.9,13.5c0,2.7,0.4,5.3,0.8,8c0.8,6.4,1.1,12.8,1,19.3
			c-0.1,4.2,0.3,8.4,1.1,12.5c0,1.5,0.4,3,0.7,4.4c0.3,1.5,0.8,4,1.2,5.9c0,0.4-0.4,0.8-0.8,0.7 M342,200.4l-0.5,1.4
			c-2.5,5.3-5.6,10.3-7.9,15.7c-0.3,0.7-0.7,1.4-1.2,2.1c-2.1,3.3-3.7,6.9-4.9,10.6c-1.2,3.3-2.4,6.6-3.4,10
			c-2.6,8.4-4.7,17-6.4,25.6c-0.5,3-1.4,5.9-2.1,9.1c-0.7,3.2-1.4,5.9-2.1,9.3c0,0.4,0,0.9-0.8,0.8c-0.8,0-1.2-0.4-1.2-1.1
			c0-0.7,0-1.3,0-2c0.1-0.5,0.1-1,0-1.5c0-0.3-0.2-0.7-0.4-0.9c-0.2-0.2-0.5-0.3-0.9-0.4c-0.3-0.1-0.7,0-1,0
			c-0.3,0.1-0.6,0.4-0.7,0.7c-0.4,0.8-0.5,1.8-0.8,2.7c-0.3,1-0.7,2-1.1,3c-0.2,0.3-0.4,0.6-0.8,0.8c-0.3,0.1-0.7,0.1-1.1,0
			c-1.4,0-1.8-0.8-1.7-2.2c0.2-3.8,0.9-7.4,2-11c0.8-5.9,2.7-11.9,3.8-18.3c0.4-1.6,0.8-3.2,1.4-4.7c3.4-9,5.9-18.4,8.8-27.7
			c1.8-6.3,4.2-12.5,7.1-18.4c0.5-1,0.9-2.1,1.2-3.1c1.2-3.7,2.9-7.2,4.9-10.5c0.4-0.7,2.4-4.2,2.5-4.2c0.1,0-1.8,4.1-1.9,4.3
			c-0.1,0.2-0.2,0.4-0.2,0.7c0,0.2,0.1,0.4,0.2,0.6c0.2,0.4,0.4,0.7,0.7,0.9c0.3,0.2,0.7,0.4,1,0.4c0.4,0,0.8,0,1.1-0.1
			c0.4-0.1,0.7-0.3,1-0.6l0.7-0.5l0.5-0.6c0.4,0.3,0,0.6,0,0.9l-0.7,1.4c-0.2,0.3-0.3,0.6-0.4,0.9c-0.1,0.3,0,0.7,0.1,1
			c0.1,0.3,0.3,0.6,0.5,0.9c0.2,0.2,0.6,0.4,0.9,0.5c0,0,0.7,0,0.9,0l2,1.4c0.2,0.2,0.4,0.4,0.5,0.7c0.1,0.3,0.1,0.6,0,0.9
			 M521.2,454.8c0-5.9-0.5-11.5-0.6-17.4c0-10.5,0-20.8-0.7-31.3c-0.4-5.9-0.6-11.4-0.9-17c0-2.6-0.4-5.2-0.8-7.7
			c-1.1-6.6-2.7-13.1-4.7-19.4c-2-7-4.7-13.8-8-20.3c-4.3-7.8-9.1-15.4-14.4-22.5l-9.3-13c-0.3-0.5-0.8-0.9-1.4-1.2
			c-0.3-0.2-0.6-0.5-0.8-0.8c-0.2-0.3-0.3-0.7-0.3-1c-0.6-4-1.7-8-2.1-11.9c-0.6-4-0.9-8.1-0.9-12.2c0.1-2.8,0.1-5.6,0-8.4
			c-0.4-5.9-0.8-11.9-1.4-17.8c-0.7-7.7-1-15.4-2.3-23.1c-0.6-4.3-1.5-8.6-2.7-12.9c-1.6-5.9-3.5-11.4-5.4-17.1
			c-0.9-2.1-1.6-4.2-2.1-6.4c-0.6-3.2-1.5-6.2-2.7-9.2c-1.5-4.6-3.2-9.1-5.3-13.5c-0.8-1.6-1.8-3.2-2.5-4.9
			c-0.6-1.5-1.4-2.9-2.4-4.1c-1.4-1.8-2.7-3.6-4-5.4c-0.4-0.5-0.8-1-1.4-1.4c-3.1-2.2-5.9-4.6-8.6-7.3c-2.1-2.1-4.3-4.1-6.7-5.9
			c-1.3-0.9-2.5-1.9-3.8-2.9c0,0,0-0.4,0-0.6c0-0.2,0-0.4,0.4-0.4c0.8,0,1.7,0,2.5,0l6.4,1.7c2.4,0.7,4.9,1.3,7.4,1.6
			c4.9,0.5,9.7,1.5,14.4,2.8c2.4,0.7,4.8,1.1,7.3,1.3l9.3,0.6c3.7,0,7.3,0.4,10.9,0.8c3.2,0.5,6.4,0.5,9.6,0h0.6
			c-0.2-0.1-0.5-0.3-0.8-0.5c-2.6-0.2-5-1.1-7.2-2.4l-1.2-0.5c-4.8-1.9-9.6-3.8-14.3-5.9c-3.8-1.6-7.8-2.8-11.8-3.8l-14.3-3.4
			c-0.6,0-1.4,0-1.7-1c0.6-0.3,1.3-0.5,2-0.6c0.5,0,1,0,1.5,0c4.1-0.3,8.3-0.8,12.5-0.9c3.1,0,6.1-0.2,9.2-0.7
			c3-0.5,5.9-0.7,8.9-1.1c1-0.1,1.9-0.3,2.8-0.6l8.5-2.9l5.3-2.2c0.1-0.1,0.2-0.2,0.2-0.3c0.1-0.1,0.1-0.3,0.1-0.4
			c0,0,0-0.4-0.4-0.4h-1.6l-11.8-0.6c-5.4-0.3-10.7-0.4-16-1.2c-3-0.4-5.9-0.6-8.9-0.8c-3-0.2-7.5-0.7-11.2-0.8
			c-5.1-0.2-10.3-0.8-15.3-1.6c0,0.6-0.4,1.2-0.6,1.8c-0.2,0.6-0.4,0.7-0.5,1c3.1,0,6.2,0.1,9.2,0.6c1.5,0.1,3,0.1,4.5,0
			c3,0,5.9,0.3,8.9,0c0.9,0,1.9,0.2,2.8,0.5l5.4,0.8c1.4,0,2.7,0.4,4.1,0.6c0.5,0,0.9,0.1,1.3,0.3c0.4,0.2,0.8,0.5,1.1,0.8
			c0.8,1,2.3,0.9,3.6,1.1c0.2,0,0.4,0,0.6,0c0,0-0.4,0.3-0.6,0.3h-3.6h-1.4c-0.4,0-0.4,0.5,1.5,0.5h0.9c0.2,0,0.4,0,0.5,0
			c-0.2,0.1-0.4,0.3-0.6,0.4h-1.9h-1c-0.8,0-0.4,0.8,1,0.8h0.3c0,0,0.4,0,0.4,0.5s0,0.4,0,0.4l-7.3,0.7c-1.3,0-2.5,0.4-3.8,0.4
			c-2.2,0-4.4,0.3-6.7,0c-4.1,0-8.1,0-12.2-0.5c-1.7-0.2-3.4-0.5-5-1c-1.7-0.4-3.2-1.2-4.4-2.5c-1,1.1-1.7,2.4-2,3.9
			c4.8,1.5,9.5,3,14.4,4.1c2.3,0.8,4.7,1.4,7.1,1.8c2.3,0,4.5,1.2,6.8,1.6c2.3,0.4,3.4,1.1,5.2,1.3c0.3,0,0.6,0.2,0.8,0.4
			c1.5,1,3.1,1.8,4.8,2.4c0.9,0.3,0.8,0.7,0,1.4c-0.5-0.2-1-0.4-1.5-0.5c-1.1,0-2.1,0-3.2,0c0,0-0.4,0.3-0.6,0.5
			c-0.2,0.2,0.5,0.5,0.7,0.5h4.5c0.3,0.1,0.6,0.3,0.8,0.5c0.5,0.5,0,1.5-0.4,1.5c-0.6,0.1-1.3,0.1-1.9,0l-3.8-0.8c-1,0-2-0.8-3,0
			c-1,0.8-1,0-1.5,0c-1.8-0.4-3.5-0.8-5.3-1c-3-0.3-6-0.8-8.9-1.5c-4-0.8-7.9-1.8-11.8-3c-2.6-0.9-5.1-2.1-7.5-3.6
			c-1.7,1.3-3.5,2.4-5.4,3.3l-7.3,2.5c-5.3,0.5-10.7-0.1-15.8-1.9c-1.4-0.7-2.8-1.5-4.1-2.4c-0.6-0.3-1.1-0.7-1.7-0.9l-15.7,3.1
			h-2.2c-3.1,0-5.9,0.4-9.2,0.8c-3.3,0.4-5.3,1-7.9,1.5c-1.7,0.3-3.4,0.5-5.1,0.6c0,0-0.4,0-0.4-0.4c0-0.3,0-0.4,0.4-0.5
			c0.4,0,0.4,0,0.6,0h2.2h-2.2h-0.4c-1.1,0-2.2,0.5-3.1-0.4l3-1c0.6-0.1,1.3-0.1,2,0h0.9h-0.9c-0.5,0-1.2,0-1.5-0.3
			c-0.4-0.3,0-1.3-1.1-1.1l-2.3,0.3l-3.5,0.5c-0.1,0-0.2,0-0.3-0.1c-0.1-0.1-0.2-0.1-0.2-0.2c0,0,0-0.6,0-0.6c1.1-0.8,2.3-1.5,3.6-2
			c2.5-0.8,5.2-1.3,7.8-1.6c2.3-0.3,4.6-0.8,6.9-1.4c3.3-0.6,5.9-2.1,9.4-3c2.1-0.5,3.8-1.7,5.9-2.2c0.9-0.3,1.7-0.8,2.4-1.5
			c0.8-0.7,1.7-1.4,2.4-2.1l-1.6-4.4c-0.9,0-1.9,0.3-2.8,0.7c-4.6,1.5-9.3,2.3-14.1,2.3c-2.5,0-5.1,0-7.7,0
			c-0.9,0.1-1.7-0.1-2.4-0.6c-0.4-0.3-1.1-0.3-1.8-0.5c-0.7-0.2-1,0-1.1-0.3c-0.6-1.8-2-1.2-3.3-1.2c-1.2-0.1-2.3-0.1-3.5,0h-0.9
			l0.8-0.3c2.1-0.8,4.3-1.1,6.5-1l-0.4-0.4h-0.9c-0.7,0.1-1.5,0.1-2.2,0c-0.4-0.1-0.8-0.2-1.2-0.5c0.4-0.3,0.8-0.8,1.3-0.8
			c0.5-0.1,2.7-0.3,4.1-0.4c0,0,0,0,0.4-0.4c0.4-0.3-0.3,0-0.5,0l-3.1,0.3c0,0-0.5-0.4-0.6-0.6c0-0.1-0.1-0.2-0.1-0.3
			c0-0.1,0-0.2,0.1-0.3c0.4-0.3,0.9-0.6,1.4-0.7c5.4-1.6,10.9-2.7,16.5-3.5c3.5-0.6,7-0.4,10.5-0.8c1.6-0.2,3.2-0.2,4.8,0
			c0-0.8,0-1.6,0-2.4c-2.1,0-4.1,0-5.9,0.5c-1.8,0.5-3.8,0.6-5.9,0.8c-5.1,0.5-10.1,1.4-15.1,2.4c-7.9,1.5-15.5,4.1-22.7,7.7
			c-2.8,1.4-5.8,2.3-8.8,2.9c-1.1,0-2.3,0.4-3.4,0.7c-0.5,0.1-1,0.4-1.4,0.7c0,0.1-0.1,0.2-0.1,0.3c0,0.1,0,0.1,0.1,0.2
			c0,0,0,0.4,0.4,0.4c3.9,0.4,7.9,0.4,11.8,0c2.7-0.4,5.4-0.4,8,0c2,0.2,3.9,0.4,5.9,0.3c5.9,0,12.4,0,18.6,0c2,0.2,3.9,0.2,5.9,0
			c3-0.1,5.9-0.6,8.8-1.3c0.2,0,0.3,0,0.4,0.1c0.1,0.1,0.2,0.2,0.3,0.3c0.1,0.1,0.1,0.3,0.1,0.5c0,0.1,0,0.3-0.1,0.4
			c-0.4,0.5-0.8,1-1.4,1.3l-5.5,2.5c-5.1,2.2-10.5,3.6-16,4.4c-4.4,0.7-8.8,1.5-13.2,2.6c-2.9,0.5-5.6,1.6-7.9,3.4
			c-1.1,0.8-2.3,1.5-3.5,2.1c-0.9,0.5-1.8,1.1-2.7,1.8c-2.1,2.1-4.1,4.3-5.9,6.5c-0.1,0.1-0.1,0.2-0.1,0.3c0,0.1,0,0.2,0.1,0.3
			c0,0,0.4,0,0.5,0l7.2-1.6c5.5-1.2,11.2-1.2,16.7-2.8c3.4-0.7,6.9-1.1,10.4-1.4c0,0,0.6,0,0.9,0c3.7-0.8,7.5-1.3,11.4-1.7
			c2.1,0.1,4.2,0,6.3-0.3c2.1-0.7,4.5,0,6.6-0.9c0.4-0.1,0.9-0.1,1.3,0c0,0,0.4,0.3,0.7,0.5l-0.4,0.5c-1.7,0.8-3.3,1.6-4.9,2.6
			c-3.1,2.1-6,4.5-8.8,6.9c-3.8,3.4-7.4,7.2-11.1,10.7c-2.6,2.3-5,4.8-7.2,7.4c-1.1,1.4-2,2.8-3.1,4c-3.4,4.1-6.4,8.6-9.1,13.3
			c-3.4,5.7-6.4,11.6-8.9,17.8c-1.1,2.6-2.1,5.2-3.1,7.8c-2,4.9-4.6,9.7-5.9,14.8c-0.6,1.9-1.1,3.9-1.9,5.9
			c-1.3,3.3-2.4,6.7-3.3,10.1l-3.3,10.7c-0.6,2.2-1.2,4.3-1.9,6.5c-0.7,2.1-0.9,3.1-1.3,4.7c-0.4,1.6-0.5,2.7-0.8,4
			c-1.1,4.3-1.9,8.8-2.4,13.3c-1,6.7-1.6,13.4-3,20c-0.5,2-1,4-1.8,5.9l-1.2,3.6c-1.8,5.2-3.7,10.3-5.4,15.5
			c-1.7,4.2-3.1,8.4-4.3,12.8c-0.4,2.1-0.9,4.1-1.5,6.2c-1.1,4.1-2.1,8.1-3.3,11.9c-1.7,5.5-3.1,11.2-4.6,16.7
			c0,0.9-0.5,1.8-0.7,2.8c-0.4,2.2-1,4.4-1.8,6.5c-0.9,2.5-1.5,5.1-2,7.8c-0.7,4.1-1.6,8.2-2.8,12.2c-0.9,3-1.5,6.1-1.8,9.1
			c-0.8,7.1-1.1,14.1-1.2,21.2c0,4,0.5,8,0.4,11.9c0,7.8-0.8,15.5-1.3,23.2c0,0.3,0,0.7,0,1c-0.6,3.5-1,7-1.1,10.6
			c0,1.3,0,2.5,0,3.9c-0.5,2.9-0.9,5.9-1.1,8.9c0.1,3.5-0.2,7.1-0.9,10.6c-0.1,0.5-0.1,1.1,0,1.6c0,2.1,0,4.3,0,6.4
			c-0.3,3.9-0.3,7.7,0,11.5c0.1,0.6,0.1,1.1,0,1.7c-0.1,4.5-0.4,9-1,13.5c-0.3,3.4-1,6.8-1.9,10.1c-0.4,1.4-0.6,2.9-0.8,4.3
			c0,0,0.4,0,0.5,0c0.1,0,1.5-1.8,2.3-2.7c2.2-3.2,4.9-6,7.9-8.4c0.2-0.1,0.3-0.3,0.4-0.5l5.1-4.9c0.9-0.9,1.7-2,2.5-3
			c0.8-1,1.1-1.6,1.8-2.3c3-2.9,5.7-6.1,7.9-9.7c0.9-1.6,2.2-3.1,3.2-4.8c2.4-4.3,4.6-8.7,6.9-13.1l5-9.4c2-3.9,4.2-7.7,5.9-11.9
			c2.2-5.3,4-10.9,5.2-16.5c1.3-5.5,2.7-11,3.5-16.7c0.8-5.7,1.7-10.1,2.3-15.3c0.7-5.1,1.5-10.4,2.4-15.6c0.8-3.3,1.3-6.7,1.6-10.1
			c0-3.3,0-6.6,0.7-10c0.6-6.5,0.7-13.1,0.4-19.6c0-5.6-0.7-11.1-0.9-16.7c-0.3-5.6-0.5-12.4-0.7-18.7c-0.1-7.5-0.8-15-2.1-22.4
			c-0.3-1.6-0.5-3.2-0.7-4.8c0-1.7,0-3.4,0-5.1c0-1.7,0-4.3,0-6.5c0.4-6.4,1.4-12.6,2.2-18.8c0.5-3.8,1.1-7.4,1.7-11.1
			c0.7-3.7,1.2-5.9,2-9.1c0.9-4,2.1-7.9,3-11.9c1.2-4.8,2.6-9.5,4.3-14.1c1-2.9,2.3-5.9,3.5-8.6c1.2-2.7,2.8-6.5,4.3-9.7
			c1.5-3.2,3.1-5.7,4.4-8.6c1.1-2.2,2.3-4.3,3.8-6.3l7.9-10.6l7.8-10.6c0.1-0.2,0.3-0.3,0.5-0.4h0.5c0,0,0,1.5,0,2.3
			c-0.1,2.4,0.1,4.7,0.5,7c0.4,2.3,0.6,4.7,0.6,7.1c0,3,0.6,5.9,0.5,9c-0.1,1.6-0.1,3.2,0,4.8c0,0.8,0,1.6,0,2.3
			c0.7,4.1,1,8.3,0.7,12.5c-0.1,0.6-0.1,1.1,0,1.6c0.4,2.4,0.4,4.9,0,7.4c0,2.5-0.7,5.1-0.8,7.6c0.1,2.9,0.1,5.8,0,8.7
			c-0.4,2.8-0.4,5.7,0,8.6c0,3.3,0,6.6,0.4,10c0.1,2.9,0.4,5.7,0.8,8.6c1,5.1,1.6,10.4,1.6,15.6c0,2.9,0.1,5.8,0.4,8.7
			c0,2.8,0.7,5.9,0.8,8.6c0,5.9,0,11.8,0,17.4c0,1.5,0,3-0.4,4.4c-0.4,1.5,0,3.2-0.3,4.8c-0.3,1.6,0,3-0.4,4.5
			c-0.4,1.6,0,4.7-0.5,7.1c-0.6,4.8-1.3,9.6-2,14.3c0,1.3,0,2.6-0.5,3.9c-0.8,3.1-1.5,6.2-2.4,9.4c-1.1,4.3-2.1,8.7-3.3,13
			c-1.1,4.3-2.5,9.1-3.7,13.7c-2.1,8.1-3.6,16.5-4.3,24.9c0,3.8-0.4,7.5-0.6,11.3c-0.1,0.8-0.1,1.7,0,2.5c0.6,4.8,1.4,9.5,1.7,14.4
			c0.1,3.3,0.4,6.6,0.8,9.9c0.6,4.8,0.8,9.7,0.6,14.5c0,5.9-0.5,11.4-0.8,17c0,2.3-0.4,4.5-0.7,6.8c-0.5,3.5-1.1,7.2-1.6,10.8
			c-0.2,1.3-0.5,2.5-0.8,3.7c-0.5,2-1.1,3.9-1.7,5.9c-0.7,2-1.3,3.6-2.1,5.4c-0.8,1.7-1.8,3.9-2.6,5.9c-1.9,4.5-4.9,8.3-8.8,11.3
			l-2.1,1.6c-0.7,0.6-1.2,1.5-1.4,2.4c-0.1,0.2,0,0.5,0.1,0.7c0.1,0.2,0.3,0.3,0.5,0.4c0.8,0.2,1.6,0.2,2.4,0.1
			c0.8-0.2,1.5-0.6,2.1-1.1c1.1-1,2.3-1.8,3.5-2.8l1.1-1.1c3.6-4.3,6.4-9.1,8.5-14.3c2.1-4.7,3.7-9.6,4.8-14.7
			c0.8-4.1,1.4-8.4,2-12.6c0-1.5,0.4-3,0.6-4.5c0.4-3.1,0-6.2,0.5-9.3c0.5-3.1,0-5.9,0.4-8.6c0.3-3.3,0.3-6.7,0-10
			c0-5.9-1.3-11.4-1.2-17c0-0.4,0-0.9,0-1.3c0-2.3-0.7-4.5-0.8-6.7c-0.5-3.5-0.6-7.1-0.4-10.6c0.1-0.5,0.1-1,0-1.5
			c-0.4-2.8-0.4-5.6,0-8.4c0.5-2.5,0.8-5.1,0.9-7.6c0.3-4,0.9-8,1.7-11.9c0.4-2.3,1.1-4.4,1.5-6.6c0.5-2.2,0.9-4.4,1.4-6.6
			c0.5-2.2,1.2-5.5,2-8.1c0.7-2.7,1.5-7.1,2.7-10.6c1.9-5.6,3.1-11.4,3.7-17.2c0.3-3,0.7-6,1.3-8.9c0.4-2,0.6-4,0.6-5.9
			c0-1.3,0-2.5,0-3.9c0.4-4.4,1-9,1.1-13.4c0.3-7.4,0.1-14.8-0.5-22.2c-0.5-4.6-0.5-9.2-0.9-13.8c-0.1-3.6-0.6-7.3-1.2-10.8
			c-1-4.2-1.4-8.5-1.3-12.8c0-2.6,0-5.2,0-7.7c-0.4-7.7,0.6-15.2,0.7-22.8c0-0.7,0.1-1.3,0.3-1.9c0.6-2.6,0.8-5.3,0.5-8
			c0-1.7,0-3.4,0-5.2c0-1.7,0-1.7,0-2.5c0-3-0.6-5.9-0.9-9c0-1.4,0-1.6,1.5-2.3c0.5-0.2,0.9-0.5,1.2-1c0.3-0.5,0.4-1,0.4-1.6
			c0-0.5,0-1,0-1.6c0,0,0.5-0.4,0.7-0.4c0.2,0,0.5,0,0.5,0.4c-0.3,2.2,0.1,4.5,0.9,6.6c0.1,0.3,0.2,0.6,0.4,0.8
			c0.2,0.2,0.5,0.4,0.8,0.5c0.3,0.1,0.6,0.1,0.9,0c0.3,0,0.6-0.2,0.9-0.4c0.4-0.3,0.8-0.7,1.1-1.2c0.2-0.5,0.5-0.9,0.7-1.4
			c0,0.5,0,1,0.4,1.6c0,0.5,0,1,0,1.5c0,0.2,0.1,0.4,0.3,0.6c0.1,0.2,0.3,0.3,0.5,0.4c0.2,0.1,0.4,0.2,0.6,0.2s0.4,0,0.6-0.1
			c0.7-0.2,1.3-0.6,1.8-1.1c0.4-0.3,0.4-1,0.7-1.4c0.3-0.4,0.7-1.1,1.1-1.1c0.4,0,0,0.8,0.4,1.3c0.4,0.5,0,0.8,0,1.2
			c0.1,0.3,0.2,0.6,0.5,0.9c0.3,0.2,0.6,0.3,0.9,0.2c1,0,1.9-0.3,2.7-0.9c0.5-0.3,0.8,0,1,0.3c0.3,0.5,0.5,0.9,0.7,1.5
			c0.4,1.8,1.1,3,3.2,2.5c0.1,0,0.2,0,0.3,0c0.1,0,0.2,0,0.3,0c0.9,1.3,2,0.9,3.1,0.4c0.2,0,0.4,0,0.6,0c0.2,0,0.4,0.1,0.5,0.3
			c0.4,0.7,1,1.2,1.7,1.5c0.7,0.3,1.5,0.3,2.2,0.1c0,0,0.8,0.3,1.2,0.4c1.6,0.5,3.4,0,3.3-2.3c0,0-0.4-0.8,0-0.8
			c0.4,0,0.5,0.5,0.6,0.8c0.1,0.3,0.4,1.8,0.7,2.8c0.3,0.9,0.4,1.9,1.4,2.4c1,0.4,2.1,0,2.8-1.1c0.7-1.1,0.5,0,0.5,0
			c0.1,0,0.4,0.7,0.3,0.8c-1.3,2.4-2.1,4.9-2.5,7.6c-0.4,1.8-0.7,3.6-1.1,5.4c-0.8,3.2-1.2,6.4-1.3,9.6c0,3,0,5.9,0,8.9
			c0.3,6.9,0.3,13.8,0.6,20.6c0,1.3,0,2.5,0,3.9c0,3.4,0,6.9,0,10.3c0,4.5,0,8.9,0,13.5c0,3.3,0,6.6,0.4,10c0,5.1,0.4,10.3,0.8,15.4
			c0.5,5.9,1.2,11.9,1.8,18.3c0.2,3.2,0.5,6.5,1.1,9.6c0.1,0.8,0.1,1.5,0,2.3c0,4.3,0.4,8.6,1.3,12.8c0.6,2.7,1,5.5,1.3,8.3
			c0,2.3,0,4.7,0.6,7c0.8,5.2,1.2,10.5,2.2,15.6c1.2,6.6,2.2,13,3.3,19.6c0.2,2,0.2,4,0,5.9c0,1.4-0.2,2.8-0.4,4.1
			c0,1.2-0.3,2.4-0.5,3.5l-3.7,16c-0.3,1.5-0.5,3-0.7,4.4c-0.8,5.6-2.4,10.9-3.1,16.4c-0.5,4.3-1.1,8.5-1.7,12.8
			c-0.4,2.5-0.7,5.1-0.9,7.6l-1.1,8.9c0,2.3-0.5,4.5-0.8,6.7c-0.2,2.2-0.4,3.9-0.5,5.9c0.1,2.3,0.1,4.5,0,6.7
			c-0.5,3.5-0.6,7.1-0.3,10.6c0.2,4.2,1.5,8.3,3.8,11.9c2.3,3.3,5.1,6.3,8.3,8.8c0.9,0.8,1.9,1.3,3.1,1.5c1.1-0.2,2.3-0.6,3.3-1.1
			c0.2,0,0.4,0,0.6,0c0.1-0.1,0.2-0.2,0.3-0.4c0.1-0.1,0.1-0.3,0.1-0.4c0-0.2,0-0.3-0.1-0.5c-0.1-0.1-0.2-0.2-0.3-0.3
			c-0.5-0.4-1.1-0.7-1.7-0.9c-1.5-0.6-2.9-1.4-4.1-2.3c-1.9-1.5-3.5-3.2-4.8-5.1c-3.1-3.9-4.8-8.8-4.7-13.8c0-5.1,0.4-10.3,0.6-15.4
			c0-1.5,0.1-3,0.4-4.5c0.9-7.9,2-15.8,2.9-23.7c0-1.6,0-3.2,0.5-4.8c0.5-3.5,1.2-6.9,1.7-10.4c0-2,0.9-4,1.3-5.9
			c0.7-3.8,1.1-7.5,1.8-11.1c1-4.6,2.2-9.2,3.3-13.8c0.5-1.9,0.8-3.9,0.8-5.9c0-1.3,0.2-2.6,0.4-3.9c0.4-2.8,0.4-5.6,0-8.3
			c-0.4-4-1.3-8-2-11.9c-0.4-2.4-0.9-4.9-1.2-7.3s-0.8-5.9-1.5-9.1c-0.9-4.4-1.5-8.9-1.6-13.4c0.1-0.9,0.1-1.9,0-2.9
			c-1.3-6.3-2-12.7-2.2-19.1c0-0.8,0-1.6,0-2.3c0-2.3-0.4-4.5-0.6-6.7c0-0.9,0-1.6,0-2.5c-0.7-5.4-1.4-10.9-1.9-16.3
			c-0.6-4.7-0.9-9.5-0.8-14.2c0-1.9,0.4-3.9,0.4-5.9c0-10.2,0-20.4,0-30.6c0-1.7,0-3.4-0.4-5.2c0-3.2-0.2-6.4-0.8-9.6
			c-0.1-0.6-0.1-1.3,0-1.9c0-2-0.2-4-0.5-5.9c-0.5-3.6-0.5-7.3,0-10.9c0.5-3.5,1.2-7,1.9-10.4c0.7-3.4,1.7-6.6,3.1-9.8
			c2.5-5.5,5.3-11,7.9-16.5l6.8-10.2c1.2-1.7,1.4-1.6,2.8,0c0.8,0.8,1.6,1.7,2.3,2.7c3.3,4.9,6.6,9.8,9.8,14.8
			c0.5,0.8,1,1.6,1.4,2.5c1.7,3.8,3,7.8,3.8,11.9c1.1,4.8,1.6,9.7,2.3,14.6c0.4,2.3,0.7,4.5,0.8,6.7c0.4,6.7,0.8,13.5,1.1,20.3
			c0,2.8,0,5.6,0.4,8.4c0.5,4.8,1.1,9.6,1.7,14.3c0.7,5.9,1.5,11.8,2.1,17.8c0.1,0.7,0.1,1.3,0,1.9c-0.4,5.3-1.4,10.6-2.9,15.8
			c-0.6,1.6-0.9,3.3-1.1,5c0,5.9,0,11.9,0,17.8c0,5.9,1.2,10.5,1.8,15.7c0.3,2.1,0.7,4.3,0.9,6.4c0.5,3.4,1.1,6.8,1.4,10.2
			c0.3,5,1.2,10.1,2.7,14.9c0,0.8,0.4,1.5,0.5,2.2c0.8,4.9,2,9.8,3.5,14.7c0,0.3,0,0.7,0,0.9c0.4,4.5,2.7,8.6,2.9,13.1
			c0,0,0,0,0,0.3c0.7,1.9,1.2,3.9,1.5,5.9c0.1,0.8,0.3,1.5,0.6,2.2c2,5.3,3.6,10.7,4.6,16.3c1.3,6.5,3.2,13,5.9,19
			c1.5,3.4,2.8,7,3.8,10.6c1.9,6.5,4.2,12.9,6.7,19.1c0.8,2.1,1.5,4.2,2.4,6.3c2.2,4.9,4.4,10,6.6,14.9c0.9,1.8,2,3.6,3,5.3
			c2,3,3.6,6.1,4.8,9.5c0.3,0.7,0.6,1.3,1.1,1.9c2.5,3.9,4.5,8.1,5.9,12.6c0.4,1.3,0.9,2.6,1.4,3.9c0.2,0.5,0.5,1,0.8,1.4
			c0.4,0.4,0.8,0.7,1.4,0.8h1.5c0-0.4,0-0.8-0.4-1.2c-1.7-4-1.9-8.4-0.7-12.6c0.3-1.1,0.5-2.3,0.4-3.5c0-2.2,0-4.3,0-6.4
			c0-5.4,0.8-10.7,1-16.1c0-6.3,0.4-12.7,0.5-19c0.3-13.3-0.4-26.7-2.1-39.9c-0.3-2.3-0.6-4.5-0.7-6.8"/>
		<path class="st1" d="M225.2,254.4c-0.6,0.3,0-0.3-0.5-0.4c-0.5-0.1,0-0.3-0.5-0.3c-0.1,0-0.2,0-0.2,0.1c-0.1,0.1-0.1,0.1-0.1,0.2
			c-0.2,0.8-0.4,1.5-0.7,2.2c-0.5,0.8-0.4,0-0.5,0c-0.1,0-0.6,0-0.8,0c-0.1,0,0,0.6,0,0.6c0-0.7-0.4-1.6-0.7-2.8
			c-0.5,0-0.6,0-0.8,0.4c-0.2-0.3-0.5-0.5-0.8-0.5c-0.3-0.1-0.7-0.1-1,0H218c-0.3-1.1-0.5-2.3-0.4-3.4c0.3-4.3,0.3-8.7,0-13.1
			c-0.4-5-1.4-9.9-1.9-14.9c-0.1-0.9-0.1-1.7,0-2.6c0-2.6,1-2.9,2.8-2.9c0.7,0,1,0,1.2-0.8l0.5-2.5v-0.6l0.3-0.4c0,0,0,0,0,0.3v0.6
			c0.3,0.3,0.5,0.7,0.7,1.1c0.2,0.7,0.3,1.5,0.4,2.2c0.4-0.7,0.5-1.6,1.3-2.1c0.8-0.5,0-0.7,0-1c0-0.2,0-0.4,0-0.6
			c0,0,0.5,0,0.5,0.4c-0.1,2,0.1,4,0.6,5.9c0.3,2,0.5,4,0.4,5.9c0,4.6,0,9.2,0.7,13.8c0.7,4.6,1.1,7.7,1.5,11.4c0,0.7,0,1.3,0,1.9
			C226.6,253.1,226,253.9,225.2,254.4 M174.6,224.1c0,0,0,0,0-0.5c-0.4-0.9-0.8-1.9-1.1-2.9c-0.1-0.9-0.1-1.7,0-2.5c0,0,0,0,0.4-0.4
			l0.9,3.5c0,0.6-0.3,1.2-0.4,1.6c0,0.3,0,0.6,0,0.8 M142.1,222.6c0,0,0,0-0.4,0.4c0-0.1,0-0.3,0-0.4c0,0,0,0,0-0.7
			c0-0.3,0-0.5,0-0.8h0.5C142.3,221.6,142.3,222.1,142.1,222.6 M106.7,216.4c0,0-0.9,1.4-1.1,1.4c0.2-0.6,0.4-1.2,0.7-1.8
			c0.2-0.4,0.3-0.7,0.6-1v0.5l-0.7,1.2 M102.5,225c0,0.4-0.4,0.9-0.7,1.4c-2,4.2-3.7,8.7-5.1,13.1c-1.3,4-2.7,7.9-4.1,11.9
			c-1.2,3.6-2.1,7.2-2.6,10.9c-0.5,2.6-1.7,5-3.4,7.1h-0.4c0-0.3,0-0.6,0-0.9c0.8-2.6,0-2.3,0-2c-0.6,0.9-1.1,1.8-1.6,2.8
			c-0.7,1.4,0,1.5-1.2,3.1c0,0.4,0,0.8,0,1.2c0,0.4,0,1.1-0.4,1.1c-0.4,0-0.5,0-0.5-0.5v-0.9c0-0.4,1.4-3.7,0.8-3.9
			c-0.5-0.2-1.5,3.2-1.7,3.4c-0.2,0.3-0.4,0.7-0.5,1.1c0,0,0-0.4,0-0.6c0-0.1,0-1.2,0.4-1.9c0-0.4,0-0.8,0-1.2v-0.4c0,0-0.4,0-0.5,0
			c-0.3,0.3-0.5,0.7-0.6,1.1c0,0,0,0-0.4,0c0-0.4,0.6-1.7,0.7-2.1c0.1-0.4,1-1.7,0-2.6l-1.5,2.6c0,0,0,0.3,0,0.6l-0.4,0.8
			c0-0.4,0-0.8,0-1.2c-0.1-0.3-0.1-0.7,0-1c0.2-0.4,0.4-0.8,0.4-1.3c0-0.5-0.1-1-0.4-1.4c-0.1-0.3-0.2-0.7-0.2-1
			c0-0.4,0.1-0.8,0.2-1.1c1.5-8.9,4-17.8,5.9-26.2c0.8-3.1,1.8-6.2,3-9.1l3.9-10.9c0,0,0-0.4,0-0.6l1.2-2.8c0,0-0.9,2.9-0.9,3
			c0,0.2,0,1.4,0.6,1.3c0.2-0.3,0.3-0.6,0.4-0.9c0,0,1.5-4.4,1.7-4.6c0.1-0.1-1.2,4.8-1.2,4.9c-0.2,0.5-0.3,0.9-0.4,1.5
			c0,0.5,0.4,1.2,0.7,0.8c0.3-0.4,2.5-9.9,1.1,0.7c0,1.3,0,1.6,1.2,1.7c1.2,0,3.5-4.5,1.5,1.2c0,0,0,0.5,0,0.7c0,0.1,0.4,0,0.5,0.3
			c0.2-0.3,0.4-0.7,0.5-1.1l2.1-5.9c0,0,0.4,0,0.4,0.4c0,0.4,0,0.4,0,0.6c0,0.1-0.5,1.4-0.8,2.1c-0.3,0.6-0.4,1.2-0.5,1.8
			c0,0.9,1.9-2.2,2.3-1.8c0.4,0.3,0.7-0.5,0.6,0c-0.1,0.5-1.1,3.2-0.5,3.5c0.7,0.4,2.7-4.7,2.8-4.5c0.2,0.2-2.3,5.6-2.5,5.9
			 M255.7,415.5c0-2.5,0-4.9,0-7.4c-0.3-5.9-0.7-11.5-1.1-17.3c0-2.5-0.4-5.1-0.7-7.7c-0.3-2.6-0.8-6.6-1.1-9.8
			c-0.3-3.3,0-5.9-0.7-8.8c-0.6-4.1-1.4-8.2-2.3-12.3c-0.6-2.4-0.9-5-1-7.6c0-2-0.1-4-0.4-5.9c-0.5-3.1-0.7-6.2-0.8-9.3
			c0-1.5-0.2-3-0.4-4.5c-0.6-4.1-1.4-8.2-2.2-12.3c-0.5-2.4-1.2-4.8-2-7.1c-0.6-1.7-1.1-3.5-1.4-5.3c0-1.2-0.6-2.5-1-3.7
			c-0.7-2.8-1.5-5.6-2.1-8.4c-0.9-4.1-1.7-8.4-3-12.5c-0.7-2.4-1.3-5-1.7-7.5c-0.4-1.7-0.7-3.6-0.9-5.4c-0.3-1.8-0.7-3.8-1-5.9
			c-1.7-6.6-2.8-13.4-3.3-20.3c0-3.1,0-6.2-0.4-9.3l-0.5-14.8c0-0.7,0-1.3-0.3-1.9l-0.9-9c0-0.5,0-1.1,0-1.6c0-1.3,0-2.5,0-3.9
			c0-1.3,0-3,0-4.5c0-1.5,0-3.9-0.5-5.9c-0.5-4.3-1.5-8.4-1.6-12.8c-0.2-3.5-0.8-7.1-1.9-10.5c-1.2-3.5-2.6-7-4.2-10.4
			c-0.6-1.4-1.5-2.6-2.5-3.7c-0.6-0.5-1.1-1-1.6-1.6c-4.5-5.1-10.2-8.9-16.6-11.2l-8.1-3c-3.1,2.8-6.9,4.9-11.1,5.9
			c-2.5,0.6-5.1,0.9-7.6,0.9c-2.3,0.3-4.7,0.3-7,0c-2.5-0.8-5-1.8-7.4-3.1c-0.8-0.4-1.5-0.8-2.2-1.3c-2.4,0.8-4.7,1.6-6.9,2.5
			c-5,2.4-9.6,5.7-13.5,9.7l-1.4,1.3c-3.3,2.9-6.4,6.1-9.1,9.6c-1.4,1.8-2.9,3.4-4.4,5.2c-2.2,2.1-4.1,4.4-5.6,7
			c-2,3.8-4.4,7.3-7.2,10.7c-1.6,2.1-3.1,4.4-4.4,6.7c-0.9,1.7-1.9,3.4-3,4.9c-3.2,4.2-5.7,8.9-7.2,13.9c-0.2,0.7-0.5,1.5-0.8,2.1
			c-1.2,2.9-2.3,5.8-3.3,8.7c-1.2,3.9-2.7,7.7-4,11.5c-1,2.8-2,5.6-2.8,8.5c-0.8,2.9-1.4,6.5-2.4,9.7c-1.7,5.5-2.7,11.1-4,16.6
			c-0.9,3.8-1.4,7.6-1.7,11.4c-0.2,3.9-1.2,7.6-2.8,11.2c-2.5,5.9-4.9,12.2-7.3,18.2c-0.7,1.6-1.2,3.2-2,4.8
			c-2.3,4.4-4.3,9-5.9,13.8c-0.2,0.7-0.4,1.2-0.8,1.8c-2.3,4.2-4.3,8.7-5.9,13.3c-0.8,2.5-1.7,5-2.6,7.6c-0.9,2.6-1.4,4.1-2.1,5.9
			l-1.7,4.8c-1.8,4.9-4.4,9.6-6.3,14.5c-4.1,10.4-8.7,20.7-12.2,31.4c-2.4,7.3-4.6,14.7-6.7,22.2c-0.6,1.9-1.4,3.8-2.3,5.6
			c-1.3,2.5-2.5,5-3.5,7.6c-1.2,3.1-2.1,6.3-3.3,9.4c-1.5,3.9-2.7,7.8-3.6,11.9c-1.4,6.7-2.3,13.5-2.7,20.4
			c-0.5,5.3-0.6,10.6-0.9,16.1c-0.1,5.3,0.2,10.5,0.9,15.7c0.2,1.4,0.4,2.7,0.4,4.1c0,4,0.6,8,1.8,11.9c0.7,2.1,1.1,4.3,1.4,6.6
			c0.7,5.3,2.2,10.5,4.6,15.4c0,0.2,0,0.4,0,0.6c0.2-0.1,0.4-0.3,0.5-0.6c1.9-4,4.3-7.7,7.2-11l6.9-8c0.5-0.6,1-1.2,1.4-1.8l4.6-9.2
			c0.9-1.8,1.7-3.8,2.7-5.5c3.2-5.8,5.9-11.7,8.1-17.8c1.4-3.7,2.8-7.4,4.3-11.1c2.2-5.1,3.8-10.5,4.8-15.9c0.5-3,1.5-5.9,2.8-8.6
			c1.3-2.9,2.5-5.9,3.4-9c1.8-6.9,3.1-13.8,4-20.8c0.8-4.6,1.2-9.3,2-14c0.6-3.2,0.8-6.4,1.2-9.6c0.4-3.2,0.6-5.4,1.1-8
			c0.4-2.7,0.9-5.9,1.5-8.6c0.6-3.8,1.5-7.5,2.7-11.2c1.4-3.7,2.6-7.5,3.5-11.4c0.4-1.6,0.8-3.1,1.2-4.7c0.8-3.3,1.4-6.7,2.2-10.1
			c0.5-4.6,1.4-9.1,2.4-13.6c0-0.3,0-0.7,0-0.9c1.2-8.1,2.5-16.3,4.4-24.4c1.4-5.9,2.5-12.3,4-18.5c1.4-6.2,2.5-11.3,3.8-17
			c0.8-3.2,1.7-6.5,2.4-9.7c0.5-2,1.1-3.9,1.5-5.9c1-4.8,2.3-9.4,3.8-14c1.2-3.3,2.2-6.7,3.3-10.1c2.8-8.3,6.5-16.3,11.2-23.7
			c0.3-0.5,0.6-0.9,1-1.3c3.1-3.8,6.6-7.3,9.6-11.2c0.9-1.2,1.6-2.8,3.2-3.4l0.7,4.5c0.2,1.1,0.4,2.3,0.5,3.5c0,2.5-0.3,5.1-0.4,7.7
			c-0.1,2.6,0,5.9,0,8.7c0,2.7,0,4.7,0,7.1c0,4.3,0,8.6-0.3,12.9c0,2.1-0.4,4.3-0.5,6.4c-0.4,5.2,0,10.3-0.4,15.4
			c-0.4,8.8-0.8,17.4-1.4,26c-0.5,6.5-0.8,12.9-1.4,19.3c0,3-0.8,5.9-1.2,9c-0.4,3-1,7.2-1.5,10.8c0,2-0.4,4.1-0.7,5.9l-1.2,8.2
			c-0.8,4.7-1.4,9.3-2.2,13.9c-0.8,4.6-2.3,10.3-3.3,15.4c-0.5,3-1.1,5.9-1.8,8.8c-1.6,6.6-3.8,13.2-5.1,19.9
			c-1.4,6.7-2.8,12.6-4.3,18.9c-0.5,2.1-1.2,4.3-1.5,6.5c-0.7,5-1.8,9.9-2.7,14.9c-0.9,3.8-1.4,7.6-1.7,11.4c0,2.5,0,5.1,0,7.7
			c0.4,5.7,1.7,11.2,3.8,16.5c1.1,2.9,1.6,6,1.4,9.1v2.9c0,1.8-0.4,3.6-0.4,5.4c0,3.3-0.2,6.5-0.5,9.7c-0.7,6.3-1.4,12.6-2.1,18.8
			c-0.6,4.8-1.6,9.5-3,14.1l-1.2,3.7c-0.3,1.5-0.8,2.9-1.3,4.3c-1.2,3.1-2.8,6-4.8,8.7l-0.4,0.5c0,0.4,0,0.9,0.4,0.9
			c0.4,0,1.3,0,1.9,0c0.6,0.1,1.2,0,1.7-0.3c0.5-0.3,0.9-0.8,1.1-1.3c2-3.9,3.4-7.8,5-11.9c0.8-1.7,1.5-3.5,2-5.4
			c1.2-4.6,2.1-9.2,2.6-13.9c0.4-3.9,0.8-7.7,1.2-11.5c0-1.2,0.4-2.4,0.5-3.5c0-3.7,0.5-7.5,0.9-11.3c0.6-5.1,0.6-10.3,0-15.5
			c-0.1-1.1-0.3-2.3-0.7-3.4c-1.6-4.9-2.9-9.8-3.8-14.9c-0.3-1-0.5-2.1-0.4-3.2c0-3.7,0.4-7.5,0.9-11.3c0.5-3.7,1.4-6.7,2-10.1
			c0.6-3.4,1.1-7,1.8-10.5c0.7-3.4,1.7-8.1,2.7-12.2c1-4.1,2.1-9.2,3.1-13.8c0.3-1.6,0.7-3.2,1.1-4.7c1.3-4.9,2.7-9.7,4-14.6
			c0.5-1.7,0.8-3.5,1.2-5.3c0.9-4.5,1.6-9.1,2.6-13.6c1.4-5.9,2.6-11.8,3.4-17.8c0.6-4.1,1.1-8.2,1.6-12.2c0-0.9,0-1.9,0-2.9
			c-0.1-0.9-0.1-1.9,0-2.9c0.5-3.9,1.1-7.9,1.7-11.9c0.7-4,0.9-6.5,1.2-9.9c0.3-3.3,0.8-5.9,1.1-9.2c0.5-6.6,1-13,1.2-19.6
			c0.4-8.8,0.9-17.8,0.8-26.4c0-3.7,0-7.5,0.4-11.3c0.4-3.7,0-6.9,0-10.3c-0.1-0.9,0-1.7,0.2-2.5c0.3-0.8,0.7-1.5,1.3-2.1
			c0.3-0.4,0.6-0.8,0.7-1.4c0.1-0.6,0.1-1.1,0-1.6c0,0.5,0.7,1,0.9,1.6c0.2,0.5,0,0.9,0,1.2c0,0.4,0.5,0,0.7,0c0.2,0,1.1,0,1.3,0.5
			c0.2,0.5,0.7,0.4,1.1,0c0.4-0.4,0.8-0.4,0.9,0c0.2,0.4,0,0.6,0,0.9c0,0.1,0.1,0.2,0.2,0.2c0.1,0,0.2,0.1,0.2,0.1
			c0,0,0.4,0,0.4-0.4c0-0.3,0-0.6,0-0.9c0-1.6,1-2.3,2-3.2c0.9-0.9,0.3,0,0.5,0c0.2,0,0,0,0,0.4c0,1.4,0,1.4,1.7,1.6
			c0,0,0.3,0.3,0.4,0.5s0.4,0,0.5,0c0.1,0,0-0.6,0.5-0.8c0.5-0.2,0.7,0,0.7,0.8s0,1.3,0,1.9c0,0.4,0,0.9,0,1.3
			c0.2-0.1,0.4-0.3,0.5-0.6c0.1-0.2,0.2-0.5,0.1-0.8c0-0.7,0-1.3,0-2c-0.1-0.3-0.1-0.6,0-0.9c0,0,0.4-0.5,0.6-0.5
			c0.2,0,0.7,0.4,0.7,0.8c0,0.4,0,1.7,0,2.5c-0.1,0.8-0.1,1.5,0,2.3c0,0.3,0,0.7,0.6,0.5c0.6-0.2,1.8-0.7,2.3,0.6h0.5
			c0-0.4,0-0.8,0-1.2c0.3-1.4,0.5-2.7,0.8-4.1c0,0,0,0,0-0.3l0.4,0.4c0,0.6,0,1.1,0,1.6l0.4,3.6c0,0.7,0.5,0.9,1.1,1
			c0.5,0.1,2.1,0,2.5-1.4c0.2-0.7,0.3-1.5,0.4-2.2c0-0.8,0-1.5,0-2.3c0-0.8,0-0.5,0.4-0.7c0.4-0.2,0,0.4,0,0.6
			c0,1.7,0.4,3.4,0.6,5.1c0,0.8,0.5,1,1.4,0.8c0.5-0.1,1-0.3,1.4-0.8c0.4-0.4,0.6-0.9,0.6-1.5c0-0.6,0-1.2,0.4-1.8
			c0.4-0.6,1.7-1,2-0.8c0.1,0.4,0.1,0.8,0,1.1c0,0.8,0,1.7,0,2.5c-0.1,0.2-0.1,0.4,0,0.7c0.8-0.8,2.2,0.4,2.8-0.9c0,0,0-0.3,0.4-0.4
			l0.7,0.6c0.2-0.3,0.3-0.7,0.5-1c0-0.7,0-1.3,0-1.9c0-1.8,0-3.6,0-5.4c0,0,0-0.5,0.4-0.7c0.4-0.3,0.5,0.4,0.6,0.6
			c0,1.3,0.4,2.5,0.5,3.9c0.1,1.3,0,2.2,0,3.2c0,1.1,0.4,0,0.5,0c0.2,0,0.3-0.5,0.4-0.4c0.1,0.1,1.2,0.3,1.8,0.4l0.5-2
			c0-0.2,0-0.4,0-0.6h0.3c0,0,0.4,0,0.5,0c0,0.2,0,0.3,0,0.5c0,0.4,0,0.9,0,1.3l0.4-1.3c0.3-1.1,0.6-2.3,0.9-3.3
			c0.4-1.1,0.5-0.4,0.8-0.4c0.3,0,0.4,0,0.4,0.4c0,0.4,0,1.3,0,1.9v2.2c0-0.7,0.3-1.3,0.5-2c0.2-0.7,0-1.9,0.5-2.8
			c0-0.3,0.2-0.7,0.4-0.9c0.3-0.3,0.7-0.5,1.1-0.6c0.6,0,0.5,0.6,0.5,0.9c0,0.4,0,2.3,0,3.5c0.1,0.3,0.2,0.7,0.4,0.9
			c0,0,0.4-0.5,0.4-0.8c0-1.2,0-2.5,0-3.9c0-0.9,0.1-1.6,0.4-2.5c0-0.3,0.7-0.4,1.1-0.5c0.1,0,0.2,0.1,0.3,0.2
			c0.1,0.1,0.1,0.2,0.2,0.4c0.1,1,0.1,2.1,0,3.2c0,0.8,0,1.6-0.3,2.5c-0.3,0.9,0,0.6,0,0.5c0.1-0.2,0.2-0.4,0.3-0.6
			c0.3-2.2,0.8-4.3,1.4-6.4c0,0,0,0,0,0.3c0,0.5,0,1,0,1.6c0,1.1-0.7,3.9-0.7,3.9s0,0.5,0,0.3c0.6-1.4,1.1-2.9,1.5-4.4l0.4,0.9
			l-0.4,1.6c0.7,0,0.8,0.7,0.9,1.3c-1,4.7-2,9.4-3,14.1c-1.8,7.5-3,15.2-5,22.7c-2,7.4-3.3,14.2-4.7,21.3c-0.9,4.6-1.7,9.3-2.2,14
			c-0.8,5.8-1.1,11.5-0.8,17.3c0.1,0.8,0.1,1.7,0,2.5c0,4.4-0.5,8.8-0.8,13.1c-0.3,4.4-0.5,9.7-0.9,14.5c-0.4,4.8,0,8.3-0.3,12.6
			c0,2.2,0,4.5,0,6.7c0,5.9,0.5,11.4,0.8,17.1c0,1.4,0,2.8,0.4,4.1c0.5,4.4,1.1,8.8,1.4,13.1c0.4,4.4,0.5,9.8,0.7,14.8
			c0,5.7,0.9,11.4,2.7,16.7c0.4,1.5,0.7,3,0.7,4.5c0,1,0,2.1,0,3.3c0.1,5.5-0.5,10.9-1.5,16.2c-0.4,2.1-0.8,4.3-1.1,6.4
			c-0.3,2.1-0.6,4.9-0.8,7.3c-0.7,5.3-1.4,10.6-2,16c-0.8,5.6-1.3,11.3-1.3,17c0,1.2,0,2.4,0,3.6c0,9.2-0.3,18.5,0,27.7
			c-0.1,5.6,0.3,11.1,1,16.7c0,2.9,1.1,5.9,1.1,8.6c0,0.7,0.5,0.9,1.1,0.9c0.6,0,0.7,0,0.9,0c0.3,0,0.8-0.5,0.8-0.7
			c0-4-0.4-8.1-0.9-12.2c-0.6-5.3-0.8-10.6-0.6-16v-9.4c0-1.4,0-2.8,0-4.1c0.3-2.3,0.3-4.7,0-7.1c-0.1-0.8-0.1-1.7,0-2.6
			c0-2,0-4,0-5.9c0-1.9,0-3.6,0-5.5c0.4-4.3,0.9-8.7,1.1-13.1c0-3.4,0.8-6.8,1.2-10.2l1.4-11.5c0.4-2.8,0.8-5.9,1.2-8.6
			c0.5-4.5,1.1-9,1.5-13.4c0.1-0.8,0.1-1.5,0-2.3c-0.3-2.1-0.8-4.2-1.5-6.3c-0.3-0.8-0.5-1.6-0.7-2.4c-0.8-5.6-1.3-11.1-1.4-16.7
			c0-7.1-0.8-14.1-1.5-21.2c0-1.3-0.4-2.5-0.5-3.8c-0.3-5.4-0.6-10.7-0.8-16.1c0-0.8,0-1.7,0-2.5c-0.3-5.4-0.3-10.8,0-16.2
			c0-2.5,0-5.1,0-7.7c0-2.6,0-3.9,0.4-5.9c0.6-4.5,0.9-9,0.9-13.6c-0.2-3.2-0.2-6.4,0-9.7c0.5-5.9,1.1-12.2,1.8-18.2
			c0.4-3.8,1.1-7.4,1.7-11.2c0.9-6.4,2.9-12.5,4.2-18.8c0.4-1.6,0.9-3.1,1.3-4.7c0.7-3.1,1.3-6.3,2-9.4c1.5-7.2,2.8-14.3,4.9-21.3
			c1.4-4.6,2.3-9.4,3.4-14c0.5-1.9,0.9-3.8,1.3-5.7c0.6-3.2,0.9-6.6,1.7-9.8c0.7-3.2,1.9-7.7,2.8-11.5c0-0.8,0.3-1.7,1.1-2.2
			l1.4,1.8c0,0,0,0,0,0.3c2.6,5.3,4.6,10.9,5.9,16.6c1,4.4,2.3,8.7,3.7,12.9c0.5,1.3,0.9,2.6,1.2,4c0.8,5.6,1.3,11.3,1.5,17
			c0,4.8,0,9.7,0,14.5c0,3,0,5.9,0,9c0.7,7.3,0.9,14.6,0.8,21.9c-0.2,2.2-0.2,4.3,0,6.5c0.4,3.5,0.5,7.1,0.3,10.6
			c0,5.9-1.3,11.3-1.7,17c0,0.2,0,0.4,0,0.7c-0.6,2.6-0.9,5.3-0.9,8c0,1.8-0.2,3.6-0.5,5.4c-1.1,5.5-1.7,11.1-1.8,16.6
			c0.1,1.1,0.1,2.1,0,3.2c-0.5,4.4-1.1,8.8-1.6,13.1c-0.3,4.6-0.9,9.2-1.7,13.8c-0.1,0.8-0.1,1.7,0,2.5c-0.1,2.1-0.3,4.3-0.7,6.4
			c-1.4,6.4-2.1,13-2.1,19.5c0.1,1.5,0.1,3,0,4.5c-0.5,6.1-0.7,12.2-0.5,18.3c-0.1,3.8,0.1,7.5,0.7,11.3c0.6,2.9,1.1,5.9,1.7,8.9
			c0.1,0.8,0.2,1.5,0.4,2.2c1,3,2,5.9,3.1,8.9c1.1,2.9,2.3,5.9,3.7,8.9c0.9,2.1,2,4.1,3.3,5.9c0.6,0.8,1.1,1.6,1.5,2.4
			c1.7,3.4,3.9,6.7,6.4,9.7c1.6,2,2.9,4.2,3.9,6.6c1.3,3.2,2.8,6.3,4.6,9.2c1.5,2.8,3.2,5.6,5.2,8.1l0.3,0.6
			c2.5,4.7,5.3,9.3,8.4,13.6c0.5,0.8,1,1.6,1.5,2.5c0.5,0.7,1.1,1.3,1.8,1.8c0.1,0,0.3,0.1,0.4,0.1c0.2,0,0.3,0,0.4-0.1
			c0.1-0.1,0.2-0.2,0.3-0.4c0.1-0.1,0.1-0.2,0.1-0.4c0-0.4,0-0.8,0-1.3c-0.5-6.6-0.5-13.3,0-19.9c0-0.8,0-1.7,0-2.6
			c0-4.2,0-8.3,0.6-12.6c0.7-4.2,0.8-8.8,1.1-13.1c0.4-4.4,0.7-7.1,0.9-10.6c0-4.9,0.4-9.7,0.5-14.6c0-3.6,0-7.3,0.3-10.9
			c0-5.9,0.7-11.9,0.9-17.8c0-3.6,0-7.3,0-10.9"/>
		<path class="st1" d="M656.9,177.1c-1.4,1.2-3,2-4.7,2.6c-0.4,0-0.7,0-1.1,0c-0.4-0.1-0.7-0.3-0.9-0.5c-2.5-1.8-5.1-3.5-7.6-5.2
			c-0.5,0-0.9,0-1.4,0.1l-3.7-2c0-0.1-0.1-0.2-0.1-0.3c0-0.1,0-0.1,0.1-0.2c0-0.1,0.1-0.2,0.1-0.3c0.1-0.1,0.1-0.1,0.2-0.2h2
			c1.9-0.1,3.8,0.2,5.6,0.9c0.6,0.2,1.2,0.4,1.8,0.6c3,0.6,6,1.7,8.6,3.3c1,0.6,1.9,1.4,2.7,2.3c0,0,0.7,0.4,0,0.7 M649.5,136.4
			c0.6-0.4,1.3-0.6,2-0.7c0.7-0.1,1.4,0,2.1,0.2c0.7,0.2,1.3,0.6,1.7,1.1c0.5,0.5,0.8,1.1,1.1,1.8c0.1,0.4,0.1,0.8,0,1.3
			c0,0.6,0,1.2,0,1.9c-0.4,2.3-0.7,2.5-3,2.5h-1.8c-0.9-0.2-1.7-0.6-2.4-1.2s-1.2-1.4-1.5-2.3c-0.1-0.9,0-1.7,0.3-2.5
			c0.3-0.8,0.9-1.5,1.5-2 M632.1,138.8c-0.2,0.8-0.5,1.5-1,2.2c-0.5,0.7-1.1,1.2-1.7,1.6c-0.7,0.5-1.4,0.8-2.2,0.8
			c-0.8,0-1.6-0.3-2.3-0.8c-0.4-0.2-0.8-0.5-1.1-0.9c-0.3-0.4-0.4-0.8-0.5-1.3c0-0.6,0-1.1,0-1.5c-0.4-3.4,1.5-4.4,4.7-4.9
			C631.1,133.4,633,135.4,632.1,138.8 M677.3,159.3c-0.4-0.2-0.9-0.5-1.4-0.7c-0.8-0.1-1.7-0.4-2.4-0.8c-1.9-1.3-3.7-2.9-5.6-4.3
			c-0.5-0.5-0.9-1.2-1-1.9v-1l0.7,0.4l1.5,0.6l3.3,1.3c0.3,0.1,0.5,0.1,0.8,0c0.3-0.1,0.5-0.3,0.6-0.5c0.2-0.2,0.3-0.5,0.3-0.8
			c0-0.3,0-0.6-0.1-0.8c-0.1-0.3-0.2-0.5-0.5-0.8c-0.2-0.2-0.5-0.3-0.7-0.4c-2.2-0.9-4.3-1.8-6.4-2.9c-0.4-0.2-0.6-0.6-0.8-1
			c-0.2-0.4-0.2-0.8-0.1-1.3c0-0.8,1-0.3,1.6-0.3c0.6,0,1.5,0,2.2,0c0.5-0.1,1-0.3,1.4-0.7c0.1-0.1,0.2-0.2,0.3-0.3
			c0.1-0.1,0.1-0.3,0.1-0.5c0-0.1,0-0.3-0.1-0.5c-0.1-0.1-0.2-0.2-0.3-0.3c-1.1-0.4-2.2-0.7-3.4-0.9c-0.6,0-1.3-0.3-1.7-0.7
			c-0.5-0.4-0.8-1-0.8-1.6c0-0.1-0.1-0.3-0.1-0.4c0-0.1,0.1-0.2,0.1-0.3c0.1-0.1,0.2-0.2,0.3-0.3c0.1,0,0.3,0,0.4,0
			c1.7,0,3.4,0,5.1,0c0.7,0,1.5-0.1,2.1-0.6c0.9-0.7,0.9-1.5,0-1.9c-0.6-0.3-1.2-0.4-1.8-0.5h-5.9c-1.1,0-2.2-0.1-3.2-0.5
			c-1-0.4-1.9-1-2.7-1.8c0,0,0-0.4-0.3-0.6h0.6h5.9h2.5c0,0,0.5,0,0.5-0.4c0.1-0.1,0.1-0.3,0.1-0.4c0-0.1,0-0.3-0.1-0.4
			c-0.9-0.9-2.1-1.4-3.4-1.4l-4.1-0.6c-0.1,0-0.2,0-0.3-0.1c-0.1-0.1-0.2-0.1-0.2-0.2c-0.1-0.1-0.1-0.2-0.1-0.3c0-0.1,0-0.2,0.1-0.3
			c1.7-3.2,3.3-6.3,5.1-9.3c1.2-2.1,1.8-4.3,1.9-6.7c0-1.7,0-3.5,0-5.2c0-1.7,0-2.8,0-4.2c0-0.1,0-0.3-0.1-0.4
			c-0.1-0.1-0.1-0.2-0.2-0.3c-0.1-0.1-0.2-0.1-0.4-0.1s-0.3,0-0.4,0l-7.9,3.7c-0.5,0.3-0.9,0.6-1.2,1l-3.1,2.7
			c-2.1,2.1-4,4.5-5.4,7.2c-0.4,1.6-1.1,3.3-2,4.7c-0.4,0.5-0.6,1.1-0.8,1.7c-0.1,0.6-0.1,1.3,0,1.9c0,0.6,0,0.8-0.7,0.8
			c-0.4,0-0.9,0-1.3,0c-2.3-0.9-4.8-0.9-7.2,0c0,0-0.7,0-0.7-0.4c-0.1-0.8-0.1-1.5,0-2.2c0.1-1.6-0.3-3.3-1.2-4.6
			c-1.3-2.1-2.5-4.2-3.4-6.5c-1.3-3-3.5-5.4-6.3-7c-1.2-0.7-2.3-1.5-3.4-2.4c-1-0.8-2.1-1.5-3.3-2c-1.3-0.6-1.5-0.5-1.4,0.9l0.7,5.9
			c0.4,4.8,1.2,9.6,2.4,14.2c0.1,0.5,0.1,1.1,0,1.6c0,0-0.4,0.5-0.7,0.5l-1.1-0.5c-2.3-1.2-4.8-1.9-7.3-2.3c-0.4,0-1,0.3-1.3,0.7
			c-0.3,0.3,0,0.8,0,1.1c0.6,0.8,1.4,1.3,2.4,1.5c1.5,0.6,3.1,1,4.6,1.6c0,0,0,0.5,0.4,0.8l-0.4,0.3H614c-1.2,0-2.3,0.3-3.4,0.9
			c-0.9,0.5-0.9,1.4,0,2c0.2,0.2,0.5,0.3,0.8,0.4c0.3,0.1,0.6,0.1,0.9,0c0.5-0.1,1-0.1,1.5,0c0,0,0,0.4,0,0.6
			c-0.3,0.2-0.7,0.4-1.1,0.5l-3.2,0.6c-0.6,0-0.8,0.6-0.4,1.2l1.4,1.8c0.1,0.1,0.2,0.2,0.3,0.3c0.1,0,0.2,0.1,0.4,0.1
			c0.1,0,0.3,0,0.4,0c0.1,0,0.3-0.1,0.4-0.1c0.6-0.4,1.1-0.8,1.6-1.1c0.7-0.5,1.5-0.9,2.3-1.1c0.5,0,1,0,1.1,0.7
			c0.1,0.7,0,1.9-1,2.5l-3.8,1.6c-0.9,0.4-1.8,0.8-2.6,1.2c-0.1,0.1-0.2,0.2-0.3,0.4c-0.1,0.1-0.1,0.3-0.1,0.5
			c0.1,0.4,0.3,0.8,0.7,0.9c0.6,0.2,1.2,0.2,1.8,0c1.5-0.4,3-1,4.6-1.5c0,0,0.4,0,0.5,0c0,0.1,0.1,0.2,0.1,0.3c0,0.1,0,0.2-0.1,0.3
			c-0.2,0.5-0.4,0.9-0.8,1.4c-1.4,1.6-3.1,2.9-5.1,3.9c-0.6,0.3-1.2,0.8-1.7,1.4c0,0,0,0.7,0,0.8c0.5,0.1,1,0.1,1.5,0
			c1.1-0.3,2.2-0.9,3.3-1.2c0,0,1.7-0.6,1.8-0.4c0.2,0.2-0.9,1.4-1,1.6c-0.7,0.8-1.5,1.5-2.3,2.2l-2.9,2.6c0,0.3-0.6,0.6,0,1.1
			c0.2,0.2,0.4,0.3,0.7,0.3c0.3,0,0.5-0.1,0.7-0.3l2.7-1.7c1-0.7,1.9-1.3,2.8-2c0.8,1.1,0,2.5,0.4,3.6c0,0.2,0,0.4,0,0.7
			c0.1,0.5,0,1.1-0.2,1.6c-0.2,0.5-0.6,0.9-1,1.2c-1.5,1.3-3,2.3-4.6,3.4c-0.5,0.4-1.2,0.6-1.2,1.4c0,0.8,0.8,0.9,1.9,0.8
			c0.6-0.1,1.2-0.3,1.8-0.6c0.8-0.4,1.5-0.8,2.2-1.2c0.1-0.1,0.2-0.1,0.4-0.2c0.1,0,0.3,0,0.4,0c0.1,0,0.2,0.1,0.3,0.3
			c0.1,0.1,0.1,0.2,0.1,0.4c0.4,3.9,0.8,7.8,1.1,11.9c0,1.6,0.3,3.2,0.9,4.7c0.6,1.5,1.5,2.8,2.7,3.9c0.2,0.3,0.4,0.6,0.5,0.9
			c1.1,0.1,2.1,0.2,3.1,0.4c2.6,0.6,5.3,0.9,7.9,0.8c2.3-0.1,4.7,0.1,6.9,0.8c1.4,0.4,2.7,0.5,4.1,0.8c0.9,0.1,1.8,0.5,2.5,1.1
			c3-1.6,6.1-2.9,9.3-4.1c2-0.8,3.8-1.9,5.4-3.3c1.5-1.3,2.7-3,4.1-4.4c0.8-0.8,1.4-1.7,1.8-2.7c0.4-1,0.6-2.1,0.5-3.2
			c-0.1-0.7-0.1-1.3,0-2c0-0.1,0.1-0.2,0.2-0.3c0.1-0.1,0.2-0.2,0.3-0.2c0.1,0,0.3-0.1,0.4-0.1c0.1,0,0.3,0,0.4,0.1l3.3,1.9
			c0.3,0.2,0.7,0.3,1,0.3c0.4,0,0.7-0.1,1-0.3c0.2,0,0.4-0.1,0.5-0.3c0.1-0.1,0.2-0.3,0.2-0.5c0-0.2-0.1-0.4-0.2-0.6
			c-0.1-0.1-0.3-0.2-0.5-0.3l-5.9-4.1c-0.6-0.4-1.1-1-1.5-1.6c-0.4-0.6-0.6-1.4-0.6-2.1c0,0,0-0.5,0-0.5s0.6,0,0.8,0
			c1.2,0.7,2.2,1.6,3.5,2.3c0.7,0.4,1.5,0.6,2.3,0.7c0.8,0,1.6,0,2.3-0.4c0.1,0,0.2-0.1,0.2-0.2c0.1-0.1,0.1-0.2,0.1-0.3
			c0-0.1,0-0.2-0.1-0.3c0-0.1-0.1-0.2-0.2-0.2"/>
		<path class="st1" d="M153.7,439.4c-0.3-6.4-1.1-12.8-2.3-19.1c-0.2-0.9-0.4-1.9-0.4-2.9c0-2.3-0.4-4.5-0.9-6.6
			c-1.4-7.2-3-14.3-4.3-21.4c-0.6-2.7-1-5.5-1.1-8.3c-0.4-4.4-0.5-8.8-0.4-13.2c0.1-0.3,0.1-0.6,0-0.9c-0.1-0.4-0.3-0.7-0.6-0.9
			c-0.3-0.2-0.6-0.4-1-0.4c-0.3,0-0.6,0.1-0.9,0.2c-0.3,0.2-0.5,0.4-0.6,0.7c-0.2,0.4-0.3,0.8-0.5,1.3c-1.4,3.5-2.5,7.1-3.4,10.7
			c-1.1,4.7-2.1,9.6-3.6,14.3c-1.5,4.8-2.5,8.9-3.5,13.4c-1.2,5.7-2.7,11.5-4.6,17.1c-1.1,3.3-2,6.5-2.7,9.9
			c-1.2,6.6-1.4,13.5-0.6,20.2c0.7,6.2,1.1,12.4,1.1,18.7c0,3.4,0.4,6.9,0.4,10.3c0.1,5.6-0.1,11.1-0.8,16.7
			c-0.8,6.8-1.6,13.6-2.5,20.4c-0.4,3.4-1.2,6.8-1.4,10.2c0,5.3-1.7,10.3-2.2,15.5c-0.4,3-0.7,6-0.8,9c0,3.7-0.5,3.2,3.5,3.2
			c0.8,0,1.1-0.4,1.1-1.2c0-2.6,0-5.2,0-7.7c-0.1-2.2,0.2-4.3,0.9-6.4c1.3-4.7,2-9.5,2-14.3c0-5.5,0.8-10.9,1.5-16.4
			c0.7-5.5,1.2-9.8,1.7-14.7c0-1.6,0-3.2,0.3-4.8c0.4-4.8,0.4-9.7,0-14.5c0-2.4,0-4.9,0-7.3c0-3.5,0-7.1-0.5-10.6
			c0-4.5-0.7-9-1.1-13.5c0-7.1,1.2-14.2,3.5-20.9c1.1-3.4,2.2-6.7,3.1-10.2c1.2-4.8,2.5-9.5,3.8-14.3c0.7-2.7,1.2-5.5,2-8.2
			c1-3.3,1.7-6.6,2.2-10c0.2-0.9,0.4-1.9,0.7-2.8c0.1-0.2,0.2-0.3,0.3-0.5c0,0.1,0,0.3,0,0.5c0,2.8,0.4,5.9,1,8.6
			c1,5.9,2.2,11.8,3.4,17.8c0.5,2.7,1.2,5.5,1.5,8.2c0.4,2.7,0.7,6.6,1.2,9.9c0.9,5.4,1.4,10.8,2.1,16.2c0.1,0.6,0.1,1.3,0,1.9
			c-0.4,3-0.7,5.9-1.1,9c-0.5,3.1-1.1,4.8-1.5,7.3c-0.6,3.9-1.1,7.8-1.6,11.9c0,1.2,0,2.5-0.4,3.8c-0.4,3.4-0.8,6.8-1.1,10.3
			c-0.4,3.4-0.6,6.8-0.6,10.3c0.5,8.1,0.5,16.3,0.9,24.4c0.4,6.5,0.4,13.1,0,19.6c0.1,2.9-0.1,5.8-0.5,8.7c-0.3,1.7-0.5,3.4-0.6,5.1
			c0,1.4,0,2.8,0,4.2c0,0,0.4,0.7,0.5,0.7h4.1c0.8-1,0-2.3,0.4-3.4c0.4-1.2,0-3,0-4.5c0-1.6,0-2.8,0-4.2s0-3.7,0-5.4
			c0-1.8,0-4.8,0-7.2c0-5,0-10.1-0.4-15.1c-0.4-5-0.5-9.4-0.6-14.1c0-3.6,0-7.2,0-10.7c0-4.1,0.5-8.1,0.8-12.2
			c0.2-4.2,0.6-8.4,1.2-12.5c0-0.9,0-1.9,0.4-2.8c0.3-3.3,0.8-6.5,1.5-9.6c0.6-2.5,0.9-5.2,1.4-7.9c0-0.7,0-1.5,0-2.2
			c0.2-1.2,0.2-2.4,0-3.6c0-0.8,0-1.7,0-2.5"/>
		<path class="st1" d="M402.6,423.2c-0.4-2.4-0.5-4.9-0.9-7.3c-0.7-3.6-1.6-7.1-2.6-10.6c-1-3.5-2.8-8.6-3.7-13
			c-0.2-0.9-0.5-1.8-0.9-2.7l-4.4-11.9c-0.2-0.6-0.5-1.2-0.9-1.6c-0.2-0.2-0.4-0.3-0.6-0.4c-0.2-0.1-0.5-0.1-0.7,0
			c-0.2,0-0.4,0.1-0.6,0.3c-0.2,0.2-0.3,0.4-0.4,0.6c0,0.2,0,0.5,0,0.7c-0.2,2.6-1,5.1-2.2,7.3c-0.5,1.1-0.9,2.2-1.2,3.3
			c-1.5,5.3-3.5,10.6-5.4,15.8c-0.9,2.5-1.6,5.1-2.5,7.6c-2.3,6.1-4.2,12.4-5.6,18.7c-0.9,3.7-1.3,7.4-1.2,11.2c0,3.3,0,6.6,0.3,10
			c0.4,8.7,1.2,17.3,2.5,25.9c0.6,4.1,1,8.1,1.3,12.2c0.2,5.5-0.3,10.9-1.4,16.2c-0.4,2.2-0.8,4.2-1.1,6.4c-0.4,2.1-0.5,3.6-1,5.4
			c-1.1,4.4-1.8,8.9-2,13.4c0.1,2.4-0.1,4.9-0.4,7.3c-0.8,5.6-2.6,11.1-5.3,16c-0.2,0.2-0.4,0.6-0.4,0.9c0,0.3,0.1,0.6,0.4,0.8
			c0.4,0.1,0.8,0.1,1.2,0c2.4,0,2.5,0.3,3.4-1.8c1.1-2.3,2-4.8,2.7-7.2c1.1-4.5,2-9,2.8-13.6c0.7-2.9,1-5.9,0.9-9
			c-0.1-3.3,0.3-6.6,1-9.9c0.7-3.6,1-7.3,1.9-10.7c1.1-4.8,1.4-9.8,0.9-14.8c-0.5-7.1-1.4-14.3-2.1-21.4c-0.5-4.7-1.1-9.4-1.7-14.1
			c-0.2-1.2-0.3-2.4-0.3-3.5c0-2.9,0.3-5.9,0.5-8.7c-0.5-3.3-0.3-6.7,0.6-9.9c1.8-5.9,3.3-11.9,5.4-17.5c2.1-5.7,3.7-11.4,5.5-17.1
			c1-3,2-5.9,3-9.1c0.2-0.6,0.5-1.2,0.8-1.8c0,0,0-0.4,0.4-0.4s0.4,0,0.5,0.4c0.7,1.8,1.5,3.5,2.1,5.4c1.3,4.3,2.5,8.7,3.7,13
			c0.6,2.1,1.1,4.3,1.8,6.5c0.8,3.4,1.4,6.9,1.9,10.5c0.3,1.3,0.5,2.7,0.6,4.1c0.3,4.2,0.5,8.3,0.7,12.6c0,6.6-0.7,13.2-2.2,19.7
			c-1.8,7.7-3.2,15.5-4.6,23.3c-0.9,4.6-1.4,9.3-1.9,14c-0.3,2.5-0.6,5.2-1,7.7c-1.4,8-2.4,16.1-2.9,24.3
			c-0.4,6.2-0.8,12.4-1.2,18.6c-0.2,2.3-0.2,4.5,0,6.7c0,1.3,0,2.5,0.4,3.9c0.4,1.3,0.4,1.2,1.2,1.2h2.5c0.8,0,1.1-0.5,1.1-1.2
			c0-0.3,0-0.7,0-1c-1.2-5.8-1.5-11.8-0.8-17.8c0.1-1.5,0.1-3,0-4.5c0-4.7,0.4-9.5,0.9-14.2c0-2.2,0.6-4.4,0.9-6.6
			c0.5-3.2,0.9-6.4,1.5-9.6c0-0.9,0.4-1.9,0.5-2.8c0.6-7.3,1.7-14.5,3.2-21.6c0.6-2.6,1.4-5.2,1.9-7.8c1.1-6.9,2.3-13.8,3.3-20.6
			c0.8-4.6,1.1-9.2,1-13.8c-0.1-4.2-0.5-8.4-1.1-12.5"/>
		<path class="st1" d="M174.9,46.4c-0.3,4.7-0.2,9.5,0.4,14.2h3.4c0.1-1.1,0.1-2.2,0-3.2c-0.3-3.2-0.3-6.4,0-9.5c0-2,0-4.1,0-5.9
			c-0.2-1.9,0-3.8,0.6-5.6c0-0.6,0-1.2,0-1.7c0,0,0,1.2,0,1.8c0.1,0.2,0.2,0.4,0.3,0.5c0.5,0.4,0.5,0,0.5-0.3c0.1-0.4-0.4-2,0.5-2.9
			c0.5,1,1.1,2,1.5,3c0.1,0.2,0.1,0.4,0,0.6v0.3v-0.3v-3.9c0-0.2,0-0.4,0-0.6c0.1,0.2,0.2,0.4,0.3,0.7c1,6.8,0.5,13.7-1.4,20.3
			c-0.8,2.4-1.2,4.9-1.8,7.4h0.3c2.3-0.1,4.6,0.4,6.6,1.5c0.7-0.9,1.4-1.9,2-2.9c2-3.3,4.2-6.5,6.6-9.5c0.9-1,1.8-2,2.9-2.9l1.4-2.5
			c0-0.2,0-0.4,0-0.6c0,0,0,0,0.4-0.3c0.4-0.4,0.4,0.3,0,0.3c-0.1,0.4-0.2,0.7-0.4,1c0,0.5-0.1,1-0.3,1.5c-0.2,0.5-0.5,0.9-1,1.1
			v0.9c0,0,0.7,0,0.7-0.3c0.1-0.3,0.8-1,1.4-0.4c0.1,0,0.3,0,0.4-0.1c0.1-0.1,0.2-0.2,0.3-0.3c0.4-0.9,0.5-1.9,0.9-2.7
			c0.4-0.9,0.7-0.8,0.9-1.1v1.2c0,0,0,0.3,0.4,0.4c0-0.2,0-0.3,0-0.5l0.4-0.9c-0.2,1.8-0.7,3.5-1.6,5.1c-2.5,4.1-5.4,8-8.6,11.6
			l-3.8,4.2c0.7,1.6,1.9,2.7,3.4,3.4c3.4-3.7,6.9-7.2,10.6-10.6c2.3-2.3,4.9-4.2,7.3-6.2c2.5-2,3.9-2.9,5.9-4.4c0,0,0.5-0.4,0.7-0.4
			c0.1,0,0,0.6,0,0.9s-1.4,1.4-1.2,1.6c1.4,0,3.7-2,5.9-3.7c0.5-0.6,1.1-1.1,1.7-1.7c0.6-0.5,1.1-1.1,1.6-1.7c0,0.3-3.6,4.9-3.4,5.3
			c0.2,0.3,0.4,0.5,0.8,0c1-1.8,2.4-3.4,4-4.7c0,0-1,2.2,0.7,0c0,0.3,0,0.5,0,0.8c0,0.5-2.8,3-2.9,3.4c-0.1,0.5,2.8-2.4,3-2.4
			c0.2,0,0.5,0,0.6-0.3c0,0,0,0.3-0.4,0.4c-0.4,0.1-0.4,0.6-0.5,0.9l-0.7,0.6c-1.9,3.9-4.6,7.3-7.9,9.9c-5.6,5.1-11.7,9.7-18.2,13.5
			c-1.6,0.9-3.3,1.6-5,2c0.3,1.2,0.8,2.4,1.5,3.3c5.9-3.1,11.5-6.6,16.9-10.6c3-2.1,5.7-4.5,8.3-7.1c2.7-2.9,5.6-5.7,8.3-8.6
			c2.7-2.9,5.6-5.9,8.2-9.4c3.3-4.2,6.5-8.5,9.6-12.9c1.1-1.8,2.1-3.7,3-5.7c0,0,0-0.5,0-0.7c-0.2,0-0.4,0-0.6,0
			c-1.8,1.4-3.5,2.8-5.4,4c-2,1.2-5.2,2.9-7.9,4.3c-4.4,2.2-8.3,5-11.8,8.4c-1.5,1.6-3.3,3-5.3,4.1c-3.4,1.7-6.6,4.1-9.3,6.8
			c-0.9,0.9-1.8,1.7-2.8,2.6c-0.9,0.8-1.8,1.5-2.7,2.2c-0.1,0-0.3,0.1-0.5,0.1c-0.2,0-0.3,0-0.5-0.1c-0.1-0.1-0.2-0.2-0.3-0.4
			c-0.1-0.1-0.1-0.3-0.1-0.4c0-1,0.4-1.9,1.1-2.6c2-2.5,3.2-5.6,3.4-8.9c0.3-2.5,1-5,2.2-7.3c2.1-3.6,4-7.3,5.6-11.2
			c0-0.7,0.8-1.3,1.1-2c0.3-0.8,0.6-1.6,0.9-2.4c0,0,0-0.3-0.4-0.3c-0.3,0-0.6,0.2-0.8,0.5c-1.9,2.3-4.1,4.4-6.4,6.4
			c-0.8,0.7-1.5,1.6-2.1,2.4c-1.1,1.2-2.1,2.5-3.2,3.6c-4,3.5-7.6,7.4-10.6,11.9c-1.1,1.9-2.4,3.8-3.8,5.5
			c-2.5,3.2-4.8,6.5-6.7,10.1c-0.2,0.6-0.6,1.1-1.1,1.6c-0.1,0.1-0.3,0.2-0.5,0.3c-0.2,0-0.4,0.1-0.6,0.1c-0.5,0-0.9-0.8-0.7-1.3
			c0.3-0.8,0.6-1.6,1.1-2.4c2.5-4.6,3.8-9.8,3.6-15.1c0-5.9-0.8-11.9-1.2-17.8c-0.1-0.9-0.2-1.7-0.4-2.5c-0.8-3.6-1.6-7.1-2.4-10.7
			c-0.2-0.9-0.4-1.6-0.7-2.5c0-0.3-0.5-0.5-0.8-0.8c-0.2-0.3-0.5,0.4-0.6,0.7c-0.1,0.3-0.7,2.3-1.1,3.4c-0.4,1.1-1.1,3-1.7,4.5
			c-0.5,1.6-1.2,3.4-1.7,5.2c-0.9,2.4-1.6,4.9-2.1,7.4c-0.9,4.4-1.2,9-0.9,13.5c0.1,1.4,0.1,2.8,0,4.1"/>
		<polyline class="st1" points="224.6,45.8 224.6,45.8 224.5,45.8 		"/>
		<path class="st1" d="M484.9,193.2c-1,1-1.6,2.3-1.7,3.7c-0.1,0.5-0.2,0.9-0.4,1.4v0.5c0,0,0-0.4,0-0.6l-0.7-3.3
			c0.1-0.7,0.3-1.4,0.5-2c0-0.8,0.6-1.1,1.2-0.9c0.4,0,0.8,0,1.2,0c0.1,0,0.2,0.1,0.2,0.2c0,0.1,0.1,0.2,0.1,0.3
			c0,0.1,0,0.2-0.1,0.3c0,0.1-0.1,0.1-0.2,0.2 M476.3,171.3l-2.8,0.7h-0.5c0-0.2,0-0.4,0-0.5c0.4-0.8,0.8-1.4,1.2-2.1
			c0.1-0.2,0.2-0.3,0.4-0.5c0.2-0.1,0.4-0.2,0.6-0.2c0.2,0,0.4,0.1,0.6,0.2c0.2,0.1,0.3,0.3,0.4,0.5c0.2,0.5,0.3,0.9,0.4,1.5
			L476.3,171.3 M483.2,132.5l-1.4,0.5l-3.1-0.5c0,0-0.7-0.4-0.7-0.7c0-0.4,0.1-0.9,0.3-1.3c0.2-0.3,0.5-0.5,0.8-0.6l3.3-0.7
			c0.6,0,1.2,0.5,1.4,1.3c0.1,0.3,0.1,0.7-0.1,1.1C483.7,132,483.5,132.3,483.2,132.5z M507.7,154.7c-1.1-2.7-2.3-5.4-3.5-8.1
			c-0.2-0.5-0.5-1-0.9-1.4c-2.5-3.6-5.4-6.9-8.6-9.8c-0.5-0.5-1-1-1.4-1.6c-0.9-1.3-2.2-2.3-3.6-2.9c-2.1-1-4.2-1.9-6.3-2.8
			c-0.9-0.3-1.9-0.3-2.8,0c-1.7,0.9-3.3,2.1-4.7,3.4c0,0.2,0,0.3,0,0.5c0,0.4,0,1.1,0,1.2h1.7c1.3,0,2.6,0.2,3.8,0.6
			c1.5,0.7,2.8,1.6,3.9,2.9c0.7,0.7,1.4,1.3,2.1,1.9c2.5,2,4.8,4.3,6.9,6.8c1.4,1.8,2.5,3.8,3.3,5.9c0.5,1.1,0.8,2.3,1.3,3.4
			c0.5,1.1,0,1.6-0.6,1.8c-2.1,0.6-4.3,0.8-6.4,0.8c-3.4-0.2-6.8,0.6-9.8,2.3c-4,2.1-7.2,5.4-9.3,9.4c-0.9,1.6-1.7,3.3-2.4,5.1
			c-0.1,0.2-0.1,0.3,0,0.5c0.1,0,0.1,0,0.2,0c0.1,0,0.1,0,0.2,0c0.3-0.1,0.6-0.3,0.8-0.6c0.8-0.8,1.7-1.4,2.7-1.7
			c1-0.4,2.1-0.5,3.2-0.3c1.6,0,3.2,0.1,4.8,0.4c3.9,0.1,7.7-0.3,11.5-1.2c0.3,0,0.7,0,0.8,0.3c0.1,0.2,0.1,0.5,0,0.8
			c-1.2,1.2-2.4,2.4-3.5,3.6c-0.7,0.6-1.4,1.3-2,2.1c-1.1,1.8-2.4,3.4-3.8,4.9c-0.8,0.8-1.5,1.8-2.1,2.8c-1.1,2-1.9,4.1-2.4,6.4
			c-0.2,1-0.2,2.1,0,3.2l0.5,2.8c0.4,1.4,1.2,2.7,2.2,3.8c0,0,0.5,0,0.5-0.4c0.1-0.3,0.1-0.6,0-0.8c-0.2-2,0.1-4.1,0.9-5.9
			c0.2-0.7,0.6-1.2,1.2-1.6c1.8-1.4,3.5-3,5.4-4.5c1.9-2,4.1-3.7,6.4-5l5.9-2.7v-1.6c-1.6,0.7-3.1,1.4-4.7,2c-1,0.1-2.1,0.1-3.1,0
			c-0.5-1.5-1.1-0.5-1.7,0c0,0-0.4,0-0.5,0c-0.1-0.2-0.1-0.3,0-0.5c0.1-0.4,0.2-0.8,0.4-1.1c0-0.6,0-1.1-0.4-1.4c0-0.2,0-0.5,0-0.8
			c0.1-0.4,0.1-0.8,0-1.2c-0.3-0.9-0.2-1.8,0.1-2.6c0.3-0.8,0.9-1.6,1.6-2c0.9-0.7,1.8-1.2,2.8-1.8c0-0.1,0-0.3,0-0.4v-0.4
			c-0.5-0.2-1-0.4-1.6-0.3c-1.1,0-1.2-1.1-2-1.4c0.6,0,1.8-0.7,1.8-1.3h-2.1c0-0.1,0-0.2,0-0.3c0-0.1,0-0.3,0-0.4c0.2,0,0.4,0,0.7,0
			c0.7,0,0.9-0.7,0.9-1.4c0.1-0.8,0-0.8-0.5-0.8h-1.5c-1,0-1.5,0-1.2-0.6c0.2-0.6,0.8-0.3,1.3-0.3h1.4c0.5,0,0.7,0,0.8-0.8
			c0.1-0.8,0-1.3-0.7-1.3h-3.1c-0.4,0,0-0.5,0-0.7c1-0.4,2-0.5,3.1-0.3c0.2,0,0.4,0,0.7,0c0,0,0-0.1,0-0.2c0-0.1,0-0.1,0-0.2
			c0.1-0.1,0.1-0.3,0-0.4H496v-0.3l2.8-0.3h0.5c1.6,0,2.2-1.6,1.5-3.3c-0.8-1.8-1.3-4.1-2-5.9v-0.7h0.4c0.9,0.5,1.3,1.6,1.9,2.4
			c0.6,0.8,0.4,0.8,0.7,0c0.3-0.8,0-0.7,0-1l-0.4-0.5l-0.8-1.4l-0.6-0.7c0,0,0,0,0-0.4l0.5,0.7c0.4,0.4,0.7,0.9,0.9,1.4l0.5,0.6
			l0.5,0.5h0.6c0-0.1,0-0.3,0-0.4l-1.6-2.8c-0.1-0.2-0.1-0.5,0-0.7c0,0,0.5,0,0.6,0s0.7,1,1.1,1.4c0.4,0.4,0.6,1.7,1.5,1.6
			c0.9-0.2,0.5,0.5,0.6,0.8c0.5,0.9,0.9,1.8,1.3,2.7l2.8,7.1c0.3,1.2,0.9,2.2,1.8,3h0.4c-0.4-1.2-0.9-2.4-1.5-3.6
			c-0.7-1.4-1.4-2.9-1.9-4.4"/>
		<path class="st1" d="M385.3,51.5l-0.4-0.3c-0.7-0.8-0.5-1.7-0.5-2.7c-0.2-0.3-0.5-0.6-0.6-0.9c0,0,0-0.4,0-0.5
			c0-0.2,0.4,0.3,0.4,0.5c0,0.3,0,0.6,0,0.9c1,0.5,0,1.8,1,2.5c1,0.7,0,0.3,0,0.5 M345.4,30c1.3,2.8,2.7,5.6,4.1,8.4
			c1.8,3.5,3.7,7,5.5,10.5c1.8,3.5,4.8,6.3,6.9,9.7c1.8,2.5,3.7,4.9,5.9,7.2c3.1,3.4,6.3,6.8,9.4,10.2c1.9,2,3.6,4.2,4.9,6.7
			c1.3-0.4,1.5-1.6,1.8-2.6c-3.2-4.2-6.7-8.1-10.4-11.9c-1.7-1.9-3.4-3.8-5.1-5.9c-0.3-0.3-1.8-2.2-3.2-4.1l0.6,0.5
			c0,0,1.8,2,2.1,2.2c0.2,0.2,0.7,0.3,0.7,0l-1.8-2.5l-2.2-2.4l-1.3-1.9c0.1-0.4,0.2-0.7,0.4-1c0.3,0,1-0.3,1.1,0
			c0.8,1.1,1.5,2.2,2.3,3.3l1.9,2.5c0.3,0.3,0.5,0.7,0.7,1c0,0,0.6,0.8,0.8,0.8c0.2,0.1,0.6,0.5,0.6,0c0.1-0.2,0.1-0.5,0-0.8
			l-0.6-1.2c-0.4-0.8-0.8-1.5-1.3-2.2c0-0.4-0.7-0.8-0.9-1.2c-0.2-0.4,0-0.7,0-0.9c0.2,0.1,0.4,0.2,0.5,0.4c0,0,0,0,0.4,0.4
			c0.2,0.2,0.4,0.4,0.7,0.5c0,0,0.7,0,0.4,0l-0.9-0.3v-0.5c-0.6-0.8-1.2-1.6-1.9-2.3c0.4-0.4,0.7,0,0.9,0l0.7,0.5
			c0.5,0,0.9,0.7,1.4,0.9l0.6,0.7l1.4,1.6l1.1,1.3c0.1,0.1,0.2,0.3,0.4,0.4c0,0,0.9,0,0.4-0.6l-0.6-0.6l-1.9-2.2l-0.5-0.5
			c-0.4-0.5-0.7-1-1-1.5c-0.1-0.1-0.1-0.2-0.1-0.4c0-0.1,0-0.2,0.1-0.4c0,0,0.7,0,0.8,0l4,3.8c1.1,1.1,2.1,2.4,3.3,3.5
			c3.1,3,5.6,6.5,7.6,10.3l2,3.7c0.4,0.8,0.7,1.6,0.9,2.4c1.8-0.7,2.8-2.4,4.2-3.6c-1.5-4.1-3.1-8.2-4.7-12.3
			c-0.4-1.1-0.8-2.2-1.2-3.3c-0.3-0.8-0.3-1.8,0-2.7c0.2-1.4,0.1-2.8-0.5-4.1c-0.7-1.3-0.8-2.9-0.5-4.4c0.1-0.1,0.2-0.2,0.4-0.3
			c0,0,0.4,0,0.4,0.4c0.5,2.2,1,4.4,1.6,6.5c0,0.8-0.4,2,0.9,2.4c0.5-0.9,0-1.7,0-2.5c-0.5-2.1-1-4.1-1.5-6.2c0,0,0-0.4,0-0.6
			c0-0.2,0.5,0,0.7,0.5c0.2,0.3,0.3,0.6,0.4,0.9c0.5,1.2,0.9,2.4,1.4,3.6c0.1,0.4,0.3,0.8,0.5,1.1c0-0.5,0-1,0-1.5v-1.2
			c0,0,0,0,0.3,0l0.9,1.6c0,0.3,0.5,1,0.7,0.9c1.7,0,1.6,1.4,2.2,2.3c0.9,1.7,1.7,3.4,2.4,5.2c1,2.6,1.8,5.3,2.3,8
			c0.1,0.9,0.1,1.9,0,2.8l2.7-0.7c0-0.4,0-0.8,0-1.3c-0.6-4.2-1.8-8.4-3.7-12.2c-1.8-3.8-3.8-7.4-5.9-11.1
			c-2.1-3.7-3.7-6.7-5.6-10.1c-0.4-0.6-0.7-1.3-0.9-2c-1.3-3.5-3.2-6.8-5.4-9.8c-2.7-4.1-5.9-8-8.8-11.9c-0.6-0.7-1.2-1.2-2-1.6
			c-0.1,0-0.2-0.1-0.3-0.1c-0.1,0-0.2,0-0.3,0.1c0,0,0,0.4,0,0.5c0.4,0.9,0.8,1.8,1.3,2.6c1.1,1.6,1.8,3.4,2.1,5.4
			c0.5,2.3,1.1,4.6,1.8,6.8c0,1,0.8,2,1.1,3c0.7,2.4,1.2,4.8,1.9,7.1c0.7,2.4,1.5,5.9,2.3,8.7c0.8,2.8,1.7,5,2.4,7.7
			c1.1,3.9,2.5,7.7,4,11.5c0.8,1.9,1.5,4,2.1,5.9c0,0,0,0.3,0,0.6c0,0.2-0.4,0-0.4-0.3c-0.1-0.4-0.9-1.6-1.4-2.2
			c-1.3-2.1-2.7-4.1-4.3-5.9c-3-3.1-5.9-6.3-8.9-9.2c-1.7-1.5-3.2-3.2-4.8-4.8c-0.7-0.7-1.4-1.3-2.2-1.9c-4.1-2.6-7.5-6.4-11.8-9
			c-1.5-0.9-2.9-2.2-4.4-3.2c-1.9-1.1-3.3-2.8-4.2-4.8c-0.2-0.5-0.5-0.9-0.8-1.4c-0.3-0.3-0.6-0.5-0.9-0.7c0,0.3,0,0.6,0,0.9
			c0.5,1.5,1.1,3,1.7,4.5"/>
		<path class="st1" d="M134,109.5c-3.8,2.4-7.6,4.7-11.4,7.2c-4.3,3-8.4,6.3-12.2,10c-3.1,3.1-6,6.4-8.6,9.9
			c-2.3,3.1-4.4,6.4-6.5,9.6c-0.8,1.3-1.7,2.5-2.4,3.8c0,0,0,0.4,0,0.5c0,0.1,0.4,0,0.5,0c0.4-0.2,0.8-0.4,1.1-0.7
			c1-0.6,2-1.3,3-1.8c5-2.2,9.9-4.7,14.6-7.4c1.2-0.8,2.5-1.6,3.8-2.3c1.7-1.1,3.5-2.1,5.4-2.9c3.7-1.6,7.2-3.8,10.4-6.3
			c2.4-1.7,4.8-3.6,7.2-5.5l3.9-3.3c-0.2-1.2-0.7-2.3-1.5-3.2c-5.1,4.4-10.4,8.5-16,12.3l-3.8,2.4c-0.8,0.5-1.7,0.7-2.5,0.5
			c0.4,0,0.7,0,1.2-0.5c0.5-0.6,0.7,0,1.4-0.8c0.7-0.7,0.4-0.3,0.6-0.6c0.2-0.2,0-0.4-0.5,0c-0.4,0.4-1,0.6-1.5,0.7
			c-0.5,0.1-1,0.4-1.4,0.9l-0.8,0.3l-0.7-0.3c0.1-0.2,0.2-0.4,0.4-0.6c0.8-0.5,0.9-0.8,1.7-1.3c0.7-0.5,1.1-1.1,0.8-0.9
			c-0.2,0.2,0.5-0.4,0-0.8c-0.5-0.3-1.2,0.8-1.2,0.8l-1.1,1.1c-0.3,0.3-0.7,0.6-1.1,0.7c0,0,0,0,0-0.3c0.2-0.2,0.4-0.4,0.7-0.5
			c0.9-0.8,1.7-1.7,2.3-2.8c0-0.3-1.1,0.8-1.2,0.7c-0.2-0.1-0.9,1-1.5,1.6c-0.1,0-0.2,0-0.3,0c-0.1,0-0.2,0-0.3,0l-0.4-0.3
			c-0.1,0-0.1-0.1-0.2-0.2c0,0-0.1-0.1-0.1-0.2c0-0.1,0-0.2,0.1-0.2c0-0.1,0.1-0.1,0.2-0.2c0.5-0.6,1.7-0.6,2.1-1.3
			c0.4-0.7,0.7-0.8,0.6-0.9c-0.1-0.1-1.4,0.5-1.5,0.5l-1.2,0.4c-0.2,0-0.4,0-0.6,0c0,0,0-0.4,0-0.5c0.5-0.7,1-1.4,1.7-1.9
			c4.4-3.8,9-7.2,14-10.1l7.5-4.4c0-1.6-0.3-3.2-0.8-4.7h-3.8c-3,0-5.9,0-9,0c-3.7,0.2-7.5-0.1-11.1-0.9c-1.4-0.3-2.8-0.3-4.1-0.6
			c-0.7-0.1-1.4-0.4-2.1-0.7c0,0-0.4-0.5-0.5-0.8l0.8-0.4c0.4,0,1,0,0-0.6c-1-0.6-0.4-0.4,0-0.6l0.9-0.5c-0.3,0-0.6-0.2-0.9-0.3
			c0,0-0.4-0.3-0.4-0.4c0.1,0,0.3-0.7,0.5-0.8c0.6,0,1.3,0,1.9,0h0.6c-0.3,0-0.5,0-0.8,0l-1.8-0.3c0,0,0-0.5,0-0.6
			c0.3-0.2,0.7-0.4,1.1-0.5l3-0.4h-3.2c0.4-0.2,0.8-0.3,1.2-0.3l7.6-0.4c5.8,0,11.5,1,17,2.7c0.7,0,1.5,0,2.2,0.4v-3.8
			c-2.5-0.6-4.9-1.4-7.5-1.8c-5.2-0.9-10.5-1.2-15.7-0.6c-2.1,0-4.3,0.4-6.3,1c-2.8,0.9-5.7,1.6-8.7,2.1c-2.5,0.5-5.1,0.7-7.6,1.3
			c-4.4,1.2-8.8,2.9-12.9,4.9c-0.5,0.2-1,0.5-1.4,0.8c0,0-0.1,0.1-0.1,0.2s0,0.1,0.1,0.2c0,0.1,0.1,0.2,0.2,0.2
			c0.1,0.1,0.2,0.1,0.3,0.2c1.4,0.6,2.9,0.8,4.4,0.7h3.8c5,0.3,10,0.9,15,1.8c3.8,0.5,7.6,1.2,11.4,1.8c5.9,0.9,11.8,1.1,17.7,0.5
			l2.8-0.5c1,0,1.9,0,2.9,0c0.2,0,0.3,0.1,0.4,0.3c0.1,0.2,0.1,0.4,0,0.6l-1.4,0.9"/>
		<path class="st1" d="M780.6,242c1.4-0.6,2.7-1.3,4.1-1.7c1.4-0.5,2.5-0.7,3.7-1.2c5.9-2.7,11.5-5.5,17-8.8c3.1-1.8,6-4.1,8.6-6.6
			c0.9-0.9,1.8-2,2.7-2.9c-1.2-0.8-2.4,0-3.6,0c-1.7,0.1-3.3,0.4-5,0.7c-5.2,1.1-10.4,2.3-15.6,3.3c-2.3,0.4-4.4,1.2-6.4,2.3
			c-2.4,1.2-4.8,2.4-7.3,3.3H778v-0.8c0.9-2.4,2.1-4.6,3.6-6.5c3.7-5.8,6.7-12.1,8.9-18.6c0,0,0,0,0-0.3c0.7-2.2,1.6-4.3,2.7-6.3
			c0-0.5,0.8-1.3,0.7-1.3c-0.1,0-1,0-1.4,0.6c-4.3,3.4-8.6,6.8-12.6,10.5c-4,3.7-7.3,7.5-10.9,11.2c-1.1,1.1-2.1,2.2-3.3,3.2
			c-2,1.8-3.8,3.8-5.4,5.9l1.5,2.7c0.8-0.7,1.5-1.4,2.1-2.2c1.4-2.2,3.1-4.2,5.1-5.9c0.5-0.5,0.9-0.8,1.4-1.2
			c0.4-0.5,4.1-4.9,5.6-5.2c-0.7,0.7-1.9,2.1-2,2.4c-0.1,0.2,0,0.3,0,0.4c0,0.1,0.4,0,0.5,0c0.4-0.6,0.9-1.1,1.4-1.6l0.9-0.7
			c0,0.1,0,0.3,0,0.5c0,0.3-1.4,2.3-1.2,2.5c0.1,0.3,2.1-1.5,2.2-1.6c1.8-1.7,1.4,0,2,0c0,0.9-0.8,1.3-1.2,1.9
			c-0.5,0.6-0.6,0.8-0.8,2.3c0,0.3,2.6-1.7,2.5-1.4c-0.3,1.6-1,3.1-2,4.4c-1.8,2.4-3.6,4.7-5.4,7.1c-0.5,0.5-0.8,1.2-0.8,1.9
			c0,0.7,0.3,1.4,0.8,1.9c0.1,0,0.3,0.1,0.4,0.1c0.1,0,0.3,0,0.4-0.1c0.7-0.2,1.3-0.4,2-0.7c2.2-1.3,4.5-2.5,6.7-4
			c2.5-1.5,5.2-2.6,7.9-3.4c0.3-0.1,0.6-0.1,0.9,0c0.5,0,1.2,0,1.2,0.9c0.1,0.5,0.3,1,0.7,1.5c0.1,0,0.2,0,0.4,0c0.1,0,0.2,0,0.4,0
			c0.4-0.2,0.9-0.4,1.4-0.6c0.3,0,0.6,0,0.8,0c0,0,0,0.6,0,0.8c0,0.2-0.8,0.6-1.2,0.9c-0.2,0.4-0.4,0.8-0.6,1.1
			c-0.6,2.2-0.7,2.4-2.3,3.1c-2.6,1.1-5.1,2.2-7.7,3.1c-2.4,1-4.8,1.9-7.3,2.5c0,0-0.4,0.4-0.5,0.7c-0.1,0.2,0,0.4,0,0.5
			c0.2,0.3,0.4,0.5,0.7,0.6c0.3,0.1,0.6,0.2,0.9,0.2c1.8,0,3.7,0.5,5.5,0.8c2.7,0.5,5.4,1.4,7.9,2.7c1,0.5,2,0.9,3,1.3
			c0.9,0.2,1.7,0.8,2.2,1.5c0.3,0.4,0.9,0.6,0.5,1.3c-0.1,0.2-0.3,0.4-0.5,0.5c-0.2,0.1-0.5,0.1-0.7,0l-0.5,0.3c0,0,0,0.4,0.4,0.5
			l3.9,1.2h0.6h-0.7l-3.7,0.7c-0.2,0.1-0.3,0.2-0.5,0.4l0.4,0.3l3.2,0.7v0.3c-1.6,0.2-3.2,0.2-4.7,0c-4.5-0.4-9-1.4-13.2-3.1
			c-1.1-0.4-2.2-0.8-3.4-1.1l-5.4-1.6l-5.4-1.7v2.7l1.5,0.3c4.1,1.2,8.3,2.5,12.5,3.5c6.2,1.6,12.5,2.5,18.9,2.6
			c4.7,0,9.5,0.4,14.2,0.6h0.8c0,0,0-0.5,0-0.6c-2.8-2.4-5.9-4.7-8.9-6.8c-2.2-1.6-4.6-2.9-7.1-3.8l-10.2-3.4
			c-1.1-0.3-2.1-0.3-3.2-0.6l-4.6-1.1c0,0-0.3,0-0.3-0.3c0-0.1,0-0.2,0.1-0.3c0.1-0.1,0.1-0.2,0.2-0.2"/>
		<path class="st1" d="M259.7,91c-4.5,0.4-9,0.4-13.5,0c-2.7-0.3-5.3-0.3-8,0c-2.4,0.3-4.9,0.4-7.3,0.7c-2.4,0.3-6.4,0.8-9.5,1.6
			c-4.6,1-9.1,2.4-13.6,3.6c-1.5,0.4-3,1-4.6,1.6c-0.2,1.2,0,2.4,0.5,3.4l15.9-4.8c2.9-0.8,5.8-1.3,8.8-1.6l4.8-0.6
			c0.6,0,3.3,0,3.4,0c0.8-0.2,1.6-0.3,2.4-0.4c0.5,0,0.7,0,0.7,0.5c-0.8,0.4-1.7,0.6-2.7,0.6h-2.4c0,0,0,0,0,0.5s1.5,0,2.4,0
			c1-0.1,1.9-0.1,2.9,0l-2.4,1.6c-0.3,0.2-0.5,0.5-0.7,0.8c0.4,0.1,0.8,0.1,1.2,0l2.6-1.1c0.3-0.1,0.6-0.1,0.9,0
			c0.3,0.1,0.6,0.3,0.8,0.6c0.1,0.1,0.1,0.2,0.1,0.4c0,0.1-0.1,0.3-0.1,0.4c-0.5,0.5-2.4,0.4-2.5,1.6c0.9,0.6,2.2-0.8,3.1-0.7
			c0.8,0,0.6,0,0.9,0c0.3,0,0.6,0.1,0.9,0.3c0,0,0,0.6-0.5,0.7c-0.5,0.1-1.8,1-2.8,1.6c-0.2,0.1-0.3,0.3-0.4,0.5c0.2,0,0.4,0,0.5,0
			c0.4,0.3,0.9,0.4,1.5,0.4c0.5,0,1-0.1,1.4-0.4c0,0,0.4,0,0.5,0c0.2,0,0,0.7,0,0.7c-1.1,0.6-2.3,1.1-3.5,1.6
			c-4.6,1.5-9.2,2.6-14,3.5c-3.9,0.7-7.9,1.2-11.8,1.4l-11.2,0.5c-0.4,0.1-0.9,0.1-1.3,0c-0.6,1-0.9,2.2-0.9,3.3h1l13.1-0.6
			c6.6-0.4,13.2-1.5,19.6-3.2l10.2-2.7c3.2-0.8,6.3-1.8,9.3-3.3c3-1.6,5.9-3.1,9.2-4.4c6.6-2.7,13.4-5.2,19.8-8.2
			c0.7-0.3,1.3-0.7,2-1.1h-2c-2.9,0-5.9,0-8.6,0.4c-2.7,0.3-6.2,0-9.3,0.3c-3.1,0.3-5,0-7.4,0"/>
		<path class="st1" d="M450.8,63.7c-3,2.2-5.9,4-9,5.9c-4.8,3.2-9.4,6.7-13.6,10.7l-3.1,3.2c0,0.3,0,0.7,0.2,1
			c0.2,0.3,0.5,0.6,0.8,0.7c0.7-0.3,1.3-0.7,1.8-1.1c4.5-4.5,9.6-8.5,15-11.9l5-3.3c0.3-0.3,0.7-0.5,1.1-0.7l6.6-2.4
			c0.8-0.3,1.2,0,1.6,0.8c0.1,0.2,0.1,0.5,0,0.8l-3.3,1.2l-5,1.9c0,0-0.7,0.5-0.7,0.6c0.1,0.1,0,0.8,1.1,0.3
			c0.9-0.3,1.8-0.6,2.7-0.8c0.4-0.1,0.9-0.3,1.3-0.4c0,0,0.5,0,0.6,0l1.9-0.7l2.3-0.6l-1.8,0.8l-2.2,0.7c0,0-2,1.4-2.1,1.4
			c0,1.4,1.6,0,2.5,0l4.3-1.2c0,0,0.7,0,0.7,0.4c0.1,0.1,0.1,0.2,0.1,0.4s0,0.3-0.1,0.4c-0.3,0.3-0.7,0.5-1.1,0.6l-4.9,1.6
			c-0.5,0.3-1,0.6-1.4,1c-0.4,0.6,1.2,0,1.5,0l4.1-1.7c0.3-0.1,0.6-0.1,0.9,0c0.3,0,0.6,0.2,0.8,0.5c0.1,0,0.1,0.1,0.2,0.2
			c0,0.1,0.1,0.2,0.1,0.3c0,0.1,0,0.2-0.1,0.3c0,0.1-0.1,0.2-0.2,0.3c-1.5,1-2.8,1.7-4.3,2.8l-2.7,1.8c2.4-0.9,4.8-2.2,7-3.6
			l2.3-1.2c0,0,0,0.5,0,0.5c-0.6,0.4-1.2,0.9-1.8,1.4l-4.1,3.4c-3,2.3-6,4.4-9.2,6.3c-3.7,2.1-7.7,3.7-11.8,4.7
			c-2.2,0.6-4.6,1-6.9,1.5c0,0.9,0.4,1.8,0.7,2.7c1.9-0.4,3.7-0.8,5.6-1.4c2.8-0.8,5.5-1.6,8.2-2.6c3.5-1.6,6.9-3.6,10-5.9
			c2.1-1.5,4.1-3.1,5.9-4.6c3.4-2.4,6.5-5.1,9.5-8c1.3-1.3,2.7-2.5,4-3.7c1.4-1.2,3.1-2.9,4.8-4.2c3.4-2.6,6.9-5,10.3-7.5
			c0.7-0.5,1.3-1.1,1.9-1.7c1.6-1.9,3.6-3.5,5.9-4.6l1.1-0.6c0.2-0.2,0.4-0.4,0.5-0.7c-0.3-0.1-0.6-0.1-0.9,0l-3.1,0.5l-9.4,1.9
			c-2.3,0.5-4.6,0.9-6.9,1.4c-2.3,0.5-5.9,1.6-9.3,2.5c-5.9,1.5-11.5,4-16.5,7.5"/>
		<path class="st1" d="M211.6,131.8l11.8,1.3h1.3c2.1,0,4.3,0,6.4,0c3.3,0,6.6-0.5,9.9-1c5.9-1,11.4-2.2,17-3.3
			c2-0.4,3.9-0.7,5.9-0.8c3.8-0.4,7.6-1.4,11.1-2.9h0.6H275l-2.2-0.3c-2.8,0-5.9-0.4-8.6-0.7c-6.3-0.7-12.5-1.8-18.6-3.4h-1.2
			c-5.2-0.8-10.4-1.7-15.6-2.4c-3.2-0.6-6.4-0.9-9.6-0.9c-6.5,0-13,0.7-19.5,1.5l-1.6,3.7c2-0.3,4-0.8,5.9-1c4.7-0.4,9.3-0.8,14-0.9
			c2.6-0.1,5.1,0,7.6,0.5c2.1,0.4,4.2,1.3,6.4,1.7c0.2,0,0.3,0.2,0.5,0.3H232h-4.3c-0.6,0-1.3,0-2,0c0,0.5,1.6,0.3,2,0.3h7l0.5,0.3
			l-0.5,0.3h-1.3c-0.4,0.1-0.8,0.3-1.1,0.5c-1.6,0.2-3.3,0.3-5,0.3h-2.1c0,0-0.6,0.4,2.2,0c1.2-0.1,2.5,0,3.7,0.4H229h-3.8v0.3h1.8
			h3.5c-0.7,0.1-1.5,0.3-2.2,0.3c0,0-3,0-3.3,0c-0.4,0,0,0,0.4,0.4c0.5,0,1,0,1.5,0c0.9-0.1,1.9-0.1,2.8,0l-0.6,0.6l-3.1,0.6
			c-1.5,0.3-3,0.4-4.6,0.3l-4.1-0.5l-15.3-1.7l-7.6-0.8l-1.8,2.6c1.6,0.7,3.3,1.1,5,1.1l14.3,1.7"/>
		<path class="st1" d="M441.7,44.9h-0.4v-0.4v0.4 M416.4,71.6c0.2,0.4,0.6,0.7,1,0.9c0.4,0.2,0.8,0.3,1.3,0.3
			c3.4-5.3,7-10.5,11-15.4c1.7-2,3.1-4.4,4.6-6.5c0.8-1.1,1.4-2.4,3.1-2.7c0.5,0,1-0.7,1.5-1.1c0.5-0.4,1.8-1.4,2.6-2.2
			c0.1,0.5,0.1,0.9,0,1.4c-0.1,0.5-0.3,0.9-0.7,1.3c-0.5,0.6-1,1.1-1.4,1.7l-3.5,4.5c0,0,4.3-4.4,4.4-4.5c0.2-0.1,1.5-1.4,2.4-2.1
			c0.8-0.7,0.4,0,0.5,0c0.1,0,0,0.4,0,0.5l-2,2.9l-2.1,2.8c-0.4,0.6,0,0.8,0.4,1c0,0.1,0.1,0.2,0.1,0.2c0,0.1,0,0.2-0.1,0.3
			c-0.1,0.4-0.3,0.8-0.6,1.1c-3.1,5.6-6.7,10.7-10.9,15.4c-1.7,2.2-3.7,4.2-5.9,5.9c0,0.6,0.2,1.1,0.5,1.5c0.3,0.4,0.7,0.8,1.2,0.9
			l4.8-5.1c1.5-1.6,3-3.1,4.4-4.8c3.6-4.8,7-9.7,10-14.9l8.5-12.9c0.3-0.6,0.7-1.1,1.2-1.6c1.3-1.5,2.6-3.1,3.7-4.8
			c2.5-3.5,4.7-7.2,7.3-10.6c2.8-4.1,4.8-8.6,5.9-13.4c0,0,0-0.4,0-0.6h-0.3c-0.6,0.5-1.4,1-2,1.6l-8.6,8.2
			c-2.3,2.2-4.6,4.5-7.1,6.5c-3.1,2.6-6.1,5.4-8.8,8.5c-3.1,3.3-5.9,6.8-8.7,10.4c-2.8,3.5-4.4,5.9-6.5,9.1c-0.6,1-1.3,1.9-2.1,2.8
			c-1.4,1.4-2.7,3-3.8,4.7c-1.9,2.7-3.6,5.6-5.3,8.4"/>
		<path class="st1" d="M229,65.4c-5.1,1.6-10.1,3.6-14.9,5.9c-0.4,0.1-0.8,0.2-1.2,0.3c-3.9,1.1-7.7,2.7-11.3,4.6
			c-0.6,0.3-1.2,0.5-1.8,0.7c0,1.3,0.2,2.5,0.8,3.7c4.6-2.6,9.4-4.8,14.4-6.6c4.3-1.7,8.6-2.8,13-4.3c0.3,0,0.6,0,0.8,0
			c0,0,0.4,0,0.5,0l-0.5,0.3l-0.8,0.4l-0.4,0.3c-1.1,0.7-2.3,1.5-2.6,1.6c-0.3,0.1,0,0.3,0,0.5s0,0,0.3,0c1.3-0.5,2.5-1.2,3.7-1.9
			l0.7-0.4c0.5-0.3,0.8,0,0.9,0l-0.8,0.9c-1.6,1-3.7,2.7-4,2.8c-0.3,0.2-0.5,0.4,0,0.6c0.5,0.2,0.4,0,0.6,0L229,73l1.4-1
			c0.1,0,0.2,0,0.3-0.1c0.1,0,0.2-0.2,0.2-0.3l0.4-0.4h1.1c0.4,0,0.8,0.4,0.7,0.7c-0.1,0.3-0.3,0.7-0.4,1c-1.8,0.8-3.4,1.8-5,3
			l1.7-0.7l0.8-0.5c0.8-0.3,1.5-0.8,2.2-1.3h0.4l-0.7,0.4l-1.1,0.8l-0.7,0.6c-2.7,2.1-5.6,3.9-8.6,5.4c-3.5,1.7-7.1,3.3-10.8,4.7
			c-2.8,1-5.9,1.7-8.6,2.6v2.8h1.2c4.9-0.9,9.7-2.6,14.3-4.8c3.7-1.7,7.3-3.7,10.8-5.9c5.3-3.2,10.8-5.9,15.9-9.7
			c3-2.1,5.8-4.5,8.4-7c1.7-1.6,3.5-3.2,5.4-4.4l8.2-5.6c0,0,0-0.5,0.4-0.8c0.4-0.3-0.4,0-0.6,0c-1.3,0.3-2.7,0.7-4,1.2
			c-1.5,0.6-3,1.1-4.6,1.4c-2.9,0.5-5.9,1.3-8.7,2.2c-6.9,2.4-13.7,4.9-20.4,7.6"/>
		<path class="st1" d="M75.6,69.8c2,0.9,3.7,2.2,5.6,3.2c5.2,2.8,10.6,5.1,16.2,7c5.9,1.8,11.8,3.4,18.2,5.1c4.3,1.1,8.6,1.7,13,1.9
			c2.9,0.1,5.7,0.6,8.5,1.4c0.6-1.1,1-2.4,0.9-3.7c-4.1,0-8.2,0-12.2-0.5c-4.1,0-8.1-1-11.8-2.9c-1.2-0.8-7.5-1-8.2-3.1
			c0.3-0.2,0.7-0.3,1.1-0.4c0.4,0,6.8,0.7,2.7-2.3h-0.7l-2.1-0.7c0,0,0,0-0.5-0.4c-0.5-0.4,0.5-0.4,0.8-0.4h2.2c0,0,1.7,0,0-0.7
			l-2.1-0.5c-0.3-0.1-0.6-0.2-0.9-0.4c-0.5-0.3,0-0.9,0.3-0.9l1.9,0.4h1.1c0,0,0-0.3-0.4-0.3h-0.5c-2.2-0.8-1.1-1.8-0.4-1.7
			c0.7,0.2,1.5,0.2,2.2,0c1.5-0.4,3-0.4,4.4,0c3.4,0.7,6.8,1.8,10,3.3c5.1,2,10.1,4.2,14.9,6.8l1.5-3.1c-0.4-0.3-0.7-0.5-1.1-0.7
			l-10.5-4.8c-3.1-1.6-6.3-2.7-9.6-3.5c-1.9-0.6-3.9-1-5.9-1.3c-4.4-0.6-8.8-0.4-13.1,0.6c-0.9,0.2-1.8,0.4-2.8,0.6l-11.8,1.1
			c-3.7,0.4-7.5,0.1-11.1-0.8h-0.9h-0.3c0,0,0,0,0,0.4c0,0.4,0.8,1.1,1.4,1.3"/>
		<path class="st1" d="M405.4,68c0-2.8,0-5.6,0-8.3c0.1-6,0.8-12,2.2-17.8c0.5-3.1,1.3-6,2.3-9c0.1-0.2,0.2-0.4,0.4-0.5
			c0.2,0.2,0.3,0.4,0.4,0.7c0.1,0.3,0.1,0.6,0,0.9c0,0.9-0.4,1.8-0.6,2.8c-0.2,0.9,0,0.5,0,0.9c-0.2,0.6-0.4,1.1-0.5,1.7
			c-0.2,0.5-0.3,1.1-0.3,1.6c0,0,0.6-1.2,0.6-1.4c0-0.2,0.4-0.8,0.4-1.1c0.1-0.3,0-0.4,0-0.7c0.5-1.5,0.9-3,1.4-4.4
			c0,0,0.4,0,0.5-0.4c0.1,0.4,0.1,0.8,0,1.2c0,1.1,1.2,1.8,0.7,3.1c-0.2,0.7-0.4,1.4-0.5,2.1c-0.3,1.1-0.9,3-1.2,4.1V44
			c1-1,1.6-2.4,1.7-3.9c0.6-1.8,1.1-3.6,1.3-5.5c0.4-1.1,0.6-2.3,0.9-3.4l0.3-0.3v0.5c-0.1,0.7-0.1,1.5,0,2.2
			c-0.2,2.9-0.7,5.7-1.5,8.5c0,0.4,0,0.8,0,1.1c0.6,0,0.7-0.7,0.8-0.9c1-2.1,1.5-4.3,1.7-6.6c0-1.2,0.5-2.5,0.9-3.7
			c0.1-0.1,0.2-0.2,0.3-0.3c0.1-0.1,0.2-0.2,0.4-0.2c0.5,0,0.8,0,0.8,0.8c0.1,0.8,0,0.5,0,0.8c0.1,2.2-0.1,4.3-0.5,6.4
			c-0.4,1.7-0.5,3.4-0.4,5.1c0,0,0,0.4,0,0.7c0-0.1,0-0.3,0-0.5c0-0.2,0-0.4,0-0.7c0.4-2.7,0.8-5.5,1.2-8.2c0-0.4,0-0.8,0-1.2
			c0,0,0-0.4,0.3-0.4c0.1,0,0.2,0,0.3,0.1c0.1,0,0.2,0.1,0.2,0.2c0.1,0.3,0.1,0.6,0,0.8c0.1,1,0.1,1.9,0,2.9c-0.4,1.2-0.4,2.5,0,3.7
			c0.3,0.9,0.3,1.9,0,2.8c-0.8,4-1.6,8-2.7,11.9c-1.1,4.6-3.1,8.9-5.9,12.7l2.4,0.7c4-6.1,6.6-13,7.8-20.3c0.4-2.4,0.7-4.9,1.1-7.3
			c0.8-5.3,1.1-10.6,0.9-16c0-1,0-2.1,0-3.2c0-3.7-0.4-7.4-0.9-11.2c-0.6-3.6-0.3-7.3,0.8-10.8c0-0.3,0-1.1,0-1.2
			c0-0.1-0.9,0.3-1.2,0.7c-0.3,0.3-1.2,1.8-1.8,2.6c-0.6,0.9-0.9,1.7-1.5,2.5c-3.6,5.6-6.5,11.6-8.8,17.8c-1.9,5.2-3.5,10.6-4.7,16
			c-1.7,7-2.5,14.2-2.5,21.4c0,2.3,0,4.5,0,6.7h1.9"/>
		<path class="st1" d="M476.4,90.4c-6.6,0.1-13.2,0.8-19.7,2.1c-3.9,0.7-7.8,1.3-11.8,2.4c-1.6,0.5-3.3,0.9-5,1.2
			c-1.4,0.2-2.7,0.5-4,1.1l-7.5,3.1v3.4c3.5-2.6,7.5-4.5,11.8-5.5l5.9-1.6c3.6-0.9,7.2-1.7,10.9-2.3c0.6,0,1.2,0,1.9-0.3
			c1.1-0.3,2.3-0.3,3.4,0c1.9,0.4,3.8,0.4,5.9,0.6c0.4,0,0.8,0.3,0.6,0.8c-0.2,0.6-0.4,0.4-0.6,0.7l-5,0.3c0,0-0.4,0-0.5,0.4h0.4
			c1,0,2.1,0,3.1,0c0.7,0,2-0.3,0.8,0.4h-0.7H466c-0.9,0.4-2.1,0-2.5,1.4c0.9,0,1.8-0.3,2.7-0.5l3-1c0.4,0.3,0.6,0.7,0.4,1.1
			c-0.6,0.9-1.5,1.6-2.5,1.9l-2.7,0.9c-0.5,0-1.5,0.7-1.2,0.9c0.2,0.2,5.5-0.7,5.4-0.5c-1.4,0.8-2.9,1.4-4.5,1.9l-7.3,2.3
			c-5.1,1.2-10.2,2.1-15.4,2.4c-3.1,0.3-6.2,0.3-9.3,0c-1.3-0.2-2.5-0.6-3.6-1.2l-0.5,2.6c1.2,0.4,2.4,0.8,3.7,0.9
			c2.8,0,5.9,0,8.6,0c2.7,0,5.9-1,8.6-0.8c1.3-0.9,3,0,4.3-0.9c3.2-1.4,6.9-1.3,10-2.9c1.5,0,2.5-1,3.8-1.3c3.9-1,7.7-2.3,11.4-3.9
			c1.2-0.3,2.4-0.8,3.5-1.4c1.3-0.9,2.8-1.6,4.3-1.9c0.9-0.2,1.8-0.5,2.7-1c3.8-1.9,7.9-3.1,11.8-4.7c0,0,0.4-0.4,0.6-0.6
			c0.2-0.2,0-0.3-0.5-0.4c-0.5,0-1,0.1-1.5,0.2c-3.8,0-7.6-0.6-11.5-0.8c-3.8-0.1-7.5,0-11.2,0"/>
		<path class="st1" d="M144.2,38.4c0,0,2.4,3.1,0-2c0.4-1,0.7-1.2,1.4,0c0.7,1.3,1.1,2.3,2.7,2.4c0.3,0,0.6,0.6,0.9,0.8
			c3.2,3.5,5.4,7.8,6.3,12.4c0.6,2.6,1.1,5.2,1.6,7.8c0,0,0,0.4,0,0.7c0,0.2-0.5,0-0.7-0.4l-11-15c-0.7-1-1.4-2.1-2-3.2
			c0-0.4-0.5-0.9-0.4-1.2c0.1-0.3,0-2.1-0.5-3.1c-0.5-1,0.8-0.6,2.1,1 M132.4,18.6c2.3,3.1,3.7,6.6,4.1,10.4
			c0.5,3.1,1.4,5.9,2.1,9.1c0.9,3.4,2.3,6.7,4.3,9.6l12.1,18.2c1.6-1.5,3.5-2.5,5.6-3c-0.6-5.1-1.6-10.1-3.1-15
			c-0.4-1.2-0.8-2.4-1.4-3.5c-0.6-1.5-1.4-2.9-2.4-4.1c-1.5-1.9-2.8-3.9-4-5.9c-1.2-2.1-2.5-4.1-3.8-5.9c-1.8-2.4-3.9-4.6-5.9-6.8
			c-2.2-2.4-4.8-4.2-7.7-5.6c-0.5-0.2-1-0.3-1.5-0.4c0,0.4,0,0.9,0.5,1.3C131.7,17.5,132,18,132.4,18.6"/>
		<path class="st1" d="M159.2,36.9c0-0.1,0.1-0.2,0.1-0.3c0.1,0,0.1-0.1,0.2-0.2c0.5,0,0.5,0.4,0.5,0.6c0,0.2,0,1.2,0,1.9
			c0,0.2,0,0.4,0,0.7c0,0.4,0.4,0,0.4,0s0-1.5,0.4-2.2c0.1,0,0.2,0,0.3,0c0.1,0,0.2,0,0.3,0c0.1,0,0.2,0,0.3,0.1
			c0.1,0,0.2,0.1,0.2,0.2c0,0.4,0,0.9,0,1.3c0,0.4,0,2.1,0.7,0.4c0.1-0.8,0.3-1.5,0.7-2.2c0,0,0.7,0,0.8-0.5l0.5,0.8
			c0.1,0.5,0.3,0.9,0.5,1.4c0,0,0.9,2.1,0.9,0c0-0.7-0.5-1.3-0.7-1.9c-0.2-0.7,1.2-0.6,1.6,0c0.5,1.1,1,2.4,1.3,3.6
			c0.5,2.4,0.9,5,1.2,7.6c0.1,3.2-0.2,6.4-0.7,9.6c0,0.4,0,1-0.5,1.1c-0.5,0-0.7-0.6-0.9-0.9c-2.5-4.1-4.8-8.3-6.9-12.7
			c-1.1-2.5-1.5-5.4-1.3-8.1 M157.6,46.4c0,0,3.3,6.3,5.1,9.4c1.1,1.9,2.3,3.6,3.5,5.4l5.5-0.8c2.2-8.9,1.5-18.3-2-26.8
			c-0.6-1.6-1.2-3.3-1.8-4.8c-1.9-5-4.4-9.8-7.3-14.3c-0.6-0.9-1.1-1.8-1.8-2.7c-0.7-0.9-0.4-0.3-0.5,0c-0.2,0.1-0.4,0.4-0.5,0.7
			c0,0,0,0.4,0,0.7c0.3,4,0.1,8.1-0.4,12.2c-0.5,2.7-1.1,5.5-1.5,8.2c-0.1,1.7-0.1,3.4,0,5.2c0.1,2.6,0.7,5.3,1.7,7.8"/>
		<path class="st1" d="M308.1,79.1c0.8,0.3,1.3,1.4,2.4,1.2c4.6,2.8,9.2,5.6,13.8,8.2c1.7,1.1,3.5,2,5.4,2.8
			c4.3,1.7,8.5,3.4,12.8,4.9c3.3,1.1,6.7,1.9,10,3c3.7,0.9,7.5,1.4,11.3,1.6c3.4,0.5,6.8,0.6,10.2,0.9c0-0.7,0.4-1.5,0.6-2.2
			c-5.6-0.1-11.3-0.6-16.9-1.3c-1.5,0-2.9-0.6-4.4-1c-1.5-0.3-3.8-1.1-5.9-1.6c-1.4-0.3-2.6-0.8-3.7-1.7c-0.5-0.6-1.5-0.7-2.3-1.1
			c-0.7-0.3-1.8,0-1.7-1.1l2.4,0.6h0.9h0.5l-2.9-1.1l-1.3-0.7c-0.4-0.3-0.8-0.5-0.7-0.7c0-0.1,0.1-0.3,0.2-0.4
			c0.1-0.1,0.3-0.2,0.4-0.2h0.4h1.1l1.3,0.4l1.2,0.5c0,0,0.8,0,0.8,0l-0.4-0.4c-0.6-0.3-1.2-0.6-1.8-0.8l-1.3-0.7c0,0-0.4,0-0.5-0.3
			c-0.1-0.4-0.4-0.9,0-1.1h1h1.3l1.5,0.3l1.1,0.7h0.5v-0.4L344,87l-1.7-0.4l-1.4-0.3h-1.4c0,0,0-0.3-0.7-0.4c-0.1,0-0.2-0.2-0.3-0.3
			c-0.1-0.1-0.1-0.3-0.1-0.4c0,0,0.5-0.3,0.7-0.4c0.5-0.1,1.1-0.1,1.6,0c4,0.5,8,1.4,11.8,2.8c1.8,0.8,3.9,1,5.9,1.7
			c5.9,2,11.4,4,17,6.5l1.6-3.9c-4.2-4.5-8.7-8.7-13.5-12.6l-1.3-0.9c-1.5-1.3-3.3-2.3-3.8-4.4c0-1-1.3-1.7-1.9-2.6
			c-0.6-0.8,0-0.5,0-0.8h0.7l1.3,0.9l0.6,1.1L360,73l-0.7-0.9l-0.5-0.7l-0.8-0.7l-0.5-0.3c0.1-0.2,0.1-0.4,0-0.6l-1.9-1.7
			c0,0-0.6-0.4,0-0.7c0.1,0,0.2-0.1,0.3-0.1c0.1,0,0.2,0,0.3,0.1c0.6,0.2,1.2,0.5,1.7,0.9c1.7,1.2,3.6,2.1,5.4,3.3
			c2.9,1.6,5.5,3.6,7.7,5.9c3,3.1,5.9,6.3,8.5,9.6c1.2,0,1.4-1.3,1.7-2.2c-1.1-1.5-2.1-3.1-3.3-4.3c-1.9-2.2-3.8-4.3-5.9-6.3
			c-1.2-1.1-2.4-2-3.8-2.9l-4.1-2.6l-5.1-3.7l-19.5-13.4c-1-0.7-1.9-1.4-2.8-2.2c-2.4-2.2-4.6-4.4-6.9-6.7l-1.1-1.5
			c-0.1,0-0.1,0-0.2,0c-0.1,0-0.1,0-0.2,0c0.4,0.8,0.4,1.9,1.1,2.5c1.3,3.1,2.9,6,4.6,8.9c1.2,2.2,2.8,4.1,4.6,5.9
			c2,1.8,3.8,3.8,5.9,5.9c3,3,5.9,5.9,9,9c4,4,8.3,7.7,12.8,11.2c1.6,1.3,2.9,2.8,4.1,4.5c0,0.3,0.5,0.7,0,1
			c-0.1,0.1-0.3,0.1-0.4,0.1c-0.1,0-0.3,0-0.4-0.1c-0.5-0.1-1-0.2-1.5-0.5c-4.7-1.6-9.3-3.3-14-4.7c-3.7-1.1-7.3-2.2-11.1-2.9
			c-4.5-0.9-9.1-1.4-13.7-1.3c-3.3,0-6.7,0-9.9-0.3c-3,0-6-0.5-8.9-1.3c-0.7-0.3-1.2-0.8-1.9-1.1c-0.7-0.3-0.5,0-0.8,0
			c-0.3,0,0,0.5,0.3,0.6"/>
		<path class="st1" d="M103.6,35.3l0.9,1.7c1.8,3.7,4.2,7.2,7,10.3c2.7,2.9,5.7,5.5,9,7.7l4.9,3.7c1.7,1.3,3.4,2.6,5.2,3.7
			c3,1.9,5.9,3.7,9.2,5.3c2.2,1.2,4.3,2.5,6.3,3.9l2.2-1.9c-1.3-0.7-2.6-1.6-3.9-2.4c-5.2-3.7-10.7-7-16.1-10.3
			c-1.5-1.4-3-2.8-4.4-4.3c0,0,0-1.1,0.7-1.2c0,0.3,2.4,1.3,3.1,1.8c0.7,0.5,0.9,0,0.4-0.4c-1.1-0.5-2.1-1.2-3-2.1c0,0,0-0.4,0-0.5
			c0-0.1,0.4-0.3,0.5-0.4c0.5,0.2,1.1,0.4,1.5,0.7c0,0,0.4,0,0.4,0c0.1,0-1.2-1.3-1.2-1.6s0-0.9,0.7-0.6c0.4,0.1,0.8,0.3,1.1,0.6
			c2.5,2,5.1,3.9,7.6,5.9c2.5,2,4.4,3.7,6.7,5.6l0.8,0.5l7.1,7.1l2.7-1.5c-0.7-1.1-1.5-2.1-2.4-3c-2.7-2.4-5.4-4.9-8.2-7.3
			c-3.7-3.3-7.6-6.4-11.8-9c-1.6-0.9-3.2-1.7-4.8-2.5c-1.7-0.9-2.2-0.9-3.3-1.4c-3.7-1.6-7.4-3.3-11.1-5c-2.6-1.1-5-2.4-7.3-4
			l-0.5-0.7H103c0,0,0,0,0,0.3l0.6,1"/>
		<path class="st1" d="M255,549.4c-0.1,0.1-0.1,0.3,0,0.5v-0.4V549c-0.1,0-0.2,0-0.4,0"/>
		<path class="st1" d="M417.2,117.6c-3.9,0.7-7.9,1-11.8,1c-0.5-0.1-1.1-0.1-1.6,0c-4.4,0.9-9,0.8-13.3-0.6c-0.4,0-0.9,0.4-0.8,0.8
			c0.1,0.5,0.4,0.9,0.8,1.3c0.6,0.3,1.2,0.4,1.8,0.4c3.5,0,7,0.4,10.6,0.4c3.5,0,7.3,0,10.9-0.3h3.3c0.4-0.1,0.7-0.2,1-0.5
			c0.3-0.3,0.5-0.7,0.7-1c0-0.3,0-1.1,0-1.4c0-0.2-0.9,0-1.4,0"/>
		<path class="st1" d="M192.4,112.4c-0.5-0.1-1-0.1-1.5,0c-1.1,0.8-2.2,1.7-3.2,2.7c-1.3,1.3-2.9,2.2-4.7,2.7
			c-5.3,1.5-10.7,2.1-16.2,1.6h-5.9c-0.4,0-0.8,0.1-1.2,0.3c-0.1,0-0.2,0.1-0.2,0.2c-0.1,0.1-0.1,0.2-0.1,0.3c0,0.1-0.1,0.2-0.1,0.3
			s0,0.2,0.1,0.3c0.5,0.4,1.1,0.6,1.7,0.8c4.6,1,9.3,1.2,14,0.6l4.4-0.8c2.8-0.6,5.6-1.3,8.3-2.4c2.1-0.8,3.9-2.3,5.1-4.1
			c0.2-0.2,0.3-0.5,0.3-0.7c0-0.3,0-0.6-0.1-0.8c-0.1-0.3-0.2-0.5-0.4-0.7c-0.2-0.2-0.4-0.3-0.7-0.4"/>
		<path class="st2" d="M710.5,255.3h-1.9c-0.2,0-0.3-0.1-0.5-0.2c-0.1-0.1-0.3-0.2-0.4-0.4c-0.1-0.1-0.2-0.3-0.2-0.5
			c0-0.2,0-0.4,0-0.5c0.1-0.7,0.4-1.2,0.8-1.7c0.4-0.4,1-0.8,1.6-0.8c0.3-0.1,0.6-0.1,0.8,0c0.4,0.3,0.7,0.7,0.9,1.2
			c0.7,1.5,0,2.5-1.4,2.8 M699.3,255.3c-0.5,0.2-1,0.2-1.5,0c-0.5-0.1-0.9-0.5-1.2-0.9c-0.2-0.3-0.2-0.7-0.2-1.1
			c0.1-0.4,0.2-0.7,0.5-0.9c0.4-0.3,0.8-0.7,1.3-0.9c0.2-0.1,0.4-0.1,0.5-0.1c0.2,0,0.4,0,0.5,0.1c0.2,0.1,0.3,0.2,0.4,0.3
			c0.1,0.1,0.2,0.3,0.3,0.5c0,0.5,0,1,0.4,1.7C700.7,254.7,699.8,255.1,699.3,255.3z M689.3,240.4c0,0.4-0.5,0.6-0.9,1
			c-0.7-0.3-1.3-0.8-1.8-1.3c-0.1-0.2-0.2-0.4-0.3-0.7c-0.1-0.2-0.1-0.5,0-0.7c0-0.2,0.1-0.5,0.2-0.7c0.1-0.2,0.3-0.4,0.5-0.5
			c0.5-0.4,1.4,0,1.8,0.7c0.2,0.3,0.4,0.6,0.5,1C689.4,239.7,689.4,240.1,689.3,240.4z M677.5,224.6h-0.6c-0.5,0-1-0.1-1.4-0.3
			c-0.4-0.2-0.8-0.5-1.1-0.9c-0.3-0.4-0.5-0.8-0.5-1.4c-0.1-0.5,0-0.9,0.2-1.4c1-2,2.4-2.1,3.7-0.7c0.3,0.3,0.5,0.7,0.7,1
			c0.1,0.4,0.2,0.8,0.2,1.2c0,0.4-0.2,0.8-0.4,1.2c-0.2,0.4-0.5,0.7-0.8,0.9 M665.9,212.8c-0.3,0-0.6,0-0.8,0
			c-0.6,0-1.2-0.3-1.7-0.6c-0.5-0.3-0.9-0.8-1.2-1.3c0,0,0-0.4,0-0.6c0.2-0.7,0.6-1.4,1.1-1.8c0.6-0.5,1.3-0.7,2-0.7
			c0.2,0,0.4,0,0.6,0c0.7,0.4,1.6,0.7,1.7,1.7c0,0.6-0.1,1.1-0.4,1.6c-0.3,0.5-0.7,0.9-1.2,1.2 M657,201.2c-0.3,0.3-0.7,0.6-1.2,0.7
			c-0.4,0.1-0.9,0.1-1.4,0c-0.5-0.1-0.9-0.3-1.2-0.6c-0.4-0.3-0.6-0.7-0.8-1.1c-0.5-1.6,0.6-2.8,2.4-2.8c0.6,0,1.1,0.3,1.6,0.6
			c0.5,0.4,0.8,0.9,1,1.4c0.1,0.3,0.1,0.6,0,0.9C657.3,200.6,657.2,200.9,657,201.2z M653.6,418.6c0.1,0.3,0.1,0.6-0.1,0.9
			c-0.1,0.3-0.3,0.6-0.5,0.8c-0.3,0.2-0.8,0.4-1.2,0.4c-0.4,0-0.8-0.1-1.2-0.4c-0.3-0.2-0.5-0.5-0.7-0.9c-0.2-0.3-0.2-0.7-0.2-1.1
			c0.1-0.4,0.3-0.8,0.6-1.1c0.3-0.3,0.7-0.4,1.2-0.4c0.5,0,1,0.1,1.4,0.4c0.4,0.3,0.7,0.7,0.8,1.2 M651.8,446.6
			c-1.1,0-2.1-0.8-2-1.6c0-0.6,0.3-1.1,0.7-1.5c0.4-0.4,1-0.6,1.6-0.6c0.4,0.1,0.8,0.3,1.1,0.7c0.3,0.3,0.4,0.8,0.4,1.2
			c0,0.5-0.2,0.9-0.5,1.3C652.7,446.3,652.2,446.6,651.8,446.6z M648.3,273.9c-0.5-0.1-0.9-0.4-1.1-0.8c-0.3-0.4-0.4-0.9-0.3-1.4
			c0-0.5,0.2-0.9,0.5-1.3c0.3-0.3,0.8-0.5,1.2-0.6c0.5,0,1,0.3,1.4,0.6c0.4,0.4,0.7,0.9,0.8,1.4c-0.1,0.5-0.5,1-0.9,1.4
			C649.4,273.7,648.8,273.9,648.3,273.9z M646.7,408.5c-0.3,0.3-0.7,0.6-1.1,0.7c-0.5,0.1-0.9,0.1-1.4-0.1c0,0-0.7,0-0.8-0.5
			c-0.3-0.4-0.4-0.9-0.5-1.4c0-0.3,0.5-0.6,0.9-0.8h0.9c0.5,0,1,0,1.4,0.3c0.4,0.3,0.7,0.7,0.8,1.2c0.1,0.1,0.1,0.3,0.1,0.4
			c0,0.1,0,0.3-0.1,0.4 M645,435.4c-0.6,0-1.1-0.3-1.5-0.7c-0.4-0.4-0.6-0.9-0.7-1.6c0-0.3,0-0.6,0.2-0.9c0.1-0.3,0.3-0.6,0.6-0.8
			c0.2-0.2,0.5-0.4,0.8-0.5c0.3-0.1,0.6-0.1,0.9,0c0.2,0,0.5,0,0.7,0.1c0.2,0.1,0.4,0.3,0.6,0.4c0.2,0.2,0.3,0.4,0.3,0.6
			c0.1,0.2,0.1,0.5,0.1,0.7c0,0.6-0.2,1.2-0.5,1.7C646,434.9,645.5,435.3,645,435.4z M641.1,381.6c0-0.1-0.1-0.2-0.1-0.3
			c0-0.1,0-0.2,0.1-0.3c0.2-0.5,0.6-0.8,1-1.1c0.4-0.3,0.9-0.5,1.4-0.5c0.4,0.2,0.8,0.4,1.2,0.7c0.2,0.2,0.4,0.5,0.5,0.8
			c0,0.5-0.1,1-0.5,1.5c-0.3,0.4-0.8,0.8-1.3,0.9c-0.5,0.1-1,0-1.5-0.3C641.6,382.6,641.2,382.1,641.1,381.6z M640.3,352.7
			c0.2-0.7,0.6-1.2,1.2-1.6c0.6-0.4,1.2-0.5,1.9-0.5c0.4,0.1,0.7,0.4,1,0.7c0.3,0.6,0.5,1.2,0.8,1.8c-0.3,0.8-0.5,1.6-0.8,2.4
			c-0.2,0.3-0.4,0.6-0.8,0.8c-0.3,0.2-0.7,0.2-1.1,0.1c-0.8-0.2-1.4-0.8-1.8-1.4C640.3,354.3,640.1,353.5,640.3,352.7z M639.6,329.8
			c0.6-0.6,1.2-1,1.8-1.5c0.5,0.1,0.9,0.3,1.2,0.6c0.4,0.3,0.7,0.7,0.8,1.1c0.4,0.9,0,2.1-1.4,2.9c-1.4,0.9-1.4,0.4-2.2-0.5
			c-0.3-0.3-0.5-0.8-0.6-1.3C639.3,330.7,639.4,330.2,639.6,329.8z M637,398.7l-1.4-0.5c-0.3-0.2-0.6-0.4-0.8-0.8
			c-0.2-0.3-0.3-0.7-0.3-1c0-0.7,0.5-1.1,1.1-1.5l0.8-0.4c0.3-0.1,0.6-0.2,1-0.1c0.3,0,0.7,0.1,0.9,0.3c0.3,0.2,0.5,0.4,0.7,0.7
			c0.2,0.3,0.3,0.6,0.3,0.9C639.3,397.8,638.7,398.7,637,398.7z M635.7,285.1c0.4-0.3,0.9-0.5,1.4-0.5c0.3,0,0.7,0,0.9,0.2
			c0.3,0.2,0.5,0.5,0.6,0.8c0,0.4,0,0.8,0,1.3c0,0.3,0,0.6,0,0.9c-0.2,0.3-0.5,0.6-0.9,0.8c-0.4,0-0.8,0-1.1-0.2
			c-0.3-0.1-0.6-0.4-0.8-0.8c-0.2-0.4-0.4-0.8-0.4-1.2C635.4,285.9,635.6,285.4,635.7,285.1 M639.4,305.1c0.5,0,0.8,1,0.5,1.9
			c-0.2,0.6-0.5,1.2-0.8,1.8c-0.1,0.2-0.3,0.4-0.6,0.5c-0.2,0.1-0.5,0.1-0.7,0c-0.3,0-0.6-0.2-0.8-0.5c-0.2-0.2-0.3-0.6-0.2-0.9
			v-0.7c0.2-0.5,0.4-0.9,0.6-1.4c0.2-0.3,0.5-0.6,0.8-0.7C638.7,305,639,305,639.4,305.1z M642.3,201.9c0.7,0.1,1.3,0.4,1.8,0.9
			c0.5,0.5,0.8,1.1,1,1.7c0,0.4,0,0.8-0.1,1.2c-0.1,0.4-0.3,0.7-0.6,1c-0.3,0.3-0.6,0.5-0.9,0.7c-0.4,0.2-0.7,0.3-1.1,0.3
			c-0.4,0-0.7,0-1.1,0c-0.4-0.1-0.7-0.3-1-0.5c-0.3-0.2-0.5-0.6-0.6-0.9c-0.1-0.3-0.2-0.7-0.2-1.1
			C639.5,203.8,641.2,201.7,642.3,201.9z M646.4,247c0,0.8-0.2,1.6-0.7,2.3c-0.5,0.7-1.2,1.1-1.9,1.4c-0.3,0.1-0.6,0.1-0.9,0
			c-0.3-0.1-0.6-0.3-0.8-0.5c-0.4-0.3-0.6-0.8-0.8-1.2c-0.2-0.4-0.3-0.9-0.3-1.4c0.1-1.1,0.3-2.1,0.8-3.2c0.1-0.2,0.2-0.4,0.4-0.5
			c0.2-0.1,0.3-0.2,0.5-0.3c0.2,0,0.4-0.1,0.6-0.1c0.2,0,0.4,0.1,0.6,0.2C645.1,244.4,646.4,245.2,646.4,247z M646.4,226.3
			c0.6-0.5,1.3-1,2-1.5c0.2,0,0.3,0,0.5,0c0.1,0.1,0.3,0.2,0.4,0.3c0.4,0.5,0.7,1.1,0.7,1.7c0,0.7-0.2,1.3-0.7,1.7
			c-0.2,0.2-0.4,0.3-0.7,0.4c-0.6,0-1.2-0.2-1.6-0.7c-0.5-0.4-0.8-0.9-0.8-1.5c0-0.1-0.1-0.2-0.1-0.3c0-0.1,0-0.2,0.1-0.3
			 M628.6,269.7c-0.8-0.2-1.6-0.6-2.1-1.3c-0.5-0.6-0.9-1.5-0.9-2.3c0.1-0.7,0.4-1.3,0.9-1.7c0.5-0.4,1.2-0.7,1.9-0.7
			c0.3,0,0.7,0,1,0.1c0.3,0.1,0.6,0.3,0.9,0.5c0.3,0.2,0.5,0.5,0.6,0.8c0.2,0.3,0.2,0.7,0.3,1C631.2,267.9,629.9,269.6,628.6,269.7z
			 M628.6,341.5c-0.2,0.6-0.5,1.2-0.8,1.8c-0.9,1.6-2.1,1.6-3,0c-0.3-0.4-0.4-0.8-0.5-1.3c0-0.4,0.1-0.9,0.3-1.3
			c0.2-0.4,0.5-0.8,0.9-1c0.4-0.2,0.8-0.3,1.3-0.3h0.6C628.4,339.5,628.8,339.9,628.6,341.5 M626.4,366.9c-0.3,0-0.6,0-0.9,0
			c-0.3-0.1-0.5-0.2-0.8-0.4c-0.2-0.2-0.4-0.4-0.5-0.7c-0.1-0.2-0.2-0.5-0.2-0.9c-0.1-0.2-0.1-0.5,0-0.7c0.1-0.2,0.2-0.4,0.3-0.6
			c0.1-0.2,0.3-0.3,0.6-0.5c0.2-0.1,0.4-0.1,0.7-0.1c0.3,0,0.6,0,0.9,0.1c0.3,0.1,0.6,0.2,0.8,0.5c0.2,0.2,0.4,0.4,0.6,0.7
			c0.1,0.3,0.2,0.6,0.2,0.9C628.1,365.9,627.3,366.7,626.4,366.9z M626.7,383.8c-0.2,0.2-0.5,0.3-0.8,0.3c-0.5-0.1-0.9-0.4-1.2-0.7
			c-0.3-0.3-0.5-0.8-0.6-1.3c0-0.4,0-0.9,0.2-1.2c0.2-0.4,0.5-0.7,0.8-0.9c0.2-0.2,0.4-0.3,0.7-0.3c0.3,0,0.5,0.1,0.7,0.3
			c0.4,0.6,0.8,1.3,1.1,1.9c-0.2,0.6-0.5,1.2-0.9,1.7 M623.8,396.5c-0.3,0.7-0.7,1.4-1.5,1.4c-0.8,0.1-1.8-1.2-1.7-2.1
			c0-0.3,0.1-0.6,0.2-0.9c0.2-0.3,0.4-0.5,0.7-0.7c0.7-0.3,1.3-0.8,2,0c0.3,0.3,0.6,0.6,0.8,0.9c-0.1,0.6-0.3,1.1-0.5,1.6
			 M621.2,417c-0.4,0-0.7-0.2-1-0.5c-0.3-0.3-0.4-0.6-0.5-1c0-0.2,0-0.5,0.1-0.8c0.1-0.3,0.2-0.5,0.4-0.7c0.2-0.2,0.4-0.3,0.7-0.4
			c0.2-0.1,0.5-0.1,0.8-0.1c0.6,0,1.2,0.8,1.2,1.6c0,0.5-0.2,0.9-0.5,1.3C622.2,416.7,621.7,416.9,621.2,417z M617.4,295.6
			c0-1.4,1.1-2.3,2.8-2.3c0.6,0.1,1.1,0.4,1.5,0.8c0.4,0.4,0.6,1,0.6,1.6c0,0.3,0,0.7-0.1,1c-0.1,0.3-0.3,0.6-0.5,0.9
			c-0.2,0.2-0.5,0.5-0.8,0.6c-0.3,0.1-0.6,0.2-1,0.2c-0.7,0-1.3-0.4-1.8-0.8C617.7,297,617.4,296.3,617.4,295.6z M615.3,203.1
			c-0.2-0.8-0.1-1.5,0.2-2.2c0.3-0.7,0.9-1.2,1.6-1.5c0,0,0.4,0,0.6,0c0.5,0.1,1,0.4,1.3,0.8c0.3,0.4,0.5,0.9,0.4,1.5
			c-0.1,0.6-0.2,1.2-0.5,1.8c-0.4,0.8-0.8,1.7-1.8,1.6C616.1,205,615.6,204.1,615.3,203.1 M615.3,265.2h-0.5c-3.1,0-3.8-1.9-3-4.1
			c0.2-0.6,0.6-1,1.1-1.3c0.5-0.3,1.1-0.4,1.7-0.3c0.6,0,1.1,0.3,1.6,0.7c0.5,0.4,0.8,0.8,1,1.4c0.1,0.3,0.2,0.7,0.2,1.1
			c0,0.4-0.1,0.8-0.3,1.1c-0.2,0.3-0.4,0.6-0.7,0.8C616,264.9,615.6,265.1,615.3,265.2 M617.2,447.9c0,0.2-0.1,0.5-0.2,0.7
			c-0.1,0.2-0.3,0.4-0.5,0.5c-0.2,0.1-0.4,0.2-0.7,0.2c-0.2,0-0.5,0-0.7-0.1c-0.3-0.1-0.7-0.3-1-0.6c-0.3-0.2-0.5-0.5-0.7-0.8
			c-0.2-0.3-0.3-0.7-0.3-1.1c0-0.4,0-0.7,0.1-1.1c0.2-0.4,0.5-0.9,0.9-1.1c0.4-0.2,0.9-0.3,1.4-0.3c0.4,0,0.7,0.2,1,0.5
			c0.3,0.3,0.4,0.6,0.5,0.9c0.1,0.4,0.1,0.8,0,1.2c0,0.3,0,0.7,0,1 M612.7,438.2c-0.4,0.4-1,0.6-1.5,0.6c-0.6,0-1.1-0.2-1.5-0.6
			c-0.3-0.3-0.4-0.8-0.4-1.2c0-0.4,0.2-0.8,0.4-1.1c0.1-0.2,0.2-0.3,0.3-0.5c0.1-0.1,0.3-0.2,0.5-0.2c0.2,0,0.4,0,0.5,0
			c0.2,0,0.3,0.1,0.5,0.2c0.5,0.3,1,0.7,1.4,1.1c0,0,0,0.6,0,0.8c0,0.2,0,0.4,0,0.7 M611.5,465c-0.4,0.1-0.9,0.2-1.4,0.1
			c-0.5-0.1-0.9-0.3-1.2-0.7c-0.2-0.4-0.3-0.8-0.3-1.4c0-0.5,0.1-0.9,0.3-1.4c0.3-0.3,0.7-0.6,1.1-0.8c0.4-0.1,0.9-0.2,1.3-0.2
			c0,0,0.7,0,0.9,0.5c0.2,0.3,0.4,0.7,0.5,1c0.1,0.4,0.1,0.8,0,1.1c-0.1,0.4-0.2,0.7-0.5,1c-0.2,0.3-0.5,0.5-0.8,0.7 M613,427.7
			c0.2,0,0.4,0,0.5,0.1c0.2,0.1,0.3,0.2,0.4,0.3c0.1,0.1,0.2,0.3,0.3,0.5c0.1,0.1,0.1,0.3,0.1,0.5c0,0.3,0,0.7,0,0.9
			c-0.3,1.4-1.2,2.2-2.1,2c-0.5-0.3-0.8-0.8-0.9-1.4c-0.1-0.6-0.1-1.1,0.1-1.6c0-1.2,1-1.9,2.5-1.9 M610.5,223.1
			c0.2-0.6,0.6-1.1,1.1-1.6c0.4-0.4,1.1-0.8,1.7-0.4c0.5,0.5,0.9,1.1,1.2,1.7c-0.3,0.8-0.6,1.4-1,2.1c-0.3,0.4-0.7,0.6-1.2,0.7
			c-0.5,0.1-1,0-1.4-0.2c-0.3-0.3-0.5-0.7-0.6-1.1C610.2,223.9,610.3,223.4,610.5,223.1z M613.1,188.4c0,0,0.4,0,0.6,0
			c0.2,0,0.6,0,0.8,0.4c0.3,0.4,0.6,0.9,0.8,1.4c0.1,0.2,0.2,0.5,0.2,0.8c0,0.2,0,0.5-0.2,0.8c-0.1,0.2-0.3,0.4-0.5,0.6
			c-0.2,0.1-0.4,0.3-0.7,0.3c-0.1,0-0.2,0.1-0.3,0.1c-0.1,0-0.2,0-0.3-0.1c-0.4-0.1-0.7-0.4-1-0.8c-0.2-0.4-0.4-0.8-0.4-1.2
			c0-0.4,0-0.8,0.2-1.1c0.2-0.4,0.4-0.7,0.7-0.9 M623.6,321.4c0,0.6-0.5,1.1-0.7,1.6c-0.2,0.5-0.7,1.4-1.5,1.3
			c-0.8-0.1-1.3-1.4-0.9-2.4c0.2-0.6,0.6-1.1,1.1-1.6c0.2-0.1,0.4-0.2,0.7-0.2c0.3,0,0.5,0.1,0.7,0.2c0.3,0.3,0.5,0.6,0.8,0.9
			 M623.1,239.8h1.3c0.4,0.1,0.8,0.2,1.1,0.4c1.2,0.5,2,1.6,1.7,2.4c-0.2,0.7-0.6,1.2-1.2,1.5c-0.6,0.3-1.2,0.5-1.8,0.3
			c-0.5,0-0.9-0.2-1.3-0.5c-0.4-0.3-0.7-0.7-0.9-1.1c-0.2-0.2-0.3-0.5-0.3-0.8c0-0.3,0-0.6,0.1-0.9c0.1-0.3,0.3-0.5,0.5-0.7
			s0.5-0.3,0.8-0.4 M625,222c0.4,0.1,0.8,0.3,1,0.7c0.3,0.3,0.4,0.7,0.4,1.1c0,1.1-0.8,2.2-1.5,2.2c-0.5,0-1-0.3-1.4-0.7
			c-0.4-0.3-0.6-0.8-0.7-1.3c0.1-0.5,0.4-1,0.7-1.3C624,222.3,624.4,222.1,625,222z M602,202h-1.4c-1,0-2,0-2.3-0.9
			c-0.4-1,0-1.7,1.4-2.3c1.4-0.6,2.4-0.7,3.1,0.3c0.2,0.2,0.3,0.5,0.3,0.8c0.1,0.2,0,0.5,0,0.8c-0.1,0.3-0.2,0.5-0.4,0.7
			c-0.2,0.2-0.4,0.4-0.6,0.5 M591.4,209.1c-0.2,0.5-0.4,0.9-0.8,1.4c-0.2,0.2-0.4,0.4-0.7,0.5c-0.3,0.1-0.6,0.1-0.8,0.1
			c-0.3,0-0.6-0.2-0.8-0.4c-0.2-0.2-0.4-0.4-0.5-0.7c-0.2-0.4-0.3-0.9-0.3-1.4c0-0.5,0.1-0.9,0.3-1.4c0-0.6,0.9-0.8,1.1-1.1
			c0.4-0.1,0.8,0,1.2,0.1c0.4,0.1,0.7,0.4,1,0.7c0.3,0.3,0.4,0.7,0.5,1c0.1,0.4,0,0.8-0.1,1.2 M578.7,215c-0.7,0-1.2-0.8-1.1-1.6
			c0-0.2,0-0.5,0.1-0.7c0.1-0.2,0.2-0.4,0.4-0.5c0.2-0.1,0.4-0.2,0.6-0.3c0.2,0,0.4-0.1,0.6,0c0.3,0,0.6,0.1,0.8,0.4
			c0.2,0.2,0.3,0.6,0.3,0.9c0,0.5-0.2,0.9-0.5,1.3C579.6,214.7,579.2,215,578.7,215z M577.7,224.8c-0.2-0.1-0.4-0.2-0.5-0.4
			c-0.9-0.6-1.2-1.2-1-1.8c0.3-0.4,0.6-0.7,1.1-0.9c0.4-0.2,0.9-0.2,1.4-0.1c0.3,0.1,0.6,0.3,0.9,0.7c0.2,0.3,0.4,0.6,0.4,1
			c0,0.3,0,0.5-0.2,0.8c-0.1,0.3-0.3,0.5-0.5,0.6c-0.2,0.1-0.5,0.2-0.7,0.3C578.2,225,577.9,224.9,577.7,224.8z M767.6,249
			c-1.9-0.9-3.9-1.4-5.9-1.7c-0.1,0-0.2-0.1-0.2-0.1c-0.1,0-0.1-0.1-0.1-0.2c0,0-0.1-0.1-0.1-0.2c0-0.1,0-0.2,0.1-0.3l1.6-1
			c0.1-0.3,0.1-0.6,0-0.8c-0.2-0.2-0.4-0.4-0.7-0.5c-0.3,0-0.7,0-0.9,0c-0.2,0-0.4,0-0.5,0c0.2-0.1,0.3-0.3,0.5-0.4
			c0,0,0.7-0.7,0.6-0.9c-0.1-0.3-0.6-0.5-1-0.5h-0.9c-0.5,0-0.4-0.4,0-0.7c0.4-0.3,0-0.3,0.4-0.5c0.4-0.2,0.7-1.1-0.6-1.6
			c-1.3-0.5,0-1.4-1.1-1.4c0,0,0-0.3,0-0.4c0.6-0.2,1.1-0.6,1.7-0.9c0,0,0-0.8,0-1.1c0-0.1-0.1-0.2-0.1-0.3c-0.1,0-0.2-0.1-0.2-0.2
			c-0.1,0-0.2,0-0.3,0c-0.1,0-0.2,0-0.3,0c-0.2,0.2-0.5,0.3-0.8,0.4c-0.4,0-0.7,0-1.1,0c0.1-0.4,0.2-0.8,0.5-1.1
			c0.4-0.4,0.8-0.7,1.2-1.1c0.4-0.4,1.5-1.4,2.2-2.2c0.3-0.3,0.5-0.7,0.6-1.1l-1.5-2.7l-1,0.7c-1.8,1.6-3.6,3.4-5.4,5
			c-0.8,0.7-1.7,1.2-2.7,1.6c-4,1.4-8,2.4-12.2,3c-3.3,0.7-6.6,1.1-9.9,1.3c-3.6,0.3-7,1.2-10.5,1.8c-3.5,0.6-6.8,1.1-10.2,1.6
			c-0.6,0-1.2,0-1.8,0h-3.5c-0.5,0.1-0.9,0-1.4-0.1c-0.4-0.1-0.8-0.4-1.1-0.8l-1.4-1.7c-1-1.4-2-2.7-3.1-4
			c-2.8-3.3-5.4-6.7-7.6-10.4c-3.4-5.1-6.7-10.4-10.1-15.6c-0.2-0.3-0.4-0.5-0.6-0.8c-2.9-4-5.9-7.9-9.2-11.6
			c-3.8-4.3-8.8-7.3-14.4-8.6c-1.4,0-2.7,0-4.1-0.3c-1.4-0.4-1.1,0-1.4-0.5c-0.7-0.7-1.6-1.1-2.5-1.1c-1.3-0.4-2.7-0.6-4-0.9
			c-2.2-0.6-4.5-0.9-6.8-0.7c-2.6,0-5.2-0.2-7.7-0.9c-1,0-2.1,0-3.1-0.4c-1.7-0.3-3.5-0.4-5.3-0.4c-2.6,0.2-5.2,0.7-7.7,1.5
			c-2.2,0.9-4.5,1.8-6.8,2.5c-2.2,0.7-4.3,1.7-6.2,3c-2.5,1.6-5,3.3-7.3,5.2c-2.4,1.8-5.1,4.1-7.6,5.9l-10.3,8.1l-7.2,5.3
			c-0.1,0.1-0.3,0.2-0.5,0.3c-0.2,0.1-0.4,0.1-0.5,0.1c-0.2,0-0.4,0-0.5-0.1c-0.2,0-0.3-0.1-0.5-0.3c-1.6-1.3-3.3-2.4-5.1-3.2
			c-1.7-1-3.5-2-5.1-3.1c-1.7-1.2-3.4-2.5-4.9-4c-2.8-2.8-5.6-5.9-8.3-8.5c-2.8-2.5-4.1-4.4-6.3-6.4c-4.6-4.2-8.9-8.6-13.1-13.2
			c-1.4-1.3-2.6-2.8-3.6-4.4c-2.4-3.5-5-6.9-7.8-10.2l-0.5-0.5h-0.6c0,0.4,0,0.7,0,1.1c0.3,0.7,0.5,1.5,0.7,2.2
			c0,0.3-0.1,0.7-0.2,0.9c-0.2,0.3-0.4,0.5-0.7,0.6c-0.4,0-2-0.3-0.8,1.2c7.2,10,0,2-1.7,3.3c-0.2,0.2-0.3,0.4-0.3,0.7
			c0,0.3,0.1,0.5,0.3,0.7c0.7,0.9,1.4,1.6,2.1,2.5c0.3,0.4,0.6,0.8,0.9,1.3c0.1,0.2,0.1,0.5,0,0.7h-0.4l-1.8-1.8
			c-0.3-0.3-0.6-0.6-0.9-0.8c-0.1,0-0.2-0.1-0.3-0.1c-0.1,0-0.2,0-0.3,0.1c0,0-0.3,0.4,0,0.5c0.3,0.1,0.8,1.6,1.2,2.3v0.7l-0.7-0.4
			c-0.3-0.2-0.7-0.3-1.1-0.4c0,0-0.5,0-0.5,0c-0.1,0.2-0.1,0.5,0,0.8c0.5,0.8,1.9,1.1,1.1,2.3c-0.8,1.2-1.5,0-2.2,0
			c-0.4-0.2-0.9-0.2-1.4-0.1c-0.5,0.1-0.9,0.3-1.2,0.7c0,0.6,0,1.2,0,1.8c1.4-0.2,2.8-0.1,4.1,0.4c1.3,0.5,2.4,1.4,3.2,2.5l1.2,1
			l8.2,8.1l3.9,3.7c3,3.2,6.2,6.1,9.6,8.9c0.9,0.7,1.9,1.4,2.8,2.2c3.5,2.7,6.9,5.7,10.1,8.8c0.4,0.4,0.8,0.7,1.2,1
			c2.7,2.2,5.6,4.2,8.2,6.5c4.4,4,9,7.5,13.7,11c1.1,0.9,2.4,1.4,3.8,1.5c1.4,0,2.8-0.3,3.9-1.1c2.2-1.2,4.3-2.7,6.4-4.1l3.2-2
			c0.7-0.4,1.5-0.8,2.2-1.2c3-2.2,5.6-4.9,8.6-7c2.7-2,5.6-3.8,8.6-5.4c0.5,0,0.9,0,0.9,0.5c0,2,0,4.1,0,5.9c0,1.8,0,3.7,0,5.6
			c0,1.8,0,4.1,0,5.9c0,5.9,0,12.2,0,18.3c0,6.1,0.6,12.8,0.7,19.2c0,4.3,0.2,8.7,0.7,13c0,2.1,0.5,4.3,0.9,6.4c1,5,1.6,10,2.1,15.1
			c0.3,4.3,1,8.6,1.9,12.9c0.6,2.2,1,4.4,1.4,6.6c0.7,4.2,1.2,8.4,2.1,12.5c0.4,1.8,0.5,3.6,0.5,5.5c0,5.4,0,10.8-0.5,16.2
			c-0.2,2.9-0.2,5.8,0,8.8c-0.4,2.9-0.4,5.8,0,8.8c0,0.3,0,0.6,0,0.9c0,2.6-0.3,5.2-0.5,7.8c-0.2,2.6,0,3.4-0.4,5.1
			c-0.7,4.8-1.5,9.5-2.2,14.1c-0.8,4.7-0.9,8-1.8,11.9c-0.9,3.9-1.6,8.1-2.4,11.9c-1.4,6.4-2.5,12.8-3.3,19.2c0,1.2-0.4,2.3-0.5,3.5
			c-0.3,2.8-0.5,5.7-0.8,8.4c-0.1,1.8-0.4,3.7-0.7,5.5c-1.5,7.1-3.5,14-5.9,20.8c-1.6,4.4-2.7,8.9-3.4,13.5
			c-0.8,4.6-1.1,9.2-1.6,13.9c0,1.8,0,3.7-0.4,5.5c0,3.1-0.7,6.2-0.7,9.4c0,6.5,0,13-0.8,19.5l-0.4,3.6c0,1,0,1.5,1,1.5h7.6
			c2.8-0.1,5.6-0.1,8.5,0c1.6-0.2,3.3-0.2,4.9,0c0.5,0,1.1-0.1,1.5-0.4c0.2,0,0.4,0,0.5,0c0.3-1.2,0.6-2.5,0.8-3.8c0-0.7,0-1.3,0-2
			c0.6-4.4,1.5-8.7,2.6-13c0-0.5,0-0.9,0-1.3c0-2.9,0.5-5.9,0.6-8.7c0.1-2.8,0-4.8,0-7.2c0-2.8,0.2-5.6,0.5-8.4
			c0.4-2.6,0.5-5.4,0.7-8.1c0-5.9,0.4-11.9,0.6-17.8c0-0.4,0-0.8,0-1.3c0.4-4,0.9-8,1.2-11.9c0.2-3.9,0.7-9.6,1.2-14.3
			c0.5-4.7,0.8-7.9,1.4-11.9c0.7-4.9,1.7-9.7,3-14.5c1.9-5.8,4.3-11.3,7.2-16.6c0,0,0-0.3,0.4-0.5c0.4-0.2,0.7-0.5,0.9,0
			c0.7,2.1,1.3,4.3,1.8,6.5c0.8,5.1,1.4,10.1,2.1,15.2c0.4,2.5,0.8,4.9,1.2,7.3c0.4,2.4,0.5,3.2,0.8,4.8c0.2,1.6,0.3,3.7,0.7,5.5
			c0.8,3.2,1.1,6.6,1.1,9.9c0,2.8,0,5.7,0,8.5c0,8,0,16.1,0,24.1c0,0.9,0,1.8,0,2.6c0,4.2,0.8,8.4,0.9,12.6c0.2,4.2,0,7.7,0.4,11.4
			c0.4,3.6,0.5,7.2,0.5,10.7v11.1c-0.1,0.9-0.1,1.9,0,2.9c0.3,1.6,0.4,3.3,0.3,4.9c0,0.9,0,1.7,0,2.6c0,0.9,0,1.4,1.2,1.5
			c2,0.4,4.1,0.5,6.2,0.3c2.3,0.2,4.6,0.2,6.9,0c2.7,0.3,5.4,0.3,8.1,0c3.3,0,2.9,0,2.9-3.3c0.1-0.5,0.1-1.1,0-1.6
			c-0.6-2.7-0.9-5.6-0.9-8.4c0-2.6,0-5.2,0-7.8v-2.6c0-1.5-0.4-2.8-0.4-4.2c-0.1-1.4,0-2.8,0-4.2c0.1-4-0.1-8-0.7-11.9
			c-0.2-1-0.4-2.1-0.5-3.2c0-3.2-0.6-6.5-0.6-9.8c0-5.3-1.4-10.5-1.8-15.8c0-3.9-1.1-7.7-1.4-11.9c-0.3-4.1-0.5-9.3-0.7-13.9
			c0-2.2-0.2-4.3-0.7-6.5c-0.5-1.9-0.7-3.9-0.7-5.9c0-1.3,0-2.6-0.5-3.9c-0.3-1.8-0.6-3.7-0.6-5.5c-0.2-3.5-0.6-7.1-1.2-10.6
			c-0.4-2.5-0.6-5.2-0.9-7.7c-0.2-2.5,0-5.9-0.7-8.7c-0.8-5.2-0.5-10.4-1.1-15.6c-0.4-3.4,0-7,0-10.4c0-3.2-0.3-6.3-0.6-9.4
			c-0.3-2.4-0.5-4.9-0.5-7.4c0-2-0.1-4-0.4-5.9c-0.7-2.8-0.8-5.6-0.4-8.4c0.1-0.9,0.1-1.7,0-2.6c0-1.9,0-3.7,0-5.6l0.5-18.2
			c0-2.4,0-4.8,0-7.2c0-2.4,0-3.9,0.4-5.9c0.4-2,0.6-5.4,0.8-8.1c0.2-2.6,0.5-6.7,0.8-10c0.5-5.4,1.1-10.8,1.7-16.1
			c0.4-5.8,1.2-11.5,2.6-17.1c0.3-1,0.5-2.1,0.7-3.1c0.6-3.8,1.1-7.5,1.8-11.2c0.7-3.8,1.3-6.4,2.1-9.5c0.5-1.8,1-3.5,1.7-5.2
			c0-0.7,0.7-0.7,1.2,0l0.8,0.9l7.7,9.8l0.6,0.8c1.3,2.1,2.9,4,4.7,5.6c3,3.2,5.9,6.4,9.1,9.5c1.8,2.3,4.4,3.8,7.2,4.1
			c1.1,0,2.3,0,3.4,0c6-0.3,11.9-1.2,17.7-2.5c3.4-0.4,6.8-1,10.1-2c2.7-0.2,5.4-0.7,8-1.4l18.8-3.9c2.8-0.7,5.6-0.7,8.4,0
			c1.1,0.2,2.2,0.3,3.4,0.3"/>
		<path class="st3" d="M194.2,118.1c-1.7,2.9-3.5,5.7-5.4,8.4c-2.5,3.7-6.2,6.4-10.5,7.7c-4.2,1.4-8.6,2-12.9,1.6
			c-1.7-0.2-3.3-0.8-4.8-1.6c-1.5-0.8-2.9-1.8-4.3-2.8c-2-1.5-3.7-3.3-4.9-5.5c-2.4-4-4.4-8.1-5.9-12.5c-0.2-0.7-0.5-1.4-0.9-2.1
			c-1.4-3-2.2-6.2-2.4-9.5c0-2.5-0.4-4.9-0.4-7.4c-0.1-2.7,0.3-5.3,1.2-7.9c0.9-2.6,2.2-5.1,3.8-7.4c3-4.2,7.1-7.6,11.8-9.8
			c0.7-0.4,1.3-0.8,1.9-1.3c0.7-0.4,1.5-0.8,2.3-1.1c2-0.6,3.9-1.1,5.9-1.5c0.7-0.1,1.5-0.1,2.3,0c0.3,0,0.5,0.1,0.7,0.3
			s0.3,0.5,0.3,0.7c0,0.5,0,0.9,0,1.3c-0.6,7-0.8,13.9-0.6,21c0,0.9,0.3,1.7,0.7,2.5c0.4,0.8,1,1.4,1.7,2c0.7,0.5,1.5,0.9,2.4,1
			c0.9,0.1,1.7,0.1,2.6,0c0.2-0.1,0.5-0.2,0.7-0.4c0.2-0.2,0.3-0.4,0.4-0.7c0.1-0.3,0.1-0.7,0-0.9c-0.1-0.3-0.3-0.6-0.6-0.7
			c-0.4-0.2-0.8-0.4-1.2-0.4c-1.1-0.1-2-0.7-2.8-1.5c-0.7-0.8-1.1-1.9-1.1-2.9c0-2,0-4.1,0-5.9s0-2.8,0-4.2c0-3.4,0.4-6.8,1.2-10.1
			c0-0.8,0.8-1.5,1.5-1.4c3,0.1,5.9,0.8,8.6,2.2c3.5,1.9,6.4,4.8,8.3,8.3c0.2,0.5,0.4,1,0.6,1.5c1.4,4.1,2.4,8.2,3,12.5
			c0,2.6,0.8,5.3,1,8c0.2,2.6,0,3.7,0,5.4c0.4,5.4-1,10.8-3.9,15.3 M203.4,98c-0.7-2.1-0.9-4.4-0.6-6.6c0-0.9,0-1.8,0-2.8
			c0-0.9-0.4,0-0.5-0.4c-0.8-2.4-1.3-4.9-1.5-7.3c-0.5-1.2-0.8-2.5-0.8-3.7c-0.5,0-0.6-0.7-0.5-1.2c-0.7-1-1.2-2.2-1.5-3.4
			c-1.3-0.9-2.3-2.3-2.7-3.8c-1.5-0.7-2.7-1.8-3.4-3.4c-1.8,0-2.4-1.2-4.3-2.6c-2-1-4.3-1.6-6.6-1.4h-0.3c-0.3,0.1-0.7,0.1-1,0
			c-0.3-0.1-0.7-0.2-0.9-0.5h-3.4c-1.2,0.2-2.4,0.2-3.6,0l-5.5,0.7c-0.4,0.2-0.8,0.4-1.2,0.5c-1.5,0.4-2.7,0.8-4.2,1.1
			c-2.1,0.5-4.1,1.5-5.6,3c-0.8,0.4-1.2,0.5-2.4,1.2l-2.7,1.5c-0.5,0.5-1.1,0.9-1.8,1.2l-2.2,1.9c-1.2,2-2.7,3.7-4.4,5.3l-1.5,3.1
			c-0.4,1.7-1.1,3.3-2.1,4.8c0.1,1.3-0.2,2.5-0.9,3.7c0.1,2.2,0,4.3-0.4,6.5v3.7c0.6,2.4,0.9,4.9,0.8,7.3c0.6,1.5,0.9,3.1,0.8,4.7
			c0.4,0.3,0.9,0.5,1.1,0.9c0.8,1.9,1.4,3.9,2.1,5.9c0.8,0.9,1.3,2,1.5,3.2c1.4,2.5,2.8,4.9,4.1,7.4c1.1,2.1,2.6,3.9,4.4,5.3
			l2.4,2.1c0.7,0.5,1.4,0.9,2.2,1.3c2.4,1.2,4.9,2.3,7.4,3.1c2.3,0.3,4.7,0.3,7,0c2.6,0,5.1-0.3,7.6-0.9c4.1-1,7.9-3.1,11.1-5.9
			c0,0,0-0.5,0-0.7c0-0.1,2-1.8,3-2.7l1.8-2.6c0.2-1.3,0.9-2.5,2-3.3c0.5-0.5,1.1-0.9,1.7-1.3l1.6-3.7c0.3-1.9,1.1-3.7,2.2-5.3
			c0-1.2,0.3-2.3,0.9-3.3c0-2.5,0.4-5,0.7-7.4c0.1-0.5,0.3-1,0.6-1.4c-0.5-1-0.7-2.2-0.5-3.4"/>
		<path class="st3" d="M423.9,105.4c-0.3,2.7-0.9,5.5-1.7,8.1c-0.8,2.3-1.8,4.6-2.7,6.9c-0.3,0.5-0.6,1-1,1.4
			c-2.7,4.1-6.5,7.3-10.9,9.1c-1.4,0.6-2.8,1-4.3,1.2c-3,0.5-6.1,0.4-9.1-0.4c-2.9-0.8-5.7-2.2-8-4.2c-0.9-0.8-1.8-1.5-2.7-2.3
			c-0.8-0.7-1.5-1.6-2.1-2.5c-1.9-3.2-3.1-6.8-3.5-10.5c-0.3-5,0.5-10,2.5-14.7c0.4-1.5,1-2.9,1.6-4.2c1.3-3.1,2.8-6,4.7-8.7
			c2.1-3,4.6-5.6,7.3-8c1.8-1.6,4-2.9,6.4-3.6c0.9-0.2,1.9-0.3,2.8-0.3c1.8,0,2.3,0.5,2,2.3c-0.7,4.2-1.7,8.4-3,12.5
			c-0.7,1.8-1,3.7-0.9,5.6c0.1,0.6,0.2,1.2,0.5,1.7c0.3,0.5,0.7,1,1.2,1.4c0.5,0.4,1,0.7,1.6,0.8c0.6,0.2,1.2,0.2,1.8,0.1
			c0.1,0,0.3-0.1,0.4-0.2c0.1-0.1,0.2-0.2,0.2-0.4c0-0.4,0-1,0-1.2c-0.4-0.3-0.9-0.5-1.4-0.7c-1.9-0.7-2.4-1.6-1.8-3.4
			c0.8-3.1,1.8-5.9,2.5-9.2c0.4-2,0.8-4,0.9-5.9c0.5-3.2,1.1-2.7,3.3-2.1c1.4,0.4,2.8,1,4.1,1.7c2.1,1.2,3.8,2.9,4.9,5
			c2.3,4.6,4,9.5,4.9,14.6c0.5,3.2,0.5,6.4,0,9.6 M428.5,95.3l-0.6-2.7c-1-2.4-1.5-4.8-1.6-7.3c-0.3-0.1-0.6-0.4-0.8-0.7
			c-0.2-0.3-0.3-0.7-0.2-1c-0.8-0.9-1.3-2.1-1.4-3.3c-0.5-0.2-0.9-0.6-1.2-1c-0.3-0.4-0.5-0.9-0.5-1.5c-1.5-1.4-2.6-3-3.5-4.8
			c-0.5,0-0.9-0.1-1.3-0.3c-0.4-0.2-0.7-0.5-1-0.9l-1.9-1.6l-2.4-0.7l-6.7-1.3h-1.9h-1.8l-2.7,0.7l-6.7,2.9
			c-1.4,1.2-2.4,2.9-4.2,3.6c-1.3,1.7-2.8,3.3-4.4,4.7c0,1-0.5,2.2-1.8,2.6c-0.4,0.6-0.7,1-1,1.6c-0.3,0.5-0.4,2-1.7,2.2
			c-0.3,1.8-1,3.5-2,5l-1.6,3.8c-0.1,1.5-0.5,2.9-1.2,4.1c0,0.7-0.4,1.5-0.6,2.2c-0.2,0.7,0,1.2,0,1.8v2.4c-0.4,3.2-0.4,6.4,0,9.6
			l1.6,4.4c0.3,0.3,0.5,0.7,0.6,1.1c1.3,3.3,3.3,6.3,5.9,8.8c0.7,0.8,1.4,1.6,2,2.4l1.7,0.9c1.3,0.9,2.7,1.7,4.1,2.4
			c5.1,1.7,10.5,2.4,15.8,1.9l7.3-2.5c1.9-0.9,3.7-2,5.4-3.2l4.6-5.9c0.4-1.5,1-2.8,2-3.9l2-5.9c0-0.4,0.4-0.7,0.5-1
			c0.1-0.4,0.4-1.2,0.6-1.8c0.2-0.6,0.3-1.8,0.4-2.7c0.1-0.9,0-1.7,0.5-2.6v-7.2c0-0.7,0-1.4,0-2.1c0-0.7,0-2,0-3"/>
		<path class="st3" d="M163,84c-1.4-0.8-2.9-1.1-4.5-0.9h-1.1c-1.8,0.1-3.6,0.7-5.1,1.8c-0.4,0.2-0.7,0.6-0.9,1.1
			c-0.2,0.4-0.3,0.9-0.2,1.4c0.1,0.5,0.2,0.9,0.5,1.3c0.3,0.4,0.7,0.7,1.1,0.8c1,0.5,2.1,0.7,3.1,0.4c1.5-0.2,2.9-0.6,4.3-1.1
			c1.1-0.4,2.1-1,3-1.7C164.6,86.1,164.3,84.7,163,84"/>
		<path class="st4" d="M189.7,84.2c-2-0.2-4,0-5.9,0.5c-1,0.3-1.9,0.9-2.5,1.8c-0.3,0.2-0.4,0.6-0.5,0.9c-0.1,0.3-0.1,0.7,0,1
			c0.1,0.4,0.3,0.7,0.5,0.9c0.3,0.2,0.6,0.4,0.9,0.5c1.2,0.7,2.5,0,4,0c0.9,0,1.7,0,2.6,0c0.8-0.1,1.7-0.4,2.4-0.7
			c0.3-0.2,0.6-0.5,0.8-0.8c0.2-0.3,0.3-0.7,0.4-1c0-0.4,0-0.8-0.1-1.1c-0.1-0.4-0.3-0.7-0.6-0.9c-0.5-0.7-1.3-1.1-2.1-1.2"/>
		<path class="st4" d="M417.3,88.3c-1.2-0.8-2.6-1.1-4-1.1c-1.4,0-2.8,0.4-4,1.1c-0.1,0-0.2,0.1-0.3,0.2c-0.1,0.1-0.2,0.2-0.2,0.4
			c0,0.1-0.1,0.2,0,0.4c0,0.1,0.1,0.2,0.1,0.3c0.2,0.6,0.5,1.1,1,1.5c0.5,0.4,1.1,0.6,1.7,0.5h1.4c0.7,0,1.4,0,2.1,0
			c0.7-0.1,1.5-0.4,2.1-0.8c0.2-0.1,0.3-0.3,0.4-0.5c0.1-0.2,0.1-0.4,0.1-0.6c0-0.2-0.1-0.4-0.1-0.6c-0.1-0.2-0.2-0.3-0.4-0.5"/>
		<path class="st4" d="M397.5,87c-1.7-1-3.6-1.6-5.6-1.6h-1.5c-0.3,0-0.5,0.1-0.7,0.2c-0.2,0.2-0.3,0.4-0.4,0.7
			c-0.1,0.3-0.1,0.6,0,0.8c0.1,0.3,0.3,0.5,0.5,0.6c2.3,1.3,4.9,1.7,7.5,1.1c0.4,0,0.9-0.5,0.9-0.8c-0.1-0.5-0.3-0.9-0.7-1.3"/>
		<path d="M96.2,622.1v-47.5l23,33.6l22.9-33.6v47.5h2.7v-52.3h-2.7l-22.9,33.9L97,569.8h-2.7v52.3H96.2 M83.7,561.6h18.1l17.7,26.4
			l17.7-26.4H155v68.8h-21.9v-24.8l-14,20.6l-14.1-20.6v24.8H83.2"/>
		<path d="M182.1,596.2c0,2,0.4,3.9,1.1,5.7c0.7,1.7,1.8,3.3,3.1,4.6c1.3,1.3,2.9,2.4,4.6,3.1c1.8,0.8,3.6,1.1,5.6,1.1
			c1.9,0,3.8-0.3,5.6-1.1c1.7-0.8,3.3-1.8,4.6-3.1c1.3-1.3,2.4-2.9,3.1-4.6c0.8-1.8,1.1-3.7,1.1-5.7c0-1.9-0.4-3.8-1.1-5.6
			c-0.7-1.7-1.7-3.3-3.1-4.6c-1.3-1.3-2.9-2.4-4.6-3.1c-1.8-0.8-3.7-1.1-5.6-1.1c-1.9,0-3.8,0.4-5.6,1.1c-1.7,0.8-3.3,1.8-4.6,3.1
			c-1.3,1.3-2.4,2.9-3.1,4.6C182.4,592.4,182,594.3,182.1,596.2 M196.6,619.7c-3.1,0-6.3-0.6-9.2-1.8c-2.8-1.1-5.4-2.8-7.7-4.9
			c-2.2-2.2-3.9-4.7-5.1-7.5c-1.2-2.9-1.9-6.1-1.8-9.3c0-3.2,0.6-6.3,1.8-9.2c1.2-2.8,2.9-5.4,5.1-7.5c2.2-2.2,4.7-3.9,7.5-5.1
			c2.9-1.3,6-1.9,9.2-1.8c3.2,0,6.3,0.6,9.2,1.8c2.8,1.2,5.3,3,7.5,5.1c2.2,2.2,3.9,4.7,5.1,7.5c1.3,2.9,1.9,6,1.9,9.2
			c0,3.2-0.6,6.4-1.9,9.3c-1.2,2.8-2.9,5.4-5.1,7.5c-2.1,2.2-4.7,3.9-7.5,5.1c-2.9,1.2-6.1,1.8-9.2,1.8 M170.4,595.9
			c0,3.5,0.7,7,2,10.3c1.4,3.2,3.4,6,5.9,8.4c2.4,2.5,5.2,4.5,8.3,5.9c3.2,1.4,6.7,2.1,10.2,2.1c3.5,0,7-0.7,10.2-2.1
			c3.2-1.4,6-3.4,8.4-5.9c2.5-2.4,4.5-5.3,5.9-8.4c1.4-3.3,2.1-6.7,2.1-10.3c0-3.5-0.7-7-2.1-10.2c-1.4-3.2-3.4-6-5.9-8.4
			c-2.4-2.5-5.2-4.5-8.4-5.9c-3.2-1.4-6.7-2.1-10.2-2c-3.5,0-7,0.7-10.2,2c-3.1,1.4-6,3.4-8.3,5.9c-2.5,2.4-4.5,5.2-5.9,8.4
			C171,588.9,170.3,592.5,170.4,595.9z M160.7,595.9c0-4.8,0.9-9.6,2.8-14c1.8-4.3,4.4-8.2,7.7-11.5c3.3-3.3,7.2-5.9,11.5-7.7
			c4.4-1.9,9.2-2.9,14-2.8c4.8,0,9.6,0.9,14,2.8c4.3,1.8,8.2,4.4,11.5,7.7c3.3,3.3,5.9,7.2,7.7,11.5c1.9,4.4,2.9,9.2,2.8,14
			c0,4.9-0.9,9.7-2.8,14.1c-1.8,4.3-4.4,8.1-7.7,11.4c-3.3,3.3-7.2,5.9-11.5,7.7c-4.4,1.9-9.2,2.9-14,2.8c-4.8,0-9.5-0.9-14-2.8
			c-4.3-1.8-8.2-4.4-11.5-7.7c-3.3-3.3-5.9-7.2-7.7-11.4C161.6,605.6,160.6,600.8,160.7,595.9z"/>
		<path d="M240.1,622.2h2.3c2.6,0,5.1-0.8,7.2-2.4c2.7-2.1,4.7-4.9,5.9-8.1c1.9-4.9,3.2-10,3.8-15.2c1-7.9,1.5-15.8,1.4-23.7h24.2
			v49.6h2.7v-52.3H258c0,0.9,0,2,0,3.1v3.1c0.1,6.7-0.3,13.5-1.2,20.2c-0.6,4.6-1.6,9.1-3.3,13.5c-1,2.9-2.7,5.6-5,7.6
			c-1.8,1.5-4,2.4-6.3,2.4h-2.1L240.1,622.2 M274.4,583h-4c0.1,7.4-0.4,14.9-1.5,22.3c-0.7,5.2-2.4,10.3-4.9,14.9
			c-2,3.6-4.9,6.6-8.6,8.5c-3.9,1.8-8.2,2.7-12.5,2.6c-1.6,0.1-3.2,0.1-4.8,0c-1.7,0-3.4-0.4-5.3-0.8v-17.8c0.4,0,0.8,0,1.2,0h1.1
			c1.9,0,3.8-0.5,5.4-1.4c1.9-1.4,3.3-3.3,4-5.6c1.3-3.6,2.1-7.4,2.5-11.3c0.6-6.3,0.9-12.5,0.8-18.8c0-2.1,0-4.3,0-6.6
			c0-2.3,0-4.8-0.3-7.3h50v68.7h-23.2"/>
		<path d="M324.6,595.9c0,2,0.4,3.9,1.1,5.7c0.7,1.7,1.8,3.3,3.1,4.6c1.3,1.3,2.8,2.4,4.6,3.1c1.8,0.8,3.7,1.2,5.6,1.1
			c2,0.1,4.1-0.3,5.9-1.1c1.7-0.7,3.3-1.7,4.6-3.1c1.3-1.3,2.3-2.9,3.1-4.6c0.8-1.8,1.1-3.7,1.1-5.7c0-1.9-0.4-3.8-1.1-5.6
			c-0.7-1.7-1.8-3.3-3.1-4.6c-1.3-1.3-2.9-2.4-4.6-3.1c-1.9-0.8-3.9-1.2-5.9-1.1c-1.9,0-3.8,0.4-5.6,1.1c-1.7,0.8-3.2,1.8-4.6,3.1
			c-1.3,1.3-2.4,2.9-3.1,4.6C324.9,592.1,324.5,594.1,324.6,595.9 M338.9,619.7c-3.1,0-6.3-0.6-9.2-1.8c-2.8-1.2-5.4-2.9-7.5-5.1
			c-2.2-2.2-3.9-4.7-5.1-7.5c-1.3-2.9-1.9-6.1-1.9-9.3c0-3.2,0.6-6.3,1.9-9.2c1.2-2.8,2.9-5.4,5.1-7.5c2.1-2.2,4.7-3.9,7.5-5.1
			c2.9-1.3,6-1.9,9.2-1.8c3.2,0,6.3,0.6,9.2,1.8c2.8,1.2,5.4,2.9,7.5,5.1c2.2,2.2,3.9,4.7,5.1,7.5c1.3,2.9,1.9,6,1.9,9.2
			c0,3.2-0.6,6.4-1.9,9.3c-1.2,2.8-2.9,5.4-5.1,7.5c-2.2,2.2-4.7,3.9-7.5,5.1C345.2,619.1,342.1,619.7,338.9,619.7z M312.6,595.9
			c0,3.5,0.7,7,2.1,10.3c1.4,3.2,3.4,6,5.9,8.4c2.4,2.5,5.2,4.5,8.3,5.9c3.2,1.4,6.7,2.1,10.2,2.1c3.5,0,7-0.7,10.2-2.1
			c3.1-1.4,6-3.4,8.3-5.9c2.5-2.4,4.5-5.3,5.9-8.4c1.4-3.3,2.1-6.7,2.1-10.3c0-3.5-0.7-7-2.1-10.2c-1.4-3.2-3.4-6-5.9-8.4
			c-2.3-2.5-5.2-4.5-8.3-5.9c-3.2-1.4-6.7-2.1-10.2-2c-3.5,0-7,0.7-10.2,2c-3.2,1.4-6,3.4-8.3,5.9c-2.5,2.4-4.5,5.2-5.9,8.4
			C313.3,588.9,312.6,592.4,312.6,595.9z M303,595.9c0-4.8,0.9-9.6,2.8-14c1.8-4.3,4.4-8.2,7.7-11.5c3.3-3.3,7.2-5.9,11.5-7.7
			c4.4-1.9,9.2-2.9,14-2.8c4.8,0,9.6,0.9,14,2.8c4.3,1.8,8.2,4.4,11.5,7.7c3.3,3.3,5.9,7.2,7.7,11.5c1.9,4.4,2.9,9.2,2.8,14
			c0,4.9-0.9,9.7-2.8,14.1c-1.8,4.3-4.4,8.1-7.7,11.4c-3.3,3.3-7.2,5.9-11.5,7.7c-4.4,1.9-9.2,2.9-14,2.8c-4.8,0-9.5-0.9-14-2.8
			c-4.3-1.8-8.2-4.4-11.5-7.7c-3.3-3.3-5.9-7.2-7.7-11.4C303.9,605.6,302.9,600.8,303,595.9z"/>
		<path d="M419.8,583c0.2,9.5-0.7,19-2.9,28.4h6.9V583H419.8 M434,619.6h-35.4c1.8-1.5,3.3-3.3,4.4-5.5c1.5-3,2.6-6.1,3.4-9.3
			c1-4.5,1.8-9,2.2-13.7c0.5-5.3,0.8-11.5,0.8-18.7h24.7L434,619.6z M385.4,637.8V622h55.5v15.7h2.7v-18.2h-6.9v-49.8h-29.6
			c0,0.9,0,2,0,3.1v3.1c0.1,6.7-0.3,13.5-1.2,20.2c-0.5,4.6-1.6,9.1-3.2,13.5c-1,2.9-2.7,5.6-5,7.6c-1.7,1.5-4,2.4-6.3,2.4h-8.9
			v18.2H385.4z M374.9,611.6h14.7c1.4-0.9,2.5-2.2,3.3-3.6c1.1-2.1,2-4.3,2.4-6.7c0.7-3.5,1.2-7.1,1.5-10.6
			c0.4-4.2,0.5-9.3,0.5-15.2c0-2.1,0-4.3,0-6.6c0-2.3,0-4.8,0-7.3h50v50.1h5.3V646h-21v-15.7h-37.5V646h-19.3"/>
		<path d="M475.1,595.9c0,2,0.4,3.9,1.2,5.7c0.7,1.7,1.8,3.3,3.1,4.6c1.3,1.3,2.8,2.4,4.6,3.1c1.9,0.9,3.9,1.2,5.9,1.1
			c1.9,0,3.8-0.3,5.6-1.1c1.7-0.7,3.3-1.7,4.6-3.1c1.3-1.3,2.3-2.9,3.1-4.6c0.7-1.8,1.1-3.7,1.1-5.7c0-1.9-0.4-3.8-1.1-5.6
			c-0.7-1.7-1.8-3.3-3.1-4.6c-1.3-1.3-2.9-2.4-4.6-3.1c-1.8-0.8-3.7-1.1-5.6-1.1c-2,0-4.1,0.3-5.9,1.1c-1.7,0.8-3.3,1.8-4.6,3.1
			c-1.3,1.3-2.4,2.9-3.1,4.6C475.5,592.1,475.1,594.1,475.1,595.9 M489.6,619.7c-3.2,0-6.3-0.6-9.2-1.8c-2.8-1.2-5.3-3-7.5-5.1
			c-2.1-2.2-3.9-4.8-5.1-7.5c-1.2-2.9-1.9-6.1-1.8-9.3c0-3.2,0.6-6.3,1.8-9.2c1.2-2.8,2.9-5.4,5.1-7.5c2.2-2.1,4.7-3.9,7.5-5.1
			c2.9-1.3,6.1-1.9,9.2-1.8c3.2,0,6.3,0.6,9.2,1.8c2.8,1.2,5.3,3,7.5,5.1c2.1,2.2,3.9,4.8,5.1,7.5c1.2,2.9,1.9,6,1.8,9.2
			c0,3.2-0.6,6.4-1.8,9.3c-1.2,2.8-2.9,5.3-5.1,7.5c-2.2,2.1-4.7,3.9-7.5,5.1C495.8,619.1,492.7,619.7,489.6,619.7z M463.3,595.9
			c0,3.5,0.7,7.1,2.1,10.3c1.4,3.2,3.4,6,5.9,8.4c2.4,2.5,5.3,4.5,8.4,5.9c3.2,1.4,6.7,2.1,10.2,2.1c3.5,0,7-0.7,10.2-2.1
			c3.2-1.4,6-3.4,8.4-5.9c2.5-2.4,4.5-5.3,5.9-8.4c1.4-3.3,2-6.7,2-10.3c0-3.5-0.7-7-2-10.2c-1.4-3.2-3.4-6-5.9-8.4
			c-2.4-2.5-5.2-4.5-8.4-5.9c-3.2-1.4-6.7-2.1-10.2-2c-3.5,0-7,0.7-10.2,2c-3.2,1.4-6,3.4-8.4,5.9c-2.5,2.4-4.5,5.2-5.9,8.4
			C463.9,588.9,463.2,592.4,463.3,595.9z M453.6,595.9c0-4.8,0.9-9.6,2.8-14c1.8-4.3,4.5-8.2,7.7-11.5c3.3-3.3,7.2-5.9,11.4-7.7
			c4.4-1.9,9.2-2.9,14-2.8c4.8,0,9.5,0.9,14,2.8c4.3,1.8,8.2,4.4,11.5,7.7c3.3,3.3,5.9,7.2,7.7,11.5c1.9,4.4,2.9,9.2,2.8,14
			c0,4.9-0.9,9.7-2.8,14.1c-1.8,4.3-4.4,8.1-7.7,11.4c-3.3,3.3-7.2,5.9-11.5,7.7c-4.4,1.9-9.2,2.9-14,2.8c-4.8,0-9.6-0.9-14-2.8
			c-4.3-1.8-8.1-4.4-11.4-7.7c-3.3-3.3-5.9-7.2-7.7-11.4C454.5,605.6,453.6,600.8,453.6,595.9z"/>
		<path d="M542.6,595.9c0-3.2,0.5-6.3,1.7-9.2c1.1-2.8,2.7-5.4,4.7-7.5c2.1-2.2,4.7-3.9,7.5-5c3.1-1.3,6.5-1.9,9.9-1.8
			c1.6,0,3.2,0.1,4.8,0.3c1.2,0.2,2.4,0.5,3.5,0.9c1,0.3,2,0.7,3,1.2l1.4-2.4c-1.1-0.5-2.3-0.9-3.5-1.4c-1.3-0.4-2.6-0.7-4-0.9
			c-1.7-0.3-3.5-0.4-5.3-0.4c-3.4,0-6.8,0.6-10,1.8c-3.1,1.2-6,3-8.5,5.3c-2.5,2.4-4.5,5.2-5.9,8.4c-1.5,3.4-2.2,7.1-2.2,10.8
			c-0.1,3.8,0.6,7.5,2.1,10.9c1.4,3.2,3.4,6,5.9,8.3c2.5,2.4,5.4,4.1,8.6,5.4c3.4,1.2,6.9,1.8,10.5,1.8c1.9,0,3.7-0.2,5.5-0.6
			c1.4-0.3,2.9-0.7,4.3-1.1c1.2-0.4,2.4-1,3.5-1.7l-1.5-2.4c-1,0.6-2,1.1-3.1,1.5c-1.2,0.5-2.4,0.9-3.7,1.1c-1.7,0.3-3.3,0.5-5,0.5
			c-3.5,0-6.9-0.6-10.2-1.8c-2.9-1.2-5.5-2.9-7.7-5.1c-2.1-2.2-3.7-4.7-4.8-7.5C543.2,602.3,542.6,599.2,542.6,595.9 M529.6,595.9
			c-0.1-5.1,0.9-10.2,2.9-14.9c1.9-4.3,4.6-8.1,8-11.4c3.3-3.2,7.2-5.6,11.5-7.2c4.5-1.7,9.2-2.6,14-2.5c3.5,0,7,0.3,10.5,1.1
			c2.7,0.7,5.3,1.5,7.9,2.6c2.3,0.9,4.5,2.2,6.6,3.6l-10.8,19c-1.1-0.8-2.3-1.6-3.5-2.4c-1.4-0.6-2.8-1.2-4.2-1.6
			c-1.8-0.6-3.6-0.8-5.5-0.8c-2,0-4,0.4-5.9,1.1c-1.7,0.8-3.3,1.8-4.7,3.1c-1.3,1.3-2.4,2.9-3.1,4.6c-0.7,1.7-1.1,3.7-1.1,5.6
			c0,2,0.4,3.9,1.2,5.7c0.8,1.7,1.9,3.3,3.3,4.6c1.4,1.4,3,2.4,4.8,3.1c1.9,0.8,3.9,1.2,5.9,1.1c2,0,4-0.2,5.9-0.8
			c1.5-0.5,2.9-1.1,4.3-1.9c1.3-0.8,2.5-1.6,3.6-2.7l10.8,19c-2,1.6-4.2,3-6.6,4.1c-2.6,1.1-5.2,2-7.9,2.7c-3.5,0.8-7,1.3-10.6,1.2
			c-5,0-10.1-0.8-14.8-2.6c-4.4-1.7-8.4-4.2-11.8-7.4c-3.3-3.2-5.9-7.1-7.7-11.4C530.5,606,529.6,601,529.6,595.9z"/>
		<path d="M619.3,622.1v-49.8H634v-2.5H602v2.5h14.7v49.8H619.3 M606.4,579.6h-12.6v-17.8h47.9v17.8h-12.4v50.7h-22.6"/>
		<path d="M668.3,611.5h0.9c1.1,0.1,2.1,0,3.2-0.4c1-0.4,2-0.9,2.8-1.6c0.7-0.8,1.2-1.6,1.5-2.6c0.3-1,0.5-2,0.4-3
			c0.1-1-0.1-2-0.4-3c-0.3-0.9-0.9-1.8-1.5-2.6c-0.8-0.8-1.7-1.3-2.8-1.6c-1-0.3-2.1-0.5-3.2-0.4h-0.9V611.5 M686.9,603.9
			c0.1,2.5-0.5,5.1-1.5,7.4c-0.9,1.9-2.3,3.5-4.1,4.7c-1.8,1.2-3.8,2.1-5.9,2.5c-2.3,0.6-4.7,0.8-7,0.8h-8.9v-30.9h8.9
			c2.4,0,4.7,0.3,7,0.8c2.1,0.5,4.1,1.3,5.9,2.5c1.8,1.2,3.2,2.8,4.1,4.7C686.4,598.8,687,601.3,686.9,603.9z M689.6,603.9
			c0.1-2.8-0.5-5.5-1.6-8.1c-1-2.2-2.6-4.1-4.5-5.6c-2.1-1.5-4.4-2.6-6.8-3.3c-2.8-0.7-5.7-1.1-8.6-1h-8.9v-16.4h-2.7v52.2h11.8
			c2.9,0,5.8-0.3,8.6-1c2.4-0.7,4.7-1.8,6.8-3.3c1.9-1.5,3.5-3.4,4.5-5.6c1.1-2.5,1.7-5.2,1.6-8 M699.5,604.1
			c0.1,4.1-0.8,8.1-2.4,11.9c-1.6,3.2-3.9,6-6.7,8.1c-3,2.2-6.4,3.7-10,4.5c-4,1-8.1,1.5-12.2,1.5h-21.9v-68.8h21.9v16.4
			c4.1,0,8.2,0.4,12.2,1.5c3.6,0.8,7,2.4,10,4.5c2.9,2.1,5.2,4.9,6.7,8.1c1.7,3.8,2.5,8,2.4,12.2"/>
	</g>
</g>
</svg>
