<svg width="200" height="32" viewBox="0 0 200 32" fill="none" xmlns="http://www.w3.org/2000/svg">
<path d="M56.033 0.872954C56.033 0.872954 56.033 0.98631 56.033 1.04299C56.0733 1.0217 56.1064 0.988809 56.1277 0.948546V0.797363C56.1277 0.797363 56.0331 0.797363 56.0142 0.797363" fill="#030303"/>
<path d="M0.896796 4.80273H6.70761L12.3859 13.2482L18.0642 4.80273H23.875V26.8328H16.834V18.8975L12.3292 25.5103L7.80544 18.8975V26.8328H0.764404M4.9284 24.1877V9.07268L12.3292 19.8232L19.7109 9.07268V24.1877H20.5816V7.44785H19.7109L12.3292 18.3118L4.9284 7.44785H4.07675V24.1877H4.9284Z" fill="black"/>
<path d="M25.673 15.8367C25.6657 14.2916 25.9748 12.7614 26.5815 11.34C27.172 9.96905 28.0128 8.71969 29.061 7.65566C30.1482 6.591 31.4344 5.75004 32.8465 5.18059C34.2695 4.58249 35.7979 4.27441 37.3418 4.27441C38.8858 4.27441 40.4142 4.58249 41.8372 5.18059C43.2493 5.75004 44.5355 6.591 45.6227 7.65566C46.6709 8.71969 47.5117 9.96905 48.1022 11.34C48.7089 12.7614 49.0181 14.2916 49.0108 15.8367C49.0204 17.3759 48.711 18.9004 48.1022 20.3145C47.521 21.6905 46.6791 22.9414 45.6227 23.9988C43.4507 26.1643 40.5065 27.3808 37.4366 27.3808C34.3667 27.3808 31.4223 26.1643 29.2503 23.9988C28.194 22.9414 27.3521 21.6905 26.7708 20.3145C26.162 18.9004 25.8526 17.3759 25.8622 15.8367M28.9664 15.8367C28.967 17.4998 29.4595 19.1256 30.3821 20.5104C31.3047 21.8952 32.6163 22.9773 34.1525 23.6209C35.1923 24.0569 36.3088 24.2815 37.4366 24.2815C38.5643 24.2815 39.6807 24.0569 40.7205 23.6209C41.7376 23.1734 42.6571 22.5316 43.4271 21.7315C44.2159 20.9593 44.8573 20.0501 45.3199 19.0486C45.7572 18.0075 45.9824 16.89 45.9824 15.7611C45.9824 14.6322 45.7572 13.5147 45.3199 12.4736C44.4639 10.4343 42.8392 8.81244 40.7962 7.95797C39.7564 7.522 38.64 7.29743 37.5122 7.29743C36.3845 7.29743 35.2681 7.522 34.2283 7.95797C33.2165 8.41475 32.2987 9.05544 31.5217 9.84735C30.7202 10.616 30.0772 11.5339 29.6289 12.5491C29.1867 13.5887 28.9612 14.7073 28.9664 15.8367ZM37.4271 23.3942C36.4114 23.4003 35.4057 23.1943 34.4744 22.7896C32.6458 22.0234 31.1914 20.5716 30.4238 18.7463C30.0184 17.8167 29.8121 16.8127 29.8181 15.7989C29.8138 14.7791 30.02 13.7694 30.4238 12.8326C31.2064 11.0174 32.656 9.5705 34.4744 8.7893C35.4071 8.39104 36.4128 8.19155 37.4271 8.2036C38.4474 8.19332 39.4589 8.39268 40.3988 8.7893C42.2064 9.58625 43.6508 11.0282 44.4492 12.8326C44.8465 13.7707 45.0462 14.7804 45.036 15.7989C45.048 16.8114 44.8482 17.8153 44.4492 18.7463C43.6666 20.5614 42.2172 22.0084 40.3988 22.7896C39.4603 23.1927 38.4487 23.3985 37.4271 23.3942ZM32.8087 15.8367C32.8019 16.4535 32.9244 17.0649 33.1684 17.6316C33.3996 18.1808 33.7336 18.681 34.1525 19.1053C34.581 19.5194 35.0813 19.8523 35.629 20.0878C36.7865 20.5654 38.0865 20.5654 39.2441 20.0878C39.7861 19.8522 40.2801 19.5191 40.7016 19.1053C41.1358 18.6789 41.4802 18.17 41.7143 17.6086C41.9483 17.0472 42.0673 16.4447 42.0643 15.8367C42.0823 15.1884 41.9596 14.5439 41.7047 13.9473C41.4686 13.4017 41.1279 12.9074 40.7016 12.4925C40.0512 11.8416 39.2214 11.3988 38.318 11.2205C37.4146 11.0422 36.4785 11.1364 35.629 11.4911C35.0804 11.7334 34.5802 12.0726 34.1525 12.4925C33.738 12.9131 33.4044 13.4063 33.1684 13.9473C32.9134 14.5439 32.7907 15.1884 32.8087 15.8367Z" fill="black"/>
<path d="M62.1085 11.6798H60.8215C60.8471 14.0634 60.6825 16.4452 60.3293 18.8028C60.0789 20.479 59.5478 22.1013 58.7583 23.6018C58.1277 24.7556 57.1741 25.701 56.0139 26.3225C54.7517 26.9045 53.3722 27.189 51.9823 27.1538C51.4653 27.1816 50.9472 27.1816 50.4302 27.1538C49.9002 27.1538 49.3324 27.0027 48.7456 26.9082V21.2401H49.1431H49.5028C50.1199 21.2518 50.7286 21.095 51.263 20.7866C51.8637 20.3439 52.3078 19.7219 52.5311 19.0106C52.9409 17.8376 53.2077 16.6196 53.3261 15.383C53.5378 13.3812 53.6327 11.3687 53.61 9.35587C53.61 8.69459 53.61 7.99555 53.61 7.25869C53.61 6.52184 53.61 5.7283 53.61 4.89697H69.6796V26.9271H62.1085M51.0547 24.282H51.7929C52.623 24.2782 53.4309 24.0137 54.1022 23.5262C54.959 22.8452 55.6134 21.9437 55.9949 20.9189C56.6025 19.3502 57.0156 17.7131 57.2252 16.0443C57.5422 13.5063 57.6877 10.9499 57.6606 8.39233H65.4777V24.282H66.3294V7.54209H56.8655C56.8655 7.84439 56.8655 8.18451 56.8655 8.5246V9.52597C56.8954 11.6799 56.769 13.833 56.4871 15.9687C56.3076 17.446 55.9582 18.8978 55.446 20.2954C55.132 21.2341 54.5774 22.0744 53.8372 22.7327C53.2729 23.2158 52.5553 23.4836 51.8119 23.4884H51.1116L51.0547 24.282Z" fill="black"/>
<path d="M71.5724 15.8367C71.5651 14.2916 71.8742 12.7614 72.4809 11.34C73.0714 9.96905 73.9122 8.71969 74.9604 7.65566C76.0476 6.591 77.3338 5.75004 78.7459 5.18059C80.1689 4.58249 81.6973 4.27441 83.2413 4.27441C84.7852 4.27441 86.3136 4.58249 87.7366 5.18059C89.115 5.7608 90.3683 6.6012 91.4275 7.65566C92.4757 8.71969 93.3165 9.96905 93.907 11.34C94.5137 12.7614 94.8229 14.2916 94.8156 15.8367C94.8252 17.3759 94.5158 18.9004 93.907 20.3145C93.3258 21.6905 92.4839 22.9414 91.4275 23.9988C89.2555 26.1643 86.3111 27.3808 83.2413 27.3808C80.1714 27.3808 77.2271 26.1643 75.0551 23.9988C73.9988 22.9414 73.1569 21.6905 72.5756 20.3145C71.9668 18.9004 71.6574 17.3759 71.667 15.8367M74.7712 15.8367C74.7676 16.9659 74.9929 18.0842 75.4336 19.1242C75.8889 20.1299 76.5312 21.0403 77.3264 21.8071C78.0964 22.6072 79.0159 23.249 80.033 23.6965C81.5919 24.3377 83.307 24.5004 84.959 24.1638C86.611 23.8273 88.125 23.0068 89.3076 21.8071C90.0967 21.0257 90.7223 20.0954 91.1479 19.0704C91.5736 18.0455 91.7909 16.9462 91.7871 15.8367C91.7923 14.7073 91.567 13.5887 91.1247 12.5491C90.6764 11.5339 90.0334 10.616 89.2319 9.84735C88.4549 9.05544 87.5371 8.41475 86.5253 7.95797C85.4855 7.522 84.369 7.29743 83.2413 7.29743C82.1135 7.29743 80.9971 7.522 79.9573 7.95797C78.9481 8.41924 78.0311 9.05939 77.2507 9.84735C76.4553 10.6212 75.8132 11.5378 75.3579 12.5491C74.9157 13.5887 74.6903 14.7073 74.6955 15.8367M83.1751 23.3942C82.1534 23.3985 81.1419 23.1927 80.2034 22.7896C78.385 22.0084 76.9355 20.5614 76.1529 18.7463C75.7539 17.8153 75.554 16.8114 75.5661 15.7989C75.5558 14.7804 75.7555 13.7707 76.1529 12.8326C76.9512 11.0282 78.3957 9.58625 80.2034 8.7893C81.1432 8.39268 82.1548 8.19332 83.1751 8.2036C84.1894 8.19155 85.1951 8.39104 86.1278 8.7893C87.9462 9.5705 89.3957 11.0174 90.1783 12.8326C90.5821 13.7694 90.7883 14.7791 90.784 15.7989C90.7901 16.8127 90.5838 17.8167 90.1783 18.7463C89.4107 20.5716 87.9563 22.0234 86.1278 22.7896C85.1965 23.1943 84.1908 23.4003 83.1751 23.3942ZM78.5378 15.8367C78.5348 16.4447 78.6539 17.0472 78.8879 17.6086C79.122 18.17 79.4663 18.6789 79.9006 19.1053C80.322 19.5191 80.816 19.8522 81.358 20.0878C82.5155 20.5654 83.8156 20.5654 84.9732 20.0878C85.5209 19.8523 86.0211 19.5194 86.4495 19.1053C86.8685 18.681 87.2026 18.1808 87.4338 17.6316C87.6778 17.0649 87.8003 16.4535 87.7934 15.8367C87.8114 15.1884 87.6888 14.5439 87.4338 13.9473C87.1977 13.4063 86.8641 12.9131 86.4495 12.4925C86.0219 12.0726 85.5218 11.7334 84.9732 11.4911C84.1255 11.126 83.1867 11.0263 82.281 11.205C81.3753 11.3838 80.5453 11.8327 79.9006 12.4925C79.4743 12.9074 79.1335 13.4017 78.8974 13.9473C78.6424 14.5439 78.5197 15.1884 78.5378 15.8367Z" fill="black"/>
<path d="M94.5884 20.8435H99.3203C99.7694 20.5595 100.135 20.1618 100.38 19.691C100.749 19.0175 101.011 18.2909 101.156 17.5371C101.397 16.4158 101.561 15.2796 101.648 14.1362C101.743 12.7758 101.8 11.151 101.8 9.26163C101.8 8.60035 101.8 7.90131 101.8 7.16445C101.8 6.4276 101.8 5.63406 101.686 4.80273H117.794V20.8435H119.516V31.8775H112.948V26.8328H100.872V31.8775H94.6073M97.9955 29.2323V24.1877H115.844V29.2323H116.715V23.3942H114.5V7.44785H105.036C105.036 7.75015 105.036 8.09022 105.036 8.4303V9.43167C105.057 11.5853 104.93 13.7379 104.658 15.8744C104.469 17.3501 104.12 18.8009 103.617 20.2011C103.289 21.1332 102.737 21.9703 102.008 22.6384C101.444 23.1215 100.726 23.3894 99.9828 23.3942H97.1247V29.2323H97.9955ZM113.63 23.3942H102.273C102.869 22.9143 103.359 22.3159 103.712 21.637C104.197 20.6917 104.559 19.6886 104.79 18.6518C105.131 17.2154 105.372 15.7571 105.51 14.2874C105.661 12.5869 105.756 10.5086 105.756 8.29803H113.554L113.63 23.3942ZM109.03 11.68C109.113 14.7303 108.802 17.7785 108.103 20.749H110.336V11.68H109.03Z" fill="black"/>
<path d="M119.971 15.8367C119.964 14.2916 120.273 12.7614 120.879 11.34C121.47 9.96905 122.311 8.71969 123.359 7.65566C124.418 6.6012 125.671 5.7608 127.05 5.18059C128.473 4.58249 130.001 4.27441 131.545 4.27441C133.089 4.27441 134.617 4.58249 136.04 5.18059C137.453 5.75004 138.739 6.591 139.826 7.65566C140.874 8.71969 141.715 9.96905 142.305 11.34C142.912 12.7614 143.221 14.2916 143.214 15.8367C143.224 17.3759 142.914 18.9004 142.305 20.3145C141.724 21.6905 140.882 22.9414 139.826 23.9988C137.654 26.1643 134.71 27.3808 131.64 27.3808C128.57 27.3808 125.625 26.1643 123.453 23.9988C122.397 22.9414 121.555 21.6905 120.974 20.3145C120.365 18.9004 120.056 17.3759 120.065 15.8367M123.17 15.8367C123.17 17.4998 123.663 19.1256 124.585 20.5104C125.508 21.8952 126.82 22.9773 128.356 23.6209C129.396 24.0569 130.512 24.2815 131.64 24.2815C132.767 24.2815 133.884 24.0569 134.924 23.6209C135.941 23.1734 136.86 22.5316 137.63 21.7315C138.419 20.9593 139.061 20.0501 139.523 19.0486C139.96 18.0075 140.186 16.89 140.186 15.7611C140.186 14.6322 139.96 13.5147 139.523 12.4736C138.667 10.4343 137.042 8.81244 134.999 7.95797C133.96 7.522 132.843 7.29743 131.715 7.29743C130.588 7.29743 129.471 7.522 128.431 7.95797C127.42 8.41475 126.502 9.05544 125.725 9.84735C124.923 10.616 124.28 11.5339 123.832 12.5491C123.39 13.5887 123.164 14.7073 123.17 15.8367ZM131.63 23.3942C130.615 23.4003 129.609 23.1943 128.678 22.7896C126.849 22.0234 125.395 20.5716 124.627 18.7463C124.222 17.8167 124.015 16.8127 124.021 15.7989C124.017 14.7791 124.223 13.7694 124.627 12.8326C125.41 11.0174 126.859 9.5705 128.678 8.7893C129.61 8.39104 130.616 8.19155 131.63 8.2036C132.651 8.19332 133.662 8.39268 134.602 8.7893C136.41 9.58625 137.854 11.0282 138.652 12.8326C139.05 13.7707 139.249 14.7804 139.239 15.7989C139.251 16.8114 139.051 17.8153 138.652 18.7463C137.87 20.5614 136.42 22.0084 134.602 22.7896C133.663 23.1927 132.652 23.3985 131.63 23.3942ZM127.012 15.8367C127.005 16.4535 127.128 17.0649 127.371 17.6316C127.603 18.1808 127.937 18.681 128.356 19.1053C128.784 19.5194 129.285 19.8523 129.832 20.0878C130.99 20.5654 132.29 20.5654 133.447 20.0878C133.989 19.8522 134.483 19.5191 134.905 19.1053C135.339 18.6789 135.683 18.17 135.917 17.6086C136.151 17.0472 136.271 16.4447 136.268 15.8367C136.286 15.1884 136.163 14.5439 135.908 13.9473C135.672 13.4017 135.331 12.9074 134.905 12.4925C134.254 11.8416 133.425 11.3988 132.521 11.2205C131.618 11.0422 130.682 11.1364 129.832 11.4911C129.284 11.7334 128.783 12.0726 128.356 12.4925C127.941 12.9131 127.608 13.4063 127.371 13.9473C127.117 14.5439 126.994 15.1884 127.012 15.8367Z" fill="black"/>
<path d="M144.444 15.8366C144.428 14.2076 144.75 12.5928 145.39 11.0943C145.981 9.7254 146.837 8.48628 147.908 7.4478C148.97 6.43522 150.225 5.64506 151.599 5.12384C153.036 4.5754 154.564 4.29988 156.103 4.31143C157.23 4.30324 158.354 4.42368 159.454 4.67041C160.32 4.87918 161.168 5.15719 161.99 5.50174C162.733 5.81529 163.443 6.20131 164.11 6.65423L160.532 12.7191C160.192 12.4735 159.794 12.209 159.378 11.9634C158.946 11.768 158.504 11.5977 158.053 11.4533C157.476 11.2792 156.876 11.1963 156.274 11.2076C155.626 11.2082 154.984 11.33 154.381 11.5666C153.827 11.8084 153.32 12.1475 152.886 12.568C152.453 12.9778 152.112 13.4734 151.883 14.0228C151.622 14.6181 151.492 15.2625 151.504 15.9122C151.501 16.5326 151.636 17.1459 151.901 17.7071C152.139 18.2667 152.494 18.7691 152.942 19.1808C153.392 19.6045 153.919 19.938 154.495 20.1633C155.096 20.4034 155.739 20.5253 156.387 20.5222C157.029 20.5415 157.669 20.4521 158.28 20.2578C158.77 20.1214 159.24 19.9246 159.681 19.6721C160.099 19.4367 160.487 19.1512 160.835 18.8218L164.299 24.9245C163.654 25.4362 162.948 25.8677 162.198 26.2093C161.366 26.5493 160.513 26.8334 159.643 27.0595C158.529 27.3386 157.384 27.4719 156.236 27.4563C154.608 27.4793 152.99 27.1973 151.466 26.6249C150.064 26.088 148.779 25.2861 147.681 24.2632C146.674 23.1888 145.895 21.9229 145.39 20.5412C144.786 19.047 144.483 17.4481 144.501 15.8366M148.665 15.8366C148.66 14.8162 148.847 13.8038 149.214 12.8514C149.56 11.9449 150.09 11.1196 150.771 10.4271C151.452 9.73462 152.268 9.18987 153.17 8.827C154.18 8.42144 155.261 8.22228 156.349 8.2413C156.863 8.23753 157.375 8.27543 157.883 8.35466C158.269 8.4131 158.65 8.50804 159.018 8.63811C159.354 8.73368 159.678 8.86676 159.984 9.03487L160.438 8.2413C160.097 8.09015 159.719 7.93904 159.321 7.80678C158.924 7.67453 158.507 7.59894 158.034 7.50448C157.477 7.41762 156.913 7.3734 156.349 7.37221C155.242 7.37004 154.144 7.57513 153.113 7.97682C152.108 8.36116 151.188 8.9389 150.406 9.67725C149.565 10.4647 148.899 11.4201 148.453 12.4813C148.006 13.5425 147.788 14.6858 147.813 15.8366C147.796 17.0363 148.028 18.2264 148.494 19.3319C148.923 20.347 149.569 21.2563 150.387 21.996C151.194 22.7399 152.139 23.3178 153.17 23.6964C154.248 24.0943 155.389 24.2928 156.539 24.2821C157.142 24.2881 157.745 24.2311 158.337 24.1121C158.794 24.0318 159.244 23.9117 159.681 23.7531C160.076 23.615 160.456 23.4378 160.816 23.2241L160.343 22.4305C160.041 22.6413 159.709 22.8068 159.359 22.9218C158.972 23.0739 158.573 23.194 158.167 23.2808C157.63 23.3851 157.085 23.4357 156.539 23.4319C155.418 23.4445 154.306 23.2391 153.264 22.8273C152.349 22.4771 151.518 21.9375 150.826 21.2439C150.135 20.5503 149.598 19.7184 149.252 18.8029C148.884 17.8571 148.698 16.851 148.703 15.8366" fill="black"/>
<path d="M169.145 10.5842H165.075V4.80273H180.501V10.5842H176.432V26.8328H169.145M173.214 24.1877V8.24135H177.946V7.44785H167.63V8.24135H172.362V24.1877H173.214Z" fill="black"/>
<path d="M199.145 18.444C199.184 19.7791 198.911 21.1049 198.35 22.3172C197.856 23.3448 197.115 24.2341 196.192 24.9057C195.225 25.5956 194.132 26.0899 192.975 26.3605C191.688 26.6869 190.365 26.8457 189.038 26.8328H181.978V4.80273H189.038V10.0552C190.363 10.0457 191.686 10.198 192.975 10.5086C194.129 10.7877 195.221 11.2812 196.192 11.9634C197.11 12.6395 197.851 13.5277 198.35 14.5519C198.912 15.7708 199.184 17.1029 199.145 18.444ZM195.946 18.444C195.97 17.5602 195.795 16.6823 195.435 15.8744C195.108 15.1687 194.615 14.5527 193.997 14.0795C193.329 13.5996 192.578 13.2473 191.782 13.0404C190.886 12.8066 189.963 12.6922 189.038 12.7003H186.16V7.44785H185.29V24.1877H189.075C190.001 24.1958 190.924 24.0814 191.82 23.8476C192.617 23.6345 193.368 23.2758 194.034 22.7896C194.656 22.328 195.151 21.7171 195.473 21.0136C195.831 20.2052 196.006 19.3277 195.984 18.444M195.057 18.444C195.08 19.2649 194.911 20.08 194.564 20.8246C194.249 21.426 193.795 21.9441 193.24 22.3361C192.664 22.7199 192.022 22.9952 191.347 23.1486C190.608 23.3182 189.852 23.4007 189.094 23.3942H186.217V13.4938H189.094C189.852 13.4873 190.608 13.5698 191.347 13.7394C192.022 13.8928 192.664 14.1681 193.24 14.5519C193.803 14.9346 194.259 15.4549 194.564 16.0634C194.911 16.808 195.08 17.6231 195.057 18.444ZM189.075 20.8813H189.359C189.72 20.9157 190.084 20.8766 190.429 20.7661C190.774 20.6557 191.092 20.4763 191.366 20.2389C191.581 19.9946 191.745 19.7102 191.849 19.4021C191.953 19.094 191.994 18.7683 191.971 18.444C191.995 18.1196 191.954 17.7937 191.85 17.4854C191.746 17.1772 191.581 16.8928 191.366 16.6491C191.092 16.4117 190.774 16.2323 190.429 16.1219C190.084 16.0114 189.72 15.9723 189.359 16.0067H189.075V20.8813Z" fill="black"/>
</svg>
