<svg width="200" height="32" viewBox="0 0 200 32" fill="none" xmlns="http://www.w3.org/2000/svg">
<path d="M56.0274 0.520415C56.0274 0.520415 56.0274 0.633771 56.0274 0.690452C56.0677 0.669166 56.1008 0.63627 56.1221 0.596007V0.444824C56.1221 0.444824 56.0275 0.444824 56.0085 0.444824" fill="white"/>
<path d="M0.891303 4.4502H6.70211L12.3804 12.8957L18.0587 4.4502H23.8695V26.4803H16.8285V18.5449L12.3237 25.1577L7.79995 18.5449V26.4803H0.758911M4.92291 23.8352V8.72015L12.3237 19.4707L19.7054 8.72015V23.8352H20.5761V7.09531H19.7054L12.3237 17.9592L4.92291 7.09531H4.07125V23.8352H4.92291Z" fill="white"/>
<path d="M25.6674 15.4842C25.6601 13.9391 25.9692 12.4089 26.5759 10.9874C27.1664 9.61651 28.0072 8.36715 29.0554 7.30312C30.1426 6.23846 31.4288 5.3975 32.8409 4.82805C34.2639 4.22995 35.7923 3.92188 37.3362 3.92188C38.8802 3.92188 40.4086 4.22995 41.8316 4.82805C43.2437 5.3975 44.5299 6.23846 45.6171 7.30312C46.6653 8.36715 47.5061 9.61651 48.0966 10.9874C48.7033 12.4089 49.0125 13.9391 49.0052 15.4842C49.0148 17.0233 48.7054 18.5478 48.0966 19.962C47.5154 21.3379 46.6734 22.5889 45.6171 23.6462C43.4451 25.8118 40.5008 27.0283 37.431 27.0283C34.3611 27.0283 31.4167 25.8118 29.2447 23.6462C28.1884 22.5889 27.3465 21.3379 26.7652 19.962C26.1564 18.5478 25.847 17.0233 25.8566 15.4842M28.9608 15.4842C28.9614 17.1472 29.4539 18.7731 30.3765 20.1579C31.2991 21.5427 32.6107 22.6247 34.1469 23.2684C35.1867 23.7043 36.3032 23.9289 37.431 23.9289C38.5587 23.9289 39.6751 23.7043 40.7149 23.2684C41.732 22.8209 42.6515 22.179 43.4215 21.379C44.2103 20.6067 44.8517 19.6976 45.3143 18.6961C45.7516 17.655 45.9768 16.5374 45.9768 15.4086C45.9768 14.2797 45.7516 13.1621 45.3143 12.1211C44.4583 10.0817 42.8336 8.4599 40.7906 7.60543C39.7508 7.16946 38.6344 6.94489 37.5066 6.94489C36.3789 6.94489 35.2625 7.16946 34.2227 7.60543C33.2109 8.06221 32.2931 8.7029 31.5161 9.49481C30.7146 10.2635 30.0716 11.1813 29.6233 12.1966C29.1811 13.2361 28.9556 14.3548 28.9608 15.4842ZM37.4215 23.0417C36.4058 23.0477 35.4 22.8418 34.4688 22.437C32.6402 21.6708 31.1858 20.219 30.4182 18.3938C30.0128 17.4641 29.8064 16.4602 29.8125 15.4463C29.8082 14.4265 30.0144 13.4168 30.4182 12.4801C31.2008 10.6649 32.6504 9.21796 34.4688 8.43676C35.4014 8.0385 36.4071 7.83902 37.4215 7.85106C38.4418 7.84078 39.4533 8.04014 40.3931 8.43676C42.2008 9.23371 43.6452 10.6756 44.4436 12.4801C44.8409 13.4182 45.0406 14.4278 45.0303 15.4463C45.0424 16.4589 44.8426 17.4628 44.4436 18.3938C43.661 20.2089 42.2116 21.6558 40.3931 22.437C39.4547 22.8401 38.4431 23.046 37.4215 23.0417ZM32.8031 15.4842C32.7963 16.1009 32.9188 16.7123 33.1628 17.279C33.394 17.8283 33.728 18.3284 34.1469 18.7527C34.5753 19.1668 35.0756 19.4998 35.6233 19.7352C36.7809 20.2129 38.0809 20.2129 39.2385 19.7352C39.7805 19.4996 40.2745 19.1666 40.6959 18.7527C41.1302 18.3263 41.4746 17.8175 41.7086 17.2561C41.9427 16.6947 42.0617 16.0922 42.0587 15.4842C42.0767 14.8358 41.954 14.1913 41.699 13.5948C41.463 13.0491 41.1222 12.5549 40.6959 12.1399C40.0456 11.4891 39.2158 11.0463 38.3124 10.868C37.409 10.6896 36.4729 10.7838 35.6233 11.1386C35.0748 11.3808 34.5746 11.7201 34.1469 12.1399C33.7324 12.5606 33.3988 13.0538 33.1628 13.5948C32.9078 14.1913 32.7851 14.8358 32.8031 15.4842Z" fill="white"/>
<path d="M62.1032 11.3273H60.8161C60.8417 13.7109 60.6771 16.0927 60.324 18.4502C60.0735 20.1265 59.5424 21.7488 58.7529 23.2492C58.1223 24.4031 57.1687 25.3485 56.0085 25.9699C54.7463 26.552 53.3669 26.8364 51.9769 26.8013C51.4599 26.829 50.9418 26.829 50.4248 26.8013C49.8949 26.8013 49.327 26.6501 48.7402 26.5557V20.8875H49.1378H49.4974C50.1146 20.8993 50.7232 20.7425 51.2576 20.4341C51.8584 19.9913 52.3024 19.3693 52.5258 18.6581C52.9355 17.4851 53.2024 16.2671 53.3207 15.0304C53.5325 13.0286 53.6273 11.0162 53.6047 9.00333C53.6047 8.34205 53.6047 7.64301 53.6047 6.90615C53.6047 6.1693 53.6047 5.37576 53.6047 4.54443H69.6742V26.5746H62.1032M51.0494 23.9294H51.7876C52.6177 23.9256 53.4256 23.6612 54.0968 23.1737C54.9536 22.4926 55.608 21.5912 55.9896 20.5664C56.5972 18.9976 57.0103 17.3606 57.2198 15.6917C57.5368 13.1537 57.6824 10.5973 57.6552 8.03979H65.4723V23.9294H66.324V7.18955H56.8602C56.8602 7.49185 56.8602 7.83197 56.8602 8.17206V9.17343C56.89 11.3273 56.7636 13.4805 56.4817 15.6161C56.3022 17.0935 55.9528 18.5453 55.4406 19.9428C55.1267 20.8815 54.572 21.7218 53.8318 22.3801C53.2675 22.8633 52.5499 23.1311 51.8065 23.1359H51.1062L51.0494 23.9294Z" fill="white"/>
<path d="M71.567 15.4842C71.5597 13.9391 71.8688 12.4089 72.4755 10.9874C73.0661 9.61651 73.9069 8.36715 74.955 7.30312C76.0422 6.23846 77.3284 5.3975 78.7406 4.82805C80.1635 4.22995 81.6919 3.92188 83.2359 3.92188C84.7799 3.92188 86.3082 4.22995 87.7312 4.82805C89.1096 5.40826 90.3629 6.24866 91.4221 7.30312C92.4703 8.36715 93.3111 9.61651 93.9017 10.9874C94.5083 12.4089 94.8176 13.9391 94.8103 15.4842C94.8198 17.0233 94.5104 18.5478 93.9017 19.962C93.3204 21.3379 92.4785 22.5889 91.4221 23.6462C89.2501 25.8118 86.3058 27.0283 83.2359 27.0283C80.166 27.0283 77.2218 25.8118 75.0498 23.6462C73.9934 22.5889 73.1515 21.3379 72.5702 19.962C71.9615 18.5478 71.6521 17.0233 71.6616 15.4842M74.7658 15.4842C74.7622 16.6134 74.9875 17.7316 75.4282 18.7716C75.8836 19.7774 76.5258 20.6878 77.321 21.4546C78.0911 22.2546 79.0106 22.8965 80.0276 23.344C81.5866 23.9851 83.3016 24.1478 84.9536 23.8113C86.6057 23.4747 88.1197 22.6542 89.3022 21.4546C90.0914 20.6731 90.7169 19.7429 91.1426 18.7179C91.5682 17.6929 91.7855 16.5937 91.7818 15.4842C91.7869 14.3548 91.5616 13.2361 91.1193 12.1966C90.6711 11.1813 90.0281 10.2635 89.2266 9.49481C88.4495 8.7029 87.5317 8.06221 86.5199 7.60543C85.4802 7.16946 84.3637 6.94489 83.2359 6.94489C82.1081 6.94489 80.9917 7.16946 79.952 7.60543C78.9427 8.0667 78.0257 8.70685 77.2453 9.49481C76.4499 10.2687 75.8078 11.1853 75.3526 12.1966C74.9103 13.2361 74.685 14.3548 74.6901 15.4842M83.1697 23.0417C82.1481 23.046 81.1365 22.8401 80.198 22.437C78.3796 21.6558 76.9301 20.2089 76.1475 18.3938C75.7485 17.4628 75.5487 16.4589 75.5607 15.4463C75.5504 14.4278 75.7502 13.4182 76.1475 12.4801C76.9459 10.6756 78.3904 9.23371 80.198 8.43676C81.1379 8.04014 82.1494 7.84078 83.1697 7.85106C84.184 7.83902 85.1897 8.0385 86.1224 8.43676C87.9408 9.21796 89.3904 10.6649 90.173 12.4801C90.5768 13.4168 90.783 14.4265 90.7787 15.4463C90.7847 16.4602 90.5784 17.4641 90.173 18.3938C89.4054 20.219 87.951 21.6708 86.1224 22.437C85.1911 22.8418 84.1854 23.0477 83.1697 23.0417ZM78.5324 15.4842C78.5294 16.0922 78.6485 16.6947 78.8825 17.2561C79.1166 17.8175 79.461 18.3263 79.8952 18.7527C80.3167 19.1666 80.8106 19.4996 81.3526 19.7352C82.5102 20.2129 83.8103 20.2129 84.9678 19.7352C85.5155 19.4998 86.0157 19.1668 86.4441 18.7527C86.8631 18.3284 87.1972 17.8283 87.4284 17.279C87.6724 16.7123 87.7949 16.1009 87.788 15.4842C87.8061 14.8358 87.6834 14.1913 87.4284 13.5948C87.1924 13.0538 86.8587 12.5606 86.4441 12.1399C86.0165 11.7201 85.5164 11.3808 84.9678 11.1386C84.1201 10.7734 83.1814 10.6737 82.2756 10.8525C81.3699 11.0313 80.5399 11.4802 79.8952 12.1399C79.4689 12.5549 79.1281 13.0491 78.892 13.5948C78.6371 14.1913 78.5144 14.8358 78.5324 15.4842Z" fill="white"/>
<path d="M94.583 20.491H99.3149C99.764 20.207 100.13 19.8093 100.375 19.3384C100.744 18.6649 101.006 17.9383 101.151 17.1846C101.391 16.0632 101.556 14.927 101.643 13.7837C101.738 12.4233 101.794 10.7985 101.794 8.90909C101.794 8.24781 101.794 7.54877 101.794 6.81191C101.794 6.07506 101.794 5.28152 101.681 4.4502H117.788V20.491H119.511V31.5249H112.943V26.4803H100.867V31.5249H94.602M97.9901 28.8798V23.8352H115.839V28.8798H116.709V23.0416H114.495V7.09531H105.031C105.031 7.39761 105.031 7.73768 105.031 8.07776V9.07913C105.052 11.2328 104.925 13.3854 104.653 15.5219C104.464 16.9976 104.115 18.4484 103.612 19.8486C103.284 20.7807 102.732 21.6178 102.003 22.2858C101.438 22.769 100.721 23.0368 99.9775 23.0416H97.1194V28.8798H97.9901ZM113.624 23.0416H102.268C102.864 22.5618 103.354 21.9634 103.706 21.2845C104.191 20.3392 104.554 19.3361 104.785 18.2993C105.126 16.8629 105.366 15.4046 105.504 13.9348C105.656 12.2344 105.75 10.1561 105.75 7.94549H113.549L113.624 23.0416ZM109.025 11.3275C109.108 14.3777 108.796 17.4259 108.097 20.3965H110.331V11.3275H109.025Z" fill="white"/>
<path d="M119.965 15.4842C119.958 13.9391 120.267 12.4089 120.874 10.9874C121.464 9.61651 122.305 8.36715 123.353 7.30312C124.412 6.24866 125.666 5.40826 127.044 4.82805C128.467 4.22995 129.996 3.92188 131.539 3.92188C133.083 3.92188 134.612 4.22995 136.035 4.82805C137.447 5.3975 138.733 6.23846 139.82 7.30312C140.869 8.36715 141.709 9.61651 142.3 10.9874C142.907 12.4089 143.216 13.9391 143.208 15.4842C143.218 17.0233 142.909 18.5478 142.3 19.962C141.719 21.3379 140.877 22.5889 139.82 23.6462C137.648 25.8118 134.704 27.0283 131.634 27.0283C128.564 27.0283 125.62 25.8118 123.448 23.6462C122.391 22.5889 121.55 21.3379 120.968 19.962C120.36 18.5478 120.05 17.0233 120.06 15.4842M123.164 15.4842C123.165 17.1472 123.657 18.7731 124.58 20.1579C125.502 21.5427 126.814 22.6247 128.35 23.2684C129.39 23.7043 130.506 23.9289 131.634 23.9289C132.762 23.9289 133.878 23.7043 134.918 23.2684C135.935 22.8209 136.855 22.179 137.625 21.379C138.414 20.6067 139.055 19.6976 139.518 18.6961C139.955 17.655 140.18 16.5374 140.18 15.4086C140.18 14.2797 139.955 13.1621 139.518 12.1211C138.662 10.0817 137.037 8.4599 134.994 7.60543C133.954 7.16946 132.838 6.94489 131.71 6.94489C130.582 6.94489 129.466 7.16946 128.426 7.60543C127.414 8.06221 126.496 8.7029 125.719 9.49481C124.918 10.2635 124.275 11.1813 123.826 12.1966C123.384 13.2361 123.159 14.3548 123.164 15.4842ZM131.625 23.0417C130.609 23.0477 129.603 22.8418 128.672 22.437C126.843 21.6708 125.389 20.219 124.621 18.3938C124.216 17.4641 124.01 16.4602 124.016 15.4463C124.011 14.4265 124.218 13.4168 124.621 12.4801C125.404 10.6649 126.853 9.21796 128.672 8.43676C129.605 8.0385 130.61 7.83902 131.625 7.85106C132.645 7.84078 133.656 8.04014 134.596 8.43676C136.404 9.23371 137.848 10.6756 138.647 12.4801C139.044 13.4182 139.244 14.4278 139.234 15.4463C139.246 16.4589 139.046 17.4628 138.647 18.3938C137.864 20.2089 136.415 21.6558 134.596 22.437C133.658 22.8401 132.646 23.046 131.625 23.0417ZM127.006 15.4842C126.999 16.1009 127.122 16.7123 127.366 17.279C127.597 17.8283 127.931 18.3284 128.35 18.7527C128.779 19.1668 129.279 19.4998 129.827 19.7352C130.984 20.2129 132.284 20.2129 133.442 19.7352C133.984 19.4996 134.478 19.1666 134.899 18.7527C135.333 18.3263 135.678 17.8175 135.912 17.2561C136.146 16.6947 136.265 16.0922 136.262 15.4842C136.28 14.8358 136.157 14.1913 135.902 13.5948C135.666 13.0491 135.325 12.5549 134.899 12.1399C134.249 11.4891 133.419 11.0463 132.516 10.868C131.612 10.6896 130.676 10.7838 129.827 11.1386C129.278 11.3808 128.778 11.7201 128.35 12.1399C127.936 12.5606 127.602 13.0538 127.366 13.5948C127.111 14.1913 126.988 14.8358 127.006 15.4842Z" fill="white"/>
<path d="M144.439 15.4841C144.422 13.855 144.745 12.2403 145.385 10.7417C145.976 9.37286 146.831 8.13374 147.902 7.09526C148.965 6.08268 150.22 5.29252 151.593 4.7713C153.031 4.22286 154.559 3.94734 156.098 3.95889C157.225 3.9507 158.349 4.07115 159.448 4.31787C160.315 4.52664 161.163 4.80465 161.985 5.1492C162.727 5.46275 163.438 5.84877 164.104 6.30169L160.527 12.3666C160.186 12.121 159.789 11.8565 159.373 11.6108C158.941 11.4154 158.499 11.2451 158.048 11.1007C157.471 10.9267 156.871 10.8438 156.268 10.8551C155.621 10.8557 154.979 10.9775 154.376 11.2141C153.821 11.4558 153.315 11.795 152.88 12.2155C152.448 12.6253 152.106 13.1208 151.877 13.6702C151.616 14.2655 151.487 14.91 151.499 15.5596C151.495 16.18 151.631 16.7934 151.896 17.3546C152.134 17.9142 152.489 18.4166 152.937 18.8283C153.387 19.252 153.914 19.5855 154.489 19.8107C155.091 20.0509 155.734 20.1728 156.382 20.1697C157.023 20.1889 157.663 20.0995 158.275 19.9052C158.764 19.7689 159.235 19.5721 159.675 19.3195C160.093 19.0842 160.481 18.7986 160.83 18.4693L164.294 24.572C163.648 25.0837 162.943 25.5151 162.193 25.8567C161.361 26.1968 160.507 26.4808 159.638 26.707C158.524 26.986 157.379 27.1194 156.23 27.1037C154.602 27.1267 152.985 26.8447 151.461 26.2724C150.059 25.7355 148.773 24.9336 147.675 23.9107C146.669 22.8363 145.89 21.5704 145.385 20.1886C144.78 18.6944 144.478 17.0955 144.495 15.4841M148.659 15.4841C148.655 14.4636 148.841 13.4513 149.208 12.4988C149.555 11.5924 150.085 10.7671 150.766 10.0746C151.446 9.38208 152.263 8.83733 153.164 8.47447C154.174 8.0689 155.256 7.86974 156.344 7.88876C156.857 7.88499 157.37 7.92289 157.877 8.00212C158.264 8.06056 158.644 8.1555 159.013 8.28557C159.349 8.38114 159.672 8.51422 159.978 8.68233L160.432 7.88876C160.092 7.73761 159.713 7.5865 159.316 7.45424C158.918 7.32199 158.502 7.24641 158.029 7.15194C157.471 7.06508 156.908 7.02086 156.344 7.01967C155.237 7.0175 154.139 7.22259 153.107 7.62428C152.102 8.00862 151.183 8.58636 150.401 9.32471C149.56 10.1122 148.894 11.0676 148.447 12.1288C148.001 13.19 147.783 14.3333 147.808 15.4841C147.79 16.6837 148.022 17.8739 148.489 18.9794C148.918 19.9945 149.564 20.9037 150.382 21.6434C151.188 22.3874 152.134 22.9653 153.164 23.3439C154.242 23.7417 155.384 23.9402 156.533 23.9296C157.137 23.9356 157.74 23.8786 158.332 23.7596C158.789 23.6792 159.239 23.5591 159.675 23.4006C160.071 23.2625 160.451 23.0852 160.811 22.8716L160.338 22.078C160.036 22.2887 159.704 22.4542 159.354 22.5693C158.967 22.7214 158.568 22.8415 158.161 22.9282C157.625 23.0325 157.08 23.0831 156.533 23.0794C155.413 23.0919 154.301 22.8865 153.259 22.4747C152.343 22.1246 151.513 21.585 150.821 20.8914C150.129 20.1978 149.593 19.3658 149.246 18.4504C148.879 17.5046 148.693 16.4984 148.697 15.4841" fill="white"/>
<path d="M169.139 10.2317H165.07V4.4502H180.496V10.2317H176.426V26.4803H169.139M173.209 23.8352V7.88882H177.941V7.09531H167.625V7.88882H172.357V23.8352H173.209Z" fill="white"/>
<path d="M199.14 18.0915C199.178 19.4266 198.906 20.7524 198.345 21.9647C197.851 22.9922 197.109 23.8815 196.187 24.5531C195.22 25.2431 194.127 25.7373 192.969 26.0079C191.683 26.3344 190.359 26.4932 189.032 26.4803H181.972V4.4502H189.032V9.70266C190.358 9.69318 191.68 9.84544 192.969 10.1561C194.124 10.4352 195.215 10.9287 196.187 11.6109C197.105 12.287 197.845 13.1751 198.345 14.1993C198.906 15.4183 199.178 16.7503 199.14 18.0915ZM195.941 18.0915C195.964 17.2077 195.79 16.3297 195.43 15.5219C195.103 14.8161 194.609 14.2001 193.991 13.727C193.324 13.2471 192.573 12.8948 191.777 12.6878C190.881 12.454 189.958 12.3397 189.032 12.3478H186.155V7.09531H185.285V23.8352H189.07C189.996 23.8432 190.919 23.7289 191.815 23.4951C192.612 23.282 193.363 22.9232 194.029 22.437C194.651 21.9754 195.146 21.3645 195.468 20.661C195.826 19.8526 196 18.9752 195.979 18.0915M195.051 18.0915C195.074 18.9124 194.906 19.7274 194.559 20.4721C194.243 21.0735 193.789 21.5915 193.234 21.9836C192.658 22.3674 192.017 22.6427 191.341 22.796C190.603 22.9657 189.847 23.0481 189.089 23.0416H186.212V13.1413H189.089C189.847 13.1348 190.603 13.2172 191.341 13.3869C192.017 13.5402 192.658 13.8156 193.234 14.1993C193.798 14.582 194.254 15.1024 194.559 15.7109C194.906 16.4555 195.074 17.2706 195.051 18.0915ZM189.07 20.5287H189.354C189.714 20.5632 190.078 20.524 190.423 20.4136C190.768 20.3032 191.087 20.1237 191.36 19.8864C191.575 19.6421 191.739 19.3577 191.843 19.0496C191.947 18.7414 191.989 18.4158 191.966 18.0915C191.99 17.7671 191.949 17.4412 191.845 17.1329C191.741 16.8246 191.576 16.5403 191.36 16.2966C191.087 16.0592 190.768 15.8798 190.423 15.7693C190.078 15.6589 189.714 15.6197 189.354 15.6542H189.07V20.5287Z" fill="white"/>
</svg>
