<svg width="90" height="79" viewBox="0 0 90 79" fill="none" xmlns="http://www.w3.org/2000/svg">
<mask id="path-1-inside-1_684_3608" fill="white">
<path d="M49.9479 47.938C50.7981 47.7067 51.6773 47.5474 52.4952 47.232C54.8486 46.3239 57.1753 45.371 59.4184 44.1779C60.6274 43.5337 62.0203 43.2138 63.3552 42.8389C64.3054 42.5908 65.2176 42.2131 66.0664 41.7165C66.9578 41.1777 67.8916 40.7164 68.7986 40.208C69.6255 39.7433 69.8093 39.117 69.3435 38.2819C68.266 36.3514 66.6324 35.4052 64.4161 35.403C60.4436 35.403 56.4699 35.3457 52.4929 35.3143C51.9915 35.3143 51.4901 35.3267 50.9897 35.2986C50.788 35.2874 50.5919 35.1864 50.3936 35.1235C50.3836 35.0606 50.3724 34.9978 50.3624 34.9361C50.6387 34.789 50.9017 34.5993 51.1948 34.5028C52.6345 34.0112 54.131 33.872 55.6386 33.8518C57.6444 33.826 59.6502 33.8384 61.6559 33.8148C62.1406 33.8092 62.6231 33.7272 63.1045 33.6801L63.1112 33.4938C62.895 33.4175 62.6833 33.3018 62.4604 33.2693C60.9907 33.0706 59.522 32.799 58.0455 32.7238C55.7467 32.6116 53.4401 32.6654 51.1368 32.5813C47.8908 32.4612 44.6482 32.2131 41.4022 32.1435C38.7279 32.0863 36.0535 32.1334 33.3903 32.2816C31.5439 32.386 29.7131 32.7889 27.87 32.9685C26.5797 33.0942 25.2726 33.037 23.9699 33.1133C21.2087 33.2749 18.4519 33.4983 15.6895 33.6397C14.5399 33.6825 13.3888 33.6596 12.2418 33.5712C11.8886 33.5488 11.5509 33.294 11.2066 33.1458C11.4774 32.8978 11.7092 32.5218 12.0268 32.4241C13.7796 31.8831 15.5524 31.414 17.3186 30.9134C17.337 30.9095 17.356 30.9095 17.3743 30.9134C18.9956 31.1581 20.5167 30.5217 22.0868 30.3814C24.984 30.1221 27.9012 30.0525 30.8096 29.9066C31.0777 29.9117 31.3454 29.8827 31.6063 29.8202C31.1238 29.6619 30.6357 29.5216 30.1577 29.342C29.5348 29.1041 28.8963 28.8863 28.3102 28.572C26.2454 27.4687 25.7996 25.3171 27.2204 23.4258C28.1018 22.2541 29.3465 21.6457 30.6903 21.2091C34.2071 20.0654 37.5612 21.2259 39.4934 24.2542C39.6647 24.5206 39.812 24.802 39.9335 25.0948C40.6222 26.7785 40.2077 28.0007 38.6098 28.8437C37.9412 29.195 37.2135 29.4318 36.5126 29.8235L43.6609 29.3656C43.4002 28.5631 43.0458 27.8077 42.9165 27.0142C42.6268 25.2351 43.0492 23.5168 43.6375 21.8511C43.9446 21.0296 44.3122 20.2323 44.7373 19.466C44.8633 19.2303 45.1953 19.1057 45.4327 18.9306C45.5597 19.218 45.8193 19.5199 45.7892 19.7904C45.6778 20.7714 45.5051 21.749 45.3001 22.7154C44.8677 24.7581 44.7853 26.7863 45.3513 28.8212C45.4628 29.2219 45.6232 29.3544 46.0322 29.3364C46.8256 29.3016 47.6201 29.3263 48.5561 29.3263C48.4302 28.517 48.3967 27.7673 48.1906 27.0692C47.2546 23.8827 46.937 20.6187 46.9403 17.3177C46.9587 16.5345 47.0759 15.7568 47.2891 15.0033C47.4005 14.5746 47.697 14.166 47.9967 13.8248C48.2965 13.4836 48.6976 13.6003 48.8313 14.0616C48.8973 14.2953 48.9307 14.5371 48.9305 14.78C48.965 19.0395 49.6102 23.2317 50.3111 27.4182C50.4225 28.0995 50.4961 28.7887 50.6031 29.4711C50.6512 29.6973 50.7129 29.9203 50.788 30.1389L50.9875 30.1513C51.0455 29.8718 51.1569 29.5901 51.1502 29.3117C51.1145 27.8358 51.0867 26.3575 50.9853 24.885C50.7468 21.4055 51.4789 18.0686 52.6099 14.8282C53.4167 12.5161 54.8007 11.7271 57.1051 11.9639C57.6199 12.0166 58.1236 12.1625 58.6361 12.2445C59.3872 12.3646 60.1104 12.3343 60.7533 11.8427C61.1478 11.5441 61.2503 11.2141 60.994 10.7842C60.8826 10.5923 60.7544 10.406 60.6508 10.2084C60.4452 9.85413 60.2674 9.48409 60.1193 9.10176C60.0524 8.90197 60.146 8.6528 60.1661 8.41821C60.3711 8.50352 60.604 8.5529 60.7756 8.6831C61.2013 9.00747 61.5735 9.40593 62.0181 9.69326C62.1863 9.8055 62.495 9.69326 62.739 9.69326C62.6755 9.48225 62.6722 9.214 62.5373 9.06808C61.3751 7.81099 60.224 6.53707 58.9983 5.34396C58.0277 4.40002 56.7541 4.07677 55.4481 3.88484C54.2859 3.70974 53.108 3.64464 52.0483 2.98691C51.4188 2.5952 51.0354 2.90947 51.0455 3.66036C51.0455 3.86463 51.0187 4.09248 51.0956 4.27094C51.4009 4.98591 51.012 5.3361 50.4861 5.72221C46.3085 8.79646 41.8724 11.4094 37.2124 13.6834C32.4799 15.9933 28.2556 19.0451 24.8335 23.1407C23.8506 24.3144 23.1025 25.6686 22.6305 27.1286C21.9887 29.085 21.8282 29.177 19.7734 29.1849C17.7677 29.1927 15.753 29.1299 13.7562 29.3151C10.1447 29.6518 7.3734 31.5666 5.14923 34.3659C3.64826 36.2538 2.437 38.2943 1.97122 40.7063C1.90213 41.0655 2.0091 41.4583 2.03362 41.8355C2.35231 41.6525 2.74343 41.5335 2.97521 41.2743C3.45168 40.7275 3.88533 40.1444 4.27226 39.53C5.89024 37.0103 8.97354 35.7745 11.8295 36.5388C12.0958 36.6107 12.4023 36.6735 12.5973 36.8475C13.1399 37.3324 13.7004 37.2516 14.3378 37.1001C15.6906 36.7813 17.0612 36.5332 18.424 36.2515C19.0636 36.1202 19.6498 36.2201 19.9696 36.834C20.4231 37.6983 21.153 38.0586 22.0522 38.2427C23.7794 38.5951 24.8792 39.6816 25.5567 41.2945C26.066 42.5078 25.852 43.5943 25.1667 44.6392C24.3354 45.9053 23.1175 46.6348 21.7023 47.0232C19.0603 47.746 16.3949 47.8616 13.7172 47.2095C12.5796 46.9237 11.5128 46.4044 10.5837 45.6842C9.79702 45.0893 9.46941 45.132 8.73285 45.7964C8.50999 45.9962 8.2927 46.1982 8.08655 46.4137C7.2263 47.3117 6.18331 47.5754 4.98097 47.4104C4.50492 47.3461 4.02272 47.3423 3.54574 47.3992C2.66989 47.5036 1.9857 47.2118 1.42855 46.5451C0.508126 45.4406 0.0668558 44.1487 0.0111403 42.7289C-0.113662 39.5278 0.81233 36.6365 2.6788 34.0628C3.46662 32.9775 4.26001 31.8674 5.21609 30.9403C8.16455 28.0827 11.6301 26.389 15.8299 26.6213C17.1437 26.6943 18.4541 26.8458 19.759 27.0142C20.1924 27.0703 20.3707 26.967 20.5234 26.5585C21.4772 24.0207 23.0406 21.914 24.848 19.9015C28.7269 15.5803 33.5307 12.662 38.6109 10.0637C41.4869 8.59219 44.2359 6.87155 47.0417 5.26314C47.8217 4.81418 48.6018 4.39104 49.3562 3.91626C49.5278 3.80963 49.6515 3.57056 49.7239 3.36516C49.8788 2.92855 49.9467 2.45377 50.1228 2.03063C50.4203 1.34148 50.9251 1.14169 51.6249 1.39086C51.9726 1.51432 52.3046 1.68717 52.64 1.83982C53.4836 2.23715 54.2825 2.2248 55.0469 1.63218C55.354 1.39065 55.681 1.17588 56.0242 0.990163C56.4933 0.742113 56.8298 0.871189 57.0806 1.34709C57.1636 1.47171 57.2187 1.61303 57.2421 1.76125C57.2633 2.61203 57.7547 2.93641 58.498 3.24956C59.3554 3.60297 60.1345 4.12452 60.7901 4.78388C61.8758 5.93397 62.8811 7.15845 63.7987 8.44852C64.7158 9.71683 64.3258 10.8246 62.8371 11.3735C62.417 11.5284 62.1941 11.7102 62.1239 12.1592C62.0643 12.4138 61.971 12.6592 61.8465 12.8887C61.4943 13.6452 60.916 14.0538 60.0703 13.9528C59.2613 13.8551 58.4567 13.7126 57.65 13.5891C56.0899 13.3512 55.2074 13.8652 54.8219 15.3962C54.5899 16.3198 54.4566 17.2657 54.424 18.2179C54.3304 21.089 53.8323 23.9006 53.3331 26.7167C53.1883 27.5372 53.1638 28.379 53.0791 29.2612C54.0307 29.3544 54.8865 29.3734 55.7178 29.5328C57.6477 29.901 59.5655 30.3331 61.4877 30.7428C62.758 31.0133 64.0261 31.2916 65.2953 31.5655C67.2252 31.9841 68.6883 33.0807 69.845 34.6656C70.5481 35.6286 71.3036 36.5534 72.0569 37.4772C72.8102 38.4009 73.1712 39.4447 73.4498 40.5615C73.6559 41.4045 73.6615 41.3955 74.4839 41.2215C76.5721 40.7804 78.6503 40.3169 80.8109 40.3427C83.3738 40.3741 85.5278 41.2204 87.2104 43.1981C87.7776 43.8648 88.3648 44.5158 88.9131 45.1982C89.3153 45.6988 89.3878 46.2645 89.3309 46.9312C89.2507 47.8717 89.3198 48.8392 89.4179 49.7798C89.6663 52.1739 89.7209 54.5612 89.2541 56.9306C88.8852 58.7983 88.4874 60.6626 88.0183 62.5078C87.4611 64.6976 85.5456 66.2421 83.2992 66.4071C79.2988 66.6989 75.3007 67.0176 71.2969 67.2489C69.8194 67.3342 68.3284 67.1523 66.8397 67.1849C63.7776 67.25 60.7177 67.4251 57.6555 67.4621C55.7868 67.4857 53.9081 67.4105 52.0461 67.2489C49.4353 67.0244 46.8646 67.4307 44.276 67.5609C43.1082 67.6193 41.936 67.7091 40.7737 67.7427C37.9181 67.8273 35.0614 67.8976 32.2036 67.9537C30.9941 67.9799 29.7903 67.7797 28.6534 67.3633C27.4967 66.9413 26.349 66.8841 25.1065 67.0985C23.3749 67.3981 21.602 67.452 19.8459 67.5991C19.6412 67.6123 19.4359 67.5844 19.2419 67.5171C18.1621 67.149 17.0501 67.1961 15.9357 67.2017C15.1747 67.2017 14.4125 67.1782 13.6536 67.1243C12.0302 67.0164 10.4769 66.4179 9.1964 65.407C8.28824 64.7066 7.27088 64.1432 6.27691 63.5618C4.6847 62.6299 3.24757 61.452 2.01801 60.0711C1.14997 59.0991 0.873618 57.8263 0.631812 56.5726C0.312005 54.917 0.284152 53.2649 0.775563 51.634C0.880525 51.2761 1.02596 50.9315 1.20902 50.607C1.71604 49.7226 2.37683 49.3881 3.17133 49.5699C3.99926 49.7585 4.75699 50.6261 4.76256 51.5139C4.75199 51.9585 4.65626 52.3967 4.48065 52.8047C4.19427 53.5129 3.79757 54.1751 3.51231 54.8834C3.22705 55.5916 3.39308 55.8049 4.15081 55.7375C5.49912 55.6174 6.84521 55.3929 8.19464 55.3761C10.3542 55.3492 12.2585 56.0619 13.6302 57.8297C14.0938 58.4268 14.4314 59.1272 14.7802 59.8051C14.9685 60.171 15.1713 60.3921 15.6104 60.4101C16.7092 60.4499 17.7762 60.7919 18.6959 61.3989C19.6163 61.9972 21.2265 61.3293 21.4605 60.2765C21.8572 58.4908 22.2071 56.6949 22.538 54.8957C22.6068 54.4336 22.612 53.9641 22.5536 53.5006C22.294 50.7776 23.2434 48.562 25.3795 46.9155C27.7006 45.1263 30.3583 44.2789 33.2644 44.7694C34.0489 44.9222 34.8614 44.8213 35.5855 44.481C37.4798 43.6661 39.3742 42.8187 41.342 42.2609C43.4334 41.6687 45.6539 41.7294 47.7103 42.4348C48.4513 42.684 49.1478 42.4573 49.842 42.2945C51.6371 41.8725 53.4345 41.4875 55.291 41.6155C55.9932 41.6606 56.6906 41.7642 57.3758 41.9253C57.9753 42.07 58.0834 42.3742 57.8494 42.9354C57.5541 43.6481 57.0962 44.2071 56.3741 44.5371C54.5823 45.3527 52.796 46.1806 51.0154 47.021C50.5953 47.2207 50.2197 47.5126 49.8242 47.7617L49.9479 47.938ZM60.6452 56.6029C62.1863 56.6366 63.431 57.3381 64.1174 58.8847C64.3585 59.4505 64.5379 60.041 64.6523 60.6458C64.8373 61.5594 64.8919 62.5022 65.1114 63.4058C65.351 64.3946 66.2647 64.7526 67.1718 64.2947C67.7969 63.9816 68.1646 63.4338 68.3351 62.7896C68.5381 62.0328 68.6871 61.2624 68.7808 60.4842C69.0037 58.5761 69.4316 56.732 70.4389 55.0663C71.5465 53.2391 73.0776 51.7912 74.6298 50.3702C74.9708 50.0582 75.4555 49.8539 75.9091 49.7282C77.117 49.3915 78.2324 49.9931 78.6558 51.1682C79.3066 52.9742 79.9707 54.7666 80.0866 56.7297C80.1312 57.4705 80.4766 58.2517 80.8666 58.8982C81.3057 59.6188 82.0121 59.5133 82.3654 58.7411C82.6428 58.1338 82.8345 57.4851 83.0496 56.8487C83.5343 55.4176 83.9488 53.9596 84.506 52.5578C84.9517 51.4354 85.6771 50.5273 87.0042 50.3219C87.5402 50.24 87.7352 49.8528 87.4912 49.3645C87.2868 48.9253 87 48.5301 86.6466 48.2006C84.9528 46.7415 83.2267 45.3284 81.5018 43.9097C81.0093 43.5045 80.4554 43.4686 79.8849 43.7649C79.671 43.8771 79.4503 43.9759 79.2375 44.0904C79.049 44.2033 78.8362 44.2687 78.6172 44.2812C78.3982 44.2938 78.1795 44.2529 77.9795 44.1622C77.55 43.9984 77.0853 43.9519 76.6323 44.0275C75.8689 44.1622 75.1346 44.4507 74.3769 44.6291C74.154 44.683 73.8197 44.6718 73.6615 44.5393C72.8926 43.885 72.0268 43.7806 71.0986 43.9781C69.4828 44.3148 67.8671 44.6583 66.2591 45.0242C65.303 45.2408 64.2812 45.3486 63.421 45.7751C58.6231 48.1616 53.512 49.8468 48.2418 50.7799C46.1425 51.1548 44.0186 51.5061 42.102 52.5196C39.7207 53.7789 37.3383 55.0416 35.0183 56.411C32.8053 57.7163 30.8764 59.3932 29.4468 61.574C29.079 62.1352 28.8774 62.8176 28.6746 63.4686C28.5342 63.9176 28.8105 64.2476 29.2172 64.4575C30.0463 64.884 30.638 64.6034 31.1717 63.5247C31.7177 62.4225 32.5345 62.1386 33.5809 62.7873C34.1247 63.124 34.5715 63.6201 35.0618 64.0444C35.5521 64.4687 36.0379 64.9681 36.5839 65.3419C37.072 65.6786 37.4431 65.5293 37.7372 65.0164C37.8854 64.7571 38.0091 64.4844 38.1495 64.2218C38.7914 63.023 39.4143 62.8255 40.5888 63.5203C40.7969 63.658 41.038 63.7369 41.2868 63.7485C41.5356 63.7602 41.7829 63.7042 42.0028 63.5865C43.2798 62.9879 44.5642 62.4061 45.8561 61.8411C46.3126 61.6349 46.7902 61.4794 47.2802 61.3776C48.2307 61.1946 49.2559 61.134 49.9679 61.867C50.5908 62.5101 51.2382 62.757 52.0762 62.7189C52.355 62.7154 52.6333 62.7451 52.9052 62.8075C53.2395 62.876 53.4122 62.7301 53.6262 62.4652C54.8308 60.9735 56.0309 59.4751 57.3168 58.0564C58.1503 57.1304 59.2568 56.6276 60.6475 56.6085L60.6452 56.6029ZM33.4081 28.1579C34.1402 28.0243 35.1643 27.9334 36.1204 27.6326C37.0765 27.3318 37.491 26.398 37.0531 25.6246C36.6394 24.8708 36.0767 24.2105 35.3998 23.6842C34.7229 23.158 33.9461 22.7771 33.1173 22.565C32.8799 22.5195 32.636 22.5195 32.3986 22.565C30.8073 22.7625 29.342 24.1812 28.9442 25.8918C28.7147 26.8828 29.0267 27.4631 30.0262 27.6629C31.0258 27.8627 32.0843 27.9671 33.4081 28.1579ZM55.7412 2.64458C55.7612 2.70856 55.7813 2.77254 55.8024 2.83651C56.0142 2.80172 56.3061 2.83651 56.4131 2.71193C56.5201 2.58734 56.4064 2.30898 56.3919 2.09685L56.2393 2.08001L55.7412 2.64458Z"/>
</mask>
<path d="M49.9479 47.938C50.7981 47.7067 51.6773 47.5474 52.4952 47.232C54.8486 46.3239 57.1753 45.371 59.4184 44.1779C60.6274 43.5337 62.0203 43.2138 63.3552 42.8389C64.3054 42.5908 65.2176 42.2131 66.0664 41.7165C66.9578 41.1777 67.8916 40.7164 68.7986 40.208C69.6255 39.7433 69.8093 39.117 69.3435 38.2819C68.266 36.3514 66.6324 35.4052 64.4161 35.403C60.4436 35.403 56.4699 35.3457 52.4929 35.3143C51.9915 35.3143 51.4901 35.3267 50.9897 35.2986C50.788 35.2874 50.5919 35.1864 50.3936 35.1235C50.3836 35.0606 50.3724 34.9978 50.3624 34.9361C50.6387 34.789 50.9017 34.5993 51.1948 34.5028C52.6345 34.0112 54.131 33.872 55.6386 33.8518C57.6444 33.826 59.6502 33.8384 61.6559 33.8148C62.1406 33.8092 62.6231 33.7272 63.1045 33.6801L63.1112 33.4938C62.895 33.4175 62.6833 33.3018 62.4604 33.2693C60.9907 33.0706 59.522 32.799 58.0455 32.7238C55.7467 32.6116 53.4401 32.6654 51.1368 32.5813C47.8908 32.4612 44.6482 32.2131 41.4022 32.1435C38.7279 32.0863 36.0535 32.1334 33.3903 32.2816C31.5439 32.386 29.7131 32.7889 27.87 32.9685C26.5797 33.0942 25.2726 33.037 23.9699 33.1133C21.2087 33.2749 18.4519 33.4983 15.6895 33.6397C14.5399 33.6825 13.3888 33.6596 12.2418 33.5712C11.8886 33.5488 11.5509 33.294 11.2066 33.1458C11.4774 32.8978 11.7092 32.5218 12.0268 32.4241C13.7796 31.8831 15.5524 31.414 17.3186 30.9134C17.337 30.9095 17.356 30.9095 17.3743 30.9134C18.9956 31.1581 20.5167 30.5217 22.0868 30.3814C24.984 30.1221 27.9012 30.0525 30.8096 29.9066C31.0777 29.9117 31.3454 29.8827 31.6063 29.8202C31.1238 29.6619 30.6357 29.5216 30.1577 29.342C29.5348 29.1041 28.8963 28.8863 28.3102 28.572C26.2454 27.4687 25.7996 25.3171 27.2204 23.4258C28.1018 22.2541 29.3465 21.6457 30.6903 21.2091C34.2071 20.0654 37.5612 21.2259 39.4934 24.2542C39.6647 24.5206 39.812 24.802 39.9335 25.0948C40.6222 26.7785 40.2077 28.0007 38.6098 28.8437C37.9412 29.195 37.2135 29.4318 36.5126 29.8235L43.6609 29.3656C43.4002 28.5631 43.0458 27.8077 42.9165 27.0142C42.6268 25.2351 43.0492 23.5168 43.6375 21.8511C43.9446 21.0296 44.3122 20.2323 44.7373 19.466C44.8633 19.2303 45.1953 19.1057 45.4327 18.9306C45.5597 19.218 45.8193 19.5199 45.7892 19.7904C45.6778 20.7714 45.5051 21.749 45.3001 22.7154C44.8677 24.7581 44.7853 26.7863 45.3513 28.8212C45.4628 29.2219 45.6232 29.3544 46.0322 29.3364C46.8256 29.3016 47.6201 29.3263 48.5561 29.3263C48.4302 28.517 48.3967 27.7673 48.1906 27.0692C47.2546 23.8827 46.937 20.6187 46.9403 17.3177C46.9587 16.5345 47.0759 15.7568 47.2891 15.0033C47.4005 14.5746 47.697 14.166 47.9967 13.8248C48.2965 13.4836 48.6976 13.6003 48.8313 14.0616C48.8973 14.2953 48.9307 14.5371 48.9305 14.78C48.965 19.0395 49.6102 23.2317 50.3111 27.4182C50.4225 28.0995 50.4961 28.7887 50.6031 29.4711C50.6512 29.6973 50.7129 29.9203 50.788 30.1389L50.9875 30.1513C51.0455 29.8718 51.1569 29.5901 51.1502 29.3117C51.1145 27.8358 51.0867 26.3575 50.9853 24.885C50.7468 21.4055 51.4789 18.0686 52.6099 14.8282C53.4167 12.5161 54.8007 11.7271 57.1051 11.9639C57.6199 12.0166 58.1236 12.1625 58.6361 12.2445C59.3872 12.3646 60.1104 12.3343 60.7533 11.8427C61.1478 11.5441 61.2503 11.2141 60.994 10.7842C60.8826 10.5923 60.7544 10.406 60.6508 10.2084C60.4452 9.85413 60.2674 9.48409 60.1193 9.10176C60.0524 8.90197 60.146 8.6528 60.1661 8.41821C60.3711 8.50352 60.604 8.5529 60.7756 8.6831C61.2013 9.00747 61.5735 9.40593 62.0181 9.69326C62.1863 9.8055 62.495 9.69326 62.739 9.69326C62.6755 9.48225 62.6722 9.214 62.5373 9.06808C61.3751 7.81099 60.224 6.53707 58.9983 5.34396C58.0277 4.40002 56.7541 4.07677 55.4481 3.88484C54.2859 3.70974 53.108 3.64464 52.0483 2.98691C51.4188 2.5952 51.0354 2.90947 51.0455 3.66036C51.0455 3.86463 51.0187 4.09248 51.0956 4.27094C51.4009 4.98591 51.012 5.3361 50.4861 5.72221C46.3085 8.79646 41.8724 11.4094 37.2124 13.6834C32.4799 15.9933 28.2556 19.0451 24.8335 23.1407C23.8506 24.3144 23.1025 25.6686 22.6305 27.1286C21.9887 29.085 21.8282 29.177 19.7734 29.1849C17.7677 29.1927 15.753 29.1299 13.7562 29.3151C10.1447 29.6518 7.3734 31.5666 5.14923 34.3659C3.64826 36.2538 2.437 38.2943 1.97122 40.7063C1.90213 41.0655 2.0091 41.4583 2.03362 41.8355C2.35231 41.6525 2.74343 41.5335 2.97521 41.2743C3.45168 40.7275 3.88533 40.1444 4.27226 39.53C5.89024 37.0103 8.97354 35.7745 11.8295 36.5388C12.0958 36.6107 12.4023 36.6735 12.5973 36.8475C13.1399 37.3324 13.7004 37.2516 14.3378 37.1001C15.6906 36.7813 17.0612 36.5332 18.424 36.2515C19.0636 36.1202 19.6498 36.2201 19.9696 36.834C20.4231 37.6983 21.153 38.0586 22.0522 38.2427C23.7794 38.5951 24.8792 39.6816 25.5567 41.2945C26.066 42.5078 25.852 43.5943 25.1667 44.6392C24.3354 45.9053 23.1175 46.6348 21.7023 47.0232C19.0603 47.746 16.3949 47.8616 13.7172 47.2095C12.5796 46.9237 11.5128 46.4044 10.5837 45.6842C9.79702 45.0893 9.46941 45.132 8.73285 45.7964C8.50999 45.9962 8.2927 46.1982 8.08655 46.4137C7.2263 47.3117 6.18331 47.5754 4.98097 47.4104C4.50492 47.3461 4.02272 47.3423 3.54574 47.3992C2.66989 47.5036 1.9857 47.2118 1.42855 46.5451C0.508126 45.4406 0.0668558 44.1487 0.0111403 42.7289C-0.113662 39.5278 0.81233 36.6365 2.6788 34.0628C3.46662 32.9775 4.26001 31.8674 5.21609 30.9403C8.16455 28.0827 11.6301 26.389 15.8299 26.6213C17.1437 26.6943 18.4541 26.8458 19.759 27.0142C20.1924 27.0703 20.3707 26.967 20.5234 26.5585C21.4772 24.0207 23.0406 21.914 24.848 19.9015C28.7269 15.5803 33.5307 12.662 38.6109 10.0637C41.4869 8.59219 44.2359 6.87155 47.0417 5.26314C47.8217 4.81418 48.6018 4.39104 49.3562 3.91626C49.5278 3.80963 49.6515 3.57056 49.7239 3.36516C49.8788 2.92855 49.9467 2.45377 50.1228 2.03063C50.4203 1.34148 50.9251 1.14169 51.6249 1.39086C51.9726 1.51432 52.3046 1.68717 52.64 1.83982C53.4836 2.23715 54.2825 2.2248 55.0469 1.63218C55.354 1.39065 55.681 1.17588 56.0242 0.990163C56.4933 0.742113 56.8298 0.871189 57.0806 1.34709C57.1636 1.47171 57.2187 1.61303 57.2421 1.76125C57.2633 2.61203 57.7547 2.93641 58.498 3.24956C59.3554 3.60297 60.1345 4.12452 60.7901 4.78388C61.8758 5.93397 62.8811 7.15845 63.7987 8.44852C64.7158 9.71683 64.3258 10.8246 62.8371 11.3735C62.417 11.5284 62.1941 11.7102 62.1239 12.1592C62.0643 12.4138 61.971 12.6592 61.8465 12.8887C61.4943 13.6452 60.916 14.0538 60.0703 13.9528C59.2613 13.8551 58.4567 13.7126 57.65 13.5891C56.0899 13.3512 55.2074 13.8652 54.8219 15.3962C54.5899 16.3198 54.4566 17.2657 54.424 18.2179C54.3304 21.089 53.8323 23.9006 53.3331 26.7167C53.1883 27.5372 53.1638 28.379 53.0791 29.2612C54.0307 29.3544 54.8865 29.3734 55.7178 29.5328C57.6477 29.901 59.5655 30.3331 61.4877 30.7428C62.758 31.0133 64.0261 31.2916 65.2953 31.5655C67.2252 31.9841 68.6883 33.0807 69.845 34.6656C70.5481 35.6286 71.3036 36.5534 72.0569 37.4772C72.8102 38.4009 73.1712 39.4447 73.4498 40.5615C73.6559 41.4045 73.6615 41.3955 74.4839 41.2215C76.5721 40.7804 78.6503 40.3169 80.8109 40.3427C83.3738 40.3741 85.5278 41.2204 87.2104 43.1981C87.7776 43.8648 88.3648 44.5158 88.9131 45.1982C89.3153 45.6988 89.3878 46.2645 89.3309 46.9312C89.2507 47.8717 89.3198 48.8392 89.4179 49.7798C89.6663 52.1739 89.7209 54.5612 89.2541 56.9306C88.8852 58.7983 88.4874 60.6626 88.0183 62.5078C87.4611 64.6976 85.5456 66.2421 83.2992 66.4071C79.2988 66.6989 75.3007 67.0176 71.2969 67.2489C69.8194 67.3342 68.3284 67.1523 66.8397 67.1849C63.7776 67.25 60.7177 67.4251 57.6555 67.4621C55.7868 67.4857 53.9081 67.4105 52.0461 67.2489C49.4353 67.0244 46.8646 67.4307 44.276 67.5609C43.1082 67.6193 41.936 67.7091 40.7737 67.7427C37.9181 67.8273 35.0614 67.8976 32.2036 67.9537C30.9941 67.9799 29.7903 67.7797 28.6534 67.3633C27.4967 66.9413 26.349 66.8841 25.1065 67.0985C23.3749 67.3981 21.602 67.452 19.8459 67.5991C19.6412 67.6123 19.4359 67.5844 19.2419 67.5171C18.1621 67.149 17.0501 67.1961 15.9357 67.2017C15.1747 67.2017 14.4125 67.1782 13.6536 67.1243C12.0302 67.0164 10.4769 66.4179 9.1964 65.407C8.28824 64.7066 7.27088 64.1432 6.27691 63.5618C4.6847 62.6299 3.24757 61.452 2.01801 60.0711C1.14997 59.0991 0.873618 57.8263 0.631812 56.5726C0.312005 54.917 0.284152 53.2649 0.775563 51.634C0.880525 51.2761 1.02596 50.9315 1.20902 50.607C1.71604 49.7226 2.37683 49.3881 3.17133 49.5699C3.99926 49.7585 4.75699 50.6261 4.76256 51.5139C4.75199 51.9585 4.65626 52.3967 4.48065 52.8047C4.19427 53.5129 3.79757 54.1751 3.51231 54.8834C3.22705 55.5916 3.39308 55.8049 4.15081 55.7375C5.49912 55.6174 6.84521 55.3929 8.19464 55.3761C10.3542 55.3492 12.2585 56.0619 13.6302 57.8297C14.0938 58.4268 14.4314 59.1272 14.7802 59.8051C14.9685 60.171 15.1713 60.3921 15.6104 60.4101C16.7092 60.4499 17.7762 60.7919 18.6959 61.3989C19.6163 61.9972 21.2265 61.3293 21.4605 60.2765C21.8572 58.4908 22.2071 56.6949 22.538 54.8957C22.6068 54.4336 22.612 53.9641 22.5536 53.5006C22.294 50.7776 23.2434 48.562 25.3795 46.9155C27.7006 45.1263 30.3583 44.2789 33.2644 44.7694C34.0489 44.9222 34.8614 44.8213 35.5855 44.481C37.4798 43.6661 39.3742 42.8187 41.342 42.2609C43.4334 41.6687 45.6539 41.7294 47.7103 42.4348C48.4513 42.684 49.1478 42.4573 49.842 42.2945C51.6371 41.8725 53.4345 41.4875 55.291 41.6155C55.9932 41.6606 56.6906 41.7642 57.3758 41.9253C57.9753 42.07 58.0834 42.3742 57.8494 42.9354C57.5541 43.6481 57.0962 44.2071 56.3741 44.5371C54.5823 45.3527 52.796 46.1806 51.0154 47.021C50.5953 47.2207 50.2197 47.5126 49.8242 47.7617L49.9479 47.938ZM60.6452 56.6029C62.1863 56.6366 63.431 57.3381 64.1174 58.8847C64.3585 59.4505 64.5379 60.041 64.6523 60.6458C64.8373 61.5594 64.8919 62.5022 65.1114 63.4058C65.351 64.3946 66.2647 64.7526 67.1718 64.2947C67.7969 63.9816 68.1646 63.4338 68.3351 62.7896C68.5381 62.0328 68.6871 61.2624 68.7808 60.4842C69.0037 58.5761 69.4316 56.732 70.4389 55.0663C71.5465 53.2391 73.0776 51.7912 74.6298 50.3702C74.9708 50.0582 75.4555 49.8539 75.9091 49.7282C77.117 49.3915 78.2324 49.9931 78.6558 51.1682C79.3066 52.9742 79.9707 54.7666 80.0866 56.7297C80.1312 57.4705 80.4766 58.2517 80.8666 58.8982C81.3057 59.6188 82.0121 59.5133 82.3654 58.7411C82.6428 58.1338 82.8345 57.4851 83.0496 56.8487C83.5343 55.4176 83.9488 53.9596 84.506 52.5578C84.9517 51.4354 85.6771 50.5273 87.0042 50.3219C87.5402 50.24 87.7352 49.8528 87.4912 49.3645C87.2868 48.9253 87 48.5301 86.6466 48.2006C84.9528 46.7415 83.2267 45.3284 81.5018 43.9097C81.0093 43.5045 80.4554 43.4686 79.8849 43.7649C79.671 43.8771 79.4503 43.9759 79.2375 44.0904C79.049 44.2033 78.8362 44.2687 78.6172 44.2812C78.3982 44.2938 78.1795 44.2529 77.9795 44.1622C77.55 43.9984 77.0853 43.9519 76.6323 44.0275C75.8689 44.1622 75.1346 44.4507 74.3769 44.6291C74.154 44.683 73.8197 44.6718 73.6615 44.5393C72.8926 43.885 72.0268 43.7806 71.0986 43.9781C69.4828 44.3148 67.8671 44.6583 66.2591 45.0242C65.303 45.2408 64.2812 45.3486 63.421 45.7751C58.6231 48.1616 53.512 49.8468 48.2418 50.7799C46.1425 51.1548 44.0186 51.5061 42.102 52.5196C39.7207 53.7789 37.3383 55.0416 35.0183 56.411C32.8053 57.7163 30.8764 59.3932 29.4468 61.574C29.079 62.1352 28.8774 62.8176 28.6746 63.4686C28.5342 63.9176 28.8105 64.2476 29.2172 64.4575C30.0463 64.884 30.638 64.6034 31.1717 63.5247C31.7177 62.4225 32.5345 62.1386 33.5809 62.7873C34.1247 63.124 34.5715 63.6201 35.0618 64.0444C35.5521 64.4687 36.0379 64.9681 36.5839 65.3419C37.072 65.6786 37.4431 65.5293 37.7372 65.0164C37.8854 64.7571 38.0091 64.4844 38.1495 64.2218C38.7914 63.023 39.4143 62.8255 40.5888 63.5203C40.7969 63.658 41.038 63.7369 41.2868 63.7485C41.5356 63.7602 41.7829 63.7042 42.0028 63.5865C43.2798 62.9879 44.5642 62.4061 45.8561 61.8411C46.3126 61.6349 46.7902 61.4794 47.2802 61.3776C48.2307 61.1946 49.2559 61.134 49.9679 61.867C50.5908 62.5101 51.2382 62.757 52.0762 62.7189C52.355 62.7154 52.6333 62.7451 52.9052 62.8075C53.2395 62.876 53.4122 62.7301 53.6262 62.4652C54.8308 60.9735 56.0309 59.4751 57.3168 58.0564C58.1503 57.1304 59.2568 56.6276 60.6475 56.6085L60.6452 56.6029ZM33.4081 28.1579C34.1402 28.0243 35.1643 27.9334 36.1204 27.6326C37.0765 27.3318 37.491 26.398 37.0531 25.6246C36.6394 24.8708 36.0767 24.2105 35.3998 23.6842C34.7229 23.158 33.9461 22.7771 33.1173 22.565C32.8799 22.5195 32.636 22.5195 32.3986 22.565C30.8073 22.7625 29.342 24.1812 28.9442 25.8918C28.7147 26.8828 29.0267 27.4631 30.0262 27.6629C31.0258 27.8627 32.0843 27.9671 33.4081 28.1579ZM55.7412 2.64458C55.7612 2.70856 55.7813 2.77254 55.8024 2.83651C56.0142 2.80172 56.3061 2.83651 56.4131 2.71193C56.5201 2.58734 56.4064 2.30898 56.3919 2.09685L56.2393 2.08001L55.7412 2.64458Z" fill="#E03823" stroke="#E03823" stroke-width="2" mask="url(#path-1-inside-1_684_3608)"/>
<path d="M41.5158 75.4248L41.4957 75.8704L41.4857 76.0927L41.4689 76.4656L41.1065 76.5554C40.8773 76.6122 40.6453 76.6571 40.4115 76.6899L40.4007 76.6914L40.3898 76.6924C39.6187 76.7663 38.8507 76.8344 38.0847 76.9022C36.4497 77.0471 34.8242 77.1911 33.1997 77.3892C32.3909 77.4879 31.6033 77.7091 30.776 77.9415C30.709 77.9603 30.6417 77.9792 30.5741 77.9981C30.8572 78.0314 31.1425 78.0446 31.4279 78.0375C32.1921 78.003 32.9553 77.9707 33.7177 77.9385C36.2359 77.832 38.7452 77.7259 41.2514 77.5413L41.2516 77.5413C42.2434 77.4686 43.2383 77.3863 44.2359 77.3038C47.5865 77.0265 50.9672 76.7468 54.3609 76.8217L41.5158 75.4248ZM41.5158 75.4248L41.0754 75.3542M41.5158 75.4248L41.0754 75.3542M41.0754 75.3542C40.812 75.3119 40.5457 75.2674 40.2775 75.2226M41.0754 75.3542L40.2775 75.2226M12.0641 75.114C15.2645 75.6696 18.514 75.6534 21.7432 75.2695L21.7433 75.2694C22.1698 75.2188 22.5973 75.1661 23.0259 75.1132C25.6696 74.787 28.3531 74.456 31.0827 74.5807L31.0827 74.5807C32.0605 74.6254 33.0255 74.6548 33.9948 74.6844C34.7608 74.7078 35.5295 74.7313 36.3093 74.7624L36.3095 74.7624C36.9852 74.7897 37.6698 74.8354 38.3518 74.9244L12.0641 75.114ZM12.0641 75.114C11.6459 75.041 11.2268 74.8924 10.7857 74.7068C10.5813 74.6208 10.3775 74.5293 10.1674 74.4349C10.1511 74.4275 10.1346 74.4201 10.1182 74.4127C10.0157 74.3667 9.91173 74.3201 9.80676 74.2739C10.2805 74.1772 10.7218 74.0934 11.1639 74.077C12.2433 74.0384 13.3238 73.9543 14.3923 73.8712C14.7667 73.842 15.1395 73.813 15.5104 73.7861C16.9482 73.6818 18.3695 73.6078 19.7941 73.6705C21.6655 73.7551 23.5481 73.7201 25.411 73.6855C26.037 73.6738 26.6607 73.6622 27.2811 73.6552L12.0641 75.114ZM10.4051 71.0727C12.8818 71.2375 15.3588 71.3568 17.841 71.4763C18.9534 71.5299 20.0669 71.5835 21.1818 71.6413L21.1819 71.6413C23.2759 71.7502 25.3725 71.8625 27.4688 71.9997L27.469 71.9997C27.8371 72.024 28.2305 72.1138 28.5715 72.1917C28.7091 72.2231 28.8381 72.2525 28.9534 72.275L29.3789 72.3576L29.3574 72.7906L29.3463 73.015L29.325 73.4446L28.897 73.4877C28.7239 73.5052 28.556 73.5281 28.3785 73.5524C28.2969 73.5635 28.2132 73.575 28.126 73.5863C27.859 73.6209 27.5737 73.6521 27.2812 73.6552C27.2813 73.6552 27.2813 73.6552 27.2814 73.6552L10.4051 71.0727ZM10.4051 71.0727C9.69392 71.025 8.98315 70.7864 8.21528 70.5286C8.12954 70.4998 8.04308 70.4708 7.95584 70.4418C7.74762 70.372 7.57704 70.2789 7.47077 70.1734C7.3794 70.0827 7.33661 69.9879 7.34939 69.8498C7.35602 69.7782 7.3751 69.7426 7.38967 69.7225C7.4062 69.6996 7.4356 69.6714 7.49236 69.6412C7.62166 69.5724 7.80834 69.5339 8.05711 69.4969L8.05777 69.4968L8.07204 69.4947C8.8273 69.3815 9.53542 69.2753 10.218 69.3163L10.2183 69.3163C13.4008 69.5053 16.5632 69.4292 19.7315 69.2456C21.9061 69.1221 24.0839 69.1816 26.2857 69.2418C27.2201 69.2673 28.1589 69.293 29.1036 69.3048L29.1037 69.3048C29.9762 69.3156 30.8483 69.3252 31.7201 69.3347C34.2821 69.3627 36.8409 69.3906 39.3997 69.4517L10.4051 71.0727ZM68.9742 69.1932C68.1395 69.2327 67.3066 69.314 66.4588 69.3968L66.3385 69.4085C65.4535 69.4948 64.5527 69.5805 63.6442 69.6143L63.6435 69.6143C63.4307 69.6219 63.2179 69.6295 63.0051 69.6372C59.7325 69.7548 56.4439 69.8729 53.1571 69.8391L53.1567 69.8391C50.3672 69.8083 47.5688 69.713 44.7771 69.6178C42.9806 69.5566 41.1868 69.4955 39.3997 69.4517L68.9742 69.1932ZM68.9742 69.1932C69.6472 69.1621 70.3258 69.1753 71.0205 69.1941C71.106 69.1964 71.1918 69.1988 71.2779 69.2012C71.8859 69.2182 72.5072 69.2356 73.1279 69.2251L68.9742 69.1932ZM83.8488 68.8604C84.4088 68.877 84.9602 69.0048 85.4713 69.2366L85.4713 69.2367L85.4822 69.2414C85.8779 69.4097 86.0777 69.6542 86.1469 69.8832C86.2148 70.1077 86.1835 70.4039 85.9416 70.7382C85.5104 71.3327 84.974 71.8415 84.3595 72.2393C82.5492 73.387 80.468 73.83 78.2871 74.2464C76.1734 74.6365 74.0176 74.7407 71.8766 74.5562L71.8728 74.5559C70.1274 74.4188 68.4822 74.6494 66.8921 75.6249C64.9685 76.8044 62.7444 76.9372 60.4141 76.9586L60.4139 76.9586C59.0946 76.971 57.7851 76.9274 56.4629 76.8834C55.7669 76.8603 55.0674 76.837 54.3611 76.8217L83.8488 68.8604ZM83.8488 68.8604C81.5192 68.8716 79.1874 68.951 76.8492 69.0306L76.748 69.034L76.7478 69.034C76.2152 69.0519 75.6828 69.0876 75.1406 69.124C75.08 69.1281 75.0194 69.1321 74.9586 69.1362C74.3569 69.1763 73.7441 69.2147 73.128 69.2251L83.8488 68.8604ZM40.2775 75.2226C39.642 75.1163 38.9958 75.0082 38.3521 74.9245L40.2775 75.2226Z" fill="#E03823" stroke="#E03823"/>
<path d="M44.9062 36.7166L44.7122 37.1774C44.6305 37.143 44.5506 37.1175 44.4489 37.0851C44.4129 37.0736 44.3742 37.0612 44.3317 37.0473C41.456 36.1222 38.4981 35.669 34.9691 35.6029C34.8276 35.6151 34.6599 35.6273 34.4726 35.6409C33.9085 35.6819 33.1655 35.7359 32.4171 35.8411C31.2919 36.0023 30.3104 36.3233 29.5997 37.1192L29.5995 37.1193C28.9202 37.8794 28.6847 38.7124 29.015 39.6265L29.0154 39.6276C29.3131 40.4579 30.0048 40.8163 30.9982 40.9317L30.9993 40.9319C31.8596 41.0337 32.68 40.7787 33.5553 40.4117L33.5562 40.4113C35.0043 39.8077 36.5118 39.3626 38.1635 39.3626H38.1649C38.8986 39.3647 39.6366 39.293 40.4005 39.2187C40.4532 39.2136 40.5061 39.2085 40.559 39.2033L40.6072 39.701C40.5525 39.7063 40.4978 39.7116 40.4431 39.7169C39.6849 39.7907 38.9232 39.8647 38.1635 39.8626C36.6035 39.8626 35.1649 40.2824 33.7486 40.8728C32.8571 41.2466 31.9356 41.5462 30.9405 41.4284C29.8585 41.3027 28.9348 40.884 28.5448 39.7964C28.1392 38.674 28.4523 37.6526 29.2267 36.7861C30.0547 35.859 31.179 35.5133 32.3468 35.3461C33.114 35.2382 33.8868 35.1821 34.4526 35.1409C34.6461 35.1269 34.8154 35.1146 34.9521 35.1025C38.5335 35.1676 41.5488 35.6267 44.4861 36.5718C44.5189 36.5825 44.5519 36.593 44.585 36.6036C44.6933 36.6381 44.802 36.6727 44.9062 36.7166ZM44.9062 36.7166C44.9735 36.745 45.0438 36.7718 45.1148 36.7988C45.508 36.9486 45.9206 37.1056 45.9414 37.601L45.4418 37.6213C45.4418 37.6215 45.4418 37.6217 45.4418 37.6219M44.9062 36.7166L44.7113 37.177C44.7844 37.208 44.8752 37.2426 44.954 37.2727C44.9962 37.2888 45.035 37.3036 45.0657 37.3158C45.1736 37.3587 45.2539 37.3956 45.3158 37.434C45.3755 37.4712 45.4022 37.5002 45.4151 37.5196C45.425 37.5344 45.4393 37.5614 45.4418 37.6219M45.4418 37.6219C45.447 37.752 45.4047 37.8398 45.3047 37.9347C45.1842 38.049 45.0045 38.1476 44.7633 38.2642L45.4418 37.6219Z" fill="#E03823" stroke="#E03823"/>
<path d="M11.5138 53.2557C10.9082 52.8654 10.2818 52.5091 9.63718 52.1884C9.35499 52.0459 9.30986 51.9563 9.30541 51.9442C9.30466 51.9421 9.30386 51.9394 9.30357 51.9339C9.30325 51.9278 9.30339 51.9146 9.30814 51.8923C9.31824 51.8446 9.34705 51.7656 9.41853 51.6476L9.41908 51.6467C10.0062 50.673 10.7193 50.0067 11.7788 49.8469L11.7789 49.8469C12.4848 49.7403 13.193 49.6305 13.9517 49.5128C14.3797 49.4465 14.8238 49.3776 15.2926 49.3055C15.5122 49.354 15.7339 49.3964 15.9568 49.439C16.5171 49.5463 17.0849 49.6549 17.6444 49.8653C19.1304 50.4262 20.0589 51.9382 19.9954 53.5782C19.9258 55.2202 18.4421 56.4328 16.7018 56.1165C15.9426 55.9658 15.2136 55.6887 14.5446 55.2964L14.5446 55.2964L14.5411 55.2944C14.0326 55.0016 13.5424 54.6669 13.043 54.3153C12.9369 54.2406 12.8301 54.1649 12.7225 54.0887C12.3293 53.8101 11.9267 53.5248 11.5159 53.2571L11.5138 53.2557Z" fill="#E03823" stroke="#E03823"/>
<path d="M67.176 22.7728H66.7693C66.6675 22.7728 66.5742 22.7713 66.4859 22.77C66.3088 22.7672 66.152 22.7648 65.9875 22.775C64.8421 22.8589 63.7029 22.9435 62.5659 23.05C63.2025 23.3189 63.8956 23.4069 64.6413 23.3793L67.176 22.7728ZM67.176 22.7728L67.2588 22.3746M67.176 22.7728L67.2588 22.3746M67.2588 22.3746C67.3099 22.1289 67.3509 21.9028 67.3896 21.6897C67.4705 21.2434 67.541 20.8547 67.6722 20.4646L67.6723 20.4647M67.2588 22.3746L67.6723 20.4647M67.6723 20.4647L67.6752 20.4555M67.6723 20.4647L67.6752 20.4555M67.6752 20.4555C67.7194 20.3151 67.7931 20.1498 67.8783 20.0191C67.9205 19.9543 67.9586 19.9089 67.9882 19.881C67.9911 19.8782 67.9939 19.8757 67.9964 19.8735C68.0029 19.8798 68.0109 19.8884 68.0205 19.8997C68.058 19.9441 68.0996 20.0083 68.1499 20.0989C68.1744 20.143 68.1985 20.1889 68.2248 20.2391L68.231 20.2509C68.2543 20.2954 68.2797 20.344 68.3054 20.3908C68.4133 20.5923 68.4991 20.7932 68.6034 21.0373C68.6545 21.1572 68.7102 21.2874 68.7751 21.4333L69.0077 21.9563L69.4947 21.6554C69.6012 21.5896 69.6986 21.5346 69.801 21.4767C69.852 21.4479 69.9042 21.4184 69.9595 21.3865C70.1149 21.2967 70.2829 21.194 70.4402 21.0647M67.6752 20.4555L70.4402 21.0647M70.4402 21.0647C71.5787 20.1322 72.7087 19.1893 73.8302 18.2358C74.0793 18.027 74.1932 17.9973 74.2394 17.9957C74.2636 17.9948 74.3575 17.9975 74.5745 18.206C74.9462 18.5649 75.2738 18.9674 75.5505 19.405C76.4778 20.9071 77.8244 22.1012 79.4223 22.8375C79.9143 23.0738 80.3839 23.3548 80.8252 23.6771C80.6139 23.6743 80.4055 23.6733 80.1997 23.6723C79.3775 23.6684 78.5947 23.6647 77.8244 23.5484C75.7845 23.2395 73.7621 23.3673 71.7958 23.4916C71.7154 23.4966 71.6352 23.5017 71.5551 23.5068C70.1243 23.5958 68.7759 23.6693 67.4177 23.403C66.6891 23.2588 65.9043 23.3065 65.2045 23.3491C65.0092 23.361 64.8204 23.3725 64.6414 23.3793L70.4402 21.0647ZM76.4872 22.9142H77.6127L76.8582 22.079C76.7245 21.931 76.5881 21.7783 76.449 21.6226C75.9661 21.082 75.4508 20.505 74.9033 19.9632L74.902 19.962C74.7879 19.8499 74.6516 19.7931 74.5513 19.7626C74.4438 19.73 74.332 19.7139 74.228 19.709C74.041 19.7001 73.7802 19.7235 73.5697 19.8471L73.5697 19.8471L73.5673 19.8485C72.7565 20.3308 71.9781 20.8684 71.2214 21.3945C71.072 21.4958 70.963 21.625 70.8792 21.7295C70.8492 21.7669 70.8213 21.8025 70.7934 21.8381C70.733 21.9153 70.6727 21.9925 70.5908 22.0873L69.8764 22.9142H70.9691H76.4872Z" fill="#E03823" stroke="#E03823"/>
<path d="M54.6267 37.7053C58.3061 37.2931 61.9381 37.7889 65.5477 38.7167C64.8373 38.8204 64.1222 38.8887 63.4051 38.9211C59.8451 39.0335 56.2817 38.9489 52.7309 38.6676C52.3821 38.6381 52.0331 38.6305 51.7018 38.6234C51.6824 38.623 51.663 38.6225 51.6437 38.6221C51.3123 38.6149 50.9976 38.6067 50.6877 38.5791C50.9312 38.5166 51.1722 38.4531 51.4114 38.39C52.5007 38.1028 53.5528 37.8254 54.6266 37.7054L54.6267 37.7053Z" fill="#E03823" stroke="#E03823"/>
<path d="M40.9053 21.4753L40.8913 21.4948L40.8792 21.5156C40.8502 21.5656 40.811 21.6082 40.7646 21.6408C40.7309 21.6556 40.6975 21.6699 40.6644 21.683C40.6521 21.6879 40.6403 21.6924 40.6291 21.6966C40.6168 21.6682 40.6089 21.6381 40.6056 21.6072C40.6181 21.324 40.6668 21.0437 40.7507 20.7732L40.7543 20.7615L40.7574 20.7496C40.8918 20.2266 41.0222 19.7055 41.1521 19.1864C41.4564 17.9703 41.7581 16.7648 42.103 15.5693L42.1031 15.5693L42.1056 15.5597C42.2239 15.1168 42.4314 14.7033 42.7148 14.345C42.9979 13.9871 43.3507 13.6918 43.7512 13.4772C44.0938 13.2972 44.4632 13.1747 44.8447 13.1145C44.956 13.0982 45.0215 13.1054 45.0553 13.1142C45.0824 13.1212 45.0916 13.1293 45.0996 13.1384C45.1279 13.1704 45.1976 13.2947 45.201 13.6408C45.1061 14.0185 44.9912 14.3909 44.8568 14.7562C43.8774 17.1649 42.4439 19.3295 40.9053 21.4753Z" fill="#E03823" stroke="#E03823"/>
<path d="M77.2107 65.1062L77.2453 64.6074C77.189 64.6035 77.1302 64.5953 77.067 64.5833C77.1079 64.5261 77.133 64.5051 77.145 64.4979L77.1458 64.4975C77.9722 64.0049 78.9539 63.8496 79.8899 64.0627L79.8899 64.0628L79.8984 64.0646C80.7055 64.2338 81.4946 64.4505 82.3008 64.6719C82.4772 64.7203 82.6544 64.769 82.8327 64.8174C82.7508 64.8149 82.666 64.8127 82.5917 64.8127H82.4666C82.2856 64.7845 82.1015 64.7543 81.9152 64.7238C81.3071 64.6241 80.6755 64.5206 80.0513 64.4687L80.0511 64.4687C79.4938 64.4226 78.9206 64.4467 78.3862 64.4692C78.2216 64.4761 78.0606 64.4829 77.9049 64.4874L77.9049 64.4874L77.903 64.4875C77.7337 64.493 77.5693 64.5366 77.4677 64.5635C77.4567 64.5664 77.4464 64.5691 77.437 64.5716C77.3127 64.6038 77.269 64.609 77.2446 64.6073L77.2107 65.1062ZM77.2107 65.1062C77.3364 65.1147 77.464 65.0813 77.5924 65.0477C77.701 65.0194 77.8102 64.9908 77.9194 64.9872L76.8048 65.0378C76.9395 65.0703 77.0746 65.0967 77.2107 65.1062ZM83.3854 64.9705C83.4234 65.0039 83.4603 65.0385 83.4973 65.0747L83.5333 65.3004L83.3854 64.9705Z" fill="#E03823" stroke="#E03823"/>
<path d="M37.8168 18.1308L37.816 18.1308C37.1217 18.1164 36.6914 17.6516 36.6921 17.1341V17.1334C36.6921 16.5714 37.2331 16.0281 37.9185 16.0395C38.2054 16.0472 38.4787 16.1679 38.6792 16.377C38.8803 16.5867 38.9921 16.8683 38.9894 17.1613L38.9894 17.1614C38.9846 17.6937 38.5468 18.1471 37.8168 18.1308Z" fill="#E03823" stroke="#E03823"/>
<path d="M58.9799 7.23397L58.98 7.2342C59.1336 7.51191 59.1363 7.65815 59.1211 7.7251L59.1023 7.67767C58.8799 7.11713 58.5376 6.73771 58.1347 6.47024C58.4882 6.61464 58.7683 6.85102 58.9799 7.23397Z" fill="#E03823" stroke="#E03823"/>
<path d="M51.4151 9.19219L51.4143 9.1922C51.1488 9.19479 50.8772 9.31157 50.6746 9.49834C50.4692 9.68763 50.3801 9.90352 50.3868 10.0756L51.4151 9.19219ZM51.4151 9.19219C51.5994 9.19009 51.717 9.24696 51.7868 9.31249C51.8557 9.3772 51.915 9.48477 51.9203 9.65596L51.4151 9.19219ZM51.9203 9.65613C51.9252 9.81879 51.841 10.0181 51.6452 10.1914C51.4516 10.3627 51.1872 10.4715 50.9194 10.4707V10.4707H50.918C50.5467 10.4707 50.3942 10.2623 50.3868 10.0756L51.9203 9.65613Z" fill="#E03823" stroke="#E03823"/>
<path d="M51.3647 7.07353C51.3647 7.07404 51.3647 7.07456 51.3647 7.0751C51.3642 7.08373 51.3622 7.08814 51.3622 7.08814C51.3622 7.08814 51.3639 7.08451 51.37 7.0771L51.3647 7.0728L51.3647 7.07353ZM51.3647 7.07353L50.9841 6.75907L51.3647 7.07353ZM51.3739 7.07236C51.7458 6.62294 52.1603 6.20799 52.5956 5.79029C52.3387 6.30159 52.0705 6.72956 51.6421 7.04917C51.5914 7.07855 51.5384 7.10345 51.4837 7.12361C51.4236 7.11204 51.3897 7.08777 51.3739 7.07236Z" fill="#E03823" stroke="#E03823"/>
<mask id="path-13-inside-2_684_3608" fill="white">
<path d="M55.8757 8.29947C55.665 8.41179 55.452 8.61846 55.2435 8.61397C55.0851 8.61397 54.9323 8.3399 54.7773 8.18827C54.958 8.01979 55.1186 7.75696 55.3238 7.71652C55.4799 7.68507 55.6906 7.94116 55.8813 8.06472L55.8757 8.29947Z"/>
</mask>
<path d="M55.8757 8.29947C55.665 8.41179 55.452 8.61846 55.2435 8.61397C55.0851 8.61397 54.9323 8.3399 54.7773 8.18827C54.958 8.01979 55.1186 7.75696 55.3238 7.71652C55.4799 7.68507 55.6906 7.94116 55.8813 8.06472L55.8757 8.29947Z" fill="#E03823"/>
<path d="M55.8757 8.29947L56.3461 9.18196L56.8616 8.90723L56.8754 8.32324L55.8757 8.29947ZM55.2435 8.61397L55.265 7.6142L55.2542 7.61397H55.2435V8.61397ZM54.7773 8.18827L54.0953 7.45697L53.3297 8.171L54.078 8.9031L54.7773 8.18827ZM55.3238 7.71652L55.5171 8.69766L55.5212 8.69683L55.3238 7.71652ZM55.8813 8.06472L56.881 8.08848L56.8943 7.52952L56.4251 7.22549L55.8813 8.06472ZM55.4054 7.41697C55.3073 7.46927 55.2205 7.52615 55.1642 7.56355C55.1493 7.57345 55.1345 7.58333 55.1218 7.59187C55.1084 7.60078 55.0969 7.60849 55.0857 7.6159C55.0632 7.63082 55.047 7.64126 55.0339 7.64933C55.0043 7.66757 55.0097 7.66162 55.0374 7.65081C55.0669 7.63932 55.1483 7.61169 55.265 7.6142L55.2219 9.61374C55.6396 9.62274 55.962 9.42672 56.0836 9.35172C56.1555 9.30741 56.2341 9.25385 56.2705 9.2297C56.3199 9.1969 56.3388 9.18583 56.3461 9.18196L55.4054 7.41697ZM55.2435 7.61397C55.4963 7.61397 55.661 7.72207 55.7096 7.75699C55.7392 7.77827 55.7568 7.79496 55.7616 7.79958C55.7668 7.80464 55.7662 7.8045 55.7582 7.79548C55.7503 7.78657 55.7396 7.77394 55.7234 7.75425C55.7154 7.74456 55.7072 7.73441 55.6974 7.72247C55.6882 7.71109 55.6773 7.69771 55.6662 7.68428C55.6262 7.63548 55.5578 7.5528 55.4766 7.47344L54.078 8.9031C54.0744 8.89956 54.0832 8.908 54.1204 8.95323C54.1453 8.98356 54.2052 9.05839 54.2601 9.12049C54.3152 9.18278 54.4121 9.28737 54.5417 9.38057C54.6682 9.47161 54.9115 9.61397 55.2435 9.61397V7.61397ZM55.4594 8.91958C55.5409 8.84356 55.611 8.76565 55.6564 8.71472C55.6853 8.68229 55.6978 8.66805 55.7198 8.64345C55.7381 8.62313 55.7513 8.60883 55.7619 8.59782C55.7863 8.57247 55.7811 8.58141 55.7536 8.60079C55.7245 8.6213 55.6437 8.6727 55.5171 8.69765L55.1304 6.73539C54.6984 6.82052 54.4201 7.10779 54.3208 7.21093C54.2593 7.27488 54.1957 7.34775 54.1637 7.38362C54.1218 7.43062 54.1041 7.44874 54.0953 7.45697L55.4594 8.91958ZM55.5212 8.69683C55.3879 8.72369 55.2721 8.71474 55.1878 8.6978C55.1061 8.6814 55.0473 8.65631 55.0161 8.6413C54.9842 8.62591 54.9651 8.61323 54.9615 8.61082C54.9573 8.60799 54.9598 8.60942 54.9714 8.61851C54.9828 8.62753 54.9976 8.63962 55.0193 8.65788C55.0343 8.67046 55.0715 8.70191 55.0951 8.72162C55.1481 8.76581 55.2359 8.83811 55.3375 8.90395L56.4251 7.22549C56.4314 7.22955 56.4214 7.2235 56.3763 7.18591C56.3486 7.16275 56.2706 7.09588 56.2078 7.04648C56.1429 6.99545 56.0279 6.90867 55.8837 6.83927C55.7458 6.77286 55.4687 6.66724 55.1263 6.73621L55.5212 8.69683ZM54.8816 8.04095L54.876 8.2757L56.8754 8.32324L56.881 8.08848L54.8816 8.04095Z" fill="#E03823" mask="url(#path-13-inside-2_684_3608)"/>
<mask id="path-15-inside-3_684_3608" fill="white">
<path d="M57.7562 9.98913C57.6347 10.0621 57.5711 10.134 57.5142 10.1284C57.2544 10.1015 56.9957 10.0532 56.7336 10.0161C56.7693 9.92399 56.7827 9.77797 56.8452 9.75101C57.1708 9.60949 57.4719 9.63307 57.7562 9.98913Z"/>
</mask>
<path d="M57.7562 9.98913C57.6347 10.0621 57.5711 10.134 57.5142 10.1284C57.2544 10.1015 56.9957 10.0532 56.7336 10.0161C56.7693 9.92399 56.7827 9.77797 56.8452 9.75101C57.1708 9.60949 57.4719 9.63307 57.7562 9.98913Z" fill="#E03823"/>
<path d="M57.7562 9.98913L58.2711 10.8464L59.2507 10.258L58.5376 9.3651L57.7562 9.98913ZM57.5142 10.1284L57.411 11.1231L57.416 11.1236L57.5142 10.1284ZM56.7336 10.0161L55.8012 9.65483L55.346 10.8298L56.5936 11.0062L56.7336 10.0161ZM56.8452 9.75101L57.2415 10.6691L57.2438 10.6681L56.8452 9.75101ZM57.2413 9.13189C57.1819 9.16758 57.1331 9.20105 57.098 9.22583C57.0814 9.23756 57.0656 9.24901 57.0567 9.25536C57.0517 9.25901 57.0484 9.26139 57.0457 9.26329C57.0431 9.26515 57.0422 9.26576 57.0424 9.2656C57.0427 9.26543 57.0449 9.2639 57.0486 9.26147C57.0523 9.25905 57.0584 9.25512 57.0664 9.25025C57.0814 9.24121 57.1106 9.22436 57.1507 9.2064C57.2283 9.1717 57.3941 9.11169 57.6125 9.13325L57.416 11.1236C57.6628 11.1479 57.8578 11.0811 57.9672 11.0322C58.0707 10.9859 58.1498 10.9314 58.1795 10.9109C58.2776 10.8431 58.2449 10.8621 58.2711 10.8464L57.2413 9.13189ZM57.6174 9.13375C57.3764 9.10874 57.2 9.07209 56.8737 9.02595L56.5936 11.0062C56.7914 11.0342 57.1325 11.0942 57.411 11.1231L57.6174 9.13375ZM57.6661 10.3774C57.6962 10.2997 57.7154 10.2278 57.7233 10.1983C57.7257 10.1893 57.728 10.1806 57.7297 10.1742C57.7316 10.1671 57.7329 10.1622 57.7341 10.1576C57.7366 10.1483 57.737 10.1471 57.7362 10.1498C57.7354 10.1523 57.7315 10.1652 57.7241 10.1843C57.717 10.2026 57.7027 10.237 57.6789 10.2794C57.6414 10.3464 57.5159 10.5507 57.2415 10.6691L56.4488 8.8329C56.1432 8.96484 55.9925 9.19751 55.9339 9.30229C55.8701 9.41619 55.8367 9.52178 55.8225 9.56844C55.8083 9.61534 55.793 9.67503 55.7914 9.68089C55.7848 9.70554 55.7889 9.68642 55.8012 9.65483L57.6661 10.3774ZM57.2438 10.6681C57.2908 10.6477 57.2266 10.6872 57.1051 10.661C57.0466 10.6483 57.0022 10.6257 56.9756 10.6076C56.9519 10.5914 56.9533 10.5863 56.9748 10.6132L58.5376 9.3651C58.2934 9.05936 57.9616 8.79979 57.5272 8.706C57.1027 8.61435 56.7251 8.71283 56.4465 8.83389L57.2438 10.6681Z" fill="#E03823" mask="url(#path-15-inside-3_684_3608)"/>
<mask id="path-17-inside-4_684_3608" fill="white">
<path d="M58.6709 10.8394C58.5594 10.9337 58.4479 11.109 58.3364 11.1056C58.1267 11.0977 57.9204 10.9933 57.7119 10.9203L57.7521 10.6866L58.5739 10.6484L58.6709 10.8394Z"/>
</mask>
<path d="M58.6709 10.8394C58.5594 10.9337 58.4479 11.109 58.3364 11.1056C58.1267 11.0977 57.9204 10.9933 57.7119 10.9203L57.7521 10.6866L58.5739 10.6484L58.6709 10.8394Z" fill="#E03823"/>
<path d="M58.6709 10.8394L59.3168 11.6028L59.9208 11.0918L59.5624 10.3864L58.6709 10.8394ZM58.3364 11.1056L58.2989 12.1049L58.3062 12.1051L58.3364 11.1056ZM57.7119 10.9203L56.7264 10.7509L56.5831 11.5846L57.3815 11.8641L57.7119 10.9203ZM57.7521 10.6866L57.7056 9.6877L56.9026 9.72502L56.7665 10.5173L57.7521 10.6866ZM58.5739 10.6484L59.4654 10.1955L59.1728 9.61953L58.5275 9.64952L58.5739 10.6484ZM58.025 10.076C57.9502 10.1393 57.889 10.2041 57.8588 10.2362C57.815 10.2828 57.8111 10.2876 57.8002 10.2983C57.7907 10.3078 57.8245 10.2717 57.8899 10.2307C57.9548 10.1902 58.1239 10.0987 58.3666 10.106L58.3062 12.1051C58.6046 12.1141 58.8295 12.002 58.9501 11.9266C59.0713 11.8508 59.1608 11.7657 59.2071 11.7199C59.2519 11.6755 59.3038 11.619 59.3157 11.6063C59.3413 11.5791 59.3359 11.5867 59.3168 11.6028L58.025 10.076ZM58.3739 10.1063C58.4159 10.1079 58.4216 10.1171 58.3531 10.0931C58.3204 10.0817 58.2848 10.068 58.2302 10.0468C58.1812 10.0278 58.1132 10.0012 58.0424 9.97643L57.3815 11.8641C57.4148 11.8758 57.4509 11.8897 57.5058 11.911C57.5551 11.9302 57.6232 11.9567 57.6944 11.9816C57.8335 12.0301 58.0473 12.0954 58.2989 12.1049L58.3739 10.1063ZM58.6975 11.0896L58.7376 10.856L56.7665 10.5173L56.7264 10.7509L58.6975 11.0896ZM57.7985 11.6855L58.6203 11.6474L58.5275 9.64952L57.7056 9.6877L57.7985 11.6855ZM57.6824 11.1014L57.7794 11.2923L59.5624 10.3864L59.4654 10.1955L57.6824 11.1014Z" fill="#E03823" mask="url(#path-17-inside-4_684_3608)"/>
<mask id="path-19-inside-5_684_3608" fill="white">
<path d="M57.7208 9.87259C58.1669 9.55247 58.4278 9.59178 58.7055 10.1365L57.7119 10.0478C57.7141 9.9894 57.7175 9.93099 57.7208 9.87259Z"/>
</mask>
<path d="M57.7208 9.87259C58.1669 9.55247 58.4278 9.59178 58.7055 10.1365L57.7119 10.0478C57.7141 9.9894 57.7175 9.93099 57.7208 9.87259Z" fill="#E03823"/>
<path d="M57.7208 9.87259L57.1378 9.06016L56.7498 9.33861L56.7225 9.8154L57.7208 9.87259ZM58.7055 10.1365L58.6165 11.1326L60.4176 11.2934L59.5964 9.68243L58.7055 10.1365ZM57.7119 10.0478L56.7126 10.0097L56.6764 10.9593L57.623 11.0438L57.7119 10.0478ZM58.3039 10.685C58.3783 10.6316 58.3927 10.6323 58.3614 10.6435C58.3193 10.6586 58.1984 10.6905 58.0397 10.6519C57.882 10.6134 57.7926 10.531 57.7672 10.5039C57.7487 10.4841 57.7673 10.498 57.8145 10.5907L59.5964 9.68243C59.4405 9.37651 59.1291 8.85866 58.5129 8.70862C57.8933 8.55777 57.3866 8.8816 57.1378 9.06016L58.3039 10.685ZM58.7944 9.14051L57.8009 9.05177L57.623 11.0438L58.6165 11.1326L58.7944 9.14051ZM58.7112 10.086C58.713 10.0387 58.7158 9.98992 58.7192 9.92977L56.7225 9.8154C56.7192 9.87207 56.7153 9.94009 56.7126 10.0097L58.7112 10.086Z" fill="#E03823" mask="url(#path-19-inside-5_684_3608)"/>
<mask id="path-21-inside-6_684_3608" fill="white">
<path d="M56.8708 10.6484L57.5767 10.9416C57.4652 11.0404 57.3324 11.2392 57.2522 11.219C57.0659 11.1719 56.9054 11.0191 56.7336 10.909L56.8708 10.6484Z"/>
</mask>
<path d="M56.8708 10.6484L57.5767 10.9416C57.4652 11.0404 57.3324 11.2392 57.2522 11.219C57.0659 11.1719 56.9054 11.0191 56.7336 10.909L56.8708 10.6484Z" fill="#E03823"/>
<path d="M56.8708 10.6484L57.2544 9.72492L56.4112 9.37472L55.9859 10.1827L56.8708 10.6484ZM57.5767 10.9416L58.24 11.6899L59.4351 10.6306L57.9602 10.0181L57.5767 10.9416ZM57.2522 11.219L57.0066 12.1884L57.008 12.1888L57.2522 11.219ZM56.7336 10.909L55.8487 10.4433L55.4212 11.2556L56.194 11.7509L56.7336 10.909ZM56.4872 11.572L57.1931 11.8651L57.9602 10.0181L57.2544 9.72492L56.4872 11.572ZM56.9133 10.1933C56.8423 10.2562 56.7824 10.3216 56.7512 10.3558C56.7062 10.4052 56.6982 10.4149 56.6813 10.4324C56.6623 10.4522 56.6938 10.4154 56.7584 10.3714C56.7931 10.3478 56.8689 10.3001 56.9795 10.2647C57.0945 10.2278 57.2793 10.1946 57.4964 10.2493L57.008 12.1888C57.4667 12.3043 57.8086 12.076 57.8838 12.0248C57.9993 11.9461 58.0859 11.8572 58.1241 11.8175C58.1644 11.7755 58.2155 11.7182 58.2292 11.7032C58.2568 11.6729 58.2552 11.6764 58.24 11.6899L56.9133 10.1933ZM57.4977 10.2497C57.542 10.2609 57.5692 10.2743 57.5754 10.2776C57.5808 10.2804 57.5747 10.2777 57.5506 10.2612C57.5237 10.2429 57.4982 10.2241 57.448 10.1877C57.4047 10.1563 57.3424 10.1114 57.2733 10.0671L56.194 11.7509C56.2108 11.7617 56.2329 11.7771 56.2739 11.8068C56.3079 11.8315 56.3663 11.8745 56.4243 11.914C56.5371 11.9909 56.7406 12.121 57.0066 12.1884L57.4977 10.2497ZM57.6186 11.3748L57.7557 11.1142L55.9859 10.1827L55.8487 10.4433L57.6186 11.3748Z" fill="#E03823" mask="url(#path-21-inside-6_684_3608)"/>
<mask id="path-23-inside-7_684_3608" fill="white">
<path d="M59.4238 10.0936L58.6901 9.96671C58.7347 9.86338 58.7849 9.66794 58.825 9.67019C59.0536 9.69272 59.2804 9.73024 59.5041 9.78251L59.4238 10.0936Z"/>
</mask>
<path d="M59.4238 10.0936L58.6901 9.96671C58.7347 9.86338 58.7849 9.66794 58.825 9.67019C59.0536 9.69272 59.2804 9.73024 59.5041 9.78251L59.4238 10.0936Z" fill="#E03823"/>
<path d="M59.4238 10.0936L59.2534 11.079L60.1618 11.2361L60.3921 10.3435L59.4238 10.0936ZM58.6901 9.96671L57.7719 9.57041L57.2689 10.7357L58.5196 10.9521L58.6901 9.96671ZM58.825 9.67019L58.9231 8.67501L58.902 8.67293L58.8809 8.67175L58.825 9.67019ZM59.5041 9.78251L60.4724 10.0324L60.7281 9.04154L59.7316 8.80873L59.5041 9.78251ZM59.5943 9.10827L58.8605 8.98135L58.5196 10.9521L59.2534 11.079L59.5943 9.10827ZM59.6082 10.363C59.6343 10.3026 59.6558 10.2419 59.6671 10.2099C59.6829 10.1651 59.6883 10.1493 59.6951 10.131C59.7047 10.1057 59.6938 10.1398 59.6646 10.1917C59.6521 10.2139 59.6058 10.2955 59.5186 10.3832C59.4498 10.4523 59.1901 10.6922 58.7691 10.6686L58.8809 8.67175C58.4499 8.64763 58.1798 8.8931 58.1004 8.9729C58.0026 9.07126 57.9454 9.16859 57.9219 9.21042C57.8706 9.30152 57.8369 9.39055 57.8233 9.42667C57.807 9.4699 57.7889 9.52221 57.7815 9.54309C57.7697 9.57667 57.7682 9.57916 57.7719 9.57041L59.6082 10.363ZM58.7269 10.6654C58.9119 10.6836 59.0955 10.714 59.2766 10.7563L59.7316 8.80873C59.4653 8.74651 59.1952 8.70184 58.9231 8.67501L58.7269 10.6654ZM58.5358 9.53265L58.4555 9.84378L60.3921 10.3435L60.4724 10.0324L58.5358 9.53265Z" fill="#E03823" mask="url(#path-23-inside-7_684_3608)"/>
<mask id="path-25-inside-8_684_3608" fill="white">
<path d="M59.6078 10.918C59.4216 10.9843 59.2331 11.1067 59.0502 11.0955C58.9242 11.0876 58.8094 10.8944 58.6901 10.7843L58.7815 10.6484L59.5242 10.6877C59.5532 10.7608 59.5799 10.8371 59.6078 10.918Z"/>
</mask>
<path d="M59.6078 10.918C59.4216 10.9843 59.2331 11.1067 59.0502 11.0955C58.9242 11.0876 58.8094 10.8944 58.6901 10.7843L58.7815 10.6484L59.5242 10.6877C59.5532 10.7608 59.5799 10.8371 59.6078 10.918Z" fill="#E03823"/>
<path d="M59.6078 10.918L59.9431 11.8601L60.8759 11.5282L60.5532 10.5921L59.6078 10.918ZM59.0502 11.0955L58.988 12.0935L58.9889 12.0936L59.0502 11.0955ZM58.6901 10.7843L57.8604 10.2262L57.3816 10.9378L58.012 11.5193L58.6901 10.7843ZM58.7815 10.6484L58.8344 9.64984L58.2682 9.61987L57.9518 10.0902L58.7815 10.6484ZM59.5242 10.6877L60.4536 10.3187L60.217 9.72303L59.577 9.68915L59.5242 10.6877ZM59.2725 9.97588C59.1885 10.0058 59.1129 10.0389 59.064 10.0605C59.0048 10.0866 58.9811 10.0974 58.9548 10.108C58.9323 10.117 58.9371 10.1136 58.9585 10.1086C58.9814 10.1032 59.036 10.0927 59.1115 10.0974L58.9889 12.0936C59.3106 12.1133 59.5747 12.0143 59.7008 11.9636C59.7677 11.9367 59.8374 11.9052 59.8717 11.8901C59.9162 11.8704 59.934 11.8634 59.9431 11.8601L59.2725 9.97588ZM59.1125 10.0974C59.327 10.1108 59.4706 10.1981 59.5254 10.2359C59.5807 10.274 59.6072 10.3049 59.5956 10.2926C59.5924 10.2892 59.5864 10.2827 59.5749 10.2695C59.5692 10.2631 59.5633 10.2562 59.5558 10.2477C59.5488 10.2396 59.5402 10.2296 59.5314 10.2196C59.4999 10.1837 59.4403 10.1159 59.3681 10.0493L58.012 11.5193C57.9995 11.5078 57.999 11.5055 58.0266 11.537C58.0421 11.5547 58.0934 11.6147 58.1397 11.6639C58.1875 11.7146 58.2737 11.8021 58.3898 11.8822C58.5053 11.9619 58.7105 12.0762 58.988 12.0935L59.1125 10.0974ZM59.5198 11.3425L59.6112 11.2066L57.9518 10.0902L57.8604 10.2262L59.5198 11.3425ZM58.7286 11.647L59.4713 11.6864L59.577 9.68915L58.8344 9.64984L58.7286 11.647ZM58.5948 11.0568C58.6144 11.1063 58.6346 11.1633 58.6624 11.2439L60.5532 10.5921C60.5253 10.511 60.4919 10.4152 60.4536 10.3187L58.5948 11.0568Z" fill="#E03823" mask="url(#path-25-inside-8_684_3608)"/>
<path d="M43.6409 57.6462C43.3512 57.8561 42.9812 58.4958 43.047 58.5688L43.4062 58.2407C43.3972 58.2395 43.3921 58.2401 43.3921 58.2401C43.3921 58.2401 43.3985 58.2394 43.4131 58.2345L43.4162 58.2316C43.4166 58.2321 43.417 58.2325 43.4174 58.233C43.419 58.2324 43.4206 58.2318 43.4223 58.2312C43.4637 58.2156 43.5186 58.186 43.5982 58.1349C43.6289 58.1152 43.6584 58.0956 43.6912 58.0737C43.7005 58.0675 43.7101 58.0611 43.72 58.0545C43.7624 58.0264 43.8111 57.9943 43.8608 57.9644L43.8617 57.9638C43.8637 57.9626 43.8657 57.9614 43.8677 57.9602L43.6409 57.6462ZM43.6409 57.6462L43.8682 57.9599L43.6409 57.6462ZM47.9892 55.3692L47.9882 55.3698C47.1467 55.9235 46.2987 56.466 45.4444 56.9971C46.1386 56.5271 46.842 56.0674 47.5494 55.6103L47.5494 55.6104L47.5563 55.6058C47.9563 55.3378 48.3654 55.0841 48.7828 54.845C48.6908 54.9058 48.5991 54.9665 48.5078 55.027C48.3339 55.1422 48.1611 55.2566 47.9892 55.3692Z" fill="#E03823" stroke="#E03823"/>
<path d="M38.6732 58.7962C38.9621 58.5549 39.2366 58.2947 39.5112 58.0343C39.6268 57.9247 39.7425 57.815 39.8593 57.7067C39.8983 57.6708 39.9378 57.6353 39.9791 57.5988C39.9632 57.4837 39.9495 57.3683 39.9379 57.2527L40.4354 57.2028L40.764 57.5796C40.6708 57.6609 40.592 57.7289 40.5226 57.7887C40.5201 57.791 40.5175 57.7932 40.5149 57.7954C40.5365 57.9235 40.5609 58.0511 40.588 58.1782L38.6732 58.7962ZM38.6732 58.7962C38.6704 58.7653 38.6669 58.738 38.664 58.7166C38.6628 58.7071 38.6613 58.697 38.66 58.6873L38.6732 58.7962ZM38.1778 58.8931C38.2265 58.8875 38.2797 58.8874 38.3329 58.8873C38.4489 58.8871 38.5648 58.8869 38.6335 58.8291L38.1778 58.8931ZM38.1778 58.8931C38.1778 58.8473 38.1704 58.7958 38.1631 58.7445C38.1485 58.6426 38.1341 58.5417 38.1778 58.4879V58.8931ZM40.9329 57.1529L40.8396 56.2235C40.8521 56.2422 40.8645 56.264 40.8761 56.2887C41.0667 56.6976 41.092 57.1116 40.9807 57.5391C40.9618 57.4108 40.9458 57.282 40.9329 57.1529ZM40.7977 56.1708C40.806 56.1793 40.8147 56.1893 40.8235 56.2009L40.4972 56.4854C40.5941 56.3773 40.6919 56.2701 40.7907 56.1639C40.7929 56.166 40.7952 56.1683 40.7977 56.1708Z" fill="#E03823" stroke="#E03823"/>
<path d="M60.7805 52.0509C60.2693 52.486 59.8162 52.9873 59.3646 53.487C59.2411 53.6236 59.1178 53.76 58.9935 53.895C59.015 53.8833 59.0365 53.8713 59.0577 53.859C59.2244 53.7403 59.3868 53.6127 59.5601 53.4767C59.5719 53.4674 59.5839 53.458 59.5958 53.4486C59.785 53.3002 59.987 53.1426 60.2005 52.9964L60.2013 52.9959L60.2013 52.9959C60.3685 52.8819 60.5347 52.7767 60.6925 52.7093C60.7413 52.6885 60.7962 52.6682 60.8561 52.6524C60.6737 52.8212 60.4988 52.9973 60.3263 53.1791C60.3261 53.1793 60.326 53.1794 60.3259 53.1795C60.1357 53.3799 59.9484 53.5872 59.7567 53.7993C59.6159 53.955 59.4729 54.1133 59.3247 54.2734L59.3286 54.28M60.7805 52.0509L61.7668 54.2325M60.7805 52.0509C61.4491 51.4751 62.0475 51.6996 62.2904 52.5481L60.7805 52.0509ZM59.3286 54.28L59.3242 54.2739C59.3185 54.2801 59.3127 54.2863 59.3069 54.2925C59.3141 54.2884 59.3214 54.2842 59.3286 54.28ZM59.3286 54.28C59.5121 54.1501 59.6893 54.0109 59.8665 53.8718C60.069 53.7128 60.2714 53.5539 60.483 53.409C61.1415 52.96 61.2741 53.0128 61.5572 53.7457C61.6176 53.9038 61.6866 54.0582 61.7668 54.2325M61.7668 54.2325C61.7877 54.2779 61.8094 54.3246 61.8319 54.3731C61.8886 54.4955 61.9506 54.6291 62.0185 54.7806C62.1512 54.5907 62.2477 54.4064 62.3152 54.2266C62.3017 54.1975 62.2887 54.1694 62.276 54.142C62.1729 53.92 62.0944 53.7508 62.0242 53.5671L62.0242 53.5671L62.0236 53.5656C61.9976 53.4983 61.9711 53.4318 61.9436 53.3674C61.9486 53.4427 61.9492 53.517 61.9449 53.5909C61.9448 53.5926 61.9447 53.5944 61.9446 53.5961C61.9446 53.5966 61.9445 53.5971 61.9445 53.5976C61.9321 53.7953 61.8829 54.0045 61.7668 54.2325ZM58.6901 54.427C58.6989 54.4055 58.7068 54.3832 58.7143 54.3606L58.7277 54.3968L58.6901 54.427ZM58.6901 54.427L58.7803 54.5393M58.6901 54.427L58.7475 54.4505L58.7803 54.5393M58.7803 54.5393C58.8121 54.5275 58.8436 54.5153 58.8749 54.5027L58.8424 54.4894L58.7803 54.5393Z" fill="#E03823" stroke="#E03823"/>
</svg>
