<svg width="243" height="218" viewBox="0 0 243 218" fill="none" xmlns="http://www.w3.org/2000/svg">
<g clip-path="url(#clip0_1688_4564)">
<path d="M134.093 42.1012C133.248 43.4431 132.413 44.7932 131.555 46.1241C131.109 46.8696 130.614 47.5846 130.073 48.2646C129.203 49.2964 128.333 49.236 127.697 48.0368C127.099 46.9144 126.687 45.6933 126.207 44.5105C125.971 43.9315 125.76 43.3415 125.444 42.5018C124.838 43.2235 124.347 43.7367 123.93 44.313C116.483 54.6969 110.068 65.7011 104.202 77.04C97.8305 89.3531 93.4761 102.415 89.5881 115.678C88.0927 120.785 85.98 125.719 84.0099 130.675C83.4612 132.047 82.5146 133.296 81.5844 134.47C79.008 137.719 75.7922 138.394 72.0799 136.509C67.8818 134.377 65.1874 130.853 63.3436 126.652C60.1251 119.314 60.5421 111.869 62.9512 104.424C65.695 95.9419 70.0385 88.2609 75.2984 81.1535C80.5582 74.0461 86.0459 67.0402 91.7612 60.2786C101.404 48.8448 110.121 36.6615 117.83 23.8442C119.085 21.7725 120.531 19.8229 122.149 18.021C125.609 14.1792 130.046 13.1227 134.754 14.9777C138.025 16.2647 141.103 18.1884 144.023 20.1917C147.828 22.7794 151.39 25.7459 155.058 28.5422C162.436 34.1787 170.544 38.5502 178.905 42.5155C183.649 44.7657 188.288 47.23 192.967 49.6147C193.438 49.889 193.896 50.1866 194.339 50.5066C199.744 53.9752 202.512 58.8928 202.296 65.3416C202.073 72.0566 201.835 78.7743 201.393 85.4783C201.114 89.8541 200.6 94.2117 199.854 98.5324C199.511 100.483 198.553 102.454 197.431 104.114C195.51 106.968 193.041 107.053 190.503 104.709C186.041 100.593 181.722 96.2794 177.083 92.3607C169.172 85.7116 160.488 80.2232 150.86 76.3622C148.585 75.4511 146.174 74.8446 143.784 74.2656C140.812 73.5467 138.126 74.4358 136.208 76.6997C133.591 79.7477 131.167 82.9554 128.948 86.3043C123.063 95.3189 118.587 105.094 113.978 114.792C110.743 121.603 107.563 128.469 102.926 134.473C101.258 136.698 99.2735 138.666 97.0348 140.315C93.1551 143.059 90.5704 141.613 90.5018 136.858C90.403 130.211 91.8874 123.801 93.6517 117.448C97.0732 105.124 102.536 93.6944 108.762 82.5805C113.382 74.3287 117.871 66.0057 122.371 57.6881C123.304 55.9647 123.993 54.1206 124.887 52.3616C125.162 51.8512 125.73 51.5054 126.163 51.0856C126.523 51.5246 126.967 51.9088 127.222 52.4083C127.749 53.4181 128.106 54.5213 128.657 55.5119C129.242 56.5575 129.807 56.5245 130.49 55.5366C130.544 55.4632 130.592 55.3852 130.633 55.3034C132.526 51.1158 133.407 46.6455 134.438 42.2191L134.093 42.1012ZM182.864 76.8397L183.212 76.8177C183.317 76.6293 183.396 76.4283 183.448 76.2195C183.904 72.32 184.326 68.4178 184.798 64.5211C185.424 59.3812 182.587 55.6958 179.602 51.9692C179.327 52.2217 179.053 52.4577 178.778 52.6882C177.327 53.9395 176.309 53.7118 175.672 51.9335C175.368 51.0773 175.189 50.1773 174.962 49.2936C174.635 48.0368 174.317 46.7772 173.996 45.5204L173.486 45.4792C173.272 46.0637 172.898 46.6373 172.865 47.2328C172.715 50.1146 173.122 52.9985 174.065 55.726C174.449 56.8593 174.984 57.3176 176.164 56.6755C177.236 56.0882 178.062 56.5383 178.488 57.5756C178.855 58.5068 179.14 59.4681 179.341 60.4487C180.532 65.9206 181.692 71.387 182.864 76.8397ZM75.8169 102.909L76.1901 103.14C76.6511 102.679 77.208 102.284 77.5483 101.746C78.1701 100.739 78.7318 99.6962 79.2302 98.6229C81.4445 93.9743 83.6203 89.3119 85.8373 84.6606C86.1117 84.0651 86.4629 83.4998 86.7784 82.9235C81.9914 86.2164 77.8134 90.317 74.4313 95.0418C75.3121 95.1762 75.8032 95.2448 76.2889 95.3162C77.8281 95.5769 77.9351 95.8294 77.4468 97.303C76.8541 99.1772 76.3575 101.06 75.8169 102.926V102.909ZM77.4166 114.193L82.7972 105.494C80.4841 105.722 79.093 106.993 77.9626 108.631C76.8321 110.269 76.4398 112.094 77.4166 114.21V114.193Z" fill="#E03823"/>
<path d="M243.003 120.607C242.454 124.393 242.13 128.23 241.296 131.951C240.607 135.022 241.115 137.92 241.458 140.911C242.007 145.669 242.599 150.444 242.712 155.224C242.855 161.209 240.465 163.693 234.48 164.318C232.573 164.49 230.652 164.457 228.751 164.22C225.681 163.874 223.121 162.428 221.617 159.673C219.642 156.026 217.625 152.362 216.086 148.523C213.183 141.281 210.439 133.965 207.937 126.57C204.644 116.798 204.249 106.828 206.359 96.6855C208.261 87.5584 209.901 78.3517 209.55 68.9694C209.437 65.777 209.011 62.6033 208.28 59.4937C206.617 52.4988 202.309 47.3316 195.971 44.1675C189.861 41.1133 183.531 38.4843 177.198 35.8691C171.041 33.3198 164.683 31.2205 159.045 27.5543C153.024 23.6266 147.569 18.8918 142.834 13.4822C139.542 9.74459 139.77 8.29567 144.141 5.95763C150.732 2.42521 158.024 0.396275 165.493 0.0164924C168.459 -0.14267 171.255 0.839744 173.96 2.01151C180.545 4.9121 186.368 9.0119 191.998 13.4026C199.159 18.9897 205.816 25.0928 211.262 32.4252C215.104 37.6062 217.787 43.4156 220.289 49.3074C225.577 61.7467 230.963 74.1504 235.959 86.7105C240.267 97.5335 242.385 108.883 242.654 120.552L243.003 120.607ZM192.015 38.0508H192.511C192.511 35.9185 192.544 33.7863 192.511 31.6541C192.371 23.9951 188.08 19.0446 181.797 15.4772C179.975 14.4426 178.976 15.0216 178.778 17.0221C178.649 18.4299 178.666 19.8541 178.545 21.2619C178.463 22.2169 178.798 23.5203 177.568 23.8689C176.339 24.2174 175.752 23.0456 175.148 22.2224C173.829 20.4167 172.588 18.5506 171.258 16.7505C170.857 16.2016 170.264 15.8065 169.757 15.34L169.334 15.5375C169.334 16.1358 169.235 16.7532 169.348 17.3295C169.957 20.4167 171.57 22.8672 174.051 24.8101C176.49 26.731 178.855 28.737 181.256 30.7019C181.591 30.9763 181.942 31.2287 182.592 31.7227C182.828 30.2189 183.083 29.0334 183.188 27.8369C183.339 26.1081 183.339 24.3656 183.501 22.6395C183.539 22.2059 183.865 21.5857 184.208 21.4595C184.551 21.3332 185.169 21.6186 185.509 21.9068C185.959 22.3006 186.321 22.785 186.571 23.3283C187.32 24.9418 188.077 26.5582 188.675 28.2266C189.841 31.4785 190.909 34.7715 192.015 38.0508ZM227.218 105.695C228.557 99.9621 229.363 94.235 228.938 88.4064C228.834 87.0424 228.557 85.6971 228.115 84.4026C227.906 83.7879 227.133 83.3653 226.614 82.8549C226.145 83.4037 225.412 83.9224 225.264 84.559C224.951 85.802 224.854 87.0893 224.976 88.3652C225.656 94.1444 226.46 99.9154 227.218 105.695Z" fill="#E03823"/>
<path d="M52.8183 82.3939C52.6811 81.6777 52.7223 80.8599 52.3738 80.2672C51.4958 78.7798 50.4779 77.3721 49.4544 75.978C48.0523 74.0571 46.5158 72.2432 45.1741 70.2894C43.3385 67.6165 43.1491 64.7791 44.7131 61.8785C48.8837 54.1317 54.7692 48.0259 62.2543 43.4047C64.5317 42.0024 66.9188 41.7362 69.4678 42.7296C71.3253 43.4513 73.2597 43.9727 75.2298 44.6039C75.3221 44.3843 75.3857 44.1537 75.4191 43.9178C75.1008 40.3861 76.4919 37.4553 78.772 34.9362C81.1893 32.2661 83.6889 29.6591 86.2928 27.1701C88.433 25.1257 91.0478 24.1186 94.0825 24.6263C97.9074 25.2657 101.751 25.8063 105.543 26.5993C107.859 27.0823 108.326 28.1196 107.415 30.3122C106.775 31.8723 105.966 33.3575 105.003 34.7413C103.686 36.5964 102.171 36.8187 100.24 35.6112C97.9567 34.1815 95.7535 32.6201 93.4432 31.237C92.749 30.8226 91.8161 30.8117 90.9957 30.6141C91.196 31.5059 91.2015 32.513 91.646 33.2567C92.3155 34.3791 93.2593 35.3505 94.1483 36.3302C95.0373 37.3099 96.0416 38.188 96.9333 39.1677C98.4287 40.8142 98.6646 41.8762 97.3833 43.712C94.5059 47.8283 91.5289 51.8741 88.4522 55.8495C82.7176 63.2588 76.7937 70.5226 71.1113 77.9703C64.4493 86.6803 59.5105 96.2657 57.4032 107.111C56.3386 112.621 55.724 118.219 54.7445 123.749C54.3235 126.081 53.6804 128.367 52.8238 130.576C51.7894 133.257 49.5889 134.761 46.7326 134.665C42.3425 134.514 37.9935 134.037 33.6226 133.735C32.1195 133.615 30.6111 133.572 29.1036 133.606C25.6628 133.721 22.8614 135.082 20.7843 137.922C19.7362 139.352 18.6414 140.809 17.3134 141.962C12.7093 145.965 5.62205 145.225 2.24991 140.505C0.471924 138.01 0.0548666 135.112 0.00547804 132.162C-0.0686048 126.797 1.02892 121.622 2.93312 116.63C8.8625 101.071 18.8829 88.7385 32.5663 79.3561C34.1357 78.2804 35.9137 77.4846 37.6533 76.6888C38.9175 76.0724 40.322 75.8006 41.7249 75.9008C43.1278 76.0011 44.4794 76.4698 45.6433 77.2596C47.3581 78.3572 48.8672 79.7897 50.4559 81.0849C51.076 81.5926 51.6659 82.1415 52.2696 82.6738L52.8183 82.3939ZM38.91 115.856L39.0828 116.103C39.5657 115.887 40.0377 115.634 40.537 115.456C41.3465 115.168 42.1586 114.8 43.0065 114.696C44.4662 114.514 45.0726 115.258 44.6857 116.66C44.3564 117.846 43.9037 118.996 43.547 120.173C43.2973 120.996 43.1135 121.852 42.8995 122.692C47.8164 118.636 49.0346 113.024 50.209 107.05L44.2 109.037L43.8159 108.524C44.6152 107.027 45.4146 105.532 46.214 104.037C44.9455 104.374 43.7406 104.917 42.647 105.643C42.1586 105.991 41.6647 106.905 41.78 107.432C42.4111 110.354 41.459 112.709 39.552 114.827C39.3081 115.151 39.0933 115.495 38.91 115.856ZM59.2608 60.2868L59.516 60.5613C59.7669 60.4888 60.0118 60.397 60.2486 60.2868C64.6971 57.871 68.3444 54.2098 70.7436 49.752C71.0223 49.2291 71.208 48.6617 71.2924 48.0753C71.4515 46.9584 70.7107 46.3135 69.6461 46.6126C69.1603 46.7467 68.7061 46.9762 68.3099 47.2877C64.0158 50.77 61.508 55.4351 59.2608 60.2868ZM65.6264 70.926C68.576 68.0035 71.5531 65.1029 74.467 62.1446C75.8415 60.8074 77.1119 59.3671 78.2672 57.8363C78.9135 56.856 79.3308 55.7426 79.4882 54.579C79.6665 53.4456 78.7364 52.8392 77.7184 53.3962C76.757 53.9111 75.8977 54.5975 75.1831 55.4214C71.2704 60.1002 68.469 65.4925 65.6264 70.926ZM17.19 118.419C17.4266 118.25 17.6529 118.067 17.8677 117.871C19.2396 116.301 20.6499 114.753 21.9834 113.142C23.048 111.85 23.3772 110.324 23.177 108.675C20.6773 111.521 17.5741 113.933 17.19 118.419ZM39.1679 105.722C42.3342 103.296 43.6869 99.7097 45.3524 96.3261C42.5153 98.9495 39.7797 101.642 39.1679 105.722ZM19.6649 124.418C21.3514 121.008 23.0379 117.589 24.7245 114.16L24.3294 113.979C19.9996 116.161 20.3426 120.519 19.6649 124.418Z" fill="#E03823"/>
<path d="M157.069 99.8523C157.223 110.911 153.73 120.458 147.793 129.229C144.487 134.108 141.21 139.007 137.962 143.927C134.881 148.58 132.641 153.737 131.343 159.165C129.972 164.856 127.62 166.574 121.757 166.755C118.181 166.857 114.627 166.171 111.347 164.744C109.426 163.921 108.726 162.996 109.201 160.99C110.666 154.815 112.48 148.732 115.237 142.988C115.808 141.888 116.641 140.945 117.663 140.244C121.364 137.642 122.769 133.932 123.485 129.662C124.478 123.727 125.573 117.788 127.052 111.96C128.487 106.298 131.352 101.257 134.642 96.3974C137.931 91.5375 142.288 89.9898 147.776 90.8679C149.754 91.1982 151.703 91.6798 153.607 92.3086C155.895 93.0468 157.075 94.729 157.08 97.174C157.072 98.1921 157.069 99.1965 157.069 99.8523ZM149.433 109.495C145.647 113.636 141.161 124.588 141.998 127.486C145.392 125.348 149.118 116.394 149.433 109.495ZM145.537 101.186C142.969 102.531 139.882 108.23 140.296 110.714C142.769 109.468 145.356 104.83 145.537 101.181V101.186ZM139.611 102.542L139.136 102.341C136.823 103.735 134.408 110.62 135.569 113.266C136.968 109.528 138.291 106.032 139.611 102.536V102.542Z" fill="#E03823"/>
<path d="M54.8899 197.221C45.7558 197.608 36.6189 197.959 27.4875 198.398C20.7138 198.739 13.938 197.769 7.53176 195.542C6.32337 195.134 5.16893 194.581 4.09376 193.895C2.8371 193.072 2.79868 192.035 3.9895 191.113C5.01925 190.28 6.1597 189.595 7.3781 189.076C12.5913 187.016 17.832 184.96 23.1331 183.127C24.8617 182.526 26.8015 182.389 28.6563 182.304C43.7308 181.656 58.8108 181.077 73.8963 181.906C82.1277 182.356 90.2988 183.278 98.1241 186.069C100.102 186.771 101.991 187.7 103.754 188.838C106.021 190.306 105.875 192.007 103.34 192.83C100.322 193.81 97.1775 194.751 94.0358 194.976C83.0606 195.8 72.0524 196.318 61.0553 196.944C59.0029 197.054 56.945 197.128 54.8899 197.221ZM35.2881 188.286C37.6478 190.092 59.6148 187.438 64.5207 185.152C62.9622 185.152 61.5025 185.111 60.0565 185.152C52.9857 185.383 45.9067 185.547 38.9594 187.073C37.7082 187.37 36.5119 187.883 35.2881 188.286Z" fill="#E03823"/>
<path d="M190.157 169.823C187.095 169.823 184.036 169.782 180.976 169.823C179.41 169.869 177.89 169.293 176.748 168.221C172.841 164.779 168.86 161.418 164.974 157.949C164.341 157.371 163.916 156.599 163.767 155.754C162.952 150.03 163.529 144.194 165.449 138.74C165.87 137.629 166.455 136.589 167.186 135.653C168.215 134.281 169.655 133.63 171.406 133.946C179.317 135.364 187.226 136.795 195.132 138.24C195.804 138.364 196.451 138.611 197.115 138.776C200.973 139.731 203.314 142.047 204.312 145.993C205.643 151.256 207.399 156.421 208.782 161.662C210.011 166.327 209.111 167.743 204.364 168.347C199.618 168.951 194.901 169.17 190.168 169.56L190.157 169.823ZM187.742 142.107C186.329 147.337 184.796 152.535 185.937 158.023C188.626 152.949 188.382 147.54 187.742 142.113V142.107Z" fill="#E03823"/>
<path d="M186.502 117.278C185.8 117.069 185.048 116.96 184.406 116.633C182.087 115.453 179.818 114.177 177.505 112.983C176.819 112.625 176.087 112.362 175.329 112.201C174.967 112.13 174.347 112.33 174.18 112.607C174.097 112.806 174.065 113.022 174.087 113.237C174.109 113.451 174.184 113.656 174.306 113.834C175.006 114.534 175.757 115.321 176.646 115.67C180.126 117.042 183.671 118.216 187.172 119.512C187.907 119.786 188.763 120.115 189.219 120.692C191.536 123.589 193.316 126.877 194.476 130.401C195.335 133.043 194.531 134.171 191.812 133.845C189.287 133.54 186.804 132.859 184.313 132.311C179.099 131.161 173.936 129.778 168.673 128.899C164.95 128.277 163.018 129.421 161.709 132.986C160.093 137.376 158.993 141.967 157.662 146.468C156.035 151.978 154.446 157.499 152.723 162.982C152.309 164.31 151.535 165.553 150.778 166.742C149.614 168.569 148.407 168.871 146.44 168.026C142.758 166.443 140.76 162.842 141.081 158.567C141.43 153.926 143.309 149.821 145.534 145.872C147.595 142.214 149.752 138.592 152.12 135.123C156.029 129.391 157.772 122.931 159.097 116.257C159.824 112.591 160.743 108.958 161.813 105.371C162.752 102.196 164.159 101.43 167.394 102.179C175.404 104.037 181.358 108.875 186.11 115.379C186.417 115.796 186.549 116.342 186.763 116.828L186.502 117.278ZM166.472 106.77C164.826 108.516 163.1 117.297 163.915 119.712C166.503 117.179 167.778 110.7 166.472 106.77Z" fill="#E03823"/>
<path d="M196.619 214.619C191.15 214.361 183.997 214.04 176.833 213.675C175.831 213.603 174.837 213.445 173.861 213.203C172.234 212.838 171.727 212.04 172.103 210.415C172.734 207.671 174.01 205.16 176.136 203.39C180.762 199.548 185.465 195.764 190.368 192.262C194.157 189.551 198.473 189.938 202.348 192.046C206.175 194.128 209.756 196.686 213.293 199.266C215.964 201.255 218.499 203.422 220.879 205.753C221.996 206.826 222.822 208.291 223.489 209.713C224.241 211.315 223.662 212.44 221.922 212.783C219.332 213.327 216.709 213.701 214.069 213.9C208.829 214.227 203.574 214.348 196.619 214.619ZM195.444 195.166C191.759 197.361 189.614 200.47 187.704 204.057C191.729 203.14 195.878 198.563 195.444 195.166Z" fill="#E03823"/>
<path d="M125.26 217.643C115.336 217.556 105.431 217.218 95.6958 215.017C94.0031 214.633 92.3578 214.063 90.7899 213.319C88.9872 212.462 88.8692 211.123 90.5155 209.962C91.8585 209.022 93.3117 208.25 94.8425 207.663C100.294 205.55 106.043 204.666 111.797 203.944C118.999 203.044 126.232 202.358 133.451 201.593C137.506 201.162 141.367 202.002 145.09 203.514C148.944 205.104 152.47 207.394 155.492 210.267C155.828 210.576 156.146 210.905 156.444 211.252C157.772 212.852 157.561 213.996 155.563 214.663C153.566 215.33 151.519 215.915 149.453 216.101C141.405 216.823 133.341 217.374 125.282 217.989C125.282 217.89 125.271 217.761 125.26 217.643Z" fill="#E03823"/>
<path d="M171.184 187.575C162.568 187.532 154.046 186.45 145.537 185.229C136.356 183.912 127.154 182.691 117.995 181.269C115.128 180.827 112.312 179.952 109.525 179.107C108.836 178.898 108.342 178.039 107.758 177.48C108.457 177.137 109.13 176.574 109.857 176.494C112.535 176.201 115.235 175.858 117.918 175.904C133.179 176.179 148.446 176.426 163.701 176.944C170.953 177.189 178.194 177.949 185.427 178.613C187.592 178.813 189.715 179.469 191.853 179.949C192.351 180.027 192.826 180.215 193.244 180.498C193.946 181.072 195.055 181.777 195.052 182.419C195.049 183.061 194.05 184.046 193.274 184.367C191.392 185.15 189.433 185.918 187.419 186.187C182.038 186.903 176.622 187.353 171.23 187.91C171.203 187.803 171.184 187.704 171.184 187.575Z" fill="#E03823"/>
<path d="M68.7297 151.424C69.1111 150.463 69.4156 149.689 69.723 148.918L70.2278 148.874C70.5159 149.612 70.8013 150.353 71.1278 151.204C71.6738 151.045 72.2279 150.915 72.7878 150.814C73.21 150.792 73.6333 150.807 74.0527 150.861C73.965 151.318 73.8439 151.769 73.6905 152.208C73.578 152.483 73.3091 152.691 73.043 153.004C74.1789 154.376 75.3148 155.669 76.3849 157.027C77.3096 158.204 77.1834 159.544 75.9322 160.32C75.463 160.614 74.5822 160.457 73.9676 160.26C73.1116 159.985 72.3652 159.379 71.4982 159.105C70.2635 158.709 69.3663 159.17 69.1083 160.444C68.7434 162.255 67.6267 163.413 66.2356 164.45C64.6414 165.641 63.9198 167.131 64.474 169.206C65.1435 171.709 65.6182 174.261 66.1725 176.78C64.7704 177.403 64.1585 176.944 63.9061 175.6C63.615 174.037 63.1597 172.509 62.5479 171.042V176.879H60.7205C60.6382 176.766 60.5806 176.725 60.5861 176.695C61.0333 173.717 59.8398 171.077 58.8437 168.41C58.7463 168.221 58.6076 168.057 58.438 167.929C58.2685 167.802 58.0724 167.714 57.8642 167.672C56.2179 167.554 54.5716 167.551 52.9254 167.518C50.9416 167.477 49.3584 169.807 50.1322 171.684C50.8154 173.372 51.5342 175.045 52.2531 176.761C49.6712 177.891 49.9236 175.235 48.6862 174.145C48.8974 175.202 49.0621 176.017 49.2349 176.829C47.3966 177.285 47.2237 177.183 46.749 175.457C46.4088 174.225 46.107 172.987 45.6789 171.774C45.2509 170.561 44.9244 169.453 45.8299 168.289C46.0658 167.987 46.0521 167.406 45.9945 166.972C45.8189 165.63 45.5665 164.299 45.2838 162.598C44.8256 163.855 44.447 164.793 44.1342 165.767C43.6522 167.412 42.5504 168.805 41.0611 169.653C39.6289 170.46 38.7755 171.637 38.1691 173.149C37.5999 174.504 36.8089 175.754 35.8287 176.848C36.3061 173.753 36.3774 170.474 39.434 168.597C40.3212 168.073 41.0896 167.37 41.6905 166.532C42.2913 165.695 42.7115 164.742 42.9242 163.734C43.0761 163.256 43.2007 162.769 43.2973 162.277C43.7089 158.646 46.1564 156.819 49.2569 155.641C49.9812 155.367 50.8565 155.367 51.6522 155.427C53.8335 155.573 56.0176 155.743 58.1797 156.042C59.4796 156.237 60.7571 156.559 61.9936 157.005C64.5399 157.897 66.274 157.121 67.2069 154.651C67.5334 153.789 67.4044 153.279 66.7102 152.645C66.1615 152.159 65.8542 151.388 65.5359 150.699C65.504 150.553 65.5093 150.401 65.5515 150.257C65.5937 150.113 65.6714 149.982 65.7774 149.876C65.9181 149.82 66.0697 149.798 66.2206 149.81C66.3714 149.823 66.5173 149.87 66.6471 149.947C67.3331 150.384 67.9779 150.883 68.7297 151.424Z" fill="#E03823"/>
<path d="M41.2614 212.838C31.7898 212.117 22.3154 211.417 12.8493 210.643C11.5355 210.494 10.2414 210.205 8.98872 209.781C8.54422 209.644 7.87474 209.043 7.92412 208.758C7.99103 208.487 8.11936 208.234 8.29919 208.021C8.47903 207.807 8.70556 207.638 8.96128 207.526C11.2108 206.773 13.5009 206.148 15.8208 205.654C23.369 204.2 30.9694 203.209 38.6905 203.788C45.218 204.276 51.6851 205.111 57.8697 207.399C58.9412 207.788 59.9605 208.308 60.9043 208.947C61.39 209.282 61.936 210.075 61.8455 210.541C61.7549 211.008 60.9674 211.617 60.4022 211.724C58.4377 212.103 56.4402 212.468 54.4482 212.52C50.0581 212.633 45.668 212.553 41.2779 212.553L41.2614 212.838Z" fill="#E03823"/>
<path d="M166.837 170.69C164.576 170.276 161.962 169.914 159.413 169.283C157.58 168.827 156.943 167.911 157.47 166.132C158.128 163.844 159.166 161.651 160.173 159.481C160.623 158.506 161.545 158.342 162.483 158.97C166.157 161.421 169.856 163.836 173.475 166.363C174.059 166.769 174.756 167.858 174.572 168.311C174.298 169.008 173.387 169.725 172.621 169.906C170.871 170.328 169.035 170.416 166.837 170.69Z" fill="#E03823"/>
<path d="M118.28 188.467C117.781 188.467 117.235 188.596 116.796 188.434C116.307 188.256 115.597 187.842 115.564 187.477C115.52 186.98 115.92 186.085 116.313 185.967C117.645 185.543 119.031 185.312 120.429 185.281C120.936 185.281 121.737 186.132 121.85 186.705C121.935 187.128 121.23 187.951 120.692 188.201C119.987 188.525 119.103 188.475 118.297 188.566L118.28 188.467Z" fill="#E03823"/>
<path d="M52.0501 202.981C51.1501 202.88 50.283 202.929 49.545 202.646C49.0236 202.446 48.2993 201.757 48.3377 201.354C48.3926 200.805 49.0977 199.836 49.4956 199.853C51.06 199.947 52.6114 200.195 54.1271 200.594C54.4289 200.665 54.7939 201.389 54.7472 201.765C54.7006 202.141 54.2341 202.624 53.8418 202.767C53.2683 202.978 52.5988 202.926 52.0501 202.981Z" fill="#E03823"/>
<path d="M74.0527 210.429C73.5643 210.368 72.8207 210.429 72.239 210.154C71.7314 209.916 71.0153 209.205 71.0921 208.862C71.2156 208.313 71.9152 207.509 72.3844 207.49C73.6485 207.501 74.905 207.685 76.1188 208.039C76.5166 208.146 77.0956 208.862 77.0187 209.158C76.8925 209.611 76.341 210.058 75.8636 210.256C75.3862 210.453 74.777 210.385 74.0527 210.429Z" fill="#E03823"/>
<path d="M131.645 193.193C130.413 192.839 129.398 192.581 128.41 192.246C127.568 191.972 127.23 191.209 127.604 190.503C127.856 190.026 128.654 189.472 129.115 189.546C130.231 189.737 131.305 190.125 132.285 190.693C132.671 190.912 132.929 191.791 132.833 192.29C132.77 192.677 132.027 192.918 131.645 193.193Z" fill="#E03823"/>
<path d="M130.921 200.053C129.692 199.817 128.836 199.68 127.996 199.485C127.156 199.29 126.693 198.796 126.86 197.907C127.027 197.018 127.658 196.563 128.553 196.724C129.452 196.842 130.329 197.092 131.154 197.468C131.656 197.743 132.315 198.541 132.21 198.917C132.068 199.436 131.275 199.779 130.921 200.053Z" fill="#E03823"/>
<path d="M157.1 203.154C155.829 202.784 154.77 202.605 153.856 202.15C153.453 201.947 153.063 201.052 153.192 200.651C153.321 200.251 154.134 199.71 154.583 199.765C155.619 199.903 156.623 200.217 157.552 200.695C157.953 200.896 158.375 201.678 158.282 202.067C158.17 202.523 157.489 202.822 157.1 203.154Z" fill="#E03823"/>
<path d="M63.5851 205.541C62.825 205.41 62.0128 205.393 61.3241 205.097C61.1078 204.971 60.9255 204.794 60.7931 204.582C60.6606 204.37 60.582 204.128 60.5641 203.878C60.5916 203.478 61.1129 202.841 61.4833 202.781C62.3363 202.68 63.2001 202.726 64.0378 202.915C64.8445 203.074 65.7581 203.423 65.6292 204.46C65.4838 205.651 64.4768 205.541 63.5851 205.541Z" fill="#E03823"/>
<path d="M140.821 200.196C139.937 199.921 139.224 199.823 138.683 199.466C138.326 199.23 137.967 198.549 138.066 198.193C138.17 197.964 138.329 197.765 138.53 197.614C138.731 197.463 138.967 197.364 139.215 197.328C139.937 197.339 140.641 197.546 141.254 197.926C141.646 198.173 142.017 198.879 141.948 199.298C141.885 199.669 141.185 199.927 140.821 200.196Z" fill="#E03823"/>
<path d="M121.6 192.52C123.441 192.52 124.923 193.387 124.706 194.137C124.596 194.397 124.425 194.627 124.208 194.808C123.991 194.989 123.734 195.115 123.458 195.177C122.017 195.286 120.601 194.452 120.763 193.692C120.876 193.176 121.425 192.754 121.6 192.52Z" fill="#E03823"/>
<path d="M116.491 197.992C114.699 198.036 113.24 197.276 113.242 196.472C113.245 195.668 113.728 195.273 114.554 195.289C115.849 195.311 117.405 196.113 117.276 196.818C117.188 197.309 116.678 197.729 116.491 197.992Z" fill="#E03823"/>
<path d="M145.117 193.143L147.801 195.127C147.386 195.506 147 196.173 146.558 196.225C145.115 196.354 143.674 195.506 143.85 194.749C143.957 194.249 144.511 193.865 145.117 193.143Z" fill="#E03823"/>
</g>
<defs>
<clipPath id="clip0_1688_4564">
<rect width="243" height="218" fill="white"/>
</clipPath>
</defs>
</svg>
