<svg width="434" height="406" viewBox="0 0 434 406" fill="none" xmlns="http://www.w3.org/2000/svg">
<g clip-path="url(#clip0_1689_4589)">
<path d="M0.260021 232.28C0.260021 220.56 -0.439967 208.77 0.460033 197.12C1.34003 185.63 3.46001 174.2 5.75001 162.87C7.75001 153 13.93 145.53 21.59 139.3C24.81 136.68 28.2 134.24 31.59 131.9C34.3489 130.15 36.5083 127.599 37.78 124.59C38.7301 121.955 40.2094 119.543 42.127 117.501C44.0446 115.46 46.3598 113.833 48.93 112.72C51.1484 111.58 53.0853 109.961 54.6 107.98C58.19 103.72 61.39 99.1399 64.93 94.8399C68.71 90.2399 73.58 87.1299 79.54 86.5399C82.7579 86.3787 85.9823 86.6682 89.12 87.3999C92.37 88.0299 95.53 89.1599 98.72 90.1099C101.262 90.9762 103.999 91.1005 106.609 90.4682C109.22 89.836 111.596 88.4734 113.46 86.5399C116.83 83.3199 120.09 79.9899 123.46 76.8199C125.607 74.854 127.86 73.0078 130.21 71.2899C133.66 68.5862 137.973 67.2254 142.35 67.4599C147.48 67.7999 151.16 65.5999 154.04 61.6399C154.869 60.593 155.64 59.5013 156.35 58.3699C163.09 46.6099 172.35 36.6899 180.5 25.9999C183.952 21.6991 188.322 18.2243 193.29 15.8299C199.12 12.8299 204.94 9.73988 210.59 6.40988C217.4 2.40988 224.81 0.979877 232.51 0.409877C246.051 -0.505267 259.652 0.0951238 273.06 2.19988C276.711 2.63808 280.213 3.91271 283.291 5.92462C286.37 7.93652 288.943 10.6315 290.81 13.7999C294.81 20.3199 298.95 26.7999 303.07 33.2099C307.02 39.3999 312.26 44.2699 318.19 48.5899C327.33 55.2499 336.14 62.3599 345.19 69.1399C349.19 72.1399 353.27 75.4199 357.76 77.6399C368.32 82.8399 376.51 90.6399 383.05 100.11C393.81 115.72 404.31 131.52 414.76 147.36C420.33 155.81 423.89 165.27 427.25 174.77C428.95 179.55 430.47 184.39 432.12 189.19C435.22 198.19 433.75 207.13 431.57 215.99C428.2 229.64 424.65 243.23 421.23 256.86C420.61 259.36 420.23 261.92 419.78 264.46C419.666 265.374 419.292 266.236 418.704 266.945C418.116 267.653 417.337 268.179 416.46 268.46C406.15 272.19 397.72 278.7 389.85 286.15C387.424 288.391 384.594 290.148 381.51 291.33C374.975 293.831 368.816 297.223 363.21 301.41C358.152 305.05 352.909 308.425 347.5 311.52C339.032 316.543 331.478 322.968 325.16 330.52C321.284 334.962 317.161 339.182 312.81 343.16C305.96 349.61 299.03 355.96 291.92 362.16C288.35 365.278 284.519 368.085 280.47 370.55C270.27 376.67 259.87 382.46 249.58 388.41C241.68 392.97 232.78 394.02 224.11 395.97C217.48 397.46 210.76 398.97 204.47 401.45C194.81 405.27 185.11 406.09 174.87 404.94C159.51 403.21 144.1 401.79 128.67 400.82C117.632 400.169 106.668 398.601 95.89 396.13C86.36 393.91 76.56 392.83 66.96 390.86C54.24 388.24 44.0701 381.86 37.4901 370.21C33.3601 362.9 28.6501 355.92 24.3001 348.73C18.0501 338.38 14.7801 326.83 10.9201 315.49C4.02005 295.23 2.27005 274.22 1.29005 253.07C0.96005 246.17 0.730033 239.27 0.460033 232.36L0.260021 232.28ZM351.15 145.77C350.79 142.77 349.43 140.7 346.86 140.11C344.788 139.65 342.648 139.579 340.55 139.9C321.8 142.72 303.08 145.72 284.34 148.64C280.07 149.3 279.26 148.12 279.9 143.76C280.441 141.007 280.495 138.181 280.06 135.41C277.23 122.27 269.59 112.83 257.38 107.13C254.71 105.88 252.07 104.57 249.38 103.28C240.45 117.28 240.67 131.49 246.38 145.94C247.23 148.12 249.73 149.65 251.46 151.49C252.3 152.38 253.13 153.28 253.96 154.18C252.971 154.947 251.885 155.579 250.73 156.06C246.23 157.27 241.73 158.32 237.15 159.38C227.76 161.57 218.37 163.79 208.95 165.85C207.73 166.12 206.33 165.53 205.02 165.33C205.122 163.94 205.401 162.569 205.85 161.25C206.78 159.579 207.826 157.975 208.98 156.45C209.829 155.292 210.293 153.898 210.307 152.463C210.321 151.028 209.885 149.624 209.06 148.45C207.76 146.45 206.06 144.39 204.06 143.45C200.871 141.854 197.424 140.838 193.88 140.45C184.88 139.72 176.41 141.55 169.97 148.6C163.9 155.25 165.74 163.18 174.11 166.6C176.02 167.39 178.11 167.72 180.04 168.46C180.846 168.933 181.571 169.53 182.19 170.23C181.58 170.94 181.11 171.95 180.34 172.31C177.86 173.47 175.34 174.48 172.71 175.39C158.99 180.22 145.26 185.06 131.48 189.73C130.12 190.19 127.77 190.1 126.99 189.25C126.21 188.4 126.6 186.25 126.54 184.62C126.54 184.31 126.8 183.99 126.83 183.62C127.02 181.34 127.73 178.95 127.28 176.8C123.52 158.71 111.37 147.8 95.35 140.44C95.25 140.44 95.0701 140.54 94.9201 140.6C98.2201 148.12 101.81 155.53 104.73 163.2C107.65 170.87 109.95 178.78 112.35 186.63C112.793 188.659 113.054 190.724 113.13 192.8L112.26 192.98C98.56 178.81 94.45 161.1 94 141.98C91.31 146.51 88.22 150.8 88 156.13C87.72 162.01 87.16 168.01 88 173.78C89.14 181.99 91.18 190.15 100.33 193.68C100.715 193.871 101.047 194.153 101.298 194.502C101.549 194.85 101.711 195.255 101.77 195.68C101.65 196.46 100.77 197.22 99.9901 197.75C99.258 198.142 98.4782 198.438 97.6701 198.63C77.5967 205.737 57.5334 212.847 37.4801 219.96C35.0901 220.8 32.7201 221.66 30.2901 222.53C32.7901 226.98 36.21 228.63 40.82 227.67C48.82 226.02 56.7601 224.26 64.7401 222.61C76.9467 220.07 89.1667 217.56 101.4 215.08C104.68 214.41 105.52 215.17 105.06 217.98C102.449 232.402 105.606 247.272 113.85 259.39C117.95 265.51 123.02 271 127.9 276.55C130.73 279.76 134.06 282.55 137.42 285.75C137.89 284.22 138.27 283.14 138.54 282.04C141.17 271.57 144.35 261.19 146.25 250.58C148.53 237.89 145.1 226.49 135.66 217.26C134.84 216.433 134.065 215.562 133.34 214.65C130.54 211.17 131.15 208.91 135.5 207.87C145.68 205.43 155.9 203.09 166.14 200.93C173.46 199.39 180.85 198.2 188.2 196.86C190.08 196.51 190.77 197.2 190.5 199.16C189.91 203.45 189.5 207.76 188.95 212.04C186.356 231.127 186.995 250.515 190.84 269.39C195.99 295.39 206.61 319.46 217.71 343.32C220.12 348.5 221.02 348.69 226.36 346.32L226.81 346.13C229.81 344.66 230.12 344.13 229.09 340.89C225.35 329.17 221.62 317.44 217.81 305.74C212.61 289.74 207.63 273.69 206.4 256.74C205.86 249.41 205.75 242.08 207.67 234.91C207.867 233.899 208.285 232.944 208.894 232.113C209.502 231.282 210.287 230.595 211.191 230.103C212.096 229.61 213.098 229.323 214.126 229.262C215.155 229.201 216.184 229.367 217.14 229.75C219.51 230.516 221.756 231.621 223.81 233.03C230.6 237.77 235.58 244.26 240.33 250.91C251.1 265.99 259.44 282.5 268.54 298.57C273.54 307.48 278.84 316.26 283.89 325.16C285.15 327.39 286.48 327.42 288.54 326.37C292.09 324.57 291.94 321.26 291.54 318.37C290.8 313.21 289.98 307.92 288.13 303.1C284.13 292.62 279.68 282.29 274.96 272.1C263.59 247.65 249.78 224.84 229.96 206.1C225.32 201.72 221.4 196.58 217.14 191.8C215.7 190.17 215.93 189.06 218.09 188.4C219.76 187.89 221.38 187.22 223.09 186.67C235.09 182.67 247.09 178.67 259.09 174.67C261.87 173.75 262.29 174.3 262.15 177.15C261.933 180.298 261.977 183.459 262.28 186.6C263.46 196.29 265.99 205.45 272.28 213.31C278.664 221.389 285.971 228.695 294.05 235.08C294.64 233.08 295.26 231.01 295.86 228.94C298.48 219.99 301.04 211 301.31 201.6C301.65 190.14 299.66 179.6 289.69 172C286.12 169.3 286.69 167.21 290.85 165.8C306.77 160.467 322.703 155.15 338.65 149.85L351.15 145.77ZM384.05 257.11L384.68 257.65C388.5 255.85 392.31 254.02 396.14 252.25C398.192 251.414 399.992 250.059 401.362 248.318C402.733 246.578 403.628 244.511 403.96 242.32C404.168 241.006 404.64 239.748 405.346 238.621C406.052 237.493 406.979 236.52 408.07 235.76C409.619 234.691 410.906 233.284 411.833 231.645C412.759 230.006 413.302 228.179 413.42 226.3C413.397 224.427 413.229 222.558 412.92 220.71C411.115 221.13 409.349 221.702 407.64 222.42C398.89 226.95 394.64 234.93 391.64 243.79C389.99 248.72 389.21 254.07 384.05 257.11ZM338.6 198.88C334.44 200.3 330.28 202.41 327.95 206.75C325.77 210.81 323.83 215.33 326.32 219.75C329.064 224.636 330.059 230.312 329.14 235.84C328.79 238.33 329.54 240.98 329.79 243.55H330.6C333.22 233.27 335.84 222.987 338.46 212.7C338.583 212.041 338.63 211.37 338.6 210.7C338.61 206.85 338.6 202.99 338.6 198.88Z" fill="#E03823"/>
<path d="M136.73 284.09C136.309 283.516 135.931 282.911 135.6 282.28C130.21 269.79 124.44 257.43 119.51 244.72C116.13 236.05 115.66 226.72 116.12 217.44C116.233 216.079 116.657 214.761 117.36 213.59C130.23 235.29 134.65 259.3 137.36 283.8L136.73 284.09Z" fill="#E03823"/>
<path d="M292.42 232.9C285.51 218.34 276.17 204.8 273.8 188.36C273.294 183.74 273.034 179.097 273.02 174.45C273.099 173.331 273.557 172.273 274.32 171.45C275.32 173.14 276.5 174.77 277.42 176.53C282.74 186.701 286.598 197.571 288.88 208.82C290.54 216.77 291.88 224.82 293.39 232.76L292.42 232.9Z" fill="#E03823"/>
<path d="M249.76 104.72C258.88 118.54 265.64 133.21 266.24 150.51C257.63 145.77 247.08 116.57 249.76 104.72Z" fill="#E03823"/>
</g>
<defs>
<clipPath id="clip0_1689_4589">
<rect width="433.9" height="405.34" fill="white"/>
</clipPath>
</defs>
</svg>
