<svg width="99" height="56" viewBox="0 0 99 56" fill="none" xmlns="http://www.w3.org/2000/svg">
<mask id="path-1-inside-1_95_3861" fill="white">
<path d="M45.6455 37.4462C43.3107 37.7262 40.9691 37.9559 38.6421 38.2952C35.1856 38.8029 31.6987 39.0768 28.2053 39.1152C27.2906 39.1252 26.3759 39.1801 25.4635 39.2429C23.4918 39.3795 21.8026 40.158 20.5035 41.6466C19.1304 43.2215 17.857 44.8837 16.4873 46.4631C15.1915 47.9562 13.8386 49.4 12.4867 50.8416C12.1818 51.1443 11.8349 51.4015 11.4566 51.6055C10.9376 51.9068 10.3783 51.9337 9.86269 51.5921C9.34707 51.2504 9.06572 50.752 9.20471 50.1539C9.34601 49.4828 9.572 48.8324 9.87726 48.2183C10.793 46.4866 11.8332 44.8199 12.7087 43.0658C13.1335 42.2156 13.3689 41.2501 13.5606 40.3103C13.7141 39.5587 13.3801 38.8822 12.7972 38.3613C12.5259 38.105 12.2399 37.8645 11.9409 37.6411C9.57238 35.9755 8.85163 33.6188 9.28093 30.9003C9.95348 26.6181 10.3436 22.3102 10.6361 17.991C10.8525 14.7886 11.0127 11.5829 11.247 8.3816C11.377 6.61631 11.5653 4.85101 11.8198 3.09916C11.928 2.47563 12.1709 1.88316 12.5316 1.36299C13.2893 0.23616 14.6613 0.13087 15.5199 1.16697C16.2642 2.07745 16.9262 3.05202 17.4983 4.07926C19.053 6.82241 20.49 9.63276 22.0829 12.3535C22.8265 13.6019 23.6988 14.769 24.6856 15.8359C25.9724 17.2439 27.1628 17.4175 28.8778 16.5707C30.1646 15.9345 31.4066 15.2019 32.6362 14.4604C36.1862 12.3177 40.0073 10.7719 43.861 9.28889C51.4642 6.36204 59.2971 4.25959 67.3037 2.80009C71.2168 2.08658 75.1367 1.38315 79.126 1.27002C83.1433 1.15801 87.1618 1.16921 91.1489 1.74383C92.2204 1.90251 93.2723 2.1728 94.2874 2.55031C97.426 3.70514 98.9022 6.05625 98.9953 9.34041C99.0748 12.1833 98.2622 14.8054 96.9205 17.2641C94.6215 21.4768 91.5289 24.948 87.2896 27.3193C85.3527 28.4036 83.2543 29.0745 81.1705 29.7835C79.8154 30.2417 78.4613 30.7625 77.2092 31.4435C75.752 32.2276 75.2398 33.4071 75.7251 34.9954C76.2856 36.8413 77.0635 38.629 77.8246 40.4078C78.9623 43.0647 80.2155 45.6723 81.3118 48.3449C81.6245 49.1054 81.648 50.025 81.648 50.8629C81.648 51.8172 81.082 52.533 80.303 53.0673C78.338 54.4114 75.2914 54.2344 73.5596 52.6864C72.8933 52.1032 72.4235 51.3287 72.2145 50.4686C71.3357 46.8439 70.4771 43.2151 69.6386 39.5823C69.3819 38.4745 69.2261 37.342 68.9582 36.2376C68.5648 34.6202 67.7342 33.9649 66.0853 33.9839C64.117 34.0075 62.2395 34.4947 60.4438 35.281C59.0897 35.8736 58.6705 37.0822 58.684 38.4039C58.716 39.9507 58.8282 41.4948 59.0202 43.03C59.278 45.2702 59.6715 47.4913 60.3653 49.6554C60.9504 51.4711 60.3653 53.1468 58.9272 54.2479C57.6068 55.256 55.4221 55.3971 53.9952 54.5637C52.3822 53.624 51.4361 51.8329 51.7724 50.0833C52.3654 47.0007 52.028 43.9865 51.2445 40.9981C50.6538 38.7433 49.4364 37.7621 47.1117 37.5918C46.6286 37.5571 46.141 37.5918 45.6545 37.5918C45.6534 37.5381 45.65 37.4921 45.6455 37.4462ZM74.1469 19.6443C74.2765 19.5238 74.4135 19.4116 74.5572 19.3083C75.8462 18.5567 77.1173 17.7692 78.4355 17.0681C80.229 16.116 80.6347 15.426 80.4935 13.4053C80.2548 10.0091 77.8717 8.07581 74.6267 8.66163C74.0393 8.76692 73.443 8.8162 72.8511 8.89237C72.5606 8.9196 72.2863 9.03862 72.068 9.23218C71.8497 9.42573 71.6988 9.68375 71.6372 9.96879C71.5531 10.3496 71.5251 10.7439 71.478 11.1315C71.1718 13.5027 71.1027 15.8985 71.2718 18.2834C71.3009 18.6967 71.2169 18.9218 70.8402 19.1223C65.6515 21.8946 60.6534 24.9883 55.7079 28.1661C55.4666 28.305 55.2506 28.4838 55.069 28.6948C54.5635 29.3568 54.9569 30.2551 55.7931 30.2853C56.1424 30.2902 56.4854 30.1924 56.7795 30.0042C61.7115 26.7346 66.7074 23.5703 71.8737 20.9033C72.4756 21.1632 73.035 21.4432 73.6201 21.6493C76.7362 22.7433 79.8561 23.826 82.9797 24.8976C83.1713 24.9698 83.372 25.0151 83.576 25.032C84.1062 25.06 84.4727 24.808 84.6398 24.304C84.7157 24.0705 84.7082 23.818 84.6187 23.5895C84.5292 23.3609 84.3631 23.1705 84.1488 23.0506C83.9504 22.9467 83.7429 22.8612 83.5289 22.7952C81.4067 22.0805 79.2837 21.3682 77.1599 20.658C76.1836 20.3298 75.2151 20.0016 74.1469 19.6443ZM71.3211 6.15258C71.3211 5.4906 70.7965 5.112 70.0096 5.29682C67.5941 5.86583 65.1684 6.40124 62.7786 7.06547C54.9076 9.25192 47.2966 12.1799 39.7596 15.2994C36.7769 16.5315 34.0172 18.1624 31.577 20.304C30.9963 20.8137 30.9134 21.4421 31.3528 21.9136C31.7922 22.3852 32.4591 22.3617 32.996 21.8576C33.255 21.6157 33.4948 21.3513 33.7661 21.124C35.7435 19.4651 37.9569 18.1095 40.3335 17.1017C43.0831 15.9423 45.8675 14.8614 48.6529 13.7872C54.4536 11.547 60.3339 9.54651 66.3756 8.05229C67.6434 7.73866 68.9257 7.48327 70.2002 7.19876C70.9781 7.02067 71.3144 6.70255 71.3166 6.1481L71.3211 6.15258ZM56.413 21.814C57.4218 21.8285 57.9666 21.6023 58.9294 20.7622C60.1419 19.7009 61.551 18.8876 63.0768 18.3685C63.8155 18.1154 64.5878 17.9641 65.3433 17.7603C65.9149 17.6068 66.2826 17.1341 66.24 16.6278C66.1963 16.1473 65.767 15.7542 65.1976 15.715C62.9434 15.5581 60.7857 14.979 58.6615 14.242C56.9208 13.6383 56.1955 13.8455 54.9502 15.2221C53.8293 16.4699 52.6882 17.702 51.5269 18.9185C51.1828 19.2803 50.9026 19.6376 51.0864 20.1506C51.2702 20.6636 51.7074 20.8227 52.2241 20.9156C53.233 21.0881 54.2339 21.311 55.236 21.5261C55.7012 21.6213 56.1675 21.7501 56.4107 21.8095L56.413 21.814ZM22.4102 34.4152C22.8294 34.2046 23.3203 34.0254 23.7306 33.7319C24.0731 33.4722 24.3649 33.1517 24.5915 32.7865C25.0936 32.0114 25.7863 31.5903 26.6887 31.4547C27.0362 31.4021 27.4374 31.364 27.6975 31.1657C27.9732 30.954 28.2434 30.5699 28.2636 30.245C28.2815 29.9807 27.9688 29.6469 27.7278 29.4251C27.3108 29.0409 26.8019 28.753 26.3928 28.3621C26.0195 28.0037 25.7269 27.559 25.3985 27.1546C23.8416 25.2393 21.6177 24.8909 19.5944 26.3157C18.9465 26.7704 18.3805 27.3619 17.8424 27.951C16.624 29.2828 15.5524 30.7513 14.0493 31.8087C13.5303 32.1727 13.37 32.6387 13.5908 33.0991C13.8117 33.5594 14.3631 33.7767 14.9359 33.5807C17.004 32.8773 19.0037 33.0632 20.9709 33.9627C21.3912 34.1542 21.8542 34.2438 22.4102 34.4152ZM39.4884 23.4012C39.4715 26.2294 40.8189 28.044 43.156 28.6377C44.6008 29.0051 46.0636 29.2996 47.5208 29.6122C47.9893 29.713 48.4276 29.6211 48.7112 29.1944C48.9825 28.7855 48.9354 28.3666 48.7403 27.9197C48.172 26.6069 47.5129 25.3143 47.1139 23.9489C46.6129 22.2407 46.3057 20.4765 45.9706 18.7202C45.7711 17.6785 44.8687 17.1812 44.0471 17.7883C43.0383 18.5309 42.0586 19.3038 41.1159 20.1203C40.0118 21.0758 39.4996 22.3326 39.4884 23.4012ZM95.7468 10.1234C95.7659 7.3231 93.6866 5.22961 90.8787 5.21617C87.9218 5.20049 85.69 7.25589 85.6766 10.0046C85.6631 12.834 88.0518 15.2692 90.8485 15.2692C93.5532 15.2759 95.7289 12.9909 95.7468 10.1234ZM21.6547 18.6608C21.6715 16.6715 20.3813 15.2927 18.4915 15.2804C16.7271 15.2703 15.2565 16.8922 15.2408 18.8647C15.2274 20.7745 16.6554 22.1836 18.6148 22.1937C20.3432 22.2038 21.6367 20.6994 21.6535 18.6631L21.6547 18.6608ZM31.0019 26.5397C30.3742 26.5543 29.9931 26.7268 29.8384 27.195C29.6837 27.6632 29.862 28.0384 30.2464 28.3151C30.4148 28.4316 30.5916 28.5353 30.7755 28.6253C31.8516 29.1854 32.9333 29.7286 34.0071 30.2909C34.6673 30.6371 35.304 31.0325 35.9754 31.3539C36.5953 31.6485 37.2914 31.4178 37.5335 30.9059C37.7924 30.3559 37.5335 29.7925 36.8609 29.4497C35.1202 28.5537 33.3861 27.6576 31.6386 26.7671C31.4322 26.6756 31.2189 26.6003 31.0008 26.5419L31.0019 26.5397ZM56.0352 44.7572C55.9231 44.541 55.866 44.4088 55.7942 44.2845C55.3212 43.4612 55.3661 42.6626 55.8514 41.8516C55.9635 41.6701 55.9265 41.4036 55.9635 41.1795C55.7102 41.2176 55.3952 41.1717 55.2159 41.3072C54.5736 41.7889 54.2799 42.4587 54.4312 43.2697C54.5825 44.0806 55.106 44.5611 56.0341 44.7594L56.0352 44.7572ZM56.8636 48.0346C55.8727 47.8005 54.9995 48.0111 54.2586 48.6607C54.1681 48.7426 54.0959 48.8426 54.0468 48.9543C53.9977 49.066 53.9729 49.1868 53.9738 49.3088C53.9748 49.4307 54.0015 49.5511 54.0524 49.662C54.1032 49.7729 54.1769 49.8718 54.2687 49.9522C54.5467 50.1886 54.8785 50.2502 55.0612 49.8693C55.4535 49.0539 56.0128 48.4233 56.8625 48.0368L56.8636 48.0346ZM16.735 9.4065C16.7355 9.31843 16.7183 9.23115 16.6846 9.14978C16.6509 9.06841 16.6012 8.99459 16.5386 8.93262C16.476 8.87066 16.4016 8.82181 16.3198 8.78893C16.2381 8.75605 16.1506 8.73981 16.0624 8.74115C15.97 8.73992 15.8783 8.75733 15.7928 8.79235C15.7073 8.82736 15.6297 8.87926 15.5647 8.94493C15.4997 9.0106 15.4486 9.0887 15.4146 9.17456C15.3805 9.26041 15.3641 9.35225 15.3664 9.44458C15.3854 9.86462 15.6387 10.0808 16.0389 10.1088C16.132 10.1128 16.2248 10.0974 16.3116 10.0636C16.3984 10.0298 16.4772 9.97839 16.5431 9.91257C16.609 9.84676 16.6604 9.76799 16.6942 9.68126C16.728 9.59453 16.7434 9.50173 16.7395 9.40874L16.735 9.4065ZM74.7735 39.8735C73.7949 39.7267 73.1672 39.9519 73.1 40.4078C73.0428 40.8032 73.4362 41.2602 73.9743 41.3464C73.6638 40.55 74.1256 40.167 74.778 39.8768L74.7735 39.8735ZM75.5738 44.1702C75.0246 44.5824 74.6233 44.9442 74.7892 45.5345C74.8452 45.7294 75.1591 45.8504 75.3496 46.005C75.4617 45.8246 75.6433 45.6476 75.6534 45.4606C75.6893 45.0708 75.6187 44.6732 75.5783 44.1747L75.5738 44.1702ZM72.5474 37.1583L72.6326 37.0676C72.4757 36.8175 72.3019 36.5783 72.1125 36.3519C72.0217 36.2566 71.83 36.2566 71.6843 36.213C71.7033 36.3731 71.6619 36.6061 71.7526 36.6823C71.9869 36.8806 72.2784 37.006 72.5474 37.1617V37.1583Z"/>
</mask>
<path d="M45.6455 37.4462C43.3107 37.7262 40.9691 37.9559 38.6421 38.2952C35.1856 38.8029 31.6987 39.0768 28.2053 39.1152C27.2906 39.1252 26.3759 39.1801 25.4635 39.2429C23.4918 39.3795 21.8026 40.158 20.5035 41.6466C19.1304 43.2215 17.857 44.8837 16.4873 46.4631C15.1915 47.9562 13.8386 49.4 12.4867 50.8416C12.1818 51.1443 11.8349 51.4015 11.4566 51.6055C10.9376 51.9068 10.3783 51.9337 9.86269 51.5921C9.34707 51.2504 9.06572 50.752 9.20471 50.1539C9.34601 49.4828 9.572 48.8324 9.87726 48.2183C10.793 46.4866 11.8332 44.8199 12.7087 43.0658C13.1335 42.2156 13.3689 41.2501 13.5606 40.3103C13.7141 39.5587 13.3801 38.8822 12.7972 38.3613C12.5259 38.105 12.2399 37.8645 11.9409 37.6411C9.57238 35.9755 8.85163 33.6188 9.28093 30.9003C9.95348 26.6181 10.3436 22.3102 10.6361 17.991C10.8525 14.7886 11.0127 11.5829 11.247 8.3816C11.377 6.61631 11.5653 4.85101 11.8198 3.09916C11.928 2.47563 12.1709 1.88316 12.5316 1.36299C13.2893 0.23616 14.6613 0.13087 15.5199 1.16697C16.2642 2.07745 16.9262 3.05202 17.4983 4.07926C19.053 6.82241 20.49 9.63276 22.0829 12.3535C22.8265 13.6019 23.6988 14.769 24.6856 15.8359C25.9724 17.2439 27.1628 17.4175 28.8778 16.5707C30.1646 15.9345 31.4066 15.2019 32.6362 14.4604C36.1862 12.3177 40.0073 10.7719 43.861 9.28889C51.4642 6.36204 59.2971 4.25959 67.3037 2.80009C71.2168 2.08658 75.1367 1.38315 79.126 1.27002C83.1433 1.15801 87.1618 1.16921 91.1489 1.74383C92.2204 1.90251 93.2723 2.1728 94.2874 2.55031C97.426 3.70514 98.9022 6.05625 98.9953 9.34041C99.0748 12.1833 98.2622 14.8054 96.9205 17.2641C94.6215 21.4768 91.5289 24.948 87.2896 27.3193C85.3527 28.4036 83.2543 29.0745 81.1705 29.7835C79.8154 30.2417 78.4613 30.7625 77.2092 31.4435C75.752 32.2276 75.2398 33.4071 75.7251 34.9954C76.2856 36.8413 77.0635 38.629 77.8246 40.4078C78.9623 43.0647 80.2155 45.6723 81.3118 48.3449C81.6245 49.1054 81.648 50.025 81.648 50.8629C81.648 51.8172 81.082 52.533 80.303 53.0673C78.338 54.4114 75.2914 54.2344 73.5596 52.6864C72.8933 52.1032 72.4235 51.3287 72.2145 50.4686C71.3357 46.8439 70.4771 43.2151 69.6386 39.5823C69.3819 38.4745 69.2261 37.342 68.9582 36.2376C68.5648 34.6202 67.7342 33.9649 66.0853 33.9839C64.117 34.0075 62.2395 34.4947 60.4438 35.281C59.0897 35.8736 58.6705 37.0822 58.684 38.4039C58.716 39.9507 58.8282 41.4948 59.0202 43.03C59.278 45.2702 59.6715 47.4913 60.3653 49.6554C60.9504 51.4711 60.3653 53.1468 58.9272 54.2479C57.6068 55.256 55.4221 55.3971 53.9952 54.5637C52.3822 53.624 51.4361 51.8329 51.7724 50.0833C52.3654 47.0007 52.028 43.9865 51.2445 40.9981C50.6538 38.7433 49.4364 37.7621 47.1117 37.5918C46.6286 37.5571 46.141 37.5918 45.6545 37.5918C45.6534 37.5381 45.65 37.4921 45.6455 37.4462ZM74.1469 19.6443C74.2765 19.5238 74.4135 19.4116 74.5572 19.3083C75.8462 18.5567 77.1173 17.7692 78.4355 17.0681C80.229 16.116 80.6347 15.426 80.4935 13.4053C80.2548 10.0091 77.8717 8.07581 74.6267 8.66163C74.0393 8.76692 73.443 8.8162 72.8511 8.89237C72.5606 8.9196 72.2863 9.03862 72.068 9.23218C71.8497 9.42573 71.6988 9.68375 71.6372 9.96879C71.5531 10.3496 71.5251 10.7439 71.478 11.1315C71.1718 13.5027 71.1027 15.8985 71.2718 18.2834C71.3009 18.6967 71.2169 18.9218 70.8402 19.1223C65.6515 21.8946 60.6534 24.9883 55.7079 28.1661C55.4666 28.305 55.2506 28.4838 55.069 28.6948C54.5635 29.3568 54.9569 30.2551 55.7931 30.2853C56.1424 30.2902 56.4854 30.1924 56.7795 30.0042C61.7115 26.7346 66.7074 23.5703 71.8737 20.9033C72.4756 21.1632 73.035 21.4432 73.6201 21.6493C76.7362 22.7433 79.8561 23.826 82.9797 24.8976C83.1713 24.9698 83.372 25.0151 83.576 25.032C84.1062 25.06 84.4727 24.808 84.6398 24.304C84.7157 24.0705 84.7082 23.818 84.6187 23.5895C84.5292 23.3609 84.3631 23.1705 84.1488 23.0506C83.9504 22.9467 83.7429 22.8612 83.5289 22.7952C81.4067 22.0805 79.2837 21.3682 77.1599 20.658C76.1836 20.3298 75.2151 20.0016 74.1469 19.6443ZM71.3211 6.15258C71.3211 5.4906 70.7965 5.112 70.0096 5.29682C67.5941 5.86583 65.1684 6.40124 62.7786 7.06547C54.9076 9.25192 47.2966 12.1799 39.7596 15.2994C36.7769 16.5315 34.0172 18.1624 31.577 20.304C30.9963 20.8137 30.9134 21.4421 31.3528 21.9136C31.7922 22.3852 32.4591 22.3617 32.996 21.8576C33.255 21.6157 33.4948 21.3513 33.7661 21.124C35.7435 19.4651 37.9569 18.1095 40.3335 17.1017C43.0831 15.9423 45.8675 14.8614 48.6529 13.7872C54.4536 11.547 60.3339 9.54651 66.3756 8.05229C67.6434 7.73866 68.9257 7.48327 70.2002 7.19876C70.9781 7.02067 71.3144 6.70255 71.3166 6.1481L71.3211 6.15258ZM56.413 21.814C57.4218 21.8285 57.9666 21.6023 58.9294 20.7622C60.1419 19.7009 61.551 18.8876 63.0768 18.3685C63.8155 18.1154 64.5878 17.9641 65.3433 17.7603C65.9149 17.6068 66.2826 17.1341 66.24 16.6278C66.1963 16.1473 65.767 15.7542 65.1976 15.715C62.9434 15.5581 60.7857 14.979 58.6615 14.242C56.9208 13.6383 56.1955 13.8455 54.9502 15.2221C53.8293 16.4699 52.6882 17.702 51.5269 18.9185C51.1828 19.2803 50.9026 19.6376 51.0864 20.1506C51.2702 20.6636 51.7074 20.8227 52.2241 20.9156C53.233 21.0881 54.2339 21.311 55.236 21.5261C55.7012 21.6213 56.1675 21.7501 56.4107 21.8095L56.413 21.814ZM22.4102 34.4152C22.8294 34.2046 23.3203 34.0254 23.7306 33.7319C24.0731 33.4722 24.3649 33.1517 24.5915 32.7865C25.0936 32.0114 25.7863 31.5903 26.6887 31.4547C27.0362 31.4021 27.4374 31.364 27.6975 31.1657C27.9732 30.954 28.2434 30.5699 28.2636 30.245C28.2815 29.9807 27.9688 29.6469 27.7278 29.4251C27.3108 29.0409 26.8019 28.753 26.3928 28.3621C26.0195 28.0037 25.7269 27.559 25.3985 27.1546C23.8416 25.2393 21.6177 24.8909 19.5944 26.3157C18.9465 26.7704 18.3805 27.3619 17.8424 27.951C16.624 29.2828 15.5524 30.7513 14.0493 31.8087C13.5303 32.1727 13.37 32.6387 13.5908 33.0991C13.8117 33.5594 14.3631 33.7767 14.9359 33.5807C17.004 32.8773 19.0037 33.0632 20.9709 33.9627C21.3912 34.1542 21.8542 34.2438 22.4102 34.4152ZM39.4884 23.4012C39.4715 26.2294 40.8189 28.044 43.156 28.6377C44.6008 29.0051 46.0636 29.2996 47.5208 29.6122C47.9893 29.713 48.4276 29.6211 48.7112 29.1944C48.9825 28.7855 48.9354 28.3666 48.7403 27.9197C48.172 26.6069 47.5129 25.3143 47.1139 23.9489C46.6129 22.2407 46.3057 20.4765 45.9706 18.7202C45.7711 17.6785 44.8687 17.1812 44.0471 17.7883C43.0383 18.5309 42.0586 19.3038 41.1159 20.1203C40.0118 21.0758 39.4996 22.3326 39.4884 23.4012ZM95.7468 10.1234C95.7659 7.3231 93.6866 5.22961 90.8787 5.21617C87.9218 5.20049 85.69 7.25589 85.6766 10.0046C85.6631 12.834 88.0518 15.2692 90.8485 15.2692C93.5532 15.2759 95.7289 12.9909 95.7468 10.1234ZM21.6547 18.6608C21.6715 16.6715 20.3813 15.2927 18.4915 15.2804C16.7271 15.2703 15.2565 16.8922 15.2408 18.8647C15.2274 20.7745 16.6554 22.1836 18.6148 22.1937C20.3432 22.2038 21.6367 20.6994 21.6535 18.6631L21.6547 18.6608ZM31.0019 26.5397C30.3742 26.5543 29.9931 26.7268 29.8384 27.195C29.6837 27.6632 29.862 28.0384 30.2464 28.3151C30.4148 28.4316 30.5916 28.5353 30.7755 28.6253C31.8516 29.1854 32.9333 29.7286 34.0071 30.2909C34.6673 30.6371 35.304 31.0325 35.9754 31.3539C36.5953 31.6485 37.2914 31.4178 37.5335 30.9059C37.7924 30.3559 37.5335 29.7925 36.8609 29.4497C35.1202 28.5537 33.3861 27.6576 31.6386 26.7671C31.4322 26.6756 31.2189 26.6003 31.0008 26.5419L31.0019 26.5397ZM56.0352 44.7572C55.9231 44.541 55.866 44.4088 55.7942 44.2845C55.3212 43.4612 55.3661 42.6626 55.8514 41.8516C55.9635 41.6701 55.9265 41.4036 55.9635 41.1795C55.7102 41.2176 55.3952 41.1717 55.2159 41.3072C54.5736 41.7889 54.2799 42.4587 54.4312 43.2697C54.5825 44.0806 55.106 44.5611 56.0341 44.7594L56.0352 44.7572ZM56.8636 48.0346C55.8727 47.8005 54.9995 48.0111 54.2586 48.6607C54.1681 48.7426 54.0959 48.8426 54.0468 48.9543C53.9977 49.066 53.9729 49.1868 53.9738 49.3088C53.9748 49.4307 54.0015 49.5511 54.0524 49.662C54.1032 49.7729 54.1769 49.8718 54.2687 49.9522C54.5467 50.1886 54.8785 50.2502 55.0612 49.8693C55.4535 49.0539 56.0128 48.4233 56.8625 48.0368L56.8636 48.0346ZM16.735 9.4065C16.7355 9.31843 16.7183 9.23115 16.6846 9.14978C16.6509 9.06841 16.6012 8.99459 16.5386 8.93262C16.476 8.87066 16.4016 8.82181 16.3198 8.78893C16.2381 8.75605 16.1506 8.73981 16.0624 8.74115C15.97 8.73992 15.8783 8.75733 15.7928 8.79235C15.7073 8.82736 15.6297 8.87926 15.5647 8.94493C15.4997 9.0106 15.4486 9.0887 15.4146 9.17456C15.3805 9.26041 15.3641 9.35225 15.3664 9.44458C15.3854 9.86462 15.6387 10.0808 16.0389 10.1088C16.132 10.1128 16.2248 10.0974 16.3116 10.0636C16.3984 10.0298 16.4772 9.97839 16.5431 9.91257C16.609 9.84676 16.6604 9.76799 16.6942 9.68126C16.728 9.59453 16.7434 9.50173 16.7395 9.40874L16.735 9.4065ZM74.7735 39.8735C73.7949 39.7267 73.1672 39.9519 73.1 40.4078C73.0428 40.8032 73.4362 41.2602 73.9743 41.3464C73.6638 40.55 74.1256 40.167 74.778 39.8768L74.7735 39.8735ZM75.5738 44.1702C75.0246 44.5824 74.6233 44.9442 74.7892 45.5345C74.8452 45.7294 75.1591 45.8504 75.3496 46.005C75.4617 45.8246 75.6433 45.6476 75.6534 45.4606C75.6893 45.0708 75.6187 44.6732 75.5783 44.1747L75.5738 44.1702ZM72.5474 37.1583L72.6326 37.0676C72.4757 36.8175 72.3019 36.5783 72.1125 36.3519C72.0217 36.2566 71.83 36.2566 71.6843 36.213C71.7033 36.3731 71.6619 36.6061 71.7526 36.6823C71.9869 36.8806 72.2784 37.006 72.5474 37.1617V37.1583Z" fill="#E03823" stroke="#E03823" stroke-width="2" mask="url(#path-1-inside-1_95_3861)"/>
<path d="M95.4813 53.1039C95.0396 52.7982 94.5936 52.4945 94.1437 52.2021L94.1437 52.2021L94.1395 52.1994C93.6583 51.8933 93.1506 51.6309 92.6225 51.4153C91.2735 50.8545 89.9117 50.9488 88.6348 51.5688L95.4813 53.1039ZM95.4813 53.1039C95.0044 52.0719 94.4267 51.1609 93.5777 50.4438L93.5766 50.4429C92.3818 49.4278 91.0398 49.1198 89.5649 49.6274L89.5647 49.6274C87.8222 50.2264 86.7383 51.4896 85.799 53.0251C85.8924 52.976 85.986 52.9268 86.0796 52.8775C86.9225 52.434 87.774 51.9861 88.6345 51.5689L95.4813 53.1039Z" fill="#E03823" stroke="#E03823"/>
<path d="M23.9282 51.831C23.4091 52.1056 22.8865 52.3685 22.3595 52.6316C22.4595 52.4889 22.5621 52.3483 22.6699 52.2095C23.5402 51.0954 24.4894 50.2024 25.7804 49.7626C27.4375 49.2066 28.8827 49.5069 30.1866 50.6573C31.0403 51.4113 31.5581 52.3595 31.9911 53.4703C31.372 53.0499 30.7853 52.6512 30.1991 52.2501L30.199 52.25C29.2204 51.5808 28.1996 51.1794 27.1372 51.099C26.0728 51.0184 25.0013 51.2627 23.9282 51.831Z" fill="#E03823" stroke="#E03823"/>
<path d="M0.729752 20.2415L0.729753 20.2415L0.731093 20.241C1.57336 19.9365 2.41712 19.6736 3.25599 19.5631L3.25637 19.5631C4.42963 19.4077 5.60364 19.3145 6.79249 19.2202C6.87303 19.2138 6.95364 19.2074 7.03433 19.2009C5.8059 20.1486 4.54405 20.9847 3.11511 21.5318C2.29461 21.8459 1.22897 21.4899 0.660719 20.7165C0.486771 20.4783 0.500253 20.3767 0.50059 20.3748C0.500685 20.3746 0.500857 20.3743 0.501136 20.3738C0.502208 20.372 0.506942 20.3646 0.520057 20.3525C0.548097 20.3268 0.609654 20.2846 0.729752 20.2415Z" fill="#E03823" stroke="#E03823"/>
<path d="M6.92026 17.0109C4.95479 16.9779 3.01302 17.1222 1.08552 17.3349L1.08441 17.3351C0.989481 17.3458 0.903455 17.3541 0.823148 17.356C0.741802 17.358 0.68406 17.3527 0.645541 17.3439C0.641203 17.3429 0.637385 17.3419 0.634045 17.341C0.613309 17.2308 0.612656 17.0745 0.642146 16.9202C0.674223 16.7523 0.727768 16.6585 0.755031 16.6295L0.390485 16.2873L0.75384 16.6308C1.06801 16.2984 1.50954 16.0183 1.89558 15.9363L1.89561 15.9363C3.77775 15.5361 5.39985 16.0258 6.92026 17.0109Z" fill="#E03823" stroke="#E03823"/>
<path d="M34.372 50.2603C35.0244 49.141 36.0877 48.4659 37.0888 48.4787L37.09 48.4787C37.8155 48.4862 38.3569 48.7554 38.6898 49.3149C39.0659 49.9719 39.3983 50.653 39.6848 51.3538C39.4303 51.31 39.1847 51.2641 38.9576 51.1973C38.6983 51.121 38.5036 51.0283 38.3721 50.9156L38.3716 50.9153C37.6424 50.2921 36.8787 49.9614 36.0741 49.9241C35.4976 49.8973 34.9303 50.0226 34.372 50.2603Z" fill="#E03823" stroke="#E03823"/>
<path d="M1.05136 34.128L1.05075 34.1279C0.935068 34.109 0.86907 34.0636 0.829834 34.0169C0.78962 33.9689 0.748744 33.8848 0.746053 33.7416C0.743648 33.6137 0.779617 33.5442 0.816864 33.5014C0.858587 33.4534 0.936791 33.4002 1.07355 33.3703L1.07366 33.3703C2.36496 33.088 3.64983 32.8124 4.93903 32.5905L4.94043 32.5902C5.40969 32.5081 5.87802 32.4441 6.35121 32.3848C5.142 33.2521 3.9567 33.9856 2.49712 34.2006C2.05827 34.2648 1.56821 34.2129 1.05136 34.128Z" fill="#E03823" stroke="#E03823"/>
<path d="M1.49776 29.5406L1.49792 29.5406C3.03623 29.9971 4.60782 30.0374 6.3127 29.9023C5.65317 29.4119 5.01671 29.0138 4.31513 28.719L4.31474 28.7188C3.76725 28.4883 3.28413 28.465 2.83815 28.5755C2.38248 28.6884 1.93325 28.9494 1.47899 29.338L1.49776 29.5406ZM1.49776 29.5406C1.42599 29.5193 1.37562 29.4976 1.34162 29.4796M1.49776 29.5406L1.34162 29.4796M1.34162 29.4796C1.368 29.4441 1.4111 29.3961 1.47898 29.338L1.34162 29.4796Z" fill="#E03823" stroke="#E03823"/>
<path d="M74.0501 16.6214C73.8771 16.7177 73.7027 16.8147 73.5269 16.9125C73.5341 16.7805 73.5412 16.6487 73.5483 16.5173C73.6471 14.6957 73.7424 12.9399 73.8532 11.186C74.4597 11.0393 75.0759 10.9361 75.6971 10.877C76.2043 10.8423 76.6202 10.9448 76.9463 11.146C77.2727 11.3473 77.5418 11.6675 77.7221 12.1234C77.9221 12.6325 77.9913 13.1837 78.0688 13.8006C78.0887 13.9593 78.1092 14.1225 78.1326 14.2904C78.1302 14.3007 78.1264 14.3106 78.1214 14.32C78.1147 14.3326 78.1058 14.3439 78.0952 14.3534C76.783 15.1009 75.4603 15.8368 74.0501 16.6214Z" fill="#E03823" stroke="#E03823"/>
<path d="M55.9348 19.2536C55.5912 19.1283 55.2234 19.0281 54.8509 18.9318C54.9024 18.8747 54.9536 18.8177 55.0048 18.7609C55.744 17.9393 56.4512 17.1532 57.1722 16.3792C57.1773 16.3738 57.1915 16.3606 57.2154 16.3438C57.2391 16.3273 57.2652 16.3123 57.2898 16.3009C57.2967 16.2977 57.3029 16.2951 57.3083 16.293C58.2428 16.5393 59.1718 16.8043 60.1287 17.0793C59.1161 17.5691 58.1762 18.2002 57.3379 18.9549C57.0974 19.166 56.8798 19.28 56.6713 19.326C56.4658 19.3712 56.2295 19.3592 55.9348 19.2536Z" fill="#E03823" stroke="#E03823"/>
<path d="M24.6128 29.7686C23.7391 30.1765 23.1787 30.8707 22.6946 31.5152L22.6931 31.5172C22.5431 31.7189 22.4515 31.837 22.379 31.9124C22.3544 31.9379 22.3376 31.9524 22.3275 31.9603C22.3122 31.9589 22.2821 31.9547 22.2311 31.9418C22.1231 31.9146 21.9855 31.8668 21.7679 31.7912C21.7545 31.7865 21.7407 31.7818 21.7267 31.7769C21.0279 31.521 20.3142 31.308 19.5895 31.1392L19.5895 31.1392L19.5817 31.1375C19.1641 31.0472 18.7273 30.9931 18.2856 30.9447C18.4491 30.7447 18.6088 30.5436 18.7653 30.3466C18.9357 30.1321 19.1022 29.9224 19.2658 29.7242C19.7815 29.0992 20.3016 28.5421 20.9336 28.1099C21.4793 27.7388 21.9493 27.635 22.3528 27.7015C22.7605 27.7687 23.1877 28.0242 23.6148 28.544L23.6148 28.5441L23.6169 28.5466C23.9452 28.9408 24.2647 29.3368 24.6128 29.7686ZM22.3159 31.9684C22.3159 31.9683 22.3165 31.968 22.3175 31.9675L22.3159 31.9684Z" fill="#E03823" stroke="#E03823"/>
<path d="M43.7788 20.9659L45.4541 26.6421C45.3942 26.6312 45.3343 26.6205 45.2747 26.6098C45.0685 26.5727 44.8652 26.5361 44.6718 26.4985C44.1433 26.3958 43.6382 26.277 43.1649 26.0977L43.1628 26.0969C41.796 25.5859 41.2786 23.6294 42.2683 22.4002C42.5534 22.0526 42.8919 21.7334 43.2581 21.4129C43.3873 21.2998 43.5242 21.1831 43.6632 21.0646C43.7016 21.0318 43.7402 20.9989 43.7788 20.9659Z" fill="#E03823" stroke="#E03823"/>
<path d="M90.8303 12.9838L90.8317 12.9838C92.2012 13.0083 93.3971 11.8092 93.4345 10.1758C93.4532 9.35897 93.1963 8.69569 92.7708 8.23589C92.3466 7.77742 91.7247 7.48822 90.9476 7.47127L90.8303 12.9838ZM90.8303 12.9838C89.338 12.961 87.9637 11.5531 87.9835 10.0808L87.9835 10.0803M90.8303 12.9838L87.9835 10.0803M87.9835 10.0803C88.002 8.60321 89.2532 7.43503 90.9475 7.47127L87.9835 10.0803Z" fill="#E03823" stroke="#E03823"/>
<path d="M19.4089 19.1334L19.4088 19.1337C19.3207 19.5301 19.1595 19.7715 18.9919 19.901C18.8337 20.0232 18.6239 20.0824 18.3423 20.0294C18.0454 19.9699 17.783 19.7979 17.6101 19.5496C17.437 19.301 17.3669 18.9953 17.4144 18.6964C17.5096 18.1245 17.7617 17.7655 18.0289 17.5944C18.2815 17.4326 18.6098 17.3966 18.992 17.591L18.9927 17.5914C19.1928 17.6928 19.292 17.7953 19.3554 17.9252C19.426 18.0695 19.4763 18.2974 19.4755 18.6918C19.4718 18.7197 19.4684 18.7491 19.4647 18.78C19.4529 18.8806 19.4391 18.9977 19.4089 19.1334Z" fill="#E03823" stroke="#E03823"/>
</svg>
