<svg width="25" height="24" viewBox="0 0 25 24" fill="none" xmlns="http://www.w3.org/2000/svg">
<g clip-path="url(#clip0_9614_2500)">
<path d="M2.51945 1.1936C4.34183 3.76385 6.12428 6.27909 7.92955 8.82597C7.46326 9.22065 7.00981 9.61808 6.53924 9.99626C6.34245 10.153 6.31536 10.3043 6.38666 10.5326C6.76882 11.7634 7.48465 12.8099 8.32169 13.7836C9.64926 15.3307 11.175 16.6564 13.0673 17.5434C13.3753 17.6878 13.709 17.7785 14.0284 17.8995C14.2594 17.9876 14.4277 17.9298 14.5874 17.7441C14.9268 17.3481 15.2861 16.9658 15.6397 16.5807C15.7011 16.5147 15.7752 16.4583 15.8636 16.3799C18.4617 18.1017 21.0484 19.8152 23.6765 21.5562C23.4783 21.7556 23.3029 21.9357 23.1232 22.1118C22.9478 22.2823 22.7539 22.4377 22.5927 22.6192C21.6587 23.6768 20.3925 23.9986 19.0464 23.9999C15.2576 24.0054 11.667 23.2449 8.52133 21.0969C5.80772 19.2445 3.47769 16.9974 1.96902 14.1177C0.444668 11.2147 -0.259758 8.09986 0.0867512 4.81863C0.185143 3.87937 0.555893 3.05975 1.29597 2.40653C1.71378 2.03798 2.0888 1.62404 2.51945 1.1936Z" fill="#DF3920"/>
<path d="M16.2578 15.9317C16.6557 15.5151 16.9765 15.0736 17.3986 14.7614C18.1002 14.2416 18.9058 14.3283 19.6602 14.6638C20.1065 14.8618 20.5115 15.1561 20.9136 15.4353C21.9617 16.16 23.0183 16.8765 24.0364 17.6425C24.9562 18.3342 25.2129 19.2102 24.8336 20.2691C24.7152 20.5992 24.4471 20.8783 24.2218 21.2221C21.5439 19.4426 18.9258 17.7044 16.2592 15.9331L16.2578 15.9317Z" fill="#DF3920"/>
<path d="M8.44816 8.41085C7.71664 7.3822 7.01364 6.39343 6.31207 5.40466C5.28822 3.96208 4.26866 2.51812 3.23769 1.08103C3.10222 0.892632 3.11363 0.779866 3.27761 0.617592C4.09469 -0.188275 5.57484 -0.226781 6.37766 0.620343C7.06212 1.3437 7.67244 2.13444 8.28417 2.91968C8.73906 3.50276 9.15259 4.11885 9.56897 4.72807C9.89551 5.20664 10.0752 5.73609 10.0524 6.31367C10.0324 6.81149 9.86414 7.25018 9.44919 7.58023C9.12121 7.84014 8.80465 8.11381 8.44959 8.40948L8.44816 8.41085Z" fill="#DF3920"/>
</g>
<defs>
<clipPath id="clip0_9614_2500">
<rect width="25" height="24" rx="12" fill="white"/>
</clipPath>
</defs>
</svg>
