<svg width="32" height="32" viewBox="0 0 32 32" fill="none" xmlns="http://www.w3.org/2000/svg">
<path d="M16 32C24.8366 32 32 24.8366 32 16C32 7.16344 24.8366 0 16 0C7.16344 0 0 7.16344 0 16C0 24.8366 7.16344 32 16 32Z" fill="#043BFF"/>
<path d="M10.8306 17.1695L12.7288 22.4236C12.7288 22.4236 12.9662 22.9152 13.2203 22.9152C13.4744 22.9152 17.2543 18.9829 17.2543 18.9829L21.4576 10.8643L10.8983 15.8132L10.8306 17.1695Z" fill="white"/>
<path d="M13.3473 18.5171L12.9829 22.3899C12.9829 22.3899 12.8304 23.5766 14.0168 22.3899C15.2032 21.2032 16.3388 20.2882 16.3388 20.2882" fill="white"/>
<path d="M10.8648 17.3569L6.95998 16.0846C6.95998 16.0846 6.49332 15.8953 6.64358 15.466C6.67452 15.3774 6.73691 15.3021 6.92358 15.1726C7.78878 14.5696 22.9377 9.12463 22.9377 9.12463C22.9377 9.12463 23.3654 8.98049 23.6177 9.07636C23.6801 9.09568 23.7363 9.13123 23.7804 9.17937C23.8246 9.22751 23.8552 9.28652 23.869 9.35036C23.8963 9.46311 23.9077 9.57912 23.9029 9.69503C23.9017 9.79529 23.8896 9.88823 23.8804 10.034C23.7881 11.5226 21.027 22.633 21.027 22.633C21.027 22.633 20.8618 23.2832 20.27 23.3054C20.1245 23.3101 19.9796 23.2855 19.8439 23.233C19.7082 23.1805 19.5844 23.1012 19.48 22.9998C18.3185 22.0008 14.3041 19.3029 13.417 18.7096C13.397 18.6959 13.3802 18.6782 13.3676 18.6575C13.3551 18.6368 13.3471 18.6136 13.3442 18.5896C13.3318 18.527 13.3998 18.4496 13.3998 18.4496C13.3998 18.4496 20.39 12.2362 20.576 11.584C20.5904 11.5334 20.536 11.5085 20.4629 11.5306C19.9986 11.7014 11.9504 16.784 11.0621 17.3449C10.9982 17.3642 10.9306 17.3683 10.8648 17.3569Z" fill="white"/>
</svg>
