<svg width="32" height="32" viewBox="0 0 32 32" fill="none" xmlns="http://www.w3.org/2000/svg">
<path d="M0 32L2.26055 23.7833C0.864009 21.3729 0.130453 18.6386 0.133827 15.856C0.137508 7.11288 7.28447 0 16.067 0C20.3289 0.00215581 24.3292 1.65329 27.3377 4.65052C30.3462 7.64774 32.0015 11.6317 32 15.8687C31.9961 24.6112 24.8481 31.7253 16.0668 31.7253H16.0599C13.3935 31.7243 10.7735 31.0583 8.44625 29.795L0 32Z" fill="#043BFF"/>
<path d="M16.0717 2.67826C8.76691 2.67826 2.82634 8.59014 2.82374 15.8567C2.82015 18.3381 3.52203 20.7698 4.84825 22.8707L5.16333 23.3693L3.82528 28.2324L8.83751 26.924L9.32149 27.2095C11.3542 28.4105 13.6849 29.0456 16.0618 29.0468H16.0668C23.366 29.0468 29.3065 23.1343 29.3093 15.8673C29.3148 14.1352 28.9752 12.4193 28.31 10.8188C27.6448 9.21829 26.6674 7.76505 25.4342 6.5432C24.2079 5.31466 22.7489 4.34049 21.1419 3.67707C19.5348 3.01365 17.8115 2.67416 16.0717 2.67826Z" fill="#043BFF"/>
<path fill-rule="evenodd" clip-rule="evenodd" d="M12.0847 9.22667C11.7863 8.56678 11.4723 8.55341 11.1888 8.54198L10.4257 8.53271C10.1602 8.53271 9.72886 8.63188 9.36419 9.02855C8.99952 9.42522 7.9707 10.3839 7.9707 12.3338C7.9707 14.2838 9.39732 16.168 9.59612 16.4327C9.79491 16.6974 12.3502 20.8264 16.3968 22.4151C19.7596 23.7353 20.4439 23.4727 21.1741 23.4067C21.9043 23.3408 23.5295 22.448 23.861 21.5226C24.1926 20.5971 24.1928 19.8042 24.0934 19.6384C23.994 19.4726 23.7285 19.3741 23.33 19.1757C22.9316 18.9774 20.9746 18.0187 20.6098 17.8863C20.2449 17.754 19.9796 17.6882 19.7139 18.0849C19.4482 18.4816 18.6862 19.3739 18.4538 19.6384C18.2215 19.9029 17.9895 19.9361 17.5911 19.738C17.1926 19.5399 15.9107 19.1212 14.3896 17.771C13.2062 16.7205 12.4073 15.4231 12.1748 15.0267C11.9422 14.6302 12.1501 14.4155 12.3497 14.218C12.5284 14.0404 12.7478 13.7552 12.9472 13.5238C13.1466 13.2925 13.2123 13.1272 13.3448 12.8631C13.4773 12.599 13.4113 12.367 13.3117 12.1689C13.212 11.9708 12.4385 10.0105 12.0847 9.22667Z" fill="white"/>
</svg>
